<?xml version="1.0" encoding="UTF-8"?>
<svg width="180px" height="184px" viewBox="0 0 180 184" version="1.1" xmlns="http://www.w3.org/2000/svg" xmlns:xlink="http://www.w3.org/1999/xlink">
    <title>0-result</title>
    <defs>
        <ellipse id="path-1" cx="89.8796791" cy="90" rx="89.8796791" ry="90"></ellipse>
    </defs>
    <g id="0-result" stroke="none" stroke-width="1" fill="none" fill-rule="evenodd">
        <g>
            <mask id="mask-2" fill="white">
                <use xlink:href="#path-1"></use>
            </mask>
            <use id="Mask" fill="#F7F7F7" xlink:href="#path-1"></use>
            <path d="M102.915082,75.3852954 L28.6283967,75.3852954 C25.2148204,75.3852954 22.4378397,78.6658742 22.4378397,82.6984936 L22.4378397,160.705941 C22.4378397,164.73856 25.2148204,168.019139 28.6283967,168.019139 L102.915082,168.019139 C106.328658,168.019139 109.105639,164.73856 109.105639,160.705941 L109.105639,82.6984936 C109.105639,78.6658742 106.328658,75.3852954 102.915082,75.3852954 Z" id="Shape" fill="#FFFFFF" fill-rule="nonzero"></path>
            <path d="M26.6769701,75.3852954 L104.866508,75.3852954 C107.207715,75.3852954 109.105639,77.2832187 109.105639,79.6244258 L109.105639,123.957792 L22.4378397,123.957792 L22.4378397,79.6244258 C22.4378397,77.2832187 24.335763,75.3852954 26.6769701,75.3852954 Z" id="Rectangle" fill="#EAEBEC"></path>
            <path d="M56.1844429,135.03795 L31.4222147,135.03795 C30.2816045,135.03795 29.3586957,134.115921 29.3586957,132.976398 C29.3586957,131.836876 30.2816045,130.914847 31.4222147,130.914847 L56.1844429,130.914847 C57.3250531,130.914847 58.247962,131.836876 58.247962,132.976398 C58.247962,134.115921 57.3250531,135.03795 56.1844429,135.03795 Z" id="Shape" fill="#EAEBEC" fill-rule="nonzero"></path>
            <path d="M102.915082,73.8852954 C107.21764,73.8852954 110.605639,77.8876988 110.605639,82.6984936 L110.605639,160.705941 C110.605639,165.516736 107.21764,169.519139 102.915082,169.519139 L28.6283967,169.519139 C24.3258385,169.519139 20.9378397,165.516736 20.9378397,160.705941 L20.9378397,82.6984936 C20.9378397,77.8876988 24.3258385,73.8852954 28.6283967,73.8852954 L102.915082,73.8852954 Z" id="Shape" stroke="#FFFFFF" stroke-width="3" fill-rule="nonzero"></path>
            <path d="M102.915082,74.2983389 L102.915082,76.4722519 L98.5672555,76.4722519 L98.5672555,74.2983389 L102.915082,74.2983389 Z M94.2194295,74.2983389 L94.2194295,76.4722519 L89.8716035,76.4722519 L89.8716035,74.2983389 L94.2194295,74.2983389 Z M85.5237775,74.2983389 L85.5237775,76.4722519 L81.1759515,76.4722519 L81.1759515,74.2983389 L85.5237775,74.2983389 Z M76.8281255,74.2983389 L76.8281255,76.4722519 L72.4802995,76.4722519 L72.4802995,74.2983389 L76.8281255,74.2983389 Z M68.1324735,74.2983389 L68.1324735,76.4722519 L63.7846475,76.4722519 L63.7846475,74.2983389 L68.1324735,74.2983389 Z M59.4368215,74.2983389 L59.4368215,76.4722519 L55.0889955,76.4722519 L55.0889955,74.2983389 L59.4368215,74.2983389 Z M50.7411695,74.2983389 L50.7411695,76.4722519 L46.3933435,76.4722519 L46.3933435,74.2983389 L50.7411695,74.2983389 Z M42.0455175,74.2983389 L42.0455175,76.4722519 L37.6976915,76.4722519 L37.6976915,74.2983389 L42.0455175,74.2983389 Z M33.3498655,74.2983389 L33.3498655,76.4722519 L29.0020395,76.4722519 L29.0020395,74.2983389 L33.3498655,74.2983389 Z M24.2098713,76.0230247 L25.6488453,77.652519 C24.7580069,78.4392006 24.0882335,79.5581371 23.7569992,80.8441106 L21.6517993,80.3018643 C22.089546,78.6023701 22.987188,77.1027519 24.2098713,76.0230247 Z M21.3508832,84.8135521 L23.5247962,84.8135521 L23.5247962,89.1613781 L21.3508832,89.1613781 L21.3508832,84.8135521 Z M21.3508832,93.5092041 L23.5247962,93.5092041 L23.5247962,97.8570301 L21.3508832,97.8570301 L21.3508832,93.5092041 Z M21.3508832,102.204856 L23.5247962,102.204856 L23.5247962,106.552682 L21.3508832,106.552682 L21.3508832,102.204856 Z M21.3508832,110.900508 L23.5247962,110.900508 L23.5247962,115.248334 L21.3508832,115.248334 L21.3508832,110.900508 Z M21.3508832,119.59616 L23.5247962,119.59616 L23.5247962,123.943986 L21.3508832,123.943986 L21.3508832,119.59616 Z M21.3508832,128.291812 L23.5247962,128.291812 L23.5247962,132.639638 L21.3508832,132.639638 L21.3508832,128.291812 Z M21.3508832,136.987464 L23.5247962,136.987464 L23.5247962,141.33529 L21.3508832,141.33529 L21.3508832,136.987464 Z M21.3508832,145.683116 L23.5247962,145.683116 L23.5247962,150.030942 L21.3508832,150.030942 L21.3508832,145.683116 Z M21.3508832,154.378768 L23.5247962,154.378768 L23.5247962,158.726594 L21.3508832,158.726594 L21.3508832,154.378768 Z M21.7198336,163.352299 L23.8091492,162.75175 C24.1760961,164.028364 24.8792106,165.124833 25.7945282,165.875963 L24.4154697,167.556467 C23.152368,166.519938 22.2062345,165.044494 21.7198336,163.352299 Z M29.1377513,169.106096 L29.1377513,166.932183 L33.4855773,166.932183 L33.4855773,169.106096 L29.1377513,169.106096 Z M37.8334033,169.106096 L37.8334033,166.932183 L42.1812293,166.932183 L42.1812293,169.106096 L37.8334033,169.106096 Z M46.5290553,169.106096 L46.5290553,166.932183 L50.8768813,166.932183 L50.8768813,169.106096 L46.5290553,169.106096 Z M55.2247073,169.106096 L55.2247073,166.932183 L59.5725333,166.932183 L59.5725333,169.106096 L55.2247073,169.106096 Z M63.9203593,169.106096 L63.9203593,166.932183 L68.2681853,166.932183 L68.2681853,169.106096 L63.9203593,169.106096 Z M72.6160113,169.106096 L72.6160113,166.932183 L76.9638373,166.932183 L76.9638373,169.106096 L72.6160113,169.106096 Z M81.3116633,169.106096 L81.3116633,166.932183 L85.6594893,166.932183 L85.6594893,169.106096 L81.3116633,169.106096 Z M90.0073154,169.106096 L90.0073154,166.932183 L94.3551414,166.932183 L94.3551414,169.106096 L90.0073154,169.106096 Z M98.7029674,169.106096 L98.7029674,166.932183 L102.915082,166.932183 C102.969132,166.931952 102.969132,166.931952 103.022963,166.930808 L103.078411,169.104013 C102.996866,169.105748 102.996866,169.105748 102.915082,169.106096 L98.7029674,169.106096 Z M107.787674,166.945735 L106.219791,165.439866 C107.050318,164.575137 107.640567,163.409112 107.888171,162.105068 L110.023926,162.510591 C109.698774,164.223057 108.914358,165.772652 107.787674,166.945735 Z M110.192595,158.081528 L108.018682,158.081528 L108.018682,153.733702 L110.192595,153.733702 L110.192595,158.081528 Z M110.192595,149.385876 L108.018682,149.385876 L108.018682,145.03805 L110.192595,145.03805 L110.192595,149.385876 Z M110.192595,140.690224 L108.018682,140.690224 L108.018682,136.342398 L110.192595,136.342398 L110.192595,140.690224 Z M110.192595,131.994572 L108.018682,131.994572 L108.018682,127.646746 L110.192595,127.646746 L110.192595,131.994572 Z M110.192595,123.29892 L108.018682,123.29892 L108.018682,118.951094 L110.192595,118.951094 L110.192595,123.29892 Z M110.192595,114.603268 L108.018682,114.603268 L108.018682,110.255442 L110.192595,110.255442 L110.192595,114.603268 Z M110.192595,105.907616 L108.018682,105.907616 L108.018682,101.55979 L110.192595,101.55979 L110.192595,105.907616 Z M110.192595,97.2119637 L108.018682,97.2119637 L108.018682,92.8641377 L110.192595,92.8641377 L110.192595,97.2119637 Z M110.192595,88.5163117 L108.018682,88.5163117 L108.018682,84.1684857 L110.192595,84.1684857 L110.192595,88.5163117 Z M109.644541,79.4959714 L107.597533,80.2278567 C107.150248,78.9768464 106.373968,77.9368755 105.406864,77.2708353 L106.6399,75.4804392 C107.992005,76.4116265 109.047191,77.8252454 109.644541,79.4959714 Z" id="Shape" fill="#D6D8DA" fill-rule="nonzero"></path>
            <path d="M76.8196332,143.768371 L31.4222147,143.768371 C30.2816045,143.768371 29.3586957,142.846343 29.3586957,141.70682 C29.3586957,140.567297 30.2816045,139.645269 31.4222147,139.645269 L76.8196332,139.645269 C77.9602433,139.645269 78.8831522,140.567297 78.8831522,141.70682 C78.8831522,142.846343 77.9602433,143.768371 76.8196332,143.768371 Z" id="Shape" fill="#EAEBEC" fill-rule="nonzero"></path>
            <path d="M98.28125,161.342244 L32.96875,161.342244 C31.3277734,161.342244 30,159.389903 30,156.977033 C30,154.564163 31.3277734,152.611822 32.96875,152.611822 L98.28125,152.611822 C99.9222266,152.611822 101.25,154.564163 101.25,156.977033 C101.25,159.389903 99.9222266,161.342244 98.28125,161.342244 Z" id="Shape-Copy" fill="#7290FF" fill-rule="nonzero"></path>
            <path d="M151.972837,75.8571543 L77.6861526,75.8571543 C74.2725763,75.8571543 71.4955956,79.1377331 71.4955956,83.1703525 L71.4955956,161.1778 C71.4955956,165.210419 74.2725763,168.490998 77.6861526,168.490998 L151.972837,168.490998 C155.386414,168.490998 158.163394,165.210419 158.163394,161.1778 L158.163394,83.1703525 C158.163394,79.1377331 155.386414,75.8571543 151.972837,75.8571543 Z" id="Shape" fill="#FFFFFF" fill-rule="nonzero" transform="translate(114.829495, 122.174076) rotate(18.000000) translate(-114.829495, -122.174076) "></path>
            <path d="M82.5334771,76.9354122 L160.723015,76.9354122 C163.064222,76.9354122 164.962146,78.8333355 164.962146,81.1745426 L164.962146,125.507909 L78.2943467,125.507909 L78.2943467,81.1745426 C78.2943467,78.8333355 80.19227,76.9354122 82.5334771,76.9354122 Z" id="Rectangle" fill="#EAEBEC" transform="translate(121.628246, 101.221661) rotate(18.000000) translate(-121.628246, -101.221661) "></path>
            <path d="M102.838153,128.160311 L78.0759252,128.160311 C76.935315,128.160311 76.0124062,127.238282 76.0124062,126.09876 C76.0124062,124.959237 76.935315,124.037208 78.0759252,124.037208 L102.838153,124.037208 C103.978764,124.037208 104.901672,124.959237 104.901672,126.09876 C104.901672,127.238282 103.978764,128.160311 102.838153,128.160311 Z" id="Shape" fill="#EAEBEC" fill-rule="nonzero" transform="translate(90.457039, 126.098760) rotate(18.000000) translate(-90.457039, -126.098760) "></path>
            <path d="M151.972837,74.3571543 C156.275396,74.3571543 159.663394,78.3595577 159.663394,83.1703525 L159.663394,161.1778 C159.663394,165.988595 156.275396,169.990998 151.972837,169.990998 L77.6861526,169.990998 C73.3835944,169.990998 69.9955956,165.988595 69.9955956,161.1778 L69.9955956,83.1703525 C69.9955956,78.3595577 73.3835944,74.3571543 77.6861526,74.3571543 L151.972837,74.3571543 Z" id="outline" stroke="#FFFFFF" stroke-width="3" fill-rule="nonzero" transform="translate(114.829495, 122.174076) rotate(18.000000) translate(-114.829495, -122.174076) "></path>
            <path d="M151.972837,74.7701978 L151.972837,76.9441108 L147.625011,76.9441108 L147.625011,74.7701978 L151.972837,74.7701978 Z M143.277185,74.7701978 L143.277185,76.9441108 L138.929359,76.9441108 L138.929359,74.7701978 L143.277185,74.7701978 Z M134.581533,74.7701978 L134.581533,76.9441108 L130.233707,76.9441108 L130.233707,74.7701978 L134.581533,74.7701978 Z M125.885881,74.7701978 L125.885881,76.9441108 L121.538055,76.9441108 L121.538055,74.7701978 L125.885881,74.7701978 Z M117.190229,74.7701978 L117.190229,76.9441108 L112.842403,76.9441108 L112.842403,74.7701978 L117.190229,74.7701978 Z M108.494577,74.7701978 L108.494577,76.9441108 L104.146751,76.9441108 L104.146751,74.7701978 L108.494577,74.7701978 Z M99.7989254,74.7701978 L99.7989254,76.9441108 L95.4510994,76.9441108 L95.4510994,74.7701978 L99.7989254,74.7701978 Z M91.1032733,74.7701978 L91.1032733,76.9441108 L86.7554473,76.9441108 L86.7554473,74.7701978 L91.1032733,74.7701978 Z M82.4076213,74.7701978 L82.4076213,76.9441108 L78.0597953,76.9441108 L78.0597953,74.7701978 L82.4076213,74.7701978 Z M73.2676272,76.4948836 L74.7066012,78.1243779 C73.8157628,78.9110595 73.1459894,80.029996 72.8147551,81.3159695 L70.7095551,80.7737232 C71.1473019,79.0742289 72.0449439,77.5746108 73.2676272,76.4948836 Z M70.408639,85.285411 L72.5825521,85.285411 L72.5825521,89.633237 L70.408639,89.633237 L70.408639,85.285411 Z M70.408639,93.981063 L72.5825521,93.981063 L72.5825521,98.328889 L70.408639,98.328889 L70.408639,93.981063 Z M70.408639,102.676715 L72.5825521,102.676715 L72.5825521,107.024541 L70.408639,107.024541 L70.408639,102.676715 Z M70.408639,111.372367 L72.5825521,111.372367 L72.5825521,115.720193 L70.408639,115.720193 L70.408639,111.372367 Z M70.408639,120.068019 L72.5825521,120.068019 L72.5825521,124.415845 L70.408639,124.415845 L70.408639,120.068019 Z M70.408639,128.763671 L72.5825521,128.763671 L72.5825521,133.111497 L70.408639,133.111497 L70.408639,128.763671 Z M70.408639,137.459323 L72.5825521,137.459323 L72.5825521,141.807149 L70.408639,141.807149 L70.408639,137.459323 Z M70.408639,146.154975 L72.5825521,146.154975 L72.5825521,150.502801 L70.408639,150.502801 L70.408639,146.154975 Z M70.408639,154.850627 L72.5825521,154.850627 L72.5825521,159.198453 L70.408639,159.198453 L70.408639,154.850627 Z M70.7775895,163.824158 L72.8669051,163.223609 C73.233852,164.500222 73.9369665,165.596692 74.8522841,166.347821 L73.4732256,168.028326 C72.2101238,166.991797 71.2639904,165.516353 70.7775895,163.824158 Z M78.1955072,169.577954 L78.1955072,167.404041 L82.5433332,167.404041 L82.5433332,169.577954 L78.1955072,169.577954 Z M86.8911592,169.577954 L86.8911592,167.404041 L91.2389852,167.404041 L91.2389852,169.577954 L86.8911592,169.577954 Z M95.5868112,169.577954 L95.5868112,167.404041 L99.9346372,167.404041 L99.9346372,169.577954 L95.5868112,169.577954 Z M104.282463,169.577954 L104.282463,167.404041 L108.630289,167.404041 L108.630289,169.577954 L104.282463,169.577954 Z M112.978115,169.577954 L112.978115,167.404041 L117.325941,167.404041 L117.325941,169.577954 L112.978115,169.577954 Z M121.673767,169.577954 L121.673767,167.404041 L126.021593,167.404041 L126.021593,169.577954 L121.673767,169.577954 Z M130.369419,169.577954 L130.369419,167.404041 L134.717245,167.404041 L134.717245,169.577954 L130.369419,169.577954 Z M139.065071,169.577954 L139.065071,167.404041 L143.412897,167.404041 L143.412897,169.577954 L139.065071,169.577954 Z M147.760723,169.577954 L147.760723,167.404041 L151.972837,167.404041 C152.026888,167.403811 152.026888,167.403811 152.080719,167.402667 L152.136167,169.575872 C152.054621,169.577606 152.054621,169.577606 151.972837,169.577954 L147.760723,169.577954 Z M156.84543,167.417594 L155.277547,165.911725 C156.108074,165.046996 156.698323,163.880971 156.945927,162.576927 L159.081682,162.98245 C158.75653,164.694916 157.972114,166.244511 156.84543,167.417594 Z M159.250351,158.553387 L157.076438,158.553387 L157.076438,154.205561 L159.250351,154.205561 L159.250351,158.553387 Z M159.250351,149.857735 L157.076438,149.857735 L157.076438,145.509909 L159.250351,145.509909 L159.250351,149.857735 Z M159.250351,141.162083 L157.076438,141.162083 L157.076438,136.814257 L159.250351,136.814257 L159.250351,141.162083 Z M159.250351,132.466431 L157.076438,132.466431 L157.076438,128.118605 L159.250351,128.118605 L159.250351,132.466431 Z M159.250351,123.770779 L157.076438,123.770779 L157.076438,119.422953 L159.250351,119.422953 L159.250351,123.770779 Z M159.250351,115.075127 L157.076438,115.075127 L157.076438,110.727301 L159.250351,110.727301 L159.250351,115.075127 Z M159.250351,106.379475 L157.076438,106.379475 L157.076438,102.031649 L159.250351,102.031649 L159.250351,106.379475 Z M159.250351,97.6838226 L157.076438,97.6838226 L157.076438,93.3359966 L159.250351,93.3359966 L159.250351,97.6838226 Z M159.250351,88.9881706 L157.076438,88.9881706 L157.076438,84.6403446 L159.250351,84.6403446 L159.250351,88.9881706 Z M158.702297,79.9678303 L156.655289,80.6997156 C156.208004,79.4487053 155.431724,78.4087344 154.46462,77.7426942 L155.697656,75.9522981 C157.049761,76.8834854 158.104947,78.2971042 158.702297,79.9678303 Z" id="Shape" fill="#D6D8DA" fill-rule="nonzero" transform="translate(114.829495, 122.174076) rotate(18.000000) translate(-114.829495, -122.174076) "></path>
            <path d="M120.274123,139.656016 L74.8767042,139.656016 C73.7360941,139.656016 72.8131852,138.733987 72.8131852,137.594464 C72.8131852,136.454942 73.7360941,135.532913 74.8767042,135.532913 L120.274123,135.532913 C121.414733,135.532913 122.337642,136.454942 122.337642,137.594464 C122.337642,138.733987 121.414733,139.656016 120.274123,139.656016 Z" id="Shape" fill="#EAEBEC" fill-rule="nonzero" transform="translate(97.575413, 137.594464) rotate(18.000000) translate(-97.575413, -137.594464) "></path>
            <path d="M136.460243,160.042225 L71.1477431,160.042225 C69.5067665,160.042225 68.1789931,158.089884 68.1789931,155.677014 C68.1789931,153.264144 69.5067665,151.311803 71.1477431,151.311803 L136.460243,151.311803 C138.10122,151.311803 139.428993,153.264144 139.428993,155.677014 C139.428993,158.089884 138.10122,160.042225 136.460243,160.042225 Z" id="Shape-Copy" fill="#7290FF" fill-rule="nonzero" transform="translate(103.803993, 155.677014) rotate(18.000000) translate(-103.803993, -155.677014) "></path>
        </g>
    </g>
</svg>