<svg width="80px" height="80px" viewBox="0 0 80 80" version="1.1" xmlns="http://www.w3.org/2000/svg" xmlns:xlink="http://www.w3.org/1999/xlink">
    <title>Fine-dine-in</title>
    <defs></defs>
    <g id="Page-1" stroke="none" stroke-width="1" fill="none" fill-rule="evenodd">
        <g id="Fine-dine-in">
            <circle id="Oval" fill="#E8C776" cx="40" cy="40" r="40"></circle>
            <path d="M51.1781284,32.3799557 C51.7104494,32.8159519 52.3620582,33.034 53.1390825,33.034 C53.4421355,33.034 53.7593241,32.9781748 54.0909931,32.8659176 C54.4231195,32.7535056 54.6940771,32.6167606 54.9024093,32.4580522 C55.0786526,32.3195754 55.2873787,32.25 55.5230825,32.25 C55.7608934,32.25 55.9569673,32.315358 56.0991102,32.4447668 C56.323488,32.6317483 56.4410825,32.8538714 56.4410825,33.104 C56.4410825,33.344751 56.3324167,33.5484994 56.1283648,33.7014666 C55.7513225,34.0008826 55.2853041,34.2435431 54.7309387,34.4301611 C54.1773794,34.6165078 53.6466738,34.71 53.1390825,34.71 C52.23992,34.71 51.4311876,34.5146939 50.7151838,34.1236456 C49.9978542,33.7318733 49.4364563,33.1870684 49.0332921,32.491196 C48.6303759,31.7957516 48.4290825,31.0071229 48.4290825,30.128 C48.4290825,29.2502785 48.619003,28.4603194 48.9992794,27.7603904 C49.3804224,27.0588663 49.9120281,26.5106479 50.5920937,26.1180897 C51.2714855,25.7259205 52.0413703,25.53 52.8990825,25.53 C53.7468058,25.53 54.4830513,25.7182131 55.1049292,26.0957819 C55.7269533,26.4734393 56.2051848,27.0017184 56.537685,27.6778021 C56.868239,28.3499285 57.0330825,29.1191982 57.0330825,29.984 C57.0330825,30.2268854 56.9475723,30.4340831 56.7790488,30.596125 C56.6115925,30.7571406 56.3981238,30.838 56.1470825,30.838 L50.2472177,30.838 C50.3812747,31.468611 50.6908644,31.9808632 51.1781284,32.3799557 Z" id="Path" fill="#333D47"></path>
            <path d="M54.5063339,27.8033673 C54.0981979,27.4051858 53.565376,27.206 52.8990825,27.206 C52.155189,27.206 51.5585548,27.4073955 51.1021209,27.8086561 C50.6834333,28.1767331 50.4051957,28.6584021 50.2668107,29.258 L55.2357404,29.258 C55.1269523,28.6549733 54.8836997,28.171529 54.5063339,27.8033673 Z" id="Path" fill="#E8C776"></path>
            <path d="M40.9076471,25.8046195 C41.3948757,25.6108354 41.9150203,25.514 42.4670825,25.514 C43.2275819,25.514 43.9136249,25.6799782 44.5229103,26.0123157 C45.1353735,26.3463865 45.6148116,26.8341869 45.9591163,27.4728166 C46.3023026,28.1093718 46.4730825,28.8723724 46.4730825,29.76 L46.4730825,33.696 C46.4730825,33.9696936 46.3805208,34.2026937 46.1971485,34.386066 C46.0137762,34.5694383 45.7807761,34.662 45.5070825,34.662 C45.2333889,34.662 45.0003888,34.5694383 44.8170165,34.386066 C44.6336442,34.2026937 44.5410825,33.9696936 44.5410825,33.696 L44.5410825,29.76 C44.5410825,28.9341685 44.3230674,28.320218 43.8915408,27.9085316 C43.4569548,27.4939266 42.8782676,27.286 42.1470825,27.286 C41.7215707,27.286 41.3362693,27.3716225 40.9893834,27.5425518 C40.6443192,27.7125835 40.3765565,27.9406776 40.1835589,28.2276996 C39.9923293,28.5120924 39.8970825,28.8295817 39.8970825,29.184 L39.8970825,33.696 C39.8970825,33.9686325 39.8080147,34.200845 39.6309927,34.3841892 C39.4522744,34.5692903 39.2157049,34.662 38.9310825,34.662 C38.6573889,34.662 38.4243888,34.5694383 38.2410165,34.386066 C38.0576442,34.2026937 37.9650825,33.9696936 37.9650825,33.696 L37.9650825,26.56 C37.9650825,26.2753777 38.0577922,26.0388081 38.2428933,25.8600898 C38.4262376,25.6830678 38.65845,25.594 38.9310825,25.594 C39.2146639,25.594 39.4504193,25.6832048 39.6291485,25.861934 C39.7742492,26.0070346 39.8603448,26.189721 39.8876064,26.40507 C40.1875862,26.1559186 40.5277844,25.9557013 40.9076471,25.8046195 Z" id="Path" fill="#333D47"></path>
            <path d="M34.2590825,34.646 C33.9853889,34.646 33.7523888,34.5534383 33.5690165,34.370066 C33.3856442,34.1866937 33.2930825,33.9536936 33.2930825,33.68 L33.2930825,26.56 C33.2930825,26.2753777 33.3857922,26.0388081 33.5708933,25.8600898 C33.7542376,25.6830678 33.98645,25.594 34.2590825,25.594 C34.5426639,25.594 34.7784193,25.6832048 34.9571485,25.861934 C35.1358778,26.0406632 35.2250825,26.2764187 35.2250825,26.56 L35.2250825,33.68 C35.2250825,33.9526325 35.1360147,34.184845 34.9589927,34.3681892 C34.7802744,34.5532903 34.5437049,34.646 34.2590825,34.646 Z" id="Path" fill="#333D47"></path>
            <path d="M34.2590825,24.47 C33.9310598,24.47 33.6449827,24.3500322 33.4090165,24.114066 C33.1730503,23.8780998 33.0530825,23.5920228 33.0530825,23.264 C33.0530825,22.9359772 33.1730503,22.6499002 33.4090165,22.413934 C33.6449827,22.1779678 33.9310598,22.058 34.2590825,22.058 C34.5871053,22.058 34.8731824,22.1779678 35.1091485,22.413934 C35.3451147,22.6499002 35.4650825,22.9359772 35.4650825,23.264 C35.4650825,23.5920228 35.3451147,23.8780998 35.1091485,24.114066 C34.8731824,24.3500322 34.5871053,24.47 34.2590825,24.47 Z" id="Path" fill="#333D47"></path>
            <path d="M12.7790825,54.0460015 C12.5050315,54.0460015 12.2694407,53.9504917 12.0810165,53.7620675 C11.8925923,53.5736434 11.7970825,53.3380525 11.7970825,53.0640015 L11.7970825,42.2320015 C11.7970825,41.9470641 11.8927493,41.7078972 12.0828292,41.5241533 C12.271226,41.3420364 12.5060736,41.2500015 12.7790825,41.2500015 L15.6750825,41.2500015 C16.9056935,41.2500015 18.003237,41.5230223 18.9651839,42.069583 C19.9278449,42.6165495 20.6782731,43.375194 21.2143109,44.343344 C21.7496683,45.3102651 22.0170825,46.4099378 22.0170825,47.6400015 C22.0170825,48.869973 21.749711,49.9721986 21.2144837,50.944346 C20.6784601,51.9179399 19.927978,52.6793779 18.9651839,53.22642 C18.003237,53.7729808 16.9056935,54.0460015 15.6750825,54.0460015 L12.7790825,54.0460015 Z" id="Path" fill="#333D47" fill-rule="nonzero"></path>
            <path d="M15.6750825,52.2740015 C16.5345905,52.2740015 17.3005836,52.0779898 17.97581,51.6862554 C18.6501389,51.2950417 19.174429,50.7476211 19.5507028,50.0414634 C19.9281439,49.3331152 20.1170825,48.5333612 20.1170825,47.6400015 C20.1170825,46.7467597 19.9281969,45.9498177 19.5509184,45.2469426 C19.1746657,44.5459787 18.6503112,44.0010613 17.97581,43.6097476 C17.3005836,43.2180132 16.5345905,43.0220015 15.6750825,43.0220015 L13.7610825,43.0220015 L13.7610825,52.2740015 L15.6750825,52.2740015 Z" id="Path" fill="#E8C776" fill-rule="nonzero"></path>
            <path d="M25.2910825,54.0460015 C25.0173889,54.0460015 24.7843888,53.9534398 24.6010165,53.7700675 C24.4176442,53.5866953 24.3250825,53.3536951 24.3250825,53.0800015 L24.3250825,45.9600015 C24.3250825,45.6753792 24.4177922,45.4388096 24.6028933,45.2600913 C24.7862376,45.0830693 25.01845,44.9940015 25.2910825,44.9940015 C25.5746639,44.9940015 25.8104193,45.0832063 25.9891485,45.2619355 C26.1678778,45.4406647 26.2570825,45.6764202 26.2570825,45.9600015 L26.2570825,53.0800015 C26.2570825,53.3526341 26.1680147,53.5848465 25.9909927,53.7681907 C25.8122744,53.9532918 25.5757049,54.0460015 25.2910825,54.0460015 Z" id="Path" fill="#333D47" fill-rule="nonzero"></path>
            <path d="M25.2910825,43.8700015 C24.9630598,43.8700015 24.6769827,43.7500337 24.4410165,43.5140675 C24.2050503,43.2781014 24.0850825,42.9920243 24.0850825,42.6640015 C24.0850825,42.3359788 24.2050503,42.0499017 24.4410165,41.8139355 C24.6769827,41.5779693 24.9630598,41.4580015 25.2910825,41.4580015 C25.6191053,41.4580015 25.9051824,41.5779693 26.1411485,41.8139355 C26.3771147,42.0499017 26.4970825,42.3359788 26.4970825,42.6640015 C26.4970825,42.9920243 26.3771147,43.2781014 26.1411485,43.5140675 C25.9051824,43.7500337 25.6191053,43.8700015 25.2910825,43.8700015 Z" id="Path" fill="#333D47" fill-rule="nonzero"></path>
            <path d="M31.9396471,45.2046211 C32.4268757,45.010837 32.9470203,44.9140015 33.4990825,44.9140015 C34.2595819,44.9140015 34.9456249,45.0799797 35.5549103,45.4123172 C36.1673735,45.746388 36.6468116,46.2341884 36.9911163,46.8728181 C37.3343026,47.5093734 37.5050825,48.2723739 37.5050825,49.1600015 L37.5050825,53.0960015 C37.5050825,53.3696951 37.4125208,53.6026953 37.2291485,53.7860675 C37.0457762,53.9694398 36.8127761,54.0620015 36.5390825,54.0620015 C36.2653889,54.0620015 36.0323888,53.9694398 35.8490165,53.7860675 C35.6656442,53.6026953 35.5730825,53.3696951 35.5730825,53.0960015 L35.5730825,49.1600015 C35.5730825,48.33417 35.3550674,47.7202195 34.9235408,47.3085332 C34.4889548,46.8939281 33.9102676,46.6860015 33.1790825,46.6860015 C32.7535707,46.6860015 32.3682693,46.7716241 32.0213834,46.9425533 C31.6763192,47.112585 31.4085565,47.3406792 31.2155589,47.6277012 C31.0243293,47.9120939 30.9290825,48.2295832 30.9290825,48.5840015 L30.9290825,53.0960015 C30.9290825,53.3686341 30.8400147,53.6008465 30.6629927,53.7841907 C30.4842744,53.9692918 30.2477049,54.0620015 29.9630825,54.0620015 C29.6893889,54.0620015 29.4563888,53.9694398 29.2730165,53.7860675 C29.0896442,53.6026953 28.9970825,53.3696951 28.9970825,53.0960015 L28.9970825,45.9600015 C28.9970825,45.6753792 29.0897922,45.4388096 29.2748933,45.2600913 C29.4582376,45.0830693 29.69045,44.9940015 29.9630825,44.9940015 C30.2466639,44.9940015 30.4824193,45.0832063 30.6611485,45.2619355 C30.8062492,45.4070362 30.8923448,45.5897225 30.9196064,45.8050715 C31.2195862,45.5559201 31.5597844,45.3557028 31.9396471,45.2046211 Z" id="Path" fill="#333D47" fill-rule="nonzero"></path>
            <path d="M42.2101284,51.7799575 C42.7424494,52.2159538 43.3940582,52.4340018 44.1710825,52.4340018 C44.4741355,52.4340018 44.7913241,52.3781766 45.1229931,52.2659194 C45.4551195,52.1535074 45.7260771,52.0167625 45.9344093,51.8580541 C46.1106526,51.7195772 46.3193787,51.6500018 46.5550825,51.6500018 C46.7928934,51.6500018 46.9889673,51.7153598 47.1311102,51.8447686 C47.355488,52.0317501 47.4730825,52.2538732 47.4730825,52.5040018 C47.4730825,52.7447528 47.3644167,52.9485012 47.1603648,53.1014685 C46.7833225,53.4008844 46.3173041,53.6435449 45.7629387,53.8301629 C45.2093794,54.0165096 44.6786738,54.1100018 44.1710825,54.1100018 C43.27192,54.1100018 42.4631876,53.9146957 41.7471838,53.5236474 C41.0298542,53.1318751 40.4684563,52.5870703 40.0652921,51.8911979 C39.6623759,51.1957534 39.4610825,50.4071247 39.4610825,49.5280018 C39.4610825,48.6502803 39.651003,47.8603212 40.0312794,47.1603923 C40.4124224,46.4588682 40.9440281,45.9106497 41.6240937,45.5180916 C42.3034855,45.1259223 43.0733703,44.9300018 43.9310825,44.9300018 C44.7788058,44.9300018 45.5150513,45.118215 46.1369292,45.4957837 C46.7589533,45.8734412 47.2371848,46.4017202 47.569685,47.0778039 C47.900239,47.7499304 48.0650825,48.5192 48.0650825,49.3840018 C48.0650825,49.6268872 47.9795723,49.834085 47.8110488,49.9961268 C47.6435925,50.1571425 47.4301238,50.2380018 47.1790825,50.2380018 L41.2792177,50.2380018 C41.4132747,50.8686129 41.7228644,51.3808651 42.2101284,51.7799575 Z" id="Path" fill="#333D47" fill-rule="nonzero"></path>
            <path d="M45.5383339,47.2033688 C45.1301979,46.8051873 44.597376,46.6060015 43.9310825,46.6060015 C43.187189,46.6060015 42.5905548,46.807397 42.1341209,47.2086577 C41.7154333,47.5767346 41.4371957,48.0584036 41.2988107,48.6580015 L46.2677404,48.6580015 C46.1589523,48.0549748 45.9156997,47.5715306 45.5383339,47.2033688 Z" id="Path" fill="#E8C776" fill-rule="nonzero"></path>
            <path d="M55.6750825,54.0460015 C55.4010315,54.0460015 55.1654407,53.9504917 54.9770165,53.7620675 C54.7885923,53.5736434 54.6930825,53.3380525 54.6930825,53.0640015 L54.6930825,42.2320015 C54.6930825,41.9470641 54.7887493,41.7078972 54.9788292,41.5241533 C55.167226,41.3420364 55.4020736,41.2500015 55.6750825,41.2500015 C55.9589968,41.2500015 56.1973953,41.3421823 56.3811485,41.5259355 C56.5649017,41.7096887 56.6570825,41.9480873 56.6570825,42.2320015 L56.6570825,53.0640015 C56.6570825,53.3370105 56.5650476,53.5718581 56.3829308,53.7602548 C56.1991868,53.9503348 55.96002,54.0460015 55.6750825,54.0460015 Z" id="Path" fill="#333D47" fill-rule="nonzero"></path>
            <path d="M62.3396471,45.2046211 C62.8268757,45.010837 63.3470203,44.9140015 63.8990825,44.9140015 C64.6595819,44.9140015 65.3456249,45.0799797 65.9549103,45.4123172 C66.5673735,45.746388 67.0468116,46.2341884 67.3911163,46.8728181 C67.7343026,47.5093734 67.9050825,48.2723739 67.9050825,49.1600015 L67.9050825,53.0960015 C67.9050825,53.3696951 67.8125208,53.6026953 67.6291485,53.7860675 C67.4457762,53.9694398 67.2127761,54.0620015 66.9390825,54.0620015 C66.6653889,54.0620015 66.4323888,53.9694398 66.2490165,53.7860675 C66.0656442,53.6026953 65.9730825,53.3696951 65.9730825,53.0960015 L65.9730825,49.1600015 C65.9730825,48.33417 65.7550674,47.7202195 65.3235408,47.3085332 C64.8889548,46.8939281 64.3102676,46.6860015 63.5790825,46.6860015 C63.1535707,46.6860015 62.7682693,46.7716241 62.4213834,46.9425533 C62.0763192,47.112585 61.8085565,47.3406792 61.6155589,47.6277012 C61.4243293,47.9120939 61.3290825,48.2295832 61.3290825,48.5840015 L61.3290825,53.0960015 C61.3290825,53.3686341 61.2400147,53.6008465 61.0629927,53.7841907 C60.8842744,53.9692918 60.6477049,54.0620015 60.3630825,54.0620015 C60.0893889,54.0620015 59.8563888,53.9694398 59.6730165,53.7860675 C59.4896442,53.6026953 59.3970825,53.3696951 59.3970825,53.0960015 L59.3970825,45.9600015 C59.3970825,45.6753792 59.4897922,45.4388096 59.6748933,45.2600913 C59.8582376,45.0830693 60.09045,44.9940015 60.3630825,44.9940015 C60.6466639,44.9940015 60.8824193,45.0832063 61.0611485,45.2619355 C61.2062492,45.4070362 61.2923448,45.5897225 61.3196064,45.8050715 C61.6195862,45.5559201 61.9597844,45.3557028 62.3396471,45.2046211 Z" id="Path" fill="#333D47" fill-rule="nonzero"></path>
            <path d="M24.2490825,33.664 C24.2490825,33.938051 24.1535727,34.1736418 23.9651485,34.362066 C23.7767244,34.5504902 23.5411335,34.646 23.2670825,34.646 C22.9930315,34.646 22.7574407,34.5504902 22.5690165,34.362066 C22.3805923,34.1736418 22.2850825,33.938051 22.2850825,33.664 L22.2850825,22.832 C22.2850825,22.5470625 22.3807493,22.3078957 22.5708292,22.1241517 C22.759226,21.9420349 22.9940736,21.85 23.2670825,21.85 L30.4990825,21.85 C30.7816064,21.85 31.0165028,21.9357055 31.1952029,22.1080234 C31.3749339,22.2813354 31.4650825,22.5099266 31.4650825,22.784 C31.4650825,23.0486475 31.3739072,23.2700732 31.1931502,23.437919 C31.0145236,23.6037866 30.7805315,23.686 30.4990825,23.686 L24.2490825,23.686 L24.2490825,27.274 L28.6910825,27.274 C28.962638,27.274 29.1940188,27.3595792 29.3772953,27.5302159 C29.5629582,27.7030745 29.6570825,27.9270254 29.6570825,28.192 C29.6570825,28.4569746 29.5629582,28.6809255 29.3772953,28.8537841 C29.1940188,29.0244208 28.962638,29.11 28.6910825,29.11 L24.2490825,29.11 L24.2490825,33.664 Z" id="Fine-Dine-In" fill="#333D47" fill-rule="nonzero"></path>
        </g>
    </g>
</svg>