<?xml version="1.0" encoding="utf-8"?>
<!-- Generator: Adobe Illustrator 21.1.0, SVG Export Plug-In . SVG Version: 6.00 Build 0)  -->
<svg version="1.1" id="Layer_1" xmlns="http://www.w3.org/2000/svg" xmlns:xlink="http://www.w3.org/1999/xlink" x="0px" y="0px"
	 viewBox="0 0 300 300" enable-background="new 0 0 300 300" xml:space="preserve">
<g>
	<path fill="#DCE6F4" d="M39.8,150.2C39.8,89.5,89,40.4,149.7,40.4c60.7,0,109.9,49.2,109.9,109.8c0,60.6-49.2,109.8-109.9,109.8
		C89,260,39.8,210.8,39.8,150.2"/>
	<path fill="#FFFFFF" d="M233.8,108.3l-78.7-47.7c-3-1.8-6.5-2.4-10-1.5c-3.4,0.9-6.3,3-8.1,6.1l-4.8,8.2c-1.4-0.3-2.8,0.3-3.6,1.5
		l-6.6,11.2c-0.7,1.2-0.5,2.8,0.4,3.8l-0.7,1.2c-1.4-0.3-2.8,0.3-3.6,1.5l-6.6,11.2c-0.7,1.3-0.5,2.8,0.4,3.8l-43.3,73.8
		c-3.7,6.3-1.6,14.5,4.6,18.2l78.7,47.7c2.1,1.3,4.4,1.9,6.7,1.9c1.1,0,2.1-0.1,3.2-0.4c3.4-0.9,6.3-3,8.1-6.1l53.7-91.4
		c0.4,0.2,0.9,0.3,1.4,0.3c1.1,0,2.2-0.6,2.8-1.6l6.6-11.2c0.9-1.5,0.4-3.3-0.9-4.3l4.8-8.2C242.1,120.3,240.1,112.1,233.8,108.3z"
		/>
	<g>
		<path fill="none" stroke="#333D47" stroke-width="6.5" stroke-miterlimit="10" d="M148.8,235.9l-78.7-47.7
			c-4.7-2.9-6.2-9-3.4-13.8L135,58.1c2.8-4.8,8.9-6.3,13.6-3.5l78.7,47.7c4.7,2.9,6.2,9,3.4,13.8l-68.3,116.3
			C159.6,237.2,153.5,238.8,148.8,235.9z"/>
		<path fill="none" stroke="#333D47" stroke-width="6.5" stroke-miterlimit="10" d="M152.8,210.3l-62.3-37.8
			c-4.7-2.9-6.2-9-3.4-13.8l50.5-86c2.8-4.8,8.9-6.3,13.6-3.5l62.3,37.8c4.7,2.9,6.2,9,3.4,13.8l-50.5,86
			C163.6,211.6,157.5,213.2,152.8,210.3z"/>
		<path fill="#333D47" d="M111.2,203.1c-1-2.4,0.1-5.3,2.5-6.3c2.4-1.1,5.2,0.1,6.2,2.5c1,2.4-0.1,5.3-2.5,6.3
			C115,206.7,112.2,205.6,111.2,203.1z"/>
		
			<line fill="none" stroke="#333D47" stroke-width="6.5" stroke-linecap="round" stroke-miterlimit="10" x1="226.8" y1="128.6" x2="220.3" y2="139.8"/>
		
			<line fill="none" stroke="#333D47" stroke-width="6.5" stroke-linecap="round" stroke-miterlimit="10" x1="126.6" y1="67.8" x2="120" y2="79"/>
		
			<line fill="none" stroke="#333D47" stroke-width="6.5" stroke-linecap="round" stroke-miterlimit="10" x1="116.1" y1="85.6" x2="109.6" y2="96.8"/>
	</g>
</g>
</svg>
