<?xml version="1.0" encoding="UTF-8"?>
<svg width="180px" height="180px" viewBox="0 0 180 180" version="1.1" xmlns="http://www.w3.org/2000/svg" xmlns:xlink="http://www.w3.org/1999/xlink">
    <!-- Generator: Sketch 41.2 (35397) - http://www.bohemiancoding.com/sketch -->
    <title>doorstep</title>
    <desc>Created with Sketch.</desc>
    <defs>
        <ellipse id="path-1" cx="90" cy="90" rx="90" ry="90"></ellipse>
        <rect id="path-3" x="98.5714286" y="116.571429" width="35.4458874" height="34.6654611"></rect>
        <mask id="mask-4" maskContentUnits="userSpaceOnUse" maskUnits="objectBoundingBox" x="-1.53" y="-1.53" width="38.5058874" height="37.7254611">
            <rect x="97.0414286" y="115.041429" width="38.5058874" height="37.7254611" fill="white"></rect>
            <use xlink:href="#path-3" fill="black"></use>
        </mask>
    </defs>
    <g id="Symbols" stroke="none" stroke-width="1" fill="none" fill-rule="evenodd">
        <g id="how-subscription-works" transform="translate(-898.000000, -238.000000)">
            <g id="3" transform="translate(830.000000, 238.000000)">
                <g id="doorstep" transform="translate(68.000000, 0.000000)">
                    <mask id="mask-2" fill="white">
                        <use xlink:href="#path-1"></use>
                    </mask>
                    <use id="Mask" fill="#FBF8F4" xlink:href="#path-1"></use>
                    <rect id="Rectangle-9-Copy-3" fill="#645B57" mask="url(#mask-2)" x="57.4285714" y="41.1428571" width="61.6450216" height="106.860589" rx="1.53"></rect>
                    <rect id="Rectangle-9-Copy-8" fill="#645B57" mask="url(#mask-2)" x="57.4285714" y="29.1428571" width="61.6450216" height="7.7034358"></rect>
                    <path d="M108.222113,87.9815198 C108.376774,87.8757902 108.547861,87.7941876 108.726908,87.7389859 C108.906335,87.6836579 109.093722,87.6556149 109.281488,87.6554886 C109.468875,87.6561202 109.656515,87.6839105 109.835815,87.7388596 C110.014989,87.7944403 110.186328,87.8757902 110.340484,87.9818988 C110.64791,88.1942423 110.8938,88.4960201 111.026601,88.8433994 C111.093822,89.0163312 111.136152,89.1982316 111.148661,89.3824058 C111.161044,89.5660747 111.146766,89.7510068 111.105447,89.928865 C111.022304,90.2845814 110.830116,90.6109916 110.561734,90.8461989 C110.798021,90.5797906 110.956346,90.2524962 111.009416,89.909917 C111.065898,89.5682221 111.019525,89.2142742 110.88268,88.9027697 C110.813942,88.7472701 110.72246,88.602634 110.613414,88.4731563 C110.503989,88.3440575 110.376243,88.230875 110.234976,88.1392932 C109.953074,87.95474 109.617723,87.8549474 109.281362,87.8560843 C108.945126,87.8552001 108.609776,87.9544874 108.328126,88.1396721 C108.187239,88.2313803 108.059618,88.3451944 107.949941,88.4736615 C107.840516,88.6027603 107.749286,88.7475227 107.680296,88.902896 C107.543451,89.2144005 107.497205,89.5680958 107.55356,89.9095381 C107.606882,90.2523698 107.764702,90.5796643 108.000989,90.8459463 C107.732734,90.6111179 107.540419,90.284834 107.456771,89.928865 C107.415578,89.7507541 107.4013,89.5659484 107.413683,89.3822794 C107.426066,89.1981053 107.468774,89.0159522 107.535743,88.8431468 C107.669176,88.4961465 107.913297,88.1926001 108.222113,87.9815198 M106.556984,92.2895283 C108.06164,93.7937438 110.501209,93.7937438 112.005612,92.289781 C113.510521,90.7853128 113.510268,88.3465839 112.005612,86.8424947 C110.501083,85.3382792 108.06164,85.3381529 106.556858,86.8424947 C105.052455,88.3464576 105.052455,90.7854391 106.556984,92.2895283 Z" id="Fill-41" fill="#FFFFFF" mask="url(#mask-2)"></path>
                    <g id="Rectangle-9-Copy-4" mask="url(#mask-2)">
                        <use fill="#FFFFFF" fill-rule="evenodd" xlink:href="#path-3"></use>
                        <use stroke="#645B57" mask="url(#mask-4)" stroke-width="3.06" xlink:href="#path-3"></use>
                    </g>
                    <path d="M127.94711,132.730233 L127.043427,132.996938 L127.043427,131.877466 L127.63701,131.702321 C127.923967,131.617566 128.226075,131.779032 128.311697,132.062922 C128.397319,132.346742 128.234137,132.645547 127.94711,132.730233 L127.94711,132.730233 Z M106.239388,135.256022 L105.223604,134.956254 C104.901064,134.861051 104.717589,134.525196 104.813844,134.206182 C104.910099,133.887099 105.249597,133.705629 105.572207,133.800832 L106.239388,133.997698 L106.239388,135.256022 Z M129.317056,131.820825 C129.096052,131.088144 128.316353,130.671452 127.575643,130.89004 L126.840562,131.106978 L126.840562,128.940553 C126.3244,128.863566 125.808724,128.797303 125.29694,128.74513 C124.183373,128.631918 123.016848,128.573353 121.829682,128.571429 L121.755597,128.571429 C120.58789,128.571429 119.287998,128.626763 117.892129,128.736263 C116.484654,128.846932 115.149805,129.000149 113.925736,129.191929 C112.697913,129.384121 111.505257,129.62828 110.380292,129.917187 C109.252477,130.207056 108.136268,130.556453 107.062176,130.956304 C106.857434,131.032535 106.649774,131.113165 106.441141,131.195444 L106.441141,133.12376 C106.389851,133.145412 106.33884,133.166515 106.287342,133.188442 L105.514523,132.960369 C104.773813,132.741712 103.994114,133.158404 103.77311,133.891085 C103.552037,134.623767 103.973334,135.394873 104.714114,135.61353 L106.239388,136.063628 L106.239388,136.329714 L106.238276,136.329714 C106.238276,136.345867 106.239249,136.361471 106.239388,136.377624 L106.239388,136.406357 L106.240014,136.406357 C106.251481,137.850961 106.498894,139.157264 106.985867,140.322997 C107.484654,141.517049 108.188392,142.534445 109.097149,143.375183 C110.005905,144.21599 111.102724,144.861649 112.387257,145.312435 C113.671859,145.76322 115.100044,145.988751 116.671604,145.988751 C118.243164,145.988751 119.667805,145.76322 120.945666,145.312435 C122.223319,144.861649 123.313257,144.21599 124.215272,143.375183 C125.117218,142.534445 125.814075,141.517049 126.306052,140.322997 C126.786423,139.157264 127.030361,137.850961 127.041689,136.406357 L127.043427,136.406357 L127.043427,133.936521 L128.376052,133.543201 C129.116832,133.324613 129.538129,132.553438 129.317056,131.820825 Z M121.429797,137.170754 L121.429797,141.64823 C121.146036,141.852382 120.8506,142.029658 120.543696,142.180127 C120.236028,142.330938 119.908414,142.454736 119.560854,142.551313 C119.213156,142.648028 118.840438,142.720822 118.44277,142.76942 C118.044893,142.81788 117.616716,142.842145 117.158167,142.842145 C116.343024,142.842145 115.592515,142.701782 114.906499,142.421054 C114.220275,142.140602 113.62704,141.750306 113.126723,141.250166 C112.626268,140.750164 112.23548,140.15324 111.95436,139.45919 C111.673241,138.765827 111.532716,138.008193 111.532716,137.186152 C111.532716,136.354487 111.669418,135.591698 111.942824,134.897716 C112.21609,134.20401 112.604237,133.607086 113.107403,133.10674 C113.61043,132.606807 114.220414,132.219054 114.937495,131.943482 C115.622677,131.680146 116.391395,131.543081 117.243719,131.532221 C117.274716,131.531052 117.307519,131.530365 117.342268,131.530365 L117.351789,131.530227 C118.553688,131.530227 119.87436,131.793014 121.313735,132.318518 L121.312414,135.149505 L121.246183,135.149505 L121.058468,135.149505 L120.421658,135.149505 C120.222337,135.149574 120.102036,135.054509 120.060754,134.864172 C120.036708,134.728964 119.992368,134.330557 119.927804,133.669019 C119.159156,133.411869 118.277295,133.283466 117.282152,133.283466 C116.72992,133.282916 116.230854,133.374476 115.784816,133.558145 C115.338638,133.741951 114.958206,134.004737 114.64338,134.346504 C114.328692,134.688408 114.086214,135.09912 113.916082,135.578776 C113.745812,136.058431 113.660677,136.594109 113.660677,137.186014 C113.660677,137.823906 113.750955,138.391615 113.931511,138.888937 C114.111997,139.386465 114.364762,139.806181 114.689804,140.148016 C115.014847,140.489852 115.401743,140.751332 115.850561,140.932526 C116.29931,141.113721 116.78941,141.204318 117.320793,141.20418 C117.790183,141.20418 118.199109,141.162112 118.547364,141.077977 C118.895549,140.993841 119.226986,140.877811 119.541604,140.729749 L119.541604,138.716885 L118.141078,138.716885 C118.007017,138.716885 117.901171,138.679904 117.82382,138.605873 C117.746329,138.531979 117.707619,138.441451 117.707758,138.33415 L117.707619,137.170754 L121.429797,137.170754 Z" id="Fill-1" fill="#645B57" mask="url(#mask-2)"></path>
                    <path d="M114.97207,123.526024 C115.022803,123.444157 115.180216,123.197868 115.734324,123.120056 C116.109614,123.067265 116.391915,123.128098 116.597838,123.301456 C116.839483,123.509871 116.969514,123.855762 117.038317,124.163709 C116.733151,124.191274 116.423745,124.22688 116.109892,124.272247 C115.664618,124.336655 115.234425,124.417697 114.81688,124.510563 C114.78512,124.192786 114.796934,123.800153 114.97207,123.526024 M113.674541,128.57279 C115.091328,128.350834 116.636201,128.173558 118.265236,128.04543 C119.880788,127.918676 121.385351,127.854612 122.736811,127.854612 L122.822571,127.854612 C124.196618,127.856949 125.546687,127.924725 126.835598,128.055672 C127.099205,128.082549 127.363714,128.113206 127.62878,128.146544 L127.62878,126.547897 C126.553575,125.91468 123.13434,124.053728 118.456147,124.09339 C118.366564,123.552763 118.132147,122.784338 117.52105,122.257047 C117.160216,121.948343 116.525073,121.607332 115.53695,121.746184 C114.545004,121.885585 114.036348,122.388612 113.783444,122.786125 C113.336293,123.489181 113.362564,124.330262 113.448255,124.873776 C109.612726,126.061574 107.175012,128.269792 106.285714,129.143799 L106.285714,130.416764 C107.357097,130.037053 108.458224,129.698242 109.571097,129.412222 C110.873073,129.077879 112.253444,128.795296 113.674541,128.57279" id="Fill-6" fill="#645B57" mask="url(#mask-2)"></path>
                </g>
            </g>
        </g>
    </g>
</svg>