<?xml version="1.0" encoding="UTF-8"?>
<svg width="813px" height="255px" viewBox="0 0 813 255" version="1.1" xmlns="http://www.w3.org/2000/svg" xmlns:xlink="http://www.w3.org/1999/xlink">
    <!-- Generator: Sketch 46.1 (44463) - http://www.bohemiancoding.com/sketch -->
    <title>logo</title>
    <desc>Created with Sketch.</desc>
    <defs>
        <polygon id="path-1" points="0 0.000115203269 0 254.75 812.068656 254.75 812.068656 0.00011520327 2.71050543e-20 0.000115203269"></polygon>
    </defs>
    <g id="Page-1" stroke="none" stroke-width="1" fill="none" fill-rule="evenodd">
        <g id="logo">
            <g>
                <mask id="mask-2" fill="white">
                    <use xlink:href="#path-1"></use>
                </mask>
                <g id="Clip-2"></g>
                <path d="M134.6952,171.9448 C131.8932,170.0248 128.0032,168.7238 123.6642,169.4988 C114.9192,171.0598 111.9432,179.3678 111.2662,186.8618 C109.8532,202.5198 103.0392,216.4948 88.7222,223.5178 C64.4242,235.4368 37.0612,219.7748 30.5712,194.1678 C28.9792,187.8878 25.9802,171.1738 13.6792,171.9468 C-4.7028,173.7988 1.3482,197.5188 5.9462,209.2578 C10.8702,221.8278 19.5512,232.6458 30.4792,240.5178 C52.9032,256.6718 82.9152,259.8818 107.3092,245.9658 C120.8232,238.2578 131.5192,225.9268 137.1942,211.4378 C141.3092,200.9328 145.9422,179.6468 134.6952,171.9448 M459.3402,51.3248 C459.3442,40.2678 459.9232,29.4208 447.0652,27.7588 C436.5352,26.8728 430.4402,33.6898 430.3942,43.9408 C430.3362,56.7768 430.4702,75.8198 429.9862,97.1468 C429.4312,121.5288 408.3872,142.1858 384.1092,135.7248 C372.0922,132.5278 363.0512,123.7178 359.3172,111.8408 C353.2552,92.5598 358.3512,65.8788 355.4042,59.2568 C348.8932,44.6268 328.1542,48.3648 326.8412,63.9088 C325.9302,74.6838 326.7002,85.9938 326.8412,96.8108 C327.3592,136.6798 357.9292,170.1028 399.5272,166.3178 C422.2632,164.2488 441.9032,150.7848 452.3912,130.5828 C457.6142,120.5188 459.3402,109.5618 459.3402,98.3358 C459.3402,86.1838 459.3362,62.1528 459.3402,51.3248 M111.7462,99.2598 C115.1542,74.2018 95.1062,54.2778 71.1322,54.2598 C49.0072,54.2438 30.3772,72.1528 29.0552,94.1708 C27.6272,117.9848 46.4372,136.1068 69.7962,136.1068 C91.8192,136.1068 108.7692,121.1468 111.7462,99.2598 M143.9752,43.5518 C144.0062,43.6888 144.0212,43.8278 144.0092,43.9698 C143.3452,52.3708 138.1882,58.0958 130.3162,59.7358 C147.2372,88.0178 143.2382,124.6368 118.7572,147.4428 C77.3852,185.9818 6.9112,159.7018 0.4492,103.6558 C-2.6298,76.9538 10.3062,50.4018 33.1992,36.3378 C57.2582,21.5558 87.2372,23.4238 110.3052,38.7758 C115.8362,20.7848 142.4182,24.2028 143.9762,43.5228 C143.9772,43.5328 143.9752,43.5408 143.9752,43.5518 M648.2102,137.8268 C648.0512,137.8108 633.6122,137.5758 629.0762,131.2378 C626.2372,127.2718 626.0272,122.3198 625.9242,117.6238 C625.7662,110.3588 625.9242,103.0728 625.9242,95.8068 L625.9242,54.4478 C636.8962,54.5608 651.9702,54.6968 652.0282,39.8708 C652.0852,25.0258 636.8032,25.5348 625.9522,25.6368 C626.1562,17.4938 627.2972,7.7458 619.8882,2.5178 C611.5282,-3.3812 599.3252,1.6838 597.1242,11.5028 C596.1832,15.7008 596.6122,20.6218 596.6122,24.8618 C596.6122,34.3428 596.8262,43.7928 596.8262,53.2738 L596.8262,114.3588 C596.8262,134.8028 603.2632,154.2478 623.6602,163.0718 C631.9132,166.6418 647.8862,169.6588 656.0052,163.6948 C667.3202,155.3818 661.3522,139.1488 648.2102,137.8268 M781.4682,99.5628 C783.4392,76.9918 766.3152,55.3058 743.1662,54.6988 C721.1702,54.1218 702.7822,72.0258 701.4602,93.8408 C700.0852,116.5068 717.8952,137.8418 740.6672,137.8418 C762.0502,137.8418 779.6092,120.8558 781.4682,99.5628 M775.3062,157.0168 C752.3822,169.0338 723.0852,167.3238 701.5892,152.9488 C675.9022,135.7688 664.4772,102.6158 674.7242,73.3358 C684.5292,45.3198 711.1772,27.7238 740.4032,27.1718 C740.4252,27.1718 740.4562,27.1748 740.4802,27.1748 C773.8742,27.1748 801.3742,47.3318 809.7862,78.5988 C818.0312,109.2428 803.3452,142.3188 775.3062,157.0168 M274.8282,96.1358 C274.8642,73.7428 256.1282,54.3868 233.5362,54.5028 C210.9082,54.6198 192.2222,73.4228 192.1522,96.0328 C192.0812,119.0048 210.7892,137.6668 233.4442,137.6668 C256.0422,137.6668 274.7912,119.1548 274.8282,96.1358 M302.8042,82.6688 C308.2972,111.2298 295.2472,140.6738 270.5452,155.9648 C245.3422,171.5648 212.0822,169.3218 189.0632,150.7438 C165.9452,132.0858 156.8352,99.8378 167.1882,71.9108 C177.4962,44.1058 204.0712,26.2678 233.4442,25.7138 C266.7482,26.3418 296.4152,49.4428 302.8042,82.6688 M559.4312,152.6518 C545.9312,164.7568 530.1702,166.6048 513.0352,166.6108 C505.7312,166.6128 497.0722,166.6928 489.9162,164.8998 C479.3202,162.2448 476.9522,149.4868 486.5412,143.2618 C495.5602,137.4088 519.6132,139.8018 528.1512,139.0418 C542.7062,137.7458 551.1592,120.1208 540.6442,109.3558 C535.0032,103.5828 525.7432,101.9978 518.2542,100.0628 C498.4112,94.9348 483.0492,86.8308 481.7922,64.1418 C481.8172,48.1958 490.4242,37.2568 502.5062,31.3998 C504.3632,30.4468 506.3452,29.7438 508.3592,29.0428 C515.0142,26.7268 537.4762,24.3618 548.0552,29.7818 C557.1002,34.4158 556.2672,44.1928 552.9712,48.2978 C548.4022,53.9868 538.3572,51.8948 522.5272,52.8308 C512.2172,53.4408 507.9002,65.5328 515.7972,71.5758 C522.1742,76.4548 531.4562,77.6408 538.9792,79.7848 C547.0402,82.0828 555.2602,84.8948 561.7852,90.3518 C580.5822,106.0708 576.4642,137.3798 559.4312,152.6518" id="Fill-1" fill="#FFFFFF" mask="url(#mask-2)"></path>
            </g>
        </g>
    </g>
</svg>