<?xml version="1.0" encoding="utf-8"?>
<!-- Generator: Adobe Illustrator 19.1.0, SVG Export Plug-In . SVG Version: 6.00 Build 0)  -->
<svg version="1.1" id="Layer_1" xmlns="http://www.w3.org/2000/svg" xmlns:xlink="http://www.w3.org/1999/xlink" x="0px" y="0px"
	 viewBox="0 0 32 32" style="enable-background:new 0 0 32 32;" xml:space="preserve">
<style type="text/css">
	.st0{fill:#00937E;}
</style>
<path class="st0" id="MAIL_2_" d="M21.8,14.9l9.8-9.4c0.2,0.2,0.4,0.6,0.4,1v19c0,0.4-0.2,0.8-0.4,1L21.8,14.9z M0.5,5.4C0.8,5.2,1.1,5,1.5,5h29
	c0.4,0,0.7,0.1,1,0.4L16,17.5L0.5,5.4z M0.4,26.6C0.1,26.3,0,26,0,25.6v-19c0-0.4,0.2-0.8,0.4-1.1l9.7,9.4L0.4,26.6z M16,20.5
	l4.1-3.9l11.5,10c-0.3,0.3-0.6,0.4-1,0.4h-29c-0.4,0-0.8-0.2-1-0.4l11.5-10L16,20.5z"/>
</svg>
