<?xml version="1.0" encoding="utf-8"?>
<!-- Generator: Adobe Illustrator 19.1.0, SVG Export Plug-In . SVG Version: 6.00 Build 0)  -->
<svg version="1.1" id="Layer_1" xmlns="http://www.w3.org/2000/svg" xmlns:xlink="http://www.w3.org/1999/xlink" x="0px" y="0px"
	 viewBox="0 0 32 32" style="enable-background:new 0 0 32 32;" xml:space="preserve">
<style type="text/css">
	.st0{fill:#010101;}
</style>
<path class="st0" d="M6,12.3c-0.7-0.3-1.7-0.4-1.7,0c0.1,0.5,0.9,0.4,1.4,0.5c0.6,0.1,1.4,1,1.7,0.7C7.7,13,6.7,12.5,6,12.3z"/>
<path class="st0" d="M4.5,26.7c-0.1-0.2-0.2-0.4-0.4-0.6c-0.8,1.2-1.6,2.2-2.5,2.2c-0.2,0-0.8,0.3-0.9-0.5s0.7-6.4,1-9.4
	c0.4-3.1,1.3-5.8,2.1-7.2s2.2-3,3.4-3.1c1.2-0.1,3.2,0.2,4.5,1.6c0.6,0.7,1,1.5,1.2,2.4c0.4,0,0.9,0.1,1.1,0.6c-0.2-1.6-1-2.9-1-3
	c-0.1-0.2,0.5-1.1,0.7-1.8c0.3-0.7,2.2-3.9,2.4-4.3c0.3-0.4,0.4-1.1-0.1-1.3s-2-0.5-2-0.5s0.1-0.3,0.2-0.8c0.1-0.5,0.1-0.6-0.7-0.7
	C13,0,11.4,0,10.9,0c-0.5,0-0.7,1-0.9,1.2C9.9,1.4,10,1,10,0.7c0-0.3-0.4-0.2-0.7-0.1S8.4,0.9,7.6,1.3C6.7,1.6,6.7,2.2,6.7,2.8
	c0,0.6-0.2,4.3-0.2,4.5c-0.1,0.2-1,0.4-2.2,1.6C3.2,10,2.1,12.3,1.2,16S0.1,26.2,0,27.6c0,1.4,0.2,1.8,0.5,1.8
	c0.8,0.1,2.2-0.1,3.2-0.8c0.3-0.2,0.7-0.7,1.2-1.5C4.7,27,4.6,26.9,4.5,26.7z M7.7,3.4c0-0.7-0.2-0.8,0.3-1.1c0.5-0.3,1-0.5,1-0.1
	c0,0.4-0.2,2.6,0.2,2.7c0.4,0.1,0.8,0.2,1-0.6c0.2-0.8,0.7-2.6,0.8-2.8c0.1-0.2,0.1-0.6,0.5-0.5c0.5,0,1.7,0,1.6,0.4
	C13,1.8,12.8,2.1,13,2.4c0.1,0.2,0,0.7,0,0.7s-1.2,2.3-1.4,2.6c-0.3,0.4-0.1,0.7,0,0.9c0.2,0.1,0.5-0.3,0.8-0.7
	c0.3-0.5,1.1-1.7,1.4-2.2c0.2-0.5,0.5-1.1,0.9-0.8s0.8,0.3,0.6,0.7c-0.2,0.4-0.7,1.5-1.4,2.5s-1.3,2.8-1.5,2.4
	C12,8,10.5,7.4,9.8,7.1C9,6.8,7.6,7.2,7.6,6.7C7.7,6.2,7.7,4.1,7.7,3.4z"/>
<path class="st0" d="M9.2,11c0.3-0.3-1.6-1.4-1.9-1.6C7.1,9.3,6.7,9.2,6.6,9.5C6.3,10,7.1,9.9,7.8,10.3C8.4,10.7,8.9,11.3,9.2,11z"
	/>
<g>
	<path class="st0" d="M27.8,16.8c-0.7-0.2-1.6,0.6-0.7,0.9c3.5,1.3,4.4,5.3,2.5,8.6c-2.1,3.5-6.6,4.4-10,3c-0.1,0-0.1-0.1-0.2-0.1
		c-0.1,0.1-0.2,0.2-0.4,0.2c0,0,0,0,0,0.1c0,0.3-0.1,0.5-0.3,0.7c0.5,0.2,0.9,0.3,1.4,0.5c4.1,1.1,8.9-0.4,11-4.5
		C33.1,22.4,31.6,18.2,27.8,16.8z"/>
	<path class="st0" d="M27.2,22.6c-0.5,0.7-0.8,1.2-0.5,1.5c0.2,0.2,1.1-0.2,1.6-1.3s1.2-2.9,0.8-3.2S28,19.1,28,20
		C28.1,21,27.6,21.9,27.2,22.6z"/>
	<path class="st0" d="M23.3,13.2c0.4-0.8,0.8-1.2,1.6-1.7c-0.2-0.1-0.4-0.1-0.5-0.2c-0.2,1-0.1,2,0,3c0,0.2,0.3,0.3,0.5,0.2
		c2.4-0.8,0.6,0.4,0.6,1c0,0.7,1.1,1.8,1.4,2.2c0.1-0.1,0.2-0.3,0.3-0.4c-1,0.2-1.9-0.1-2.5-0.9c-0.1-0.2-0.6-0.2-0.7,0.1
		c-0.2,0.8-0.4,1.6-0.6,2.4c0.2,0,0.4-0.1,0.7-0.1c-0.7-0.8-0.9-1.4-1.1-2.4c0-0.3-0.4-0.3-0.6-0.2c-0.7,0.5-1.3,1.1-2,1.6
		c0.2,0.1,0.4,0.1,0.6,0.2c-0.1-0.8-0.2-1.6-0.3-2.4c0-0.3-0.5-0.3-0.6-0.2c-0.7,0.5-1.3,0.9-2.1,1.3c0.2,0,0.4,0.1,0.5,0.1
		c-1-1.6,0.7-2.6,1.9-3.1c0.2-0.1,0.2-0.3,0.1-0.4c-0.5-0.3-1.3-0.5-0.5-0.8c0.9-0.3,1.9,0.5,2.4,1.3c0.2,0.3,0.9,0.1,0.7-0.2
		c-1-1.6-2.8-2.1-4.4-1.3c-0.2,0.1-0.2,0.3-0.1,0.4c0.3,0.2,0.6,0.4,0.9,0.7c0,0.3-0.2,0.4-0.5,0.4c-0.2,0.3-0.8,0.5-1,0.8
		c-0.6,0.7-0.6,1.6-0.1,2.4c0.1,0.2,0.3,0.2,0.5,0.1c0.8-0.3,1.6-0.8,2.3-1.4c-0.2-0.1-0.4-0.1-0.6-0.2c0.1,0.8,0.2,1.6,0.3,2.4
		c0,0.3,0.4,0.3,0.6,0.2c0.7-0.5,1.3-1.1,2-1.6c-0.2-0.1-0.4-0.1-0.6-0.2c0.1,1.1,0.5,1.9,1.2,2.7c0.1,0.2,0.6,0.2,0.7-0.1
		c0.2-0.8,0.4-1.6,0.6-2.4c-0.2,0-0.4,0.1-0.7,0.1c0.9,1,1.9,1.3,3.1,1.2c0.2,0,0.5-0.2,0.3-0.4c-0.3-0.4-0.5-0.8-0.8-1.1
		c-0.5-0.7-0.5-1.2,0-1.6c0-0.5,0.2-0.1,0.2-0.7c0-0.1-0.2-0.2-0.3-0.2c-0.7-0.1-1.2-0.1-2,0.1c0.2,0.1,0.3,0.1,0.5,0.2
		c-0.2-1-0.2-2,0-3c0-0.3-0.4-0.3-0.5-0.2c-0.9,0.5-1.4,1.1-1.9,2C22.5,13.4,23.2,13.4,23.3,13.2L23.3,13.2z"/>
</g>
<g>
	<path class="st0" d="M12.4,15.9c0.1-1.8-0.1-3.1-0.8-4.7c-0.2,0.2-0.4,0.3-0.7,0.5c0.5,0.4,1,0.8,1.5,1.3c0.2,0.3,0.7,0.4,0.9,0.1
		c0.5,0,0.9,0.1,1.3,0.1c0.2,0.3,0.8,0.2,0.9,0c1-1.5-0.2,3.5-0.2,2.7c0,1.1,0.1,1.7,0.8,2.6c1,1.3,2.5,1.7,3.6,2.9
		c1.1,1.3,2.1,3.2,1.3,5c-1.2,2.7-4,3.5-6.4,3.2c-4-0.5-10.4-1.1-10.7-6.6C3.8,16.7,10.2,19.6,12.4,15.9c0.3-0.6-0.5-1.3-0.8-0.9
		c-0.9,1.5-4,1.6-5.5,2.4c-1.1,0.7-2.1,1.6-2.6,2.9c-0.9,2.2-0.3,6,1.4,7.6c0.9,0.8,2.3,0.9,3.3,1.1c2.2,0.5,4.5,1.1,6.8,1.4
		c2.2,0.2,4.6,0,6.1-1.9c1.7-2.1,1.8-5.2,0.1-7.4c-0.7-0.9-0.9-0.8-1.7-1.5c-1.7-1.4-2.5-0.9-2.1-3.7c0.1-0.6,0.8-3,0.4-3.8
		c-0.8-1.6-1.7-0.3-2.6-0.1c-0.8,0.1-1.6-0.6-2.7,0.5c0.3,0,0.6,0.1,0.9,0.1c-0.6-1.2-1.1-1.5-2.3-1.8c-0.3-0.1-0.8,0.1-0.7,0.5
		c0.6,1.5,0.8,2.9,0.7,4.5C11.3,16.5,12.4,16.4,12.4,15.9L12.4,15.9z"/>
	<path class="st0" d="M11,28.6c-1.9-1.9-2.4-4.9-1.3-7.5c0.2-0.4-0.7-0.5-0.8-0.1c-1.2,2.7-0.6,5.9,1.4,7.9
		C10.5,29.2,11.3,29,11,28.6L11,28.6z"/>
	<path class="st0" d="M14.4,29.8c1.9-1.9,3.7-5.5,2.2-8.2c-0.2-0.4-1-0.2-0.8,0.2c1.4,2.6-0.4,5.9-2.1,7.8
		C13.3,29.9,14.1,30.1,14.4,29.8L14.4,29.8z"/>
	<path class="st0" d="M12.9,15.2c0.1,1.1-0.3,2.1-1,2.9c-0.2,0.2,0.3,0.3,0.5,0.2c0.8-0.8,1.2-1.9,1.1-3.1
		C13.4,15,12.9,15,12.9,15.2L12.9,15.2z"/>
	<path class="st0" d="M14.1,16.7c-0.3,0.8-0.3,1.6,0.1,2.3c0.1,0.2,0.6,0.1,0.5-0.1c-0.3-0.7-0.3-1.4-0.1-2.1
		C14.7,16.5,14.1,16.5,14.1,16.7L14.1,16.7z"/>
	<path class="st0" d="M8.4,29.1c-0.2,0.6-0.5,1.6,0.3,1.8c0.3,0.1,0.4,0,0.6,0c1-0.2,0.5,0.2,1.1,0.6c0.7,0.4,0.5-0.3,0.9-0.4
		c-0.3,0,2.4,1.2,2,0.7c0.1,0.2,0.4,0.2,0.5,0c0.2-0.2,0.3-0.3,0.5-0.5c-0.2,0-0.3,0-0.5-0.1c0.1,1.6,3.2,0.5,1.2-1.3
		c-0.2-0.1-0.7,0-0.5,0.2c0.6,0.4,0.6,0.7-0.2,1c0-0.3-0.4-0.2-0.5-0.1c-0.2,0.2-0.3,0.3-0.5,0.5c0.2,0,0.3,0,0.5,0
		c-0.3-0.5-0.6-0.6-1.1-0.6c-0.5,0-0.5,0-0.9-0.2c-0.3-0.1-0.2-0.2-0.6-0.3c-0.1,0-0.2,0-0.3,0.1c-0.4,0.7-0.6-0.3-1.1-0.4
		c-0.1,0-0.3,0-0.3,0c-0.1,0-0.3,0.1-0.4,0.2c-0.4,0.3-0.5-0.2-0.3-1.2C9,28.9,8.5,28.8,8.4,29.1L8.4,29.1z"/>
	<path class="st0" d="M6.3,19.8c-0.9,1.1-1.2,2.5-0.9,3.9c0.1,0.3,0.6,0.2,0.5,0C5.7,22.3,6,21,6.8,20C7,19.7,6.5,19.6,6.3,19.8
		L6.3,19.8z"/>
	<path class="st0" d="M10.9,21.6c-0.6,1.4-0.5,2.9,0.1,4.3c0.1,0.2,0.6,0.1,0.5-0.1c-0.6-1.3-0.6-2.8-0.1-4.1
		C11.5,21.4,10.9,21.3,10.9,21.6L10.9,21.6z"/>
	<path class="st0" d="M18.9,22.2c0.7,1.2,0.8,2.5,0.3,3.8c-0.1,0.3,0.4,0.3,0.5,0.1c0.5-1.3,0.4-2.8-0.3-4
		C19.3,21.8,18.8,21.9,18.9,22.2L18.9,22.2z"/>
</g>
</svg>
