<?xml version="1.0" encoding="UTF-8"?>
<svg width="102px" height="102px" viewBox="0 0 102 102" version="1.1" xmlns="http://www.w3.org/2000/svg" xmlns:xlink="http://www.w3.org/1999/xlink">
    <!-- Generator: Sketch 42 (36781) - http://www.bohemiancoding.com/sketch -->
    <title>other copy</title>
    <desc>Created with Sketch.</desc>
    <defs></defs>
    <g id="Page-1" stroke="none" stroke-width="1" fill="none" fill-rule="evenodd">
        <g id="other-copy">
            <g id="Group-27" transform="translate(3.000000, 3.000000)">
                <g id="Group-17">
                    <ellipse id="Oval-2" stroke="#7290ff" stroke-width="4.725" fill="#FFFFFF" cx="47.9669083" cy="47.967328" rx="47.6668595" ry="47.467328"></ellipse>
                    <g id="Group-18" transform="translate(28.500000, 20.500000)" fill-rule="nonzero" fill="#7290ff">
                        <path d="M21.5824176,46.5 L17.3626374,46.5 C16.0967033,46.5 15.2527473,47.3444444 15.2527473,48.6111111 L15.2527473,52.8333333 C15.2527473,54.1 16.0967033,54.9444444 17.3626374,54.9444444 L21.5824176,54.9444444 C22.8483516,54.9444444 23.6923077,54.1 23.6923077,52.8333333 L23.6923077,48.6111111 C23.6923077,47.3444444 22.8483516,46.5 21.5824176,46.5" id="Fill-1"></path>
                        <path d="M19.4725275,0.0555555556 C8.92307692,0.0555555556 0.483516484,8.5 0.483516484,19.0555556 C0.483516484,20.1111111 0.483516484,21.1666667 0.694505495,22.2222222 C0.905494505,23.4888889 2.17142857,24.1222222 3.43736264,23.9111111 L7.44615385,22.6444444 C8.5010989,22.4333333 9.13406593,21.3777778 8.92307692,20.3222222 L8.92307692,19.0555556 C8.92307692,13.1444444 13.5648352,8.5 19.4725275,8.5 C25.3802198,8.5 30.021978,13.1444444 30.021978,19.0555556 C30.021978,22.6444444 27.9120879,24.3333333 24.1142857,27.5 C20.5274725,30.4555556 16.3076923,33.8333333 15.2527473,39.9555556 C15.0417582,41.2222222 16.0967033,42.2777778 17.3626374,42.2777778 L21.5824176,42.2777778 C22.6373626,42.2777778 23.4813187,41.6444444 23.6923077,40.5888889 C24.3252747,38.0555556 26.2241758,36.3666667 29.389011,34.0444444 C33.3978022,30.8777778 38.4615385,26.8666667 38.4615385,19.0555556 C38.4615385,8.5 30.021978,0.0555555556 19.4725275,0.0555555556" id="Fill-3"></path>
                    </g>
                </g>
            </g>
        </g>
    </g>
</svg>
