<?xml version="1.0" encoding="UTF-8" standalone="no"?>
<svg width="100px" height="99px" viewBox="0 0 100 99" version="1.1" xmlns="http://www.w3.org/2000/svg" xmlns:xlink="http://www.w3.org/1999/xlink">
    <style type="text/css">
        .st0{fill:#CB5838;}
    </style>
    <defs>
        <path id="path-1" d="M83.1218108,0.250948509 L0.121,0.250948509 L0.121,34.5605691 L83.1218108,34.5605691 L83.1218108,0.250948509 L83.1218108,0.250948509 Z"></path>
    </defs>
    <g id="Welcome" stroke="none" stroke-width="1">
        <g id="SVG-test">
            <g id="Little-pot-logo">
                <g id="Group-3" transform="translate(0.000000, 29.288347)">
                    <path class="st0" d="M94.2388108,16.5625474 L90.7244865,17.6140379 L90.7244865,13.2004878 L93.0328649,12.5099729 C94.1488108,12.1758266 95.3236757,12.8124119 95.6566486,13.9316531 C95.9896216,15.0506233 95.355027,16.2286721 94.2388108,16.5625474 L94.2388108,16.5625474 Z M9.81989189,26.520542 L5.86962162,25.3386992 C4.6152973,24.9633604 3.90178378,23.6392412 4.27610811,22.3815176 C4.65043243,21.123523 5.9707027,20.4080759 7.2252973,20.7834146 L9.81989189,21.5595664 L9.81989189,26.520542 Z M99.5663784,12.9771816 C98.7069189,10.0885637 95.6747568,8.44574526 92.7942162,9.30753388 L89.9355676,10.1628184 L89.9355676,1.62162602 C87.9282703,1.31810298 85.9228649,1.05685637 83.9325946,0.851165312 C79.6020541,0.404823848 75.0655676,0.173929539 70.4488108,0.166341463 L70.1607027,0.166341463 C65.6196216,0.166341463 60.5644865,0.384498645 55.1361081,0.816205962 C49.6625946,1.25252033 44.4715135,1.85658537 39.7112432,2.61268293 C34.9363784,3.3704065 30.2982703,4.33300813 25.9234054,5.47203252 C21.5374595,6.61485095 17.1966486,7.99235772 13.0196216,9.56878049 C12.2234054,9.86932249 11.4158378,10.1872087 10.6044865,10.5115989 L10.6044865,18.1140379 C10.405027,18.1994038 10.2066486,18.2826016 10.0063784,18.3690515 L7.00097297,17.4698645 C4.12043243,16.6078049 1.08827027,18.2506233 0.228810811,21.1392412 C-0.630918919,24.0278591 1.00745946,27.0679675 3.88827027,27.9300271 L9.81989189,29.7045528 L9.81989189,30.7536043 L9.81556757,30.7536043 C9.81556757,30.81729 9.81935135,30.8788076 9.81989189,30.9424932 L9.81989189,31.0557724 L9.82232432,31.0557724 C9.86691892,36.7511653 10.8290811,41.9013008 12.7228649,46.4972358 C14.6625946,51.2048238 17.3993514,55.215935 20.9334054,58.5305691 C24.4674595,61.8454743 28.7328649,64.3910027 33.7282703,66.1682385 C38.7239459,67.9454743 44.278,68.8346341 50.3896216,68.8346341 C56.5012432,68.8346341 62.0415135,67.9454743 67.010973,66.1682385 C71.9796216,64.3910027 76.2182703,61.8454743 79.7261081,58.5305691 C83.2336757,55.215935 85.9436757,51.2048238 87.8569189,46.4972358 C89.725027,41.9013008 90.6736757,36.7511653 90.7177297,31.0557724 L90.7244865,31.0557724 L90.7244865,21.318374 L95.9069189,19.7676965 C98.7877297,18.9059079 100.426108,15.8655285 99.5663784,12.9771816 Z M68.8937027,34.0694309 L68.8937027,51.7220054 C67.7901892,52.5268835 66.6412703,53.2257995 65.4477568,53.8190244 C64.2512703,54.4136043 62.9772162,54.9016802 61.6255946,55.282439 C60.2734324,55.6637398 58.823973,55.9507317 57.2774865,56.1423306 C55.7301892,56.3333875 54.0650541,56.4290515 52.2818108,56.4290515 C49.1118108,56.4290515 46.1931622,55.875664 43.5253243,54.7688889 C40.8566757,53.6631978 38.5496486,52.1244444 36.603973,50.1526287 C34.6577568,48.181355 33.138027,45.8279675 32.0447838,43.0916531 C30.9515405,40.3580488 30.4050541,37.3710569 30.4050541,34.1301355 C30.4050541,30.8512737 30.9366757,27.8439566 31.9999189,25.1079133 C33.0626216,22.3729539 34.5720811,20.0195664 36.5288378,18.0469377 C38.4850541,16.075935 40.8572162,14.5472087 43.6458649,13.4607588 C46.3104595,12.4225474 49.2999189,11.882168 52.6145135,11.8393496 C52.7350541,11.8347425 52.8626216,11.8320325 52.9977568,11.8320325 L53.0347838,11.8314905 C57.7088378,11.8314905 62.8447838,12.8675339 68.4423514,14.9393496 L68.4372162,26.1005962 L68.1796486,26.1005962 L67.4496486,26.1005962 L64.9731622,26.1005962 C64.198027,26.1008672 63.7301892,25.7260705 63.5696486,24.975664 C63.4761351,24.4426016 63.3037027,22.8718699 63.0526216,20.2637398 C60.0634324,19.2499187 56.633973,18.7436856 52.763973,18.7436856 C50.6164054,18.7415176 48.6755946,19.1024932 46.941,19.8266125 C45.2058649,20.5512737 43.7264054,21.5873171 42.5020811,22.9347425 C41.2782973,24.28271 40.3353243,25.9019512 39.6737027,27.7930081 C39.0115405,29.684065 38.6804595,31.7959892 38.6804595,34.1295935 C38.6804595,36.6444986 39.0315405,38.88271 39.7337027,40.8434146 C40.4355946,42.8049322 41.4185676,44.4596748 42.6826216,45.8073713 C43.9466757,47.1550678 45.4512703,48.1859621 47.1966757,48.9003252 C48.9418108,49.6146883 50.8477568,49.9718699 52.9142432,49.9713279 C54.7396486,49.9713279 56.3299189,49.8054743 57.6842432,49.4737669 C59.0382973,49.1420596 60.3272162,48.684607 61.5507297,48.1008672 L61.5507297,40.1650949 L56.1042432,40.1650949 C55.5828919,40.1650949 55.1712703,40.0192954 54.8704595,39.7274255 C54.5691081,39.4360976 54.4185676,39.079187 54.4191081,38.6561518 L54.4185676,34.0694309 L68.8937027,34.0694309 Z" id="Fill-1"></path>
                </g>
                <g id="Group-8" transform="translate(8.648649, 0.020054)">
                    <mask id="mask-2" fill="white">
                        <use xlink:href="#path-1"></use>
                    </mask>
                    <g id="Clip-7"></g>
                    <path class="st0" d="M33.9012703,7.39363144 C34.0985676,7.07086721 34.7107297,6.0998645 36.8655946,5.79308943 C38.3250541,5.58495935 39.4228919,5.82479675 40.2237027,6.50826558 C41.1634324,7.3299458 41.6691081,8.69363144 41.9366757,9.90772358 C40.7499189,10.0163957 39.5466757,10.1567751 38.3261351,10.3356369 C36.5945135,10.5895664 34.9215405,10.9090786 33.2977568,11.2752033 C33.1742432,10.0223577 33.2201892,8.47439024 33.9012703,7.39363144 M28.8553243,27.2906504 C34.3650541,26.4155827 40.3728919,25.7166667 46.708027,25.2115176 C52.9907297,24.7117886 58.8418108,24.4592141 64.0974865,24.4592141 L64.431,24.4592141 C69.7745135,24.4684282 75.0247838,24.7356369 80.0372162,25.251897 C81.0623514,25.3578591 82.091,25.4787263 83.1218108,25.6101626 L83.1218108,19.3074526 C78.9404595,16.8109756 65.6434324,9.47411924 47.4504595,9.6304878 C47.1020811,7.49905149 46.1904595,4.4695122 43.813973,2.39065041 C42.4107297,1.17357724 39.9407297,-0.170867209 36.098027,0.376558266 C32.2404595,0.926151762 30.2623514,2.90934959 29.2788378,4.47655827 C27.5399189,7.24837398 27.6420811,10.5643631 27.9753243,12.7071816 C13.0593784,17.3901084 3.57937838,26.0960705 0.121,29.5418699 L0.121,34.5605691 C4.28748649,33.0635501 8.56964865,31.7277778 12.8974865,30.6001355 C17.9607297,29.2819783 23.3288378,28.1678862 28.8553243,27.2906504" mask="url(#mask-2)"></path>
                </g>
            </g>
        </g>
    </g>
</svg>
