<?xml version="1.0" encoding="UTF-8"?>
<svg width="185px" height="294px" viewBox="0 0 185 294" version="1.1" xmlns="http://www.w3.org/2000/svg" xmlns:xlink="http://www.w3.org/1999/xlink">
    <!-- Generator: Sketch 46.1 (44463) - http://www.bohemiancoding.com/sketch -->
    <title>logotype</title>
    <desc>Created with Sketch.</desc>
    <defs></defs>
    <g id="Page-1" stroke="none" stroke-width="1" fill="none" fill-rule="evenodd">
        <g id="logotype" fill="#FFFFFF">
            <g transform="translate(0.000000, 1.000000)">
                <path d="M172.2831,186.4172 C168.6991,183.9622 163.7231,182.2982 158.1741,183.2892 C146.9881,185.2862 143.1811,195.9112 142.3161,205.4982 C140.5091,225.5252 131.7931,243.4002 113.4811,252.3832 C82.4021,267.6292 47.4031,247.5952 39.1021,214.8432 C37.0661,206.8112 33.2291,185.4322 17.4971,186.4202 C-6.0149,188.7902 1.7241,219.1292 7.6051,234.1442 C13.9031,250.2212 25.0071,264.0582 38.9841,274.1272 C67.6661,294.7892 106.0541,298.8942 137.2561,281.0972 C154.5411,271.2372 168.2211,255.4652 175.4801,236.9322 C180.7441,223.4952 186.6701,196.2692 172.2831,186.4172" id="Fill-4"></path>
                <path d="M89.2743,140.5783 C59.3953,140.5783 35.3363,117.3993 37.1643,86.9393 C38.8543,58.7773 62.6823,35.8703 90.9823,35.8913 C121.6473,35.9153 147.2903,61.3983 142.9303,93.4503 C139.1233,121.4443 117.4433,140.5783 89.2743,140.5783 M184.1553,22.1583 C182.1613,-2.5537 148.1623,-6.9247 141.0873,16.0853 C111.5823,-3.5497 73.2383,-5.9387 42.4643,12.9673 C13.1813,30.9563 -3.3637,64.9173 0.5753,99.0713 C8.8403,170.7583 98.9813,204.3723 151.8973,155.0783 C183.2113,125.9083 188.3263,79.0703 166.6823,42.8943 C176.7513,40.7983 183.3483,33.4743 184.1973,22.7303 C184.2113,22.5473 184.1923,22.3703 184.1543,22.1943 C184.1533,22.1813 184.1563,22.1713 184.1553,22.1583" id="Fill-1"></path>
            </g>
        </g>
    </g>
</svg>