<svg xmlns="http://www.w3.org/2000/svg" viewBox="0 0 300 300"><path fill="#DCE6F4" d="M40.4 149.7C40.4 89 89.6 39.9 150.3 39.9s109.9 49.2 109.9 109.8c0 60.6-49.2 109.8-109.9 109.8S40.4 210.3 40.4 149.7"/><path fill="#FFF" d="M211 157.1c-3.4-4-8.2-6.2-13.5-6.4-3-.1-5.9.5-8.5 1.7 1.4-3.7 2.4-7.4 2.8-11 1-8.7-1.5-17.3-7-23.7-5.3-6.1-12.6-9.6-20.8-9.8-8.5-.2-16.5 3.2-22.2 9.3-5.5-5.9-13.1-9.3-21.3-9.3-16 0-29 13-29 29 0 10.9 5.3 33.2 40.7 59.8 2.8 2.1 6.2 3.2 9.6 3.2 3.4 0 6.7-1.1 9.5-3.2 3-2.2 5.9-4.6 8.7-7 5.3 7.2 12.3 13.2 17.4 17 1.9 1.5 4.3 2.2 6.6 2.2s4.6-.7 6.5-2.2c8.6-6.5 23.3-19.5 25-34.4.8-5.5-.9-11.1-4.5-15.2z"/><g fill="none" stroke="#333D47" stroke-width="6.5" stroke-linecap="round" stroke-linejoin="round" stroke-miterlimit="10"><path d="M149.9 161c0-8.6 7-15.6 15.6-15.6 4.5 0 8.5 1.9 11.3 4.9 3.1-5.6 5.4-11.6 6.1-17.7 1.8-15.6-9-29.4-24.7-29.9-9.2-.3-17.3 4.3-22.1 11.3-4.6-6.8-12.4-11.3-21.3-11.3-14.2 0-25.8 11.5-25.8 25.8 0 24.5 26.1 47.2 39.4 57.2a12.6 12.6 0 0 0 15.2 0c3.2-2.4 7.1-5.5 11.3-9.3-2.9-4.8-5-10-5-15.4z"/><path d="M191.7 145.5c-5.6-.2-10.5 2.6-13.4 6.8-2.8-4.1-7.5-6.8-12.9-6.8-8.6 0-15.6 7-15.6 15.6 0 14.8 15.8 28.6 23.9 34.6 2.7 2.1 6.5 2.1 9.2 0 7.6-5.7 22.1-18.3 23.7-32.1 1.2-9.5-5.3-17.9-14.9-18.1z"/></g></svg>