<?xml version="1.0" encoding="UTF-8"?>
<svg width="340px" height="62px" viewBox="0 0 340 62" version="1.1" xmlns="http://www.w3.org/2000/svg" xmlns:xlink="http://www.w3.org/1999/xlink">
    <!-- Generator: Sketch 42 (36781) - http://www.bohemiancoding.com/sketch -->
    <title>Stars</title>
    <desc>Created with Sketch.</desc>
    <defs></defs>
    <g id="Page-1" stroke="none" stroke-width="1" fill="none" fill-rule="evenodd">
        <g id="Stars">
            <rect id="Rectangle" fill="#007F4E" x="0" y="0" width="62" height="62" rx="9.6"></rect>
            <polygon id="Star" fill="#FFFFFF" points="31 44.6547231 16.7852183 52 19.5 36.4424538 8 25.4245385 23.8926091 23.1547231 31 9 38.1073909 23.1547231 54 25.4245385 42.5 36.4424538 45.2147817 52"></polygon>
            <rect id="Rectangle" fill="#007F4E" x="69" y="0" width="62" height="62" rx="9.6"></rect>
            <polygon id="Star" fill="#FFFFFF" points="101 44.6547231 86.7852183 52 89.5 36.4424538 78 25.4245385 93.8926091 23.1547231 101 9 108.107391 23.1547231 124 25.4245385 112.5 36.4424538 115.214782 52"></polygon>
            <rect id="Rectangle" fill="#007F4E" x="139" y="0" width="62" height="62" rx="9.6"></rect>
            <polygon id="Star" fill="#FFFFFF" points="170 44.6547231 155.785218 52 158.5 36.4424538 147 25.4245385 162.892609 23.1547231 170 9 177.107391 23.1547231 193 25.4245385 181.5 36.4424538 184.214782 52"></polygon>
            <rect id="Rectangle" fill="#007F4E" x="208" y="0" width="62" height="62" rx="9.6"></rect>
            <polygon id="Star" fill="#FFFFFF" points="240 44.6547231 225.785218 52 228.5 36.4424538 217 25.4245385 232.892609 23.1547231 240 9 247.107391 23.1547231 263 25.4245385 251.5 36.4424538 254.214782 52"></polygon>
            <rect id="Rectangle" fill="#CEC9C8" x="278" y="0" width="62" height="62" rx="9.6"></rect>
            <polygon id="Star" fill="#FFFFFF" points="309 44.6547231 294.785218 52 297.5 36.4424538 286 25.4245385 301.892609 23.1547231 309 9 316.107391 23.1547231 332 25.4245385 320.5 36.4424538 323.214782 52"></polygon>
        </g>
    </g>
</svg>