<?xml version="1.0" encoding="utf-8"?>
<!-- Generator: Adobe Illustrator 21.1.0, SVG Export Plug-In . SVG Version: 6.00 Build 0)  -->
<svg version="1.1" id="Layer_1" xmlns="http://www.w3.org/2000/svg" xmlns:xlink="http://www.w3.org/1999/xlink" x="0px" y="0px"
	 viewBox="0 0 300 300" enable-background="new 0 0 300 300" xml:space="preserve">
<g>
	<path fill="#DCE6F4" d="M33.5,150.2c0-60.6,49.2-109.8,109.9-109.8c60.7,0,109.9,49.2,109.9,109.8c0,60.6-49.2,109.8-109.9,109.8
		C82.7,260,33.5,210.8,33.5,150.2"/>
	<g>
		<path fill="#FFFFFF" d="M257.2,172.9h-60.5h-12.5H80.7c-2.2,0-4.3,1.2-5.5,3.3c-1.5,2.5-1.6,5.8-0.2,8.4
			c4.2,8,14.9,21.3,38.7,21.3h50c18.8,0,29.5-8.4,35.2-15.8h58.3c4.7,0,8.6-3.8,8.6-8.6C265.8,176.8,261.9,172.9,257.2,172.9z"/>
		<path fill="#FFFFFF" d="M102.7,124.3l97.9,43.5c2.2,1,4.6,0.7,6.6-0.7c1.9-1.4,2.9-3.7,2.6-6c-1.1-9.2-8.1-26.9-41.8-42.8
			c1.2-0.5,2.3-1.4,2.9-2.7c1.1-2.6,0-5.6-2.6-6.7c-2.6-1.1-5.6,0-6.7,2.6c-0.6,1.3-0.6,2.7-0.1,3.9c-34.4-14.4-52.2-7.8-59.8-2.4
			c-1.9,1.4-3,3.6-2.7,6C99,121.4,100.5,123.4,102.7,124.3z"/>
		<path fill="#FFFFFF" d="M89.1,155.4c0.3,0.1,0.5,0.1,0.8,0.1c1.4,0,2.7-1,3.1-2.4c0.4-1.7-0.6-3.4-2.3-3.8
			c-0.7-0.2-16.2-4.2-13.6-19.1c2.9-16.4-11.5-25.6-19.4-28.2c-1.7-0.5-3.5,0.4-4,2c-0.5,1.7,0.4,3.4,2,4c0,0,4.6,1.5,8.8,5
			c5.3,4.4,7.5,9.8,6.4,16.1C67.9,145.6,81.5,153.5,89.1,155.4z"/>
		<path fill="#FFFFFF" d="M79.3,100.9c7,4,8.9,9.9,8.9,15.3c0,6.6-2.9,12.3-3.1,12.8c-0.8,1.5-0.2,3.5,1.4,4.2
			c0.5,0.2,1,0.4,1.5,0.4c1.1,0,2.2-0.6,2.8-1.7c4.4-8.4,8.3-26.9-8.2-36.5c-6.4-3.7-9.5-10-9.2-18.8c0.3-7,2.7-12.9,2.8-13
			c0.7-1.6-0.1-3.5-1.7-4.1c-1.6-0.7-3.5,0.1-4.1,1.7C66.2,70.8,62.9,91.5,79.3,100.9z"/>
	</g>
	<g>
		<path fill="#333D47" d="M84.6,156.5c-0.2,0-0.5,0-0.7-0.1c-7.6-1.8-21.2-9.7-18.3-26.3c1.1-6.3-1-11.7-6.4-16.1
			c-4.2-3.5-8.7-5-8.8-5c-1.7-0.5-2.6-2.3-2-4c0.5-1.7,2.3-2.6,4-2c8,2.6,22.3,11.8,19.4,28.2c-2.6,14.8,12.9,18.9,13.6,19.1
			c1.7,0.4,2.7,2.1,2.3,3.8C87.3,155.5,86,156.5,84.6,156.5z"/>
	</g>
	<g>
		<path fill="#333D47" d="M82.6,137.6c-0.5,0-1-0.1-1.5-0.4c-1.5-0.8-2.1-2.7-1.3-4.3l0,0c0.4-0.8,9.7-19.2-5.8-28.1
			c-16.4-9.4-13.1-30.1-9.1-39.7c0.7-1.6,2.5-2.4,4.1-1.7c1.6,0.7,2.4,2.5,1.7,4.1c0,0.1-2.5,6-2.7,13c-0.4,8.7,2.7,15.1,9.2,18.8
			c16.6,9.5,12.6,28,8.2,36.4C84.8,137,83.7,137.6,82.6,137.6z"/>
	</g>
	<g>
		<path fill="#333D47" d="M251.9,184.1h-59.1v-6.5h59.1c1.1,0,2.1-0.9,2.1-2.1c0-1.1-0.9-2.1-2.1-2.1h-73V167h73
			c4.7,0,8.6,3.9,8.6,8.6C260.4,180.3,256.6,184.1,251.9,184.1z"/>
	</g>
	<g>
		<path fill="#333D47" d="M158.4,200h-49.9c-23.8,0-34.5-13.4-38.7-21.3c-1.4-2.6-1.3-5.9,0.2-8.4c1.2-2,3.3-3.3,5.5-3.3h116
			c2.2,0,4.3,1.2,5.5,3.3c1.5,2.5,1.6,5.8,0.2,8.4C192.8,186.6,182.2,200,158.4,200z M75.5,173.5c-0.3,0.3-0.5,1.3-0.1,2.1
			c4.3,8.2,13.6,17.9,33,17.9h49.9c19.4,0,28.6-9.7,33-17.9c0.4-0.8,0.1-1.8-0.1-2.1H75.5z"/>
	</g>
	<g>
		<g>
			<path fill="#333D47" d="M195.2,161.9l-97.9-43.5c-2.2-1-3.6-3-3.9-5.3c-0.2-2.4,0.8-4.6,2.7-6c7.8-5.6,26.5-12.4,63.1,3.8
				s44,34.7,45.1,44.2c0.3,2.4-0.7,4.6-2.6,6C199.8,162.6,197.4,162.8,195.2,161.9z M156.6,116.8c-33.7-15-50-9.2-56.7-4.5
				l97.9,43.6c0,0,0,0,0,0C196.9,147.7,190.3,131.8,156.6,116.8z"/>
		</g>
		
			<ellipse transform="matrix(0.4062 -0.9138 0.9138 0.4062 -2.8834 210.7556)" fill="#333D47" cx="160.7" cy="107.6" rx="5.1" ry="5.1"/>
	</g>
</g>
</svg>
