<?xml version="1.0" encoding="utf-8"?>
<!-- Generator: Adobe Illustrator 19.1.0, SVG Export Plug-In . SVG Version: 6.00 Build 0)  -->
<svg version="1.1" id="Layer_1" xmlns="http://www.w3.org/2000/svg" xmlns:xlink="http://www.w3.org/1999/xlink" x="0px" y="0px"
	 viewBox="0 0 32 32" style="enable-background:new 0 0 32 32;" xml:space="preserve">
<path d="M16,0C10.6,0,4.3,3.2,4.3,12.2c0,8.7,10.2,18.9,10.6,19.4c0.3,0.3,0.7,0.4,1.1,0.4s0.8-0.1,1.1-0.4
	c0.4-0.4,10.6-10.6,10.6-19.4C27.7,3.2,21.4,0,16,0 M16,28.2c-2.5-2.8-8.7-10.1-8.7-16c0-8.5,6.6-9.1,8.7-9.1s8.7,0.7,8.7,9.1
	C24.7,18.1,18.5,25.5,16,28.2"/>
<path d="M16,5c-3.3,0-6.1,2.7-6.1,6.1s2.7,6.1,6.1,6.1s6.1-2.7,6.1-6.1S19.3,5,16,5 M16,14.8c-2.1,0-3.8-1.7-3.8-3.8
	s1.7-3.8,3.8-3.8S19.8,9,19.8,11C19.8,13.1,18.1,14.8,16,14.8"/>
</svg>
