<?xml version="1.0" encoding="utf-8"?>
<!-- Generator: Adobe Illustrator 19.1.0, SVG Export Plug-In . SVG Version: 6.00 Build 0)  -->
<svg version="1.1" id="Layer_1" xmlns="http://www.w3.org/2000/svg" xmlns:xlink="http://www.w3.org/1999/xlink" x="0px" y="0px"
	 width="110px" height="110px" viewBox="0 0 110 110" style="enable-background:new 0 0 110 110;" xml:space="preserve">
<path d="M109,51.2c1.8-3,1.2-6.9-1.4-9.3c-1.9-1.8-2.9-4.5-2.3-7.1c0.8-3.4-1-7-4.3-8.4c-2.5-1.2-4.2-3.5-4.4-6.1
	c-0.4-3.5-3.2-6.4-6.7-6.7c-2.7-0.3-4.9-1.9-6.1-4.4c-1.4-3.2-4.9-4.9-8.4-4.3c-2.6,0.5-5.3-0.4-7.1-2.3c-2.3-2.6-6.2-3.1-9.3-1.4
	c-2.3,1.3-5.2,1.3-7.5,0c-3-1.8-6.9-1.2-9.3,1.4c-1.8,1.9-4.5,2.9-7.1,2.3c-3.4-0.8-7,1-8.4,4.3c-1.2,2.5-3.5,4.2-6.1,4.4
	c-3.5,0.4-6.4,3.2-6.7,6.7c-0.3,2.7-1.9,4.9-4.4,6.1c-3.2,1.4-4.9,4.9-4.3,8.4c0.5,2.6-0.4,5.3-2.3,7.1c-2.6,2.3-3.1,6.2-1.4,9.3
	c1.3,2.3,1.3,5.2,0,7.5c-1.8,3-1.2,6.9,1.4,9.3c1.9,1.8,2.9,4.5,2.3,7.1c-0.8,3.4,1,7,4.3,8.4c2.5,1.2,4.2,3.5,4.4,6.1
	c0.4,3.5,3.2,6.4,6.7,6.7c2.7,0.3,4.9,1.9,6.1,4.4c1.4,3.2,4.9,4.9,8.4,4.3c2.6-0.5,5.3,0.4,7.1,2.3c2.3,2.6,6.2,3.1,9.3,1.4
	c2.3-1.3,5.2-1.3,7.5,0c3,1.8,6.9,1.2,9.3-1.4c1.8-1.9,4.5-2.9,7.1-2.3c3.4,0.8,7-1,8.4-4.3c1.2-2.5,3.5-4.2,6.1-4.4
	c3.5-0.4,6.4-3.2,6.7-6.7c0.3-2.7,1.9-4.9,4.4-6.1c3.2-1.4,4.9-4.9,4.3-8.4c-0.5-2.6,0.4-5.3,2.3-7.1c2.6-2.3,3.1-6.2,1.4-9.3
	C107.7,56.4,107.7,53.6,109,51.2z M29.6,21l1.2,1.6c-0.3,0.3-0.7,0.5-1,0.8l-1.2-1.5C28.9,21.6,29.3,21.3,29.6,21z M23.7,26.5
	l1.5,1.3c-0.3,0.3-0.6,0.6-0.8,1l-1.5-1.3C23.1,27.2,23.4,26.8,23.7,26.5z M21.2,29.6l1.6,1.2c-0.3,0.3-0.5,0.7-0.7,1l-1.6-1.1
	C20.7,30.3,20.9,30,21.2,29.6z M18.9,32.9l1.7,1c-0.2,0.4-0.4,0.7-0.6,1.1l-1.7-1C18.5,33.7,18.7,33.3,18.9,32.9z M17,36.5l1.8,0.9
	c-0.2,0.4-0.4,0.8-0.5,1.2l-1.8-0.8C16.6,37.3,16.8,36.9,17,36.5z M15.4,40.2l1.8,0.7c-0.1,0.4-0.3,0.8-0.4,1.2L15,41.4
	C15.1,41,15.3,40.6,15.4,40.2z M14.2,44l1.9,0.5c-0.1,0.4-0.2,0.8-0.3,1.2l-1.9-0.5C14,44.9,14.1,44.4,14.2,44z M13.3,47.9l1.9,0.3
	c-0.1,0.4-0.1,0.8-0.2,1.3l-1.9-0.3C13.2,48.8,13.3,48.4,13.3,47.9z M12.8,51.9l2,0.1c0,0.4-0.1,0.9-0.1,1.3l-2-0.1
	C12.8,52.8,12.8,52.4,12.8,51.9z M12.8,57.3c0-0.4,0-0.9,0-1.3l2,0c0,0.4,0,0.9,0,1.3L12.8,57.3z M13,60l2-0.2
	c0,0.4,0.1,0.8,0.2,1.3l-1.9,0.3C13.1,60.9,13,60.4,13,60z M13.6,63.9l1.9-0.4c0.1,0.4,0.2,0.8,0.3,1.3l-1.9,0.5
	C13.8,64.8,13.7,64.4,13.6,63.9z M15,69.1c-0.1-0.4-0.3-0.8-0.4-1.3l1.9-0.6c0.1,0.4,0.3,0.8,0.4,1.2L15,69.1z M16,71.6l1.8-0.8
	c0.2,0.4,0.3,0.8,0.5,1.2l-1.8,0.8C16.3,72.4,16.1,72,16,71.6z M18.3,76.4c-0.2-0.4-0.4-0.8-0.6-1.2l1.7-0.9
	c0.2,0.4,0.4,0.8,0.6,1.1L18.3,76.4z M19.7,78.7l1.6-1.1c0.2,0.4,0.5,0.7,0.7,1.1l-1.6,1.1C20.2,79.4,20,79.1,19.7,78.7z M22.9,83
	c-0.3-0.3-0.6-0.7-0.9-1l1.5-1.2c0.3,0.3,0.5,0.7,0.8,1L22.9,83z M25.7,85.9c-0.3-0.3-0.6-0.6-0.9-0.9l1.4-1.4
	c0.3,0.3,0.6,0.6,0.9,0.9L25.7,85.9z M27,26l-1.4-1.4c0.3-0.3,0.6-0.6,1-0.9l1.3,1.4C27.6,25.4,27.3,25.7,27,26z M28.7,88.6
	c-0.3-0.3-0.7-0.6-1-0.9l1.3-1.5c0.3,0.3,0.7,0.6,1,0.8L28.7,88.6z M31.9,91c-0.4-0.2-0.7-0.5-1.1-0.8l1.1-1.6
	c0.3,0.2,0.7,0.5,1.1,0.7L31.9,91z M32.9,21.1l-1.1-1.6c0.4-0.2,0.7-0.5,1.1-0.7l1,1.7C33.6,20.7,33.3,20.9,32.9,21.1z M35.4,93
	c-0.4-0.2-0.8-0.4-1.2-0.7l1-1.7c0.4,0.2,0.7,0.4,1.1,0.6L35.4,93z M36.2,19.1l-0.9-1.7c0.4-0.2,0.8-0.4,1.2-0.6l0.9,1.8
	C36.9,18.7,36.6,18.9,36.2,19.1z M39,94.8c-0.4-0.2-0.8-0.4-1.2-0.5l0.8-1.8c0.4,0.2,0.8,0.3,1.2,0.5L39,94.8z M39.6,17.5l-0.8-1.8
	c0.4-0.2,0.8-0.3,1.2-0.5l0.7,1.8C40.4,17.2,40,17.3,39.6,17.5z M98.5,52.4l-2,0.1c0-0.4-0.1-0.9-0.1-1.3l2-0.2
	C98.4,51.5,98.4,51.9,98.5,52.4z M98,48.4l-1.9,0.3c-0.1-0.4-0.1-0.8-0.2-1.3l1.9-0.4C97.9,47.5,97.9,47.9,98,48.4z M97.2,44.4
	l-1.9,0.5c-0.1-0.4-0.2-0.8-0.3-1.2l1.9-0.6C97,43.6,97.1,44,97.2,44.4z M96,40.6l-1.8,0.7c-0.1-0.4-0.3-0.8-0.5-1.2l1.8-0.7
	C95.7,39.7,95.9,40.2,96,40.6z M93.9,35.7c0.2,0.4,0.4,0.8,0.6,1.2l-1.8,0.8c-0.2-0.4-0.4-0.8-0.6-1.1L93.9,35.7z M92.6,33.3l-1.7,1
	c-0.2-0.4-0.4-0.7-0.7-1.1l1.7-1.1C92.1,32.6,92.3,32.9,92.6,33.3z M89.6,28.9c0.3,0.4,0.5,0.7,0.8,1.1l-1.6,1.2
	c-0.3-0.3-0.5-0.7-0.8-1L89.6,28.9z M86.9,25.8c0.3,0.3,0.6,0.7,0.9,1l-1.5,1.3c-0.3-0.3-0.6-0.6-0.9-0.9L86.9,25.8z M84.1,23
	c0.3,0.3,0.7,0.6,1,0.9l-1.3,1.4c-0.3-0.3-0.6-0.6-0.9-0.9L84.1,23z M42.8,96.2c-0.4-0.1-0.9-0.3-1.3-0.4l0.6-1.9
	c0.4,0.1,0.8,0.3,1.2,0.4L42.8,96.2z M43.2,16.2l-0.6-1.9c0.4-0.1,0.9-0.3,1.3-0.4l0.5,1.9C44.1,15.9,43.6,16,43.2,16.2z M46.7,97.2
	c-0.4-0.1-0.9-0.2-1.3-0.3l0.5-1.9c0.4,0.1,0.8,0.2,1.3,0.3L46.7,97.2z M46.9,15.2l-0.4-1.9c0.4-0.1,0.9-0.2,1.3-0.3l0.4,1.9
	C47.8,15,47.4,15.1,46.9,15.2z M50.7,97.8c-0.4-0.1-0.9-0.1-1.3-0.2l0.3-1.9c0.4,0.1,0.8,0.1,1.3,0.2L50.7,97.8z M50.7,14.5
	l-0.2-1.9c0.4-0.1,0.9-0.1,1.3-0.1l0.2,2C51.6,14.4,51.2,14.5,50.7,14.5z M54.7,98.1c-0.4,0-0.9,0-1.3,0l0.1-2c0.4,0,0.9,0,1.3,0
	L54.7,98.1z M55.8,14.2l-0.2,0c-0.4,0-0.7,0-1.1,0l-0.1-2c0.4,0,0.8,0,1.1,0l0.2,0L55.8,14.2z M57.4,98.1l-0.1-2
	c0.4,0,0.9,0,1.3-0.1l0.1,2C58.2,98,57.8,98.1,57.4,98.1z M59.7,14.4c-0.4,0-0.8-0.1-1.3-0.1l0.1-2c0.4,0,0.9,0.1,1.3,0.1L59.7,14.4
	z M61.4,97.7l-0.3-1.9c0.4-0.1,0.8-0.1,1.3-0.2l0.3,1.9C62.3,97.6,61.8,97.7,61.4,97.7z M63.5,15c-0.4-0.1-0.8-0.2-1.3-0.2l0.3-1.9
	c0.4,0.1,0.9,0.1,1.3,0.2L63.5,15z M65.3,97l-0.4-1.9c0.4-0.1,0.8-0.2,1.2-0.3l0.5,1.9C66.2,96.8,65.8,96.9,65.3,97z M67.2,15.9
	c-0.4-0.1-0.8-0.2-1.2-0.3l0.5-1.9c0.4,0.1,0.9,0.2,1.3,0.4L67.2,15.9z M69.2,95.9l-0.6-1.9c0.4-0.1,0.8-0.3,1.2-0.4l0.7,1.8
	C70,95.6,69.6,95.8,69.2,95.9z M70.8,17.1c-0.4-0.2-0.8-0.3-1.2-0.5l0.7-1.8c0.4,0.2,0.8,0.3,1.3,0.5L70.8,17.1z M72.9,94.5
	l-0.8-1.8c0.4-0.2,0.8-0.3,1.2-0.5l0.8,1.8C73.8,94.1,73.3,94.3,72.9,94.5z M74.3,18.7c-0.4-0.2-0.8-0.4-1.2-0.6l0.8-1.8
	c0.4,0.2,0.8,0.4,1.2,0.6L74.3,18.7z M76.5,92.7l-1-1.7c0.4-0.2,0.7-0.4,1.1-0.6l1,1.7C77.3,92.3,76.9,92.5,76.5,92.7z M77.7,20.7
	c-0.4-0.2-0.7-0.5-1.1-0.7l1-1.7c0.4,0.2,0.8,0.5,1.1,0.7L77.7,20.7z M79.9,90.6L78.8,89c0.3-0.2,0.7-0.5,1-0.7l1.2,1.6
	C80.7,90.1,80.3,90.3,79.9,90.6z M80.8,22.9c-0.3-0.3-0.7-0.5-1-0.8l1.2-1.6c0.4,0.3,0.7,0.5,1.1,0.8L80.8,22.9z M83.1,88.1
	l-1.3-1.5c0.3-0.3,0.6-0.6,1-0.8l1.3,1.5C83.8,87.6,83.5,87.9,83.1,88.1z M86.1,85.4L84.7,84c0.3-0.3,0.6-0.6,0.9-0.9l1.4,1.3
	C86.7,84.8,86.4,85.1,86.1,85.4z M88.8,82.4l-1.5-1.2c0.3-0.3,0.5-0.7,0.8-1l1.6,1.2C89.4,81.7,89.1,82.1,88.8,82.4z M91.2,79.2
	l-1.6-1.1c0.2-0.4,0.5-0.7,0.7-1.1l1.7,1.1C91.7,78.5,91.5,78.9,91.2,79.2z M93.3,75.8l-1.7-0.9c0.2-0.4,0.4-0.8,0.6-1.1l1.8,0.9
	C93.7,75,93.5,75.4,93.3,75.8z M95.1,72.2l-1.8-0.8c0.2-0.4,0.3-0.8,0.5-1.2l1.8,0.7C95.4,71.3,95.3,71.8,95.1,72.2z M96.5,68.4
	l-1.9-0.6c0.1-0.4,0.3-0.8,0.4-1.2l1.9,0.5C96.8,67.5,96.6,68,96.5,68.4z M97.5,64.5l-1.9-0.4c0.1-0.4,0.2-0.8,0.3-1.3l1.9,0.4
	C97.7,63.6,97.6,64.1,97.5,64.5z M98.2,60.5l-1.9-0.2c0.1-0.4,0.1-0.8,0.1-1.3l2,0.2C98.3,59.7,98.3,60.1,98.2,60.5z M98.6,55.2
	c0,0.4,0,0.9,0,1.3l-2-0.1c0-0.4,0-0.9,0-1.3V55h2V55.2z"/>
</svg>
