<?xml version="1.0" encoding="UTF-8"?>
<svg width="442px" height="446px" viewBox="0 0 442 446" version="1.1" xmlns="http://www.w3.org/2000/svg" xmlns:xlink="http://www.w3.org/1999/xlink">
    <!-- Generator: Sketch 46.1 (44463) - http://www.bohemiancoding.com/sketch -->
    <title>Artboard</title>
    <desc>Created with Sketch.</desc>
    <defs>
        <polygon id="path-1" points="441.69 0.4863 441.69 445 0.000164901108 445 0.000164901108 0.4863"></polygon>
    </defs>
    <g id="UI---consolidated-v2" stroke="none" stroke-width="1" fill="none" fill-rule="evenodd">
        <g id="Artboard">
            <g id="Page-1">
                <g id="Group-3" transform="translate(0.000000, 0.514000)">
                    <mask id="mask-2" fill="white">
                        <use xlink:href="#path-1"></use>
                    </mask>
                    <g id="Clip-2"></g>
                    <path d="M13.0545,146.7233 C-19.4325,246.3073 10.5895,341.1873 82.3025,396.2643 C156.5625,453.2983 260.4495,462.1733 340.2275,412.7913 C418.4225,364.3893 454.8075,263.7743 437.4225,173.3653 C417.1985,68.1893 328.2095,2.4773 222.7865,0.4863 C129.8075,2.2423 44.4955,50.3463 13.0545,146.7233 Z" id="Fill-1" fill="#F6323E" mask="url(#mask-2)"></path>
                </g>
                <path d="M218.0174,234.4251 C188.1394,234.4251 164.0794,211.2461 165.9074,180.7861 C167.5984,152.6241 191.4264,129.7171 219.7254,129.7381 C250.3914,129.7621 276.0334,155.2451 271.6744,187.2971 C267.8664,215.2911 246.1864,234.4251 218.0174,234.4251 M312.8984,116.0051 C310.9044,91.2931 276.9054,86.9221 269.8314,109.9321 C240.3254,90.2971 201.9814,87.9081 171.2074,106.8141 C141.9254,124.8031 125.3804,158.7641 129.3184,192.9181 C137.5834,264.6051 227.7254,298.2191 280.6414,248.9251 C311.9544,219.7551 317.0694,172.9171 295.4264,136.7411 C305.4944,134.6451 312.0924,127.3211 312.9404,116.5771 C312.9554,116.3941 312.9354,116.2171 312.8974,116.0411 C312.8964,116.0281 312.8994,116.0181 312.8984,116.0051" id="Fill-4" fill="#FFFFFF"></path>
                <path d="M301.0277,280.264 C297.4427,277.809 292.4667,276.145 286.9177,277.136 C275.7317,279.133 271.9247,289.758 271.0597,299.345 C269.2527,319.372 260.5367,337.247 242.2247,346.23 C211.1457,361.476 176.1477,341.442 167.8457,308.69 C165.8097,300.658 161.9737,279.279 146.2407,280.267 C122.7287,282.637 130.4687,312.976 136.3497,327.991 C142.6467,344.068 153.7507,357.905 167.7277,367.974 C196.4097,388.636 234.7977,392.741 265.9997,374.944 C283.2847,365.084 296.9647,349.312 304.2237,330.779 C309.4877,317.342 315.4137,290.116 301.0277,280.264" id="Fill-6" fill="#FFFFFF"></path>
            </g>
        </g>
    </g>
</svg>