<?xml version="1.0" encoding="utf-8"?>
<!-- Generator: Adobe Illustrator 19.1.0, SVG Export Plug-In . SVG Version: 6.00 Build 0)  -->
<svg version="1.1" id="Layer_1" xmlns="http://www.w3.org/2000/svg" xmlns:xlink="http://www.w3.org/1999/xlink" x="0px" y="0px"
	 viewBox="0 0 32 32" style="enable-background:new 0 0 32 32;" xml:space="preserve">

<g>
	<path class="st0" d="M27,12c0-6.2-5.1-11.3-11.3-11.3S4.4,5.7,4.4,12c0,5.4,3.9,10,9,11l2.4,8.2L18,23C23.2,21.9,27,17.4,27,12z"/>
</g>
<g>
	<path class="st1" d="M18.1,12.2h2.6l1.5,2.4c0,0,0,0.6,0,0.9c0,0.3,0,0.9,0,0.9h-1.5"/>
	<polyline class="st1" points="14.9,16.5 18.1,16.5 18.1,10.4 14.9,10.4 	"/>
	<polyline class="st1" points="11.7,11.9 11.7,16.5 13.2,16.5 	"/>
	<ellipse class="st1" cx="19.9" cy="16.8" rx="0.9" ry="0.9"/>
	<ellipse class="st1" cx="14" cy="16.8" rx="0.9" ry="0.9"/>
	<path class="st1" d="M14,8.2c0,1.5-1.2,2.7-2.6,2.7S8.8,9.7,8.8,8.2c0-1.5,1.2-2.7,2.6-2.7S14,6.8,14,8.2z"/>
	<polyline class="st0" points="11.1,6.7 11.1,8.5 12.3,8.5 	"/>
	<line class="st0" x1="8.8" y1="13.4" x2="10.5" y2="13.4"/>
	<line class="st0" x1="9.7" y1="14.6" x2="10.5" y2="14.6"/>
	<line class="st0" x1="10.2" y1="15.9" x2="10.5" y2="15.9"/>
	<line class="st1" x1="18.1" y1="14.6" x2="22" y2="14.6"/>
	<line class="st1" x1="18.1" y1="16.5" x2="18.1" y2="16.5"/>
	<line class="st1" x1="18.1" y1="16.5" x2="19.1" y2="16.5"/>
</g>
</svg>
