<?xml version="1.0" encoding="utf-8"?>
<!-- Generator: Adobe Illustrator 19.1.0, SVG Export Plug-In . SVG Version: 6.00 Build 0)  -->
<svg version="1.1" id="Layer_1" xmlns="http://www.w3.org/2000/svg" xmlns:xlink="http://www.w3.org/1999/xlink" x="0px" y="0px"
	 viewBox="0 0 32 32" style="enable-background:new 0 0 32 32;" xml:space="preserve">
<path id="path-1" d="M16,32C7.2,32,0,24.8,0,16C0,7.2,7.2,0,16,0s16,7.2,16,16C32,24.8,24.8,32,16,32 M16,3C8.8,3,3,8.8,3,16
	s5.8,13,13,13s13-5.8,13-13S23.2,3,16,3 M22.5,17.5h-3h-2H16c-0.8,0-1.5-0.7-1.5-1.5V7c0-0.8,0.7-1.5,1.5-1.5s1.5,0.7,1.5,1.5v7.5h2
	h3c0.8,0,1.5,0.7,1.5,1.5S23.3,17.5,22.5,17.5"/>
</svg>
