<?xml version="1.0" encoding="utf-8"?>
<!-- Generator: Adobe Illustrator 21.1.0, SVG Export Plug-In . SVG Version: 6.00 Build 0)  -->
<svg version="1.1" id="Layer_1" xmlns="http://www.w3.org/2000/svg" xmlns:xlink="http://www.w3.org/1999/xlink" x="0px" y="0px"
	 viewBox="0 0 219.9 219.6" enable-background="new 0 0 219.9 219.6" xml:space="preserve">
<title>2</title>
<path fill="#DCE6F4" d="M0,109.8C-0.1,49.1,49-0.2,109.7-0.3s110,49,110.1,109.7c0.1,60.7-49,110-109.7,110.1c-0.1,0-0.1,0-0.2,0
	C49.3,219.6,0.1,170.5,0,109.8"/>
<path fill="#FFFFFF" d="M77.7,46.5c0.7,0.1,1.4,0.1,2.1,0v2.7c0,0.6-0.5,1-1,1c-0.6,0-1-0.5-1-1V46.5z M145,46.6c0.3,0,0.7,0,1-0.1
	v2.7c0,0.6-0.5,1-1,1c-0.6,0-1-0.5-1-1v-2.7C144.2,46.5,144.6,46.6,145,46.6L145,46.6z"/>
<path fill="#FFFFFF" d="M173.8,49.4h-19.1v-7c0-1.9-2.1-3.4-4.6-3.4s-4.6,1.5-4.6,3.4v6.9H92.1v-6.9c0-1.9-2.1-3.4-4.6-3.4
	S83,40.6,83,42.4v6.9H63.5c-9.3,0-16.9,7.6-16.9,16.9v95.5c0,9.3,7.6,16.9,16.9,16.9h110.3c9.3,0,16.9-7.6,16.9-16.9V66.3
	C190.6,56.9,183.1,49.4,173.8,49.4z"/>
<path fill="none" stroke="#333E48" stroke-width="6.5" stroke-linecap="round" stroke-linejoin="round" d="M164.4,46.3h-19.1v6.8
	c0.1,2.5-1.8,4.7-4.3,4.8c-2.5,0.1-4.7-1.8-4.8-4.3c0-0.1,0-0.3,0-0.4v-6.8H82.9v6.8c-0.1,2.5-2.3,4.5-4.8,4.3
	c-2.4-0.1-4.2-2-4.3-4.3v-6.8H54.1c-7.3,0-13.2,5.9-13.2,13.2V155c0,7.3,5.9,13.2,13.2,13.2h110.3c7.3,0,13.2-5.9,13.2-13.2V59.5
	C177.6,52.3,171.7,46.4,164.4,46.3z"/>
<path fill="#333E48" d="M78.3,50.1L78.3,50.1c-2.5,0-4.6-1.5-4.6-3.4v-11c0-1.9,2.1-3.4,4.6-3.4l0,0c2.5,0,4.6,1.5,4.6,3.4v11
	C82.9,48.6,80.8,50.1,78.3,50.1z"/>
<path fill="#333E48" d="M140.8,50.1L140.8,50.1c-2.5,0-4.6-1.5-4.6-3.4v-11c0-1.9,2.1-3.4,4.6-3.4l0,0c2.5,0,4.6,1.5,4.6,3.4v11
	C145.3,48.6,143.3,50.1,140.8,50.1z"/>
<line fill="none" stroke="#333E48" stroke-width="6.5" stroke-linecap="round" stroke-linejoin="round" x1="41" y1="84.3" x2="176.5" y2="84.3"/>
<path fill="none" stroke="#333E48" stroke-width="6.5" stroke-linecap="round" stroke-linejoin="round" d="M53.3,87.7v48.1
	l19.5,20.6h87.9c2.6,0,4.6-2.1,4.6-4.6c0,0,0,0,0,0V87.7"/>
<polyline fill="none" stroke="#333E48" stroke-width="6.5" stroke-linecap="round" stroke-linejoin="round" points="72.8,156.5 
	72.8,134.8 53.3,135.8 "/>
<path fill="#333E48" d="M106.5,100c-2.1-1.9-4.8-2.8-7.6-2.8c-4.3-0.1-8.4,2.3-10.4,6.1c-2.3,3.8-3.5,9.2-3.5,16s1.2,12.2,3.5,16
	c2.1,3.8,6.1,6.1,10.4,6.1c2.8,0.1,5.5-0.9,7.6-2.8c2.3-2.1,3.9-4.8,4.7-7.7c2.1-7.5,2.1-15.5,0-23.1
	C110.4,104.8,108.8,102.1,106.5,100z M98.9,133.5c-1.9,0-3.3-1.1-4.4-3.5c-1.3-3.4-1.9-7-1.8-10.7c-0.2-3.7,0.4-7.3,1.7-10.7
	c1-2.4,2.5-3.6,4.4-3.6s3.3,1.2,4.4,3.6c1.3,3.4,1.9,7,1.8,10.7c0.1,3.6-0.5,7.3-1.8,10.7C102.2,132.3,100.8,133.5,98.9,133.5
	L98.9,133.5z"/>
<path fill="#333E48" d="M127.9,98.4c-0.7-0.7-1.7-1.1-2.8-1.1c-0.5,0-1,0.1-1.4,0.3l-8.3,3c-0.8,0.3-1.5,0.8-1.9,1.4
	c-0.4,0.7-0.6,1.4-0.6,2.2c0,1,0.4,2,1.1,2.7c1.3,1.2,3.3,1.4,4.9,0.6l2.3-1v30.9c0,1,0.4,2,1.1,2.7c0.7,0.7,1.7,1.1,2.7,1.1
	c2.1,0,3.9-1.7,3.9-3.8c0,0,0,0,0,0v-36.3C129,100.2,128.7,99.1,127.9,98.4z"/>
</svg>
