<?xml version="1.0" encoding="utf-8"?>
<!-- Generator: Adobe Illustrator 19.1.0, SVG Export Plug-In . SVG Version: 6.00 Build 0)  -->
<svg version="1.1" id="Layer_1" xmlns="http://www.w3.org/2000/svg" xmlns:xlink="http://www.w3.org/1999/xlink" x="0px" y="0px"
	 viewBox="0 0 32 32" style="enable-background:new 0 0 32 32;" xml:space="preserve">
<path id="path-1" d="M29.3,17.7C22.8,25.8,17,31.5,16.9,31.6C16.7,31.9,16.3,32,16,32c-0.3,0-0.7-0.1-0.9-0.4
	C15,31.5,9.2,25.8,2.7,17.7C-0.1,14.3-0.7,10,0.8,6.2C2.3,2.4,5.5,0,9,0c3.5,0,5.7,1.7,7,3.6C17.3,1.7,19.5,0,23,0
	c3.4,0,6.6,2.4,8.2,6.2C32.7,10,32.1,14.3,29.3,17.7z M28.6,7.4c-1-2.6-3.3-4.3-5.6-4.3c-4.7,0-5.6,4-5.7,4.2
	C17.2,8,16.6,8.5,16,8.5c-0.6,0-1.2-0.5-1.4-1.2C14.5,6.9,13.5,3.1,9,3.1c-2.3,0-4.5,1.7-5.6,4.3c-1.1,2.8-0.6,5.7,1.4,8.2
	c4.9,6.1,9.4,10.8,11.2,12.7c1.9-1.9,6.3-6.6,11.2-12.7C29.2,13.2,29.7,10.2,28.6,7.4z M26.1,12.4C26.1,12.4,26,12.4,26.1,12.4
	c-0.8,0-1.5-0.6-1.5-1.5c-0.2-2.8-1.9-3-2-3.1c-0.8-0.1-1.3-0.9-1.2-1.8c0.1-0.9,0.8-1.5,1.6-1.3c1.4,0.2,4.2,1.7,4.4,5.9
	C27.5,11.6,26.9,12.4,26.1,12.4z M24.3,13.1c0.4,0,0.7,0.2,1,0.5c0.3,0.3,0.4,0.7,0.4,1.1c0,0.4-0.2,0.8-0.4,1.1
	c-0.3,0.3-0.6,0.5-1,0.5c-0.4,0-0.7-0.2-1-0.5c-0.3-0.3-0.4-0.7-0.4-1.1c0-0.4,0.2-0.8,0.4-1.1C23.6,13.3,23.9,13.1,24.3,13.1z"/>
</svg>
