<?xml version="1.0" encoding="utf-8"?>
<!-- Generator: Adobe Illustrator 21.1.0, SVG Export Plug-In . SVG Version: 6.00 Build 0)  -->
<svg version="1.1" id="Layer_1" xmlns="http://www.w3.org/2000/svg" xmlns:xlink="http://www.w3.org/1999/xlink" x="0px" y="0px"
	 viewBox="0 0 300 300" enable-background="new 0 0 300 300" xml:space="preserve">
<g>
	<path fill="#DCE6F4" d="M40.4,149.7C40.4,89,89.6,39.9,150.3,39.9c60.7,0,109.9,49.2,109.9,109.8c0,60.6-49.2,109.8-109.9,109.8
		C89.6,259.5,40.4,210.3,40.4,149.7"/>
	<path fill="#FFFFFF" d="M211,157.1c-3.4-4-8.2-6.2-13.5-6.4c-3-0.1-5.9,0.5-8.5,1.7c1.4-3.7,2.4-7.4,2.8-11c1-8.7-1.5-17.3-7-23.7
		c-5.3-6.1-12.6-9.6-20.8-9.8c-8.5-0.2-16.5,3.2-22.2,9.3c-5.5-5.9-13.1-9.3-21.3-9.3c-16,0-29,13-29,29c0,10.9,5.3,33.2,40.7,59.8
		c2.8,2.1,6.2,3.2,9.6,3.2c3.4,0,6.7-1.1,9.5-3.2c3-2.2,5.9-4.6,8.7-7c5.3,7.2,12.3,13.2,17.4,17c1.9,1.5,4.3,2.2,6.6,2.2
		c2.3,0,4.6-0.7,6.5-2.2c8.6-6.5,23.3-19.5,25-34.4C216.3,166.8,214.6,161.2,211,157.1z"/>
	<g>
		
			<path fill="none" stroke="#333D47" stroke-width="6.5" stroke-linecap="round" stroke-linejoin="round" stroke-miterlimit="10" d="
			M149.9,161L149.9,161c0-8.6,7-15.6,15.6-15.6c4.5,0,8.5,1.9,11.3,4.9c3.1-5.6,5.4-11.6,6.1-17.7c1.8-15.6-9-29.4-24.7-29.9
			c-9.2-0.3-17.3,4.3-22.1,11.3c-4.6-6.8-12.4-11.3-21.3-11.3c-14.2,0-25.8,11.5-25.8,25.8h0c0,24.5,26.1,47.2,39.4,57.2
			c4.5,3.4,10.7,3.4,15.2,0c3.2-2.4,7.1-5.5,11.3-9.3C152,171.6,149.9,166.4,149.9,161z"/>
		
			<path fill="none" stroke="#333D47" stroke-width="6.5" stroke-linecap="round" stroke-linejoin="round" stroke-miterlimit="10" d="
			M191.7,145.5c-5.6-0.2-10.5,2.6-13.4,6.8c-2.8-4.1-7.5-6.8-12.9-6.8c-8.6,0-15.6,7-15.6,15.6h0c0,14.8,15.8,28.6,23.9,34.6
			c2.7,2.1,6.5,2.1,9.2,0c7.6-5.7,22.1-18.3,23.7-32.1C207.8,154.1,201.3,145.7,191.7,145.5z"/>
	</g>
</g>
</svg>
