<?xml version="1.0" encoding="utf-8"?>
<!-- Generator: Adobe Illustrator 21.1.0, SVG Export Plug-In . SVG Version: 6.00 Build 0)  -->
<svg version="1.1" id="Layer_1" xmlns="http://www.w3.org/2000/svg" xmlns:xlink="http://www.w3.org/1999/xlink" x="0px" y="0px"
	 viewBox="0 0 300 300" enable-background="new 0 0 300 300" xml:space="preserve">
<g>
	<path fill="#DCE6F4" d="M40.2,149.7C40.2,89,89.4,39.9,150.1,39.9c60.7,0,109.9,49.2,109.9,109.8c0,60.6-49.2,109.8-109.9,109.8
		C89.4,259.5,40.2,210.3,40.2,149.7"/>
	<path fill="#FFFFFF" d="M216.1,123.4c1.9,0,3.8-0.7,5.2-2.2c1.4-1.4,2.2-3.2,2.2-5.2s-0.8-3.8-2.2-5.2l-9.7-9.7
		c-1.4-1.4-3.2-2.2-5.2-2.2s-3.8,0.8-5.2,2.2c-2.7,2.7-2.9,6.9-0.5,9.8l-4.1,4.1c-7.9-6.2-17.3-10.4-27.6-12.2v-5.7h0.6
		c5.4,0,9.8-4.4,9.8-9.8s-4.4-9.8-9.8-9.8h-21.8c-5.4,0-9.8,4.4-9.8,9.8s4.4,9.8,9.8,9.8h0.6v5.7c-10.3,1.7-19.7,6-27.6,12.2
		l-4.1-4.1c2.3-2.9,2.1-7.1-0.5-9.8c-2.9-2.9-7.6-2.9-10.4,0l-9.7,9.7c-1.4,1.4-2.2,3.2-2.2,5.2s0.8,3.8,2.2,5.2
		c1.4,1.4,3.2,2.2,5.2,2.2c1.7,0,3.3-0.6,4.6-1.6l4.1,4.1c-8.2,10.5-13,23.6-13,37.9c0,34.1,27.7,61.8,61.8,61.8
		s61.8-27.7,61.8-61.8c0-14.3-4.9-27.4-13-37.9l4.1-4.1C212.9,122.9,214.5,123.4,216.1,123.4z"/>
	<g>
		
			<circle fill="none" stroke="#333E48" stroke-width="6.5" stroke-linecap="round" stroke-linejoin="round" stroke-miterlimit="10" cx="150.1" cy="155.3" r="58.6"/>
		
			<circle fill="none" stroke="#333E48" stroke-width="6.5" stroke-linecap="round" stroke-linejoin="round" stroke-miterlimit="10" cx="150.1" cy="155.3" r="47.7"/>
		
			<line fill="none" stroke="#333E48" stroke-width="6.5" stroke-linecap="round" stroke-linejoin="round" stroke-miterlimit="10" x1="150.1" y1="107.6" x2="150.1" y2="114.4"/>
		
			<line fill="none" stroke="#333E48" stroke-width="6.5" stroke-linecap="round" stroke-linejoin="round" stroke-miterlimit="10" x1="116.4" y1="121.6" x2="121.2" y2="126.4"/>
		
			<line fill="none" stroke="#333E48" stroke-width="6.5" stroke-linecap="round" stroke-linejoin="round" stroke-miterlimit="10" x1="102.5" y1="155.3" x2="109.3" y2="155.3"/>
		
			<line fill="none" stroke="#333E48" stroke-width="6.5" stroke-linecap="round" stroke-linejoin="round" stroke-miterlimit="10" x1="116.4" y1="189" x2="121.2" y2="184.2"/>
		
			<line fill="none" stroke="#333E48" stroke-width="6.5" stroke-linecap="round" stroke-linejoin="round" stroke-miterlimit="10" x1="150.1" y1="203" x2="150.1" y2="196.2"/>
		
			<line fill="none" stroke="#333E48" stroke-width="6.5" stroke-linecap="round" stroke-linejoin="round" stroke-miterlimit="10" x1="183.8" y1="189" x2="179" y2="184.2"/>
		
			<line fill="none" stroke="#333E48" stroke-width="6.5" stroke-linecap="round" stroke-linejoin="round" stroke-miterlimit="10" x1="197.8" y1="155.3" x2="191" y2="155.3"/>
		
			<line fill="none" stroke="#333E48" stroke-width="6.5" stroke-linecap="round" stroke-linejoin="round" stroke-miterlimit="10" x1="183.8" y1="121.6" x2="179" y2="126.4"/>
		
			<circle fill="none" stroke="#333E48" stroke-width="6.5" stroke-linecap="round" stroke-linejoin="round" stroke-miterlimit="10" cx="150.1" cy="155.3" r="2.8"/>
		
			<line fill="none" stroke="#333E48" stroke-width="6.5" stroke-linecap="round" stroke-linejoin="round" stroke-miterlimit="10" x1="143.1" y1="96.2" x2="143.1" y2="88.2"/>
		
			<line fill="none" stroke="#333E48" stroke-width="6.5" stroke-linecap="round" stroke-linejoin="round" stroke-miterlimit="10" x1="157.2" y1="96.2" x2="157.2" y2="88.2"/>
		
			<path fill="none" stroke="#333E48" stroke-width="6.5" stroke-linecap="round" stroke-linejoin="round" stroke-miterlimit="10" d="
			M161,72.3h-21.8c-3.6,0-6.5,2.9-6.5,6.5v0c0,3.6,2.9,6.5,6.5,6.5H161c3.6,0,6.5-2.9,6.5-6.5v0C167.6,75.3,164.6,72.3,161,72.3z"/>
		
			<line fill="none" stroke="#333E48" stroke-width="6.5" stroke-linecap="round" stroke-linejoin="round" stroke-miterlimit="10" x1="105.2" y1="116.7" x2="98.5" y2="110"/>
		
			<line fill="none" stroke="#333E48" stroke-width="6.5" stroke-linecap="round" stroke-linejoin="round" stroke-miterlimit="10" x1="111.5" y1="110.4" x2="104.8" y2="103.7"/>
		
			<path fill="none" stroke="#333E48" stroke-width="6.5" stroke-linecap="round" stroke-linejoin="round" stroke-miterlimit="10" d="
			M99.4,94.9l-9.7,9.7c-1.6,1.6-1.6,4.2,0,5.8v0c1.6,1.6,4.2,1.6,5.8,0l9.7-9.7c1.6-1.6,1.6-4.2,0-5.8h0
			C103.7,93.3,101.1,93.3,99.4,94.9z"/>
		
			<line fill="none" stroke="#333E48" stroke-width="6.5" stroke-linecap="round" stroke-linejoin="round" stroke-miterlimit="10" x1="188.8" y1="110.4" x2="195.5" y2="103.7"/>
		
			<line fill="none" stroke="#333E48" stroke-width="6.5" stroke-linecap="round" stroke-linejoin="round" stroke-miterlimit="10" x1="195.1" y1="116.7" x2="201.7" y2="110"/>
		
			<path fill="none" stroke="#333E48" stroke-width="6.5" stroke-linecap="round" stroke-linejoin="round" stroke-miterlimit="10" d="
			M210.5,104.6l-9.7-9.7c-1.6-1.6-4.2-1.6-5.8,0v0c-1.6,1.6-1.6,4.2,0,5.8l9.7,9.7c1.6,1.6,4.2,1.6,5.8,0l0,0
			C212.1,108.8,212.1,106.2,210.5,104.6z"/>
		
			<line fill="none" stroke="#333E48" stroke-width="6.5" stroke-linecap="round" stroke-linejoin="round" stroke-miterlimit="10" x1="150.1" y1="155.3" x2="166.8" y2="138.6"/>
	</g>
</g>
</svg>
