<?xml version="1.0" encoding="utf-8"?>
<!-- Generator: Adobe Illustrator 19.1.0, SVG Export Plug-In . SVG Version: 6.00 Build 0)  -->
<svg version="1.1" id="Layer_1" xmlns="http://www.w3.org/2000/svg" xmlns:xlink="http://www.w3.org/1999/xlink" x="0px" y="0px"
	 viewBox="0 0 32 32" style="enable-background:new 0 0 32 32;" xml:space="preserve">
<path d="M31.8,14.7c-0.2-0.4-5.9-8.6-15.8-8.6S0.4,14.4,0.2,14.7c-0.3,0.4-0.3,1,0,1.4c0.2,0.4,5.9,8.6,15.8,8.6s15.6-8.2,15.8-8.6
	C32.1,15.7,32.1,15.2,31.8,14.7 M16,22.2c-6.9,0-11.6-4.9-13.2-6.8C4.4,13.6,9,8.7,16,8.7c6.9,0,11.6,4.9,13.2,6.8
	C27.6,17.3,23,22.2,16,22.2"/>
<path d="M16,9.6c-1.3,0-2.5,0.4-3.5,1.2c-2.6,2-3.1,5.6-1.2,8.2c1.1,1.5,2.8,2.3,4.7,2.3c1.3,0,2.5-0.4,3.5-1.2
	c1.3-0.9,2.1-2.3,2.3-3.9c0.2-1.6-0.2-3.1-1.1-4.4C19.6,10.4,17.9,9.6,16,9.6 M20,16c-0.1,1.1-0.7,2-1.6,2.6
	c-0.7,0.5-1.5,0.8-2.4,0.8c-1.3,0-2.4-0.6-3.2-1.6c-1.3-1.8-1-4.3,0.8-5.6c0.7-0.5,1.5-0.8,2.4-0.8c1.3,0,2.4,0.6,3.2,1.6
	C19.8,13.9,20.1,15,20,16"/>
<path d="M17.3,12.8c-0.3,0-0.7,0.1-0.9,0.4c-0.2,0.2-0.4,0.6-0.4,0.9c0,0.3,0.1,0.7,0.4,0.9c0.2,0.2,0.6,0.4,0.9,0.4
	s0.7-0.1,0.9-0.4c0.2-0.2,0.4-0.6,0.4-0.9c0-0.3-0.1-0.7-0.4-0.9C18,13,17.7,12.8,17.3,12.8"/>
</svg>
