<?xml version="1.0" encoding="utf-8"?>
<!-- Generator: Adobe Illustrator 21.1.0, SVG Export Plug-In . SVG Version: 6.00 Build 0)  -->
<svg version="1.1" id="Layer_1" xmlns="http://www.w3.org/2000/svg" xmlns:xlink="http://www.w3.org/1999/xlink" x="0px" y="0px"
	 viewBox="0 0 219.9 219.6" enable-background="new 0 0 219.9 219.6" xml:space="preserve">
<title>1</title>
<path fill="#DCE6F4" d="M0,109.8c-0.1-60.7,49.1-110,109.8-110s110,49.1,110,109.8c0.1,60.7-49.1,110-109.8,110c0,0-0.1,0-0.1,0
	C49.3,219.7,0,170.5,0,109.8C0,109.8,0,109.8,0,109.8"/>
<path fill="#FFFFFF" d="M214.6,114.5l-20.2-33c-2-3.2-5.4-5.1-9.1-5.1h-33.3c-5.9,0-10.7,4.8-10.7,10.7v66h-35.8
	c-0.4-2.2-1.3-4.4-2.6-6.2l2.4-0.5c0.6,1,1.7,1.6,2.9,1.6H133c1.9,0,3.5-1.6,3.5-3.5l0.2-85.8c0-0.9-0.3-1.8-1-2.5
	c-0.7-0.6-1.6-1-2.5-1l-104,0.2c-1.9,0-3.5,1.6-3.5,3.5v85.6c0,1.9,1.6,3.5,3.5,3.5H69c1.4,0,2.7-0.8,3.2-2.1l2.9,0.5
	c-1.5,2-2.5,4.2-3,6.7H29.2c-1.9,0-3.5,1.6-3.5,3.5s1.6,3.5,3.5,3.5h42.9c1.9,9.2,11,15,20.2,13.1c6.7-1.4,11.8-6.7,13.2-13.3h51.3
	c1.8,9.2,10.8,15.2,20,13.4c6.8-1.3,12.1-6.6,13.4-13.4h15.4c5.9,0,10.7-4.8,10.7-10.7v-28.8C216.2,118.2,215.7,116.2,214.6,114.5z"
	/>
<circle fill="none" stroke="#333D47" stroke-width="6.5" stroke-miterlimit="10" cx="83.9" cy="152.4" r="13.8"/>
<circle fill="none" stroke="#333D47" stroke-width="6.5" stroke-miterlimit="10" cx="168.5" cy="152.4" r="13.8"/>
<circle fill="#333D47" cx="168.5" cy="152.4" r="3.9"/>
<circle fill="#333D47" cx="83.9" cy="152.4" r="3.9"/>
<line fill="none" stroke="#333D47" stroke-width="6.5" stroke-miterlimit="10" x1="154.8" y1="152.4" x2="97.6" y2="152.4"/>
<path fill="none" stroke="#333D47" stroke-width="6.5" stroke-miterlimit="10" d="M139.6,152.4V86.9c0-6.3,5.1-11.3,11.3-11.3h0
	h27.3c3.9,0,7.6,2.1,9.7,5.4l18.5,30.2c1.1,1.8,1.7,3.8,1.7,5.9V141c0,6.3-5.1,11.3-11.3,11.3c0,0,0,0,0,0h-14.5"/>
<path fill="none" stroke="#333D47" stroke-width="6.5" stroke-miterlimit="10" d="M153.1,87.6h23.6c1,0,1.9,0.5,2.4,1.4l13,22
	c0.8,1.3,0.3,3-1,3.8c-0.4,0.3-0.9,0.4-1.4,0.4h-36.6c-1.5,0-2.8-1.2-2.8-2.8v-22C150.4,88.9,151.6,87.6,153.1,87.6
	C153.1,87.6,153.1,87.6,153.1,87.6z"/>
<path fill="none" stroke="#333E48" stroke-width="6.5" stroke-linecap="round" stroke-linejoin="round" d="M64.2,140.4H30
	c-3.1,0-5.7-2.5-5.7-5.7l0,0V60.4c0-3.1,2.5-5.7,5.7-5.7l92.6-0.2c3.1,0,5.7,2.5,5.7,5.7c0,0,0,0,0,0l-0.2,74.3
	c0,3.2-2.6,5.7-5.7,5.7h-19.2"/>
<path fill="#F7323F" d="M77.9,86.4c-3,0-5.5,2.4-5.7,5.4c-0.2,3,2.1,5.5,5,5.7c0.2,0,0.3,0,0.5,0c2.9,0.1,5.4-2.1,5.7-5
	c0.4-3-1.7-5.7-4.7-6C78.4,86.4,78.2,86.4,77.9,86.4z"/>
<path fill="#F7323F" d="M101,91.1C98.8,80,89.4,73,78.2,72.8C68.4,73,59.3,78.1,56,88.3c-3.4,10.5-0.3,20.6,7.3,26.4
	c7.9,6,18.9,7,27.3,1.8C98.9,111.3,102.8,100.7,101,91.1z M86.8,107.7c-0.8,2-2.2,3.6-4,4.7c-3.3,1.8-7.4,1.5-10.4-0.7
	c-1.5-1.1-2.6-2.5-3.3-4.2c-0.6-1.6-1.4-4.8,1-5.1c1.7-0.1,2.1,2.2,2.3,3c0.6,3.1,3.7,5,6.7,4.4c0.4-0.1,0.8-0.2,1.2-0.4
	c1.8-1,3-2.9,3.1-5c0.1-1,0.5-2.1,1.7-2.4c0.5-0.1,1.1,0,1.5,0.3C88,103.4,87.4,106.3,86.8,107.7z M85.9,87.2
	c2.3,3.8,1.7,8.8-1.6,11.9c-5.6,5.2-15.2,1.7-16-5.9c-0.4-3.6,1.3-7.2,4.4-9.1c3.2-1.9,7.3-1.8,10.4,0.3c0.4-1.2,1.7-1.9,3-1.5
	c0.9,0.3,1.6,1.2,1.6,2.1l0,0c0,0,0,0,0,0.1C87.8,86.1,87,87,85.9,87.2L85.9,87.2z"/>
<line fill="none" stroke="#333E48" stroke-width="7" stroke-linecap="round" stroke-linejoin="round" x1="68.8" y1="152.4" x2="24.4" y2="152.4"/>
</svg>
