<?xml version="1.0" encoding="utf-8"?>
<!-- Generator: Adobe Illustrator 19.1.0, SVG Export Plug-In . SVG Version: 6.00 Build 0)  -->
<svg version="1.1" id="Layer_1" xmlns="http://www.w3.org/2000/svg" xmlns:xlink="http://www.w3.org/1999/xlink" x="0px" y="0px"
	 width="32px" height="32px" viewBox="0 0 32 32" style="enable-background:new 0 0 32 32;" xml:space="preserve">
<g>
	<path d="M16,0.8C7.6,0.8,0.8,7.6,0.8,16S7.6,31.2,16,31.2S31.2,24.4,31.2,16S24.4,0.8,16,0.8z M16,26.8C10,26.8,5.2,22,5.2,16
		S10,5.2,16,5.2c6,0,10.8,4.9,10.8,10.8S22,26.8,16,26.8z"/>
	<path d="M17.1,15.5V8.2c0-0.3-0.1-0.6-0.3-0.8c-0.4-0.4-1.1-0.4-1.5,0c-0.2,0.2-0.3,0.5-0.3,0.8v7.7l0,0c0,0.3,0.1,0.6,0.3,0.9l0,0
		l0,0l2.8,2.8c0.2,0.2,0.5,0.3,0.8,0.3c0.6,0,1.1-0.5,1.1-1.1c0-0.3-0.1-0.6-0.3-0.8L17.1,15.5z"/>
</g>
</svg>
