<?xml version="1.0" encoding="utf-8"?>
<!-- Generator: Adobe Illustrator 19.1.0, SVG Export Plug-In . SVG Version: 6.00 Build 0)  -->
<svg version="1.1" id="Layer_1" xmlns="http://www.w3.org/2000/svg" xmlns:xlink="http://www.w3.org/1999/xlink" x="0px" y="0px"
	 viewBox="0 0 32 32" style="enable-background:new 0 0 32 32;" xml:space="preserve">
<g>
	<path d="M15.7,25c0.4,0,1,0.2,1,0.2c0.1,0,0.1,0.1,0.2,0.1l7.6,5.1c0,0,0.1,0,0.1,0l-2.3-8.7c0-0.1,0-0.1,0-0.2
		l0.6-1.7c0,0,0.1-0.1,0.1-0.2l7.5-6.6c0,0,0-0.1,0-0.1l-8.6-0.7c-0.1,0-0.1,0-0.2,0l-1.4-1c0,0-0.1-0.1-0.1-0.2l-4.1-9.5
		c0-0.1-0.1-0.1-0.1,0l-4.1,9.5c0,0.1-0.1,0.1-0.1,0.2l-1.3,1c-0.1,0-0.1,0-0.2,0L1.6,13c-0.1,0-0.1,0,0,0.1l7.5,6.6
		c0,0,0.1,0.1,0.1,0.2l0.6,1.7c0,0.1,0,0.1,0,0.2l-2.3,8.7c0,0.1,0,0.1,0.1,0l7.6-5.1c0,0,0.1-0.1,0.2-0.1
		C15.3,25.2,15.5,25,15.7,25"/>
	<path d="M15.7,25c0.4,0,1,0.2,1,0.2c0.1,0,0.1,0.1,0.2,0.1l7.6,5.1c0,0,0.1,0,0.1,0l-2.3-8.7c0-0.1,0-0.1,0-0.2
		l0.6-1.7c0,0,0.1-0.1,0.1-0.2l7.5-6.6c0,0,0-0.1,0-0.1l-8.6-0.7c-0.1,0-0.1,0-0.2,0l-1.4-1c0,0-0.1-0.1-0.1-0.2l-4.1-9.5
		c0-0.1-0.1-0.1-0.1,0l-4.1,9.5c0,0.1-0.1,0.1-0.1,0.2l-1.3,1c-0.1,0-0.1,0-0.2,0L1.6,13c-0.1,0-0.1,0,0,0.1l7.5,6.6
		c0,0,0.1,0.1,0.1,0.2l0.6,1.7c0,0.1,0,0.1,0,0.2l-2.3,8.7c0,0.1,0,0.1,0.1,0l7.6-5.1c0,0,0.1-0.1,0.2-0.1
		C15.3,25.2,15.5,25,15.7,25"/>
</g>
</svg>
