<?xml version="1.0" encoding="utf-8"?>
<!-- Generator: Adobe Illustrator 21.1.0, SVG Export Plug-In . SVG Version: 6.00 Build 0)  -->
<svg version="1.1" id="Layer_1" xmlns="http://www.w3.org/2000/svg" xmlns:xlink="http://www.w3.org/1999/xlink" x="0px" y="0px"
	 viewBox="0 0 300 300" enable-background="new 0 0 300 300" xml:space="preserve">
<g>
	<path fill="#DCE6F4" d="M40.6,149.7C40.6,89,89.8,39.9,150.5,39.9c60.7,0,109.9,49.2,109.9,109.8c0,60.6-49.2,109.8-109.9,109.8
		C89.8,259.5,40.6,210.3,40.6,149.7"/>
	<path fill="#FFFFFF" d="M216.3,83.8h-34.5c-3.4-9.5-12.4-15.9-22.7-15.9c-10.3,0-19.3,6.4-22.7,15.9h-34.5c-1.8,0-3.2,1.5-3.2,3.2
		v10.1c0,1.8,1.5,3.2,3.2,3.2h3.2v16.9c0,1.8,1.5,3.2,3.2,3.2h3v93.7c0,9.1,7.4,16.6,16.6,16.6h62.5c9.1,0,16.6-7.4,16.6-16.6v-93.7
		h3c1.8,0,3.2-1.5,3.2-3.2v-16.9h3.2c1.8,0,3.2-1.5,3.2-3.2V87.1C219.5,85.3,218.1,83.8,216.3,83.8z M159,74.4
		c6.7,0,12.6,3.7,15.6,9.4h-31.3C146.4,78.1,152.3,74.4,159,74.4z"/>
	<g>
		
			<path fill="none" stroke="#333E48" stroke-width="6.5" stroke-linecap="round" stroke-linejoin="round" stroke-miterlimit="10" d="
			M181.7,221.9h-62.5c-7.3,0-13.3-6-13.3-13.3v-97h89.2v97C195.1,215.9,189.1,221.9,181.7,221.9z"/>
		
			<path fill="none" stroke="#333E48" stroke-width="6.5" stroke-linecap="round" stroke-linejoin="round" stroke-miterlimit="10" d="
			M125.8,206.9L125.8,206.9c-2.9,0-5.3-2.4-5.3-5.3v-90h10.7v90C131.1,204.5,128.7,206.9,125.8,206.9z"/>
		
			<path fill="none" stroke="#333E48" stroke-width="6.5" stroke-linecap="round" stroke-linejoin="round" stroke-miterlimit="10" d="
			M150.5,206.9L150.5,206.9c-2.9,0-5.3-2.4-5.3-5.3v-90h10.7v90C155.8,204.5,153.4,206.9,150.5,206.9z"/>
		
			<path fill="none" stroke="#333E48" stroke-width="6.5" stroke-linecap="round" stroke-linejoin="round" stroke-miterlimit="10" d="
			M175.3,206.9L175.3,206.9c-2.9,0-5.3-2.4-5.3-5.3v-90h10.7v90C180.6,204.5,178.2,206.9,175.3,206.9z"/>
		
			<rect x="99.7" y="91.5" fill="none" stroke="#333E48" stroke-width="6.5" stroke-linecap="round" stroke-linejoin="round" stroke-miterlimit="10" width="101.6" height="20.1"/>
		
			<rect x="93.3" y="81.4" fill="none" stroke="#333E48" stroke-width="6.5" stroke-linecap="round" stroke-linejoin="round" stroke-miterlimit="10" width="114.5" height="10.1"/>
		
			<path fill="none" stroke="#333E48" stroke-width="6.5" stroke-linecap="round" stroke-linejoin="round" stroke-miterlimit="10" d="
			M170.8,81.4c-2.3-9.1-10.5-15.9-20.3-15.9s-18.1,6.8-20.3,15.9H170.8z"/>
	</g>
</g>
</svg>
