<?xml version="1.0" encoding="utf-8"?>
<!-- Generator: Adobe Illustrator 21.1.0, SVG Export Plug-In . SVG Version: 6.00 Build 0)  -->
<svg version="1.1" id="Layer_1" xmlns="http://www.w3.org/2000/svg" xmlns:xlink="http://www.w3.org/1999/xlink" x="0px" y="0px"
	 viewBox="0 0 219.9 219.6" enable-background="new 0 0 219.9 219.6" xml:space="preserve">
<title>4</title>
<path fill="#DCE6F4" d="M0,109.8c-0.1-60.7,49.1-110,109.8-110s110,49.1,110,109.8s-49.1,110-109.8,110c-0.1,0-0.1,0-0.2,0
	C49.2,219.6,0,170.5,0,109.8"/>
<path fill="#FFFFFF" d="M110.9,125.6l-0.3-0.8c0.2,0,0.4,0.1,0.5,0.3C111.1,125.4,111,125.5,110.9,125.6z"/>
<path fill="#FFFFFF" d="M205.7,81.8c-1.3-2.3-3.4-3.9-5.9-4.6l-3.8-1c-1-8.7-8.3-15.3-17.1-15.4l-55.1-0.3L56,41.6
	c-2-0.6-4.1,0.6-4.7,2.7c-0.2,0.8-0.2,1.6,0.1,2.4c0.2,0.5,2.5,6.1,9.7,13.5H55h-0.1c-9.5,0-17.3,7.7-17.3,17.2l-0.4,79.8
	c0,9.6,7.7,17.4,17.2,17.4l123.9,0.6h0.1c9.5,0,17.3-7.7,17.3-17.2l0.3-56.3c1.2-0.3,2.3-0.7,3.4-1.3c3.1-1.7,5.3-4.6,6.2-7.9l0,0
	l0.9-3.3C207.3,86.8,206.9,84.1,205.7,81.8z"/>
<path fill="none" stroke="#333E48" stroke-width="6.5" stroke-linecap="round" stroke-linejoin="round" d="M32.3,71.8l-0.4,79.8
	c0,7.8,6.2,14.1,14,14.2l123.9,0.6c7.8,0,14.1-6.2,14.2-14l0.4-79.8c0-7.8-6.2-14.1-14-14.2L46.5,57.7C38.7,57.7,32.4,64,32.3,71.8z
	 M56.2,84.8c1.7,0,3,1.3,3,3L59,135.7c0,1.7-1.3,3-3,3h-8c-1.7,0-3-1.3-3-3l0.2-47.9c0-1.7,1.3-3,3-3H56.2z"/>
<path fill="none" stroke="#333E48" stroke-width="7.63" stroke-linecap="round" stroke-linejoin="round" d="M109.8,142
	c-12.4,4.2-25.8-2.4-30-14.8c-4.2-12.4,2.4-25.8,14.8-30"/>
<path fill="none" stroke="#333E48" stroke-width="6.37" stroke-linecap="round" stroke-linejoin="round" d="M114.3,115.4"/>
<path fill="none" stroke="#333E48" stroke-width="7.63" stroke-linecap="round" stroke-linejoin="round" d="M106.3,131.6
	c-6.7,2.3-13.9-1.3-16.2-7.9c-2.3-6.7,1.3-13.9,7.9-16.2c0,0,0.1,0,0.1,0"/>
<path fill="none" stroke="#333E48" stroke-width="6.37" stroke-linecap="round" stroke-linejoin="round" d="M101.3,116.9
	c-1.4,0.6-2.1,2.2-1.6,3.6c0.5,1.3,2,2,3.3,1.7L101.3,116.9z"/>
<path fill="none" stroke="#333E48" stroke-width="6.5" stroke-linecap="round" stroke-linejoin="round" d="M109.8,142
	c-12.4,4.2-25.8-2.4-30-14.8c-4.2-12.4,2.4-25.8,14.8-30"/>
<path fill="none" stroke="#333E48" stroke-width="6.5" stroke-linecap="round" stroke-linejoin="round" d="M114.3,115.4"/>
<path fill="none" stroke="#333E48" stroke-width="6.5" stroke-linecap="round" stroke-linejoin="round" d="M106.3,131.6
	c-6.7,2.3-13.9-1.3-16.2-7.9c-2.3-6.7,1.3-13.9,7.9-16.2c0,0,0.1,0,0.1,0"/>
<path fill="none" stroke="#333E48" stroke-width="6.5" stroke-linecap="round" stroke-linejoin="round" d="M101.3,116.9
	c-1.4,0.6-2.1,2.2-1.6,3.6c0.5,1.3,2,2,3.3,1.7L101.3,116.9z"/>
<path fill="#FFFFFF" stroke="#333E48" stroke-width="7.63" stroke-linecap="round" stroke-linejoin="round" d="M130.8,63.1
	L46.5,39.6c0,0,10.2,26,62.1,40.4l3.3-11.8l16.2,4.5L130.8,63.1z"/>
<path fill="#FFFFFF" stroke="#333E48" stroke-width="7.63" stroke-linecap="round" stroke-linejoin="round" d="M193.5,85.9l0.9-3.3
	c0.9-3.2-1-6.4-4.1-7.3L131.9,59l-5,18.1l55,15.3C186.9,93.8,192,90.8,193.5,85.9z"/>
<path fill="none" stroke="#333E48" stroke-width="6.5" stroke-linecap="round" stroke-linejoin="round" d="M130.8,63.1L46.5,39.6
	c0,0,10.2,26,62.1,40.4l3.3-11.8l16.2,4.5L130.8,63.1z"/>
<path fill="none" stroke="#333E48" stroke-width="6.5" stroke-linecap="round" stroke-linejoin="round" d="M193.5,85.9l0.9-3.3
	c0.9-3.2-1-6.4-4.1-7.3L131.9,59l-5,18.1l55,15.3C186.9,93.8,192,90.8,193.5,85.9z"/>
<path fill="#FFFFFF" d="M145.2,143c-11.1,0-18.7-5.1-21.3-14.4c-3.1-11.2,4.6-19.6,12.8-23.7c0.8-0.4,1.6-1,2.2-1.7
	c0.3-0.4,0.6-0.8,0.8-1.2c-0.5-1.2-0.7-2.6-0.6-3.9c0.2-1.8,1.8-3.1,3.6-2.9c1.1,0.1,2,0.7,2.5,1.7c0.6,1.2,1,2.4,1.1,3.7
	c0.9,0.8,2,1.2,3.1,1.3h0.3c4.9,0.7,19.6,2.7,20.5,19.1c0.7,13.8-12,20-18.9,21.4C149.3,142.8,147.2,143,145.2,143z"/>
<path fill="#333E48" d="M142.3,98.4c0.6,1,0.8,2.1,0.7,3.2C142.5,100.6,142.3,99.5,142.3,98.4 M143.1,101.6c0.8,1.5,2.5,3,5.9,3.5
	c5,0.7,17.2,2.1,17.9,16.1c0.8,14.6-16.3,18.1-16.3,18.1c-1.8,0.3-3.6,0.5-5.5,0.5c-6,0-15.3-1.8-18.2-12.1
	c-3.3-11.7,7.9-18.3,11.1-19.9c1.2-0.6,2.3-1.4,3.2-2.5C142.3,104.2,142.9,103,143.1,101.6 M142.3,91.9c-3.3,0-6.1,2.5-6.4,5.8
	c-0.1,1.2,0,2.5,0.2,3.7c-0.3,0.2-0.6,0.4-0.9,0.6c-3.8,1.9-7.3,4.6-10.1,7.8c-4.8,5.4-6.5,12.8-4.4,19.7
	c3,10.7,11.9,16.8,24.4,16.8c2.3,0,4.5-0.2,6.8-0.6c3.8-0.9,7.4-2.4,10.6-4.5c7.4-4.8,11.3-12,10.8-20.3c-0.4-8.1-4-14.3-10.3-18.1
	c-4.8-2.9-10.1-3.6-13-4h-0.3c-0.2,0-0.4-0.1-0.6-0.1c-0.3-1.1-0.7-2.2-1.2-3.2C146.9,93.2,144.7,91.9,142.3,91.9L142.3,91.9z"/>
<path fill="none" stroke="#333E48" stroke-width="6.5" stroke-linecap="round" stroke-linejoin="round" d="M141.4,105.3
	c0,0-21.2,17.9,2,36.3"/>
<line fill="none" stroke="#333E48" stroke-width="6.5" stroke-linecap="round" stroke-linejoin="round" x1="142.3" y1="98.4" x2="152" y2="146.6"/>
<path fill="none" stroke="#333E48" stroke-width="6.5" stroke-linecap="round" stroke-linejoin="round" d="M145.7,101.7
	c0,0,23.8,14.1,12.3,37.1"/>
<polyline fill="none" stroke="#333E48" stroke-width="6.5" stroke-linecap="round" stroke-linejoin="round" points="158.5,144.2 
	150.6,139.2 145.3,146.7 "/>
</svg>
