<?xml version="1.0" encoding="utf-8"?>
<!-- Generator: Adobe Illustrator 21.1.0, SVG Export Plug-In . SVG Version: 6.00 Build 0)  -->
<svg version="1.1" id="Layer_1" xmlns="http://www.w3.org/2000/svg" xmlns:xlink="http://www.w3.org/1999/xlink" x="0px" y="0px"
	 viewBox="0 0 300 300" enable-background="new 0 0 300 300" xml:space="preserve">
<g opacity="0.4">
	<path fill="#DCE6F4" d="M40,149.7C40,89,89.3,39.9,150,39.9c60.7,0,109.9,49.2,109.9,109.8c0,60.6-49.2,109.8-109.9,109.8
		C89.3,259.5,40,210.3,40,149.7"/>
	<g>
		<path fill="#FFFFFF" d="M209.6,122.7h-13.7v-10.6c0-19.1-15.5-34.5-34.6-34.5c-19.1,0-34.5,15.5-34.5,34.5v10.6H113
			c-6.5,0-11.8,5.3-11.8,11.8v61.5c0,6.5,5.3,11.8,11.8,11.8h96.5c6.5,0,11.8-5.3,11.8-11.8v-61.5C221.3,128,216,122.7,209.6,122.7z
			 M177.6,122.7H145v-10.6c0-9,7.3-16.3,16.3-16.3c9,0,16.3,7.3,16.3,16.3V122.7z"/>
	</g>
	<g>
		<g>
			
				<path fill="none" stroke="#333E48" stroke-width="6.5" stroke-linecap="round" stroke-linejoin="round" stroke-miterlimit="10" d="
				M130.4,106.5c0-10.8,8.8-19.6,19.6-19.6c10.8,0,19.6,8.8,19.6,19.6v13.8h11.7v-13.8c0-17.2-14.1-31.3-31.3-31.3
				s-31.3,14.1-31.3,31.3v13.8h11.7V106.5z"/>
			
				<path fill="none" stroke="#333E48" stroke-width="6.5" stroke-linecap="round" stroke-linejoin="round" stroke-miterlimit="10" d="
				M198.2,120.3h-96.5c-4.7,0-8.5,3.8-8.5,8.5v61.5c0,4.7,3.8,8.5,8.5,8.5h96.5c4.7,0,8.5-3.8,8.5-8.5v-61.5
				C206.7,124.1,202.9,120.3,198.2,120.3z"/>
		</g>
		
			<path fill="none" stroke="#333E48" stroke-width="6.5" stroke-linecap="round" stroke-linejoin="round" stroke-miterlimit="10" d="
			M162.9,147.3c0-7.2-5.8-13-13-13s-13,5.8-13,13c0,5.3,3.1,9.8,7.6,11.8v21.7c0,2.9,2.4,5.3,5.3,5.3c2.9,0,5.3-2.4,5.3-5.3V159
			C159.8,157,162.9,152.5,162.9,147.3z"/>
	</g>
</g>
</svg>
