<?xml version="1.0" encoding="utf-8"?>
<!-- Generator: Adobe Illustrator 19.1.0, SVG Export Plug-In . SVG Version: 6.00 Build 0)  -->
<svg version="1.1" id="Layer_1" xmlns="http://www.w3.org/2000/svg" xmlns:xlink="http://www.w3.org/1999/xlink" x="0px" y="0px"
	 viewBox="0 0 32 32" style="enable-background:new 0 0 32 32;" xml:space="preserve">
<path d="M32,16.3c-0.3-1.7-1.6-3.1-3.5-3.7c-1-0.3-2.7-0.7-4.1-1.1c2.6-3.6,3.1-7.3,2.1-9.4C25.9,0.7,24.7,0,23.3,0
	c-2.6,0-3.3,2.2-3.9,3.7c-0.1,0.2-0.2,0.5-0.2,0.7c-0.5,1.4-2.8,3.8-6.3,5.7c-2.6,1.4-5,3.3-5.1,3.4c-0.3,0.3-0.5,0.7-0.5,1.1v13.6
	c0,0.4,0.2,0.9,0.6,1.1c2.1,1.4,9.4,2.6,13,2.6c1.9,0,2.7-0.3,3.1-0.5c1.7-0.9,3.8-6.1,5.4-10.4C31.3,19.8,32.2,18,32,16.3
	 M27.5,19.1c-0.3,0.2-0.4,0.4-0.5,0.7c-1.4,3.9-3.5,8.5-4.3,9.3c-0.1,0-0.5,0.1-1.6,0.1c-3.4,0-8.7-1-10.7-1.8v-12
	c0.8-0.6,2.5-1.8,4.2-2.7c3.8-2,6.8-5,7.6-7.3c0.1-0.3,0.2-0.5,0.3-0.8c0.6-1.8,0.7-1.8,1.1-1.8c0.1,0,0.3,0,0.4,0.4
	c0.6,1.4,0.1,4.8-3.1,8.2c-0.3,0.4-0.5,0.9-0.3,1.4c0.2,0.5,0.6,0.8,1.1,0.9c0.1,0,4.4,1,6.2,1.5c0.8,0.3,1.4,0.8,1.5,1.4
	C29.2,17.4,28.6,18.3,27.5,19.1"/>
<path d="M2.4,12.2c-1.3,0-2.4,1-2.4,2.3v13.9c0,1.3,1.1,2.3,2.4,2.3c1.3,0,2.4-1,2.4-2.3V14.5C4.7,13.2,3.7,12.2,2.4,12.2"/>
</svg>
