<svg width="90" height="35" viewBox="0 0 90 35" fill="none" xmlns="http://www.w3.org/2000/svg">
<path fill-rule="evenodd" clip-rule="evenodd" d="M14.8581 25.7845C15.4385 25.7845 15.6322 26.0155 15.6322 26.5172C15.6322 30.5672 12.227 34 7.81592 34C3.40488 34 0 30.5672 0 26.5172C0 26.0155 0.193358 25.7845 0.774067 25.7845H2.39904C3.01816 25.7845 3.21152 26.0155 3.21152 26.5558C3.32773 28.9856 5.30068 30.9916 7.81592 30.9916C10.4083 30.9916 12.3044 28.9856 12.4203 26.5558C12.4203 26.0155 12.614 25.7845 13.2331 25.7845H14.8581ZM7.81601 21.9271C10.3309 21.9271 12.3817 19.8831 12.3817 17.3757C12.3817 14.8687 10.3309 12.8244 7.81601 12.8244C5.30077 12.8244 3.25003 14.8687 3.25003 17.3757C3.25003 19.8831 5.30077 21.9271 7.81601 21.9271ZM15.9802 8.96711L16.9864 10.047C17.2569 10.3556 17.3344 10.4715 17.3344 10.7028C17.3344 10.857 17.2956 11.0883 17.0251 11.32L14.6455 13.6169C15.2713 14.7003 15.6319 15.9723 15.6319 17.3757C15.6319 21.8115 12.0334 24.9358 7.81601 24.9358C3.59833 24.9358 9.52503e-05 21.8115 9.52503e-05 17.3757C9.52503e-05 12.9399 3.59833 9.81566 7.81601 9.81566C9.53274 9.81566 11.1469 10.3335 12.4576 11.2466L12.4204 11.2042L14.742 9.00573C15.0128 8.73543 15.1674 8.65852 15.3998 8.65852C15.5932 8.65852 15.7478 8.73543 15.9802 8.96711ZM82.1841 21.9271C84.6993 21.9271 86.7501 19.8831 86.7501 17.3757C86.7501 14.8687 84.6993 12.8244 82.1841 12.8244C79.6692 12.8244 77.6184 14.8687 77.6184 17.3757C77.6184 19.8831 79.6692 21.9271 82.1841 21.9271ZM82.1841 9.81566C86.4018 9.81566 90 12.9399 90 17.3757C90 21.8115 86.4018 24.9358 82.1841 24.9358C77.9667 24.9358 74.3682 21.8115 74.3682 17.3757C74.3682 12.9399 77.9667 9.81566 82.1841 9.81566ZM72.5884 21.8501L73.13 23.1228C73.2072 23.3545 73.2459 23.4314 73.2459 23.6241C73.2459 23.8172 73.13 23.9713 72.8205 24.1258C71.8918 24.5885 70.5764 24.9357 69.4927 24.9357C66.5908 24.9357 64.4626 23.6241 64.4626 20.1144V7.84855C64.4626 7.23137 64.695 7 65.3141 7H66.8616C67.4807 7 67.7132 7.23137 67.7132 7.84855V10.2015H71.4276C72.0467 10.2015 72.2785 10.4328 72.2785 11.05V12.2841C72.2785 12.9016 72.0467 13.1329 71.4276 13.1329H67.7132V20.1913C67.7132 21.5412 68.4869 21.927 69.7248 21.927C70.3443 21.927 71.0018 21.7343 71.5051 21.5029C71.7756 21.3871 71.8918 21.3485 72.0467 21.3485C72.2785 21.3485 72.4338 21.4643 72.5884 21.8501ZM57.6528 15.9486C60.2065 16.8743 61.9477 17.9156 61.9477 20.4613C61.9477 23.1228 59.8969 24.9357 56.5308 24.9357C54.48 24.9357 52.6227 24.203 51.2685 22.8528C51.0361 22.6214 50.9202 22.467 50.9202 22.2742C50.9202 22.0812 51.0361 21.927 51.1523 21.7729L52.0423 20.7316C52.2356 20.4999 52.3518 20.3844 52.5839 20.3844C52.8163 20.3844 52.971 20.5385 53.1643 20.693C54.4026 21.8115 55.4859 22.2359 56.6079 22.2359C57.8849 22.2359 58.6974 21.7343 58.6974 20.7316C58.6974 19.5355 57.3045 19.0728 55.5634 18.417C52.7385 17.3371 51.6165 16.3344 51.6165 14.1356C51.6165 11.2814 54.0543 9.81563 56.5308 9.81563C58.5428 9.81563 59.7423 10.317 61.0193 11.2041C61.2898 11.3972 61.406 11.5127 61.406 11.7441C61.406 11.8986 61.3285 12.0141 61.1352 12.3227L60.3998 13.3643C60.2452 13.5957 60.0906 13.6729 59.9357 13.6729C59.7036 13.6729 59.5489 13.5184 59.3553 13.4029C58.3878 12.7471 57.5754 12.5157 56.6854 12.5157C55.5633 12.5157 54.7505 12.9016 54.7505 13.9042C54.7505 15.0228 55.6408 15.2158 57.6528 15.9486ZM47.9796 10.2014C48.5984 10.2014 48.8308 10.4328 48.8308 11.0499V18.61C48.8308 22.6986 46.0447 24.9357 42.4074 24.9357C38.7705 24.9357 35.9847 22.6986 35.9847 18.61V11.0499C35.9847 10.4328 36.2168 10.2014 36.8356 10.2014H38.3834C39.0029 10.2014 39.2347 10.4328 39.2347 11.0499V18.61C39.2347 21.0015 40.6279 21.927 42.4074 21.927C44.1489 21.927 45.5802 21.0015 45.5802 18.61V11.0499C45.5802 10.4328 45.8126 10.2014 46.4318 10.2014H47.9796ZM25.731 21.9271C28.2459 21.9271 30.2966 19.8831 30.2966 17.3757C30.2966 14.8687 28.2459 12.8244 25.731 12.8244C23.2157 12.8244 21.165 14.8687 21.165 17.3757C21.165 19.8831 23.2157 21.9271 25.731 21.9271ZM25.731 9.81566C29.9483 9.81566 33.5469 12.9399 33.5469 17.3757C33.5469 21.8115 29.9483 24.9358 25.731 24.9358C21.5133 24.9358 17.915 21.8115 17.915 17.3757C17.915 12.9399 21.5133 9.81566 25.731 9.81566Z" fill="white"/>
</svg>
