<svg width="16" height="16" viewBox="0 0 16 16" fill="none" xmlns="http://www.w3.org/2000/svg"><g transform="matrix(1.14 0 0 1.14 0 0)"><path fill-rule="evenodd" clip-rule="evenodd" d="M7 14c-3.85 0-7-3.15-7-7s3.15-7 7-7 7 3.15 7 7-3.15 7-7 7zm.04629-12.6875C3.87529 1.3125 1.32088 3.85 1.32088 7s2.55441 5.6875 5.72541 5.6875c3.17101 0 5.72541-2.5375 5.72541-5.6875s-2.5544-5.6875-5.72541-5.6875zM9.68866 7.875H6.82595c-.35233 0-.66062-.30625-.66062-.65625v-3.9375c0-.35.30829-.65625.66062-.65625.35234 0 .66063.30625.66063.65625V6.5625h2.20208c.35234 0 .66064.30625.66064.65625s-.3083.65625-.66064.65625z" fill="#596067"/></g></svg>
