<?xml version="1.0" encoding="utf-8"?>
<!-- Generator: Adobe Illustrator 23.0.6, SVG Export Plug-In . SVG Version: 6.00 Build 0)  -->
<svg version="1.1" id="Layer_1" xmlns="http://www.w3.org/2000/svg" xmlns:xlink="http://www.w3.org/1999/xlink" x="0px" y="0px"
	 viewBox="0 0 57 57" style="enable-background:new 0 0 57 57;" xml:space="preserve">
<style type="text/css">
	.st0{fill:#FFFFFF;}
</style>
<g>
	<g>
		<defs>
			<path id="SVGID_1_" d="M57,47c0,5.5-4.5,10-10,10H10C4.5,57,0,52.5,0,47V10C0,4.5,4.5,0,10,0h37c5.5,0,10,4.5,10,10V47z"/>
		</defs>
		<use xlink:href="#SVGID_1_"  style="overflow:visible;fill:#FF0032;"/>
		<clipPath id="SVGID_2_">
			<use xlink:href="#SVGID_1_"  style="overflow:visible;"/>
		</clipPath>
	</g>
</g>
<g>
	<path class="st0" d="M40.9,35.8h-2.8c-1.1,0-1.4,0.4-1.4,1.3c-0.2,4.2-3.5,7.7-8,7.7c-4.4,0-7.8-3.5-8-7.7c0-0.9-0.3-1.3-1.4-1.3
		h-2.8c-1,0-1.3,0.4-1.3,1.3c0,7.1,5.9,13,13.6,13c7.7,0,13.6-6,13.6-13C42.2,36.2,41.9,35.8,40.9,35.8z M28.7,29
		c-4.4,0-7.9-3.6-7.9-7.9c0-4.4,3.6-7.9,7.9-7.9c4.4,0,7.9,3.6,7.9,7.9C36.6,25.5,33,29,28.7,29z M42.8,6.5c-0.4-0.4-0.7-0.5-1-0.5
		c-0.4,0-0.7,0.1-1.1,0.6l-4.1,3.8c-2.2-1.5-5-2.4-7.9-2.4c-7.3,0-13.4,5.4-13.4,13.2c0,7.7,6.1,13.2,13.4,13.2
		c7.3,0,13.4-5.4,13.4-13.2c0-2.4-0.6-4.6-1.6-6.5l4.2-4c0.5-0.4,0.5-0.8,0.5-1.1c0-0.4-0.1-0.6-0.6-1.1L42.8,6.5z"/>
</g>
</svg>
