<?xml version="1.0" encoding="utf-8"?>
<!-- Generator: Adobe Illustrator 23.0.1, SVG Export Plug-In . SVG Version: 6.00 Build 0)  -->
<svg version="1.1" id="Layer_1" xmlns="http://www.w3.org/2000/svg" xmlns:xlink="http://www.w3.org/1999/xlink" x="0px" y="0px"
	 viewBox="0 0 900 900" style="enable-background:new 0 0 900 900;" xml:space="preserve">
<style type="text/css">
	.st0{fill:#E73843;}
	.st1{fill:#FFFFFF;}
	.st2{fill:none;stroke:#FFFFFF;stroke-width:7;stroke-linecap:round;stroke-miterlimit:10;}
	.st3{fill:#323E48;}
</style>
<g>
	<circle class="st0" cx="449" cy="450" r="450"/>
</g>
<g>
	<path class="st1" d="M240.1,261.53c0-5.82,0.96-11.12,2.88-15.88c1.92-4.76,4.57-8.82,7.97-12.18c3.39-3.36,7.43-5.94,12.13-7.76
		c4.69-1.81,9.85-2.72,15.47-2.72c5.69-0.07,10.89,0.77,15.62,2.52c4.73,1.75,8.8,4.3,12.23,7.66c3.43,3.36,6.1,7.4,8.02,12.13
		c1.92,4.73,2.88,10,2.88,15.83c0,5.69-0.96,10.86-2.88,15.52c-1.92,4.66-4.59,8.67-8.02,12.03c-3.43,3.36-7.5,5.98-12.23,7.86
		s-9.94,2.86-15.62,2.93c-5.62,0-10.78-0.91-15.47-2.72c-4.69-1.81-8.74-4.38-12.13-7.71c-3.39-3.32-6.05-7.31-7.97-11.97
		C241.06,272.39,240.1,267.22,240.1,261.53z M253.67,260.71c0,3.91,0.6,7.5,1.8,10.79c1.2,3.29,2.89,6.13,5.09,8.53
		c2.19,2.4,4.81,4.28,7.86,5.65c3.05,1.37,6.46,2.06,10.23,2.06c3.77,0,7.19-0.68,10.28-2.06c3.08-1.37,5.72-3.25,7.91-5.65
		c2.19-2.4,3.89-5.24,5.09-8.53c1.2-3.29,1.8-6.89,1.8-10.79c0-3.63-0.6-7.02-1.8-10.18c-1.2-3.15-2.9-5.91-5.09-8.27
		c-2.19-2.36-4.83-4.21-7.91-5.55c-3.08-1.34-6.51-2-10.28-2c-3.77,0-7.18,0.67-10.23,2c-3.05,1.34-5.67,3.19-7.86,5.55
		c-2.19,2.36-3.89,5.12-5.09,8.27C254.26,253.69,253.67,257.08,253.67,260.71z"/>
	<path class="st1" d="M372.36,297.61h-11.72v-7.91h-0.21c-1.17,2.47-2.95,4.61-5.34,6.42c-2.4,1.81-5.65,2.72-9.76,2.72
		c-3.29,0-6.08-0.53-8.38-1.59c-2.3-1.06-4.16-2.5-5.6-4.32c-1.44-1.81-2.47-3.89-3.08-6.22c-0.62-2.33-0.92-4.76-0.92-7.3v-31.14
		h12.33v24.98c0,1.37,0.07,2.9,0.21,4.57c0.14,1.68,0.5,3.25,1.08,4.73c0.58,1.47,1.47,2.71,2.67,3.7c1.2,0.99,2.89,1.49,5.09,1.49
		c2.06,0,3.79-0.34,5.19-1.03c1.4-0.68,2.57-1.61,3.49-2.78c0.92-1.16,1.59-2.5,2-4.01c0.41-1.51,0.62-3.08,0.62-4.73v-26.93h12.33
		V297.61z"/>
	<path class="st1" d="M385.05,248.27h12.33v7.81h0.21c1.37-2.88,3.32-5.1,5.86-6.68c2.53-1.58,5.45-2.36,8.74-2.36
		c0.75,0,1.49,0.07,2.21,0.21c0.72,0.14,1.46,0.31,2.21,0.51v11.92c-1.03-0.27-2.04-0.5-3.03-0.67c-0.99-0.17-1.97-0.26-2.93-0.26
		c-2.88,0-5.19,0.53-6.94,1.59c-1.75,1.06-3.08,2.28-4.01,3.65c-0.92,1.37-1.54,2.74-1.85,4.11c-0.31,1.37-0.46,2.4-0.46,3.08v26.41
		h-12.33V248.27z"/>
	<path class="st1" d="M455.14,248.27h11.72v7.71h0.21c1.1-2.33,2.86-4.4,5.29-6.22c2.43-1.81,5.7-2.72,9.82-2.72
		c7.74,0,12.88,3.05,15.42,9.15c1.78-3.15,4.01-5.46,6.68-6.94c2.67-1.47,5.86-2.21,9.56-2.21c3.29,0,6.06,0.55,8.33,1.64
		c2.26,1.1,4.09,2.6,5.5,4.52c1.4,1.92,2.42,4.16,3.03,6.73c0.62,2.57,0.93,5.33,0.93,8.27v29.4h-12.33v-27.96
		c0-1.51-0.14-2.96-0.41-4.37c-0.27-1.4-0.75-2.64-1.44-3.7c-0.69-1.06-1.61-1.9-2.77-2.52c-1.17-0.62-2.67-0.92-4.52-0.92
		c-1.92,0-3.55,0.36-4.88,1.08c-1.34,0.72-2.43,1.68-3.29,2.88c-0.86,1.2-1.47,2.57-1.85,4.11c-0.38,1.54-0.57,3.1-0.57,4.68v26.72
		h-12.33v-29.4c0-3.08-0.65-5.53-1.95-7.35c-1.3-1.81-3.46-2.72-6.48-2.72c-2.06,0-3.79,0.34-5.19,1.03
		c-1.41,0.69-2.57,1.61-3.49,2.77c-0.92,1.17-1.59,2.5-2,4.01c-0.41,1.51-0.62,3.08-0.62,4.73v26.93h-12.33V248.27z"/>
	<path class="st1" d="M541.13,272.94c0-3.91,0.7-7.45,2.11-10.64c1.4-3.19,3.31-5.91,5.7-8.17c2.4-2.26,5.24-4.01,8.53-5.24
		c3.29-1.23,6.78-1.85,10.48-1.85s7.19,0.62,10.48,1.85c3.29,1.23,6.13,2.98,8.53,5.24c2.4,2.26,4.3,4.98,5.7,8.17
		c1.4,3.19,2.11,6.73,2.11,10.64s-0.7,7.45-2.11,10.64c-1.41,3.19-3.31,5.91-5.7,8.17c-2.4,2.26-5.24,4.01-8.53,5.24
		c-3.29,1.23-6.78,1.85-10.48,1.85s-7.19-0.62-10.48-1.85c-3.29-1.23-6.13-2.98-8.53-5.24c-2.4-2.26-4.3-4.98-5.7-8.17
		C541.83,280.39,541.13,276.85,541.13,272.94z M553.46,272.94c0,1.92,0.32,3.77,0.98,5.55c0.65,1.78,1.61,3.36,2.88,4.73
		c1.27,1.37,2.79,2.47,4.57,3.29c1.78,0.82,3.8,1.23,6.06,1.23s4.28-0.41,6.06-1.23c1.78-0.82,3.31-1.92,4.57-3.29
		c1.27-1.37,2.23-2.95,2.88-4.73c0.65-1.78,0.98-3.63,0.98-5.55c0-1.92-0.33-3.77-0.98-5.55c-0.65-1.78-1.61-3.36-2.88-4.73
		c-1.27-1.37-2.79-2.47-4.57-3.29c-1.78-0.82-3.8-1.23-6.06-1.23s-4.28,0.41-6.06,1.23c-1.78,0.82-3.31,1.92-4.57,3.29
		c-1.27,1.37-2.23,2.95-2.88,4.73C553.79,269.17,553.46,271.02,553.46,272.94z"/>
	<path class="st1" d="M630.66,261.94c-2.4-3.36-5.62-5.04-9.66-5.04c-1.64,0-3.26,0.41-4.83,1.23c-1.58,0.82-2.36,2.16-2.36,4.01
		c0,1.51,0.65,2.6,1.95,3.29c1.3,0.69,2.95,1.27,4.93,1.75c1.99,0.48,4.13,0.98,6.42,1.49c2.29,0.51,4.44,1.3,6.42,2.36
		c1.99,1.06,3.63,2.52,4.93,4.37c1.3,1.85,1.95,4.39,1.95,7.61c0,2.95-0.63,5.43-1.9,7.45c-1.27,2.02-2.91,3.65-4.93,4.88
		c-2.02,1.23-4.3,2.12-6.83,2.67c-2.54,0.55-5.07,0.82-7.61,0.82c-3.84,0-7.37-0.55-10.59-1.64c-3.22-1.1-6.1-3.08-8.63-5.96
		l8.22-7.71c1.58,1.78,3.27,3.24,5.09,4.37c1.81,1.13,4.02,1.7,6.63,1.7c0.89,0,1.81-0.1,2.78-0.31c0.96-0.21,1.85-0.55,2.67-1.03
		c0.82-0.48,1.49-1.08,2-1.8c0.51-0.72,0.77-1.56,0.77-2.52c0-1.71-0.65-2.98-1.95-3.8c-1.3-0.82-2.95-1.49-4.93-2
		c-1.99-0.51-4.13-0.99-6.42-1.44c-2.3-0.44-4.44-1.16-6.42-2.16c-1.99-0.99-3.63-2.38-4.93-4.16c-1.3-1.78-1.95-4.25-1.95-7.4
		c0-2.74,0.57-5.12,1.7-7.14c1.13-2.02,2.62-3.68,4.47-4.98c1.85-1.3,3.97-2.26,6.37-2.88c2.4-0.62,4.83-0.93,7.3-0.93
		c3.29,0,6.54,0.57,9.76,1.7c3.22,1.13,5.82,3.07,7.81,5.81L630.66,261.94z"/>
	<path class="st1" d="M644.37,258.76v-10.48h10.18v-14.29h12.33v14.29h13.57v10.48h-13.57v21.58c0,2.47,0.46,4.42,1.39,5.86
		c0.93,1.44,2.76,2.16,5.5,2.16c1.1,0,2.29-0.12,3.6-0.36c1.3-0.24,2.33-0.63,3.08-1.18v10.38c-1.3,0.62-2.9,1.04-4.78,1.28
		c-1.89,0.24-3.55,0.36-4.98,0.36c-3.29,0-5.98-0.36-8.07-1.08c-2.09-0.72-3.74-1.81-4.93-3.29c-1.2-1.47-2.02-3.31-2.47-5.5
		c-0.45-2.19-0.67-4.73-0.67-7.61v-22.61H644.37z"/>
	<path class="st1" d="M140.26,334.89h12.33v77.7h-12.33V334.89z"/>
	<path class="st1" d="M162.76,387.92c0-3.91,0.7-7.45,2.11-10.64c1.4-3.19,3.31-5.91,5.7-8.17c2.4-2.26,5.24-4.01,8.53-5.24
		c3.29-1.23,6.78-1.85,10.48-1.85s7.19,0.62,10.48,1.85c3.29,1.23,6.13,2.98,8.53,5.24c2.4,2.26,4.3,4.98,5.7,8.17
		c1.4,3.19,2.11,6.73,2.11,10.64s-0.7,7.45-2.11,10.64c-1.41,3.19-3.31,5.91-5.7,8.17c-2.4,2.26-5.24,4.01-8.53,5.24
		c-3.29,1.23-6.78,1.85-10.48,1.85s-7.19-0.62-10.48-1.85c-3.29-1.23-6.13-2.98-8.53-5.24c-2.4-2.26-4.3-4.98-5.7-8.17
		C163.46,395.37,162.76,391.83,162.76,387.92z M175.09,387.92c0,1.92,0.32,3.77,0.98,5.55c0.65,1.78,1.61,3.36,2.88,4.73
		c1.27,1.37,2.79,2.47,4.57,3.29c1.78,0.82,3.8,1.23,6.06,1.23s4.28-0.41,6.06-1.23c1.78-0.82,3.31-1.92,4.57-3.29
		c1.27-1.37,2.23-2.95,2.88-4.73c0.65-1.78,0.98-3.63,0.98-5.55c0-1.92-0.33-3.77-0.98-5.55c-0.65-1.78-1.61-3.36-2.88-4.73
		c-1.27-1.37-2.79-2.47-4.57-3.29c-1.78-0.82-3.8-1.23-6.06-1.23s-4.28,0.41-6.06,1.23c-1.78,0.82-3.31,1.92-4.57,3.29
		c-1.27,1.37-2.23,2.95-2.88,4.73C175.42,384.15,175.09,386,175.09,387.92z"/>
	<path class="st1" d="M217.88,363.25h13.46l13.16,34.53h0.21l13.26-34.53h12.64l-19.43,49.33h-13.16L217.88,363.25z"/>
	<path class="st1" d="M284.58,392.24c0.41,3.7,1.85,6.58,4.32,8.63c2.47,2.06,5.45,3.08,8.94,3.08c3.08,0,5.67-0.63,7.76-1.9
		c2.09-1.27,3.92-2.86,5.5-4.78l8.84,6.68c-2.88,3.56-6.1,6.1-9.66,7.61c-3.56,1.51-7.3,2.26-11.2,2.26c-3.7,0-7.19-0.62-10.48-1.85
		c-3.29-1.23-6.13-2.98-8.53-5.24c-2.4-2.26-4.3-4.98-5.7-8.17c-1.41-3.19-2.11-6.73-2.11-10.64s0.7-7.45,2.11-10.64
		c1.4-3.19,3.31-5.91,5.7-8.17c2.4-2.26,5.24-4.01,8.53-5.24c3.29-1.23,6.78-1.85,10.48-1.85c3.43,0,6.56,0.6,9.4,1.8
		c2.84,1.2,5.28,2.93,7.3,5.19c2.02,2.26,3.6,5.05,4.73,8.38c1.13,3.32,1.7,7.14,1.7,11.46v3.39H284.58z M309.87,382.99
		c-0.07-3.63-1.2-6.49-3.39-8.58c-2.19-2.09-5.24-3.13-9.15-3.13c-3.7,0-6.63,1.06-8.79,3.19c-2.16,2.12-3.48,4.97-3.96,8.53H309.87
		z"/>
	<path class="st1" d="M371.2,405.19H371c-1.78,3.02-4.18,5.21-7.19,6.58c-3.02,1.37-6.27,2.06-9.76,2.06c-3.84,0-7.25-0.67-10.23-2
		c-2.98-1.34-5.53-3.17-7.66-5.5c-2.12-2.33-3.74-5.07-4.83-8.22c-1.1-3.15-1.64-6.54-1.64-10.18c0-3.63,0.58-7.02,1.75-10.18
		c1.16-3.15,2.79-5.89,4.88-8.22c2.09-2.33,4.61-4.16,7.55-5.5c2.95-1.34,6.17-2,9.66-2c2.33,0,4.38,0.24,6.17,0.72
		c1.78,0.48,3.36,1.1,4.73,1.85c1.37,0.75,2.53,1.56,3.49,2.42c0.96,0.86,1.75,1.7,2.36,2.52h0.31v-34.64h12.33v77.7H371.2V405.19z
		 M342.01,387.92c0,1.92,0.32,3.77,0.98,5.55c0.65,1.78,1.61,3.36,2.88,4.73c1.27,1.37,2.79,2.47,4.57,3.29
		c1.78,0.82,3.8,1.23,6.06,1.23s4.28-0.41,6.06-1.23c1.78-0.82,3.31-1.92,4.57-3.29c1.27-1.37,2.23-2.95,2.88-4.73
		c0.65-1.78,0.98-3.63,0.98-5.55c0-1.92-0.33-3.77-0.98-5.55c-0.65-1.78-1.61-3.36-2.88-4.73c-1.27-1.37-2.79-2.47-4.57-3.29
		c-1.78-0.82-3.8-1.23-6.06-1.23s-4.28,0.41-6.06,1.23c-1.78,0.82-3.31,1.92-4.57,3.29c-1.27,1.37-2.23,2.95-2.88,4.73
		C342.34,384.15,342.01,386,342.01,387.92z"/>
	<path class="st1" d="M427.53,363.25h12.33v7.81h0.21c1.37-2.88,3.32-5.1,5.86-6.68c2.53-1.58,5.45-2.36,8.74-2.36
		c0.75,0,1.49,0.07,2.21,0.21c0.72,0.14,1.46,0.31,2.21,0.51v11.92c-1.03-0.27-2.04-0.5-3.03-0.67c-0.99-0.17-1.97-0.26-2.93-0.26
		c-2.88,0-5.19,0.53-6.94,1.59c-1.75,1.06-3.08,2.28-4.01,3.65c-0.92,1.37-1.54,2.74-1.85,4.11c-0.31,1.37-0.46,2.4-0.46,3.08v26.41
		h-12.33V363.25z"/>
	<path class="st1" d="M475.95,392.24c0.41,3.7,1.85,6.58,4.32,8.63c2.47,2.06,5.45,3.08,8.94,3.08c3.08,0,5.67-0.63,7.76-1.9
		c2.09-1.27,3.92-2.86,5.5-4.78l8.84,6.68c-2.88,3.56-6.1,6.1-9.66,7.61c-3.56,1.51-7.3,2.26-11.2,2.26c-3.7,0-7.19-0.62-10.48-1.85
		c-3.29-1.23-6.13-2.98-8.53-5.24c-2.4-2.26-4.3-4.98-5.7-8.17c-1.41-3.19-2.11-6.73-2.11-10.64s0.7-7.45,2.11-10.64
		c1.4-3.19,3.31-5.91,5.7-8.17c2.4-2.26,5.24-4.01,8.53-5.24c3.29-1.23,6.78-1.85,10.48-1.85c3.43,0,6.56,0.6,9.4,1.8
		c2.84,1.2,5.28,2.93,7.3,5.19c2.02,2.26,3.6,5.05,4.73,8.38c1.13,3.32,1.7,7.14,1.7,11.46v3.39H475.95z M501.23,382.99
		c-0.07-3.63-1.2-6.49-3.39-8.58c-2.19-2.09-5.24-3.13-9.15-3.13c-3.7,0-6.63,1.06-8.79,3.19c-2.16,2.12-3.48,4.97-3.96,8.53H501.23
		z"/>
	<path class="st1" d="M556.96,378.06c-1.44-1.51-2.95-2.71-4.52-3.6c-1.58-0.89-3.19-1.34-4.83-1.34c-2.26,0-4.28,0.41-6.06,1.23
		c-1.78,0.82-3.31,1.92-4.57,3.29c-1.27,1.37-2.23,2.95-2.88,4.73c-0.65,1.78-0.98,3.63-0.98,5.55c0,1.92,0.32,3.77,0.98,5.55
		c0.65,1.78,1.61,3.36,2.88,4.73c1.27,1.37,2.79,2.47,4.57,3.29c1.78,0.82,3.8,1.23,6.06,1.23c1.92,0,3.7-0.39,5.34-1.18
		c1.64-0.79,3.05-1.94,4.21-3.44l8.22,8.84c-1.23,1.23-2.66,2.3-4.27,3.19c-1.61,0.89-3.24,1.61-4.88,2.16
		c-1.64,0.55-3.22,0.94-4.73,1.18c-1.51,0.24-2.81,0.36-3.91,0.36c-3.7,0-7.19-0.62-10.48-1.85c-3.29-1.23-6.13-2.98-8.53-5.24
		c-2.4-2.26-4.3-4.98-5.7-8.17c-1.41-3.19-2.11-6.73-2.11-10.64s0.7-7.45,2.11-10.64c1.4-3.19,3.31-5.91,5.7-8.17
		c2.4-2.26,5.24-4.01,8.53-5.24c3.29-1.23,6.78-1.85,10.48-1.85c3.15,0,6.32,0.6,9.51,1.8c3.19,1.2,5.98,3.1,8.38,5.7L556.96,378.06
		z"/>
	<path class="st1" d="M570.35,346.5c0-1.99,0.74-3.72,2.21-5.19c1.47-1.47,3.34-2.21,5.6-2.21s4.16,0.7,5.7,2.11
		c1.54,1.41,2.31,3.17,2.31,5.29c0,2.12-0.77,3.89-2.31,5.29c-1.54,1.41-3.44,2.11-5.7,2.11s-4.13-0.74-5.6-2.21
		C571.08,350.22,570.35,348.49,570.35,346.5z M572.1,363.25h12.33v49.33H572.1V363.25z"/>
	<path class="st1" d="M597.21,363.25h11.72v7.4h0.21c1.78-3.01,4.18-5.21,7.19-6.58c3.01-1.37,6.27-2.06,9.76-2.06
		c3.77,0,7.16,0.67,10.18,2c3.01,1.34,5.58,3.17,7.71,5.5c2.12,2.33,3.73,5.07,4.83,8.22c1.1,3.15,1.64,6.54,1.64,10.18
		c0,3.63-0.58,7.02-1.75,10.18c-1.17,3.15-2.79,5.89-4.88,8.22c-2.09,2.33-4.61,4.16-7.55,5.5c-2.95,1.34-6.17,2-9.66,2
		c-2.33,0-4.39-0.24-6.17-0.72c-1.78-0.48-3.36-1.1-4.73-1.85c-1.37-0.75-2.54-1.56-3.49-2.42c-0.96-0.86-1.75-1.7-2.36-2.52h-0.31
		v29.7h-12.33V363.25z M638.12,387.92c0-1.92-0.33-3.77-0.98-5.55c-0.65-1.78-1.61-3.36-2.88-4.73c-1.27-1.37-2.79-2.47-4.57-3.29
		c-1.78-0.82-3.8-1.23-6.06-1.23s-4.28,0.41-6.06,1.23c-1.78,0.82-3.31,1.92-4.57,3.29c-1.27,1.37-2.23,2.95-2.88,4.73
		c-0.65,1.78-0.98,3.63-0.98,5.55c0,1.92,0.32,3.77,0.98,5.55c0.65,1.78,1.61,3.36,2.88,4.73c1.27,1.37,2.79,2.47,4.57,3.29
		c1.78,0.82,3.8,1.23,6.06,1.23s4.28-0.41,6.06-1.23c1.78-0.82,3.31-1.92,4.57-3.29c1.27-1.37,2.23-2.95,2.88-4.73
		C637.8,391.69,638.12,389.84,638.12,387.92z"/>
	<path class="st1" d="M670.21,392.24c0.41,3.7,1.85,6.58,4.32,8.63c2.47,2.06,5.45,3.08,8.94,3.08c3.08,0,5.67-0.63,7.76-1.9
		c2.09-1.27,3.92-2.86,5.5-4.78l8.84,6.68c-2.88,3.56-6.1,6.1-9.66,7.61c-3.56,1.51-7.3,2.26-11.2,2.26c-3.7,0-7.19-0.62-10.48-1.85
		c-3.29-1.23-6.13-2.98-8.53-5.24c-2.4-2.26-4.3-4.98-5.7-8.17c-1.41-3.19-2.11-6.73-2.11-10.64s0.7-7.45,2.11-10.64
		c1.4-3.19,3.31-5.91,5.7-8.17c2.4-2.26,5.24-4.01,8.53-5.24c3.29-1.23,6.78-1.85,10.48-1.85c3.43,0,6.56,0.6,9.4,1.8
		c2.84,1.2,5.28,2.93,7.3,5.19c2.02,2.26,3.6,5.05,4.73,8.38c1.13,3.32,1.7,7.14,1.7,11.46v3.39H670.21z M695.49,382.99
		c-0.07-3.63-1.2-6.49-3.39-8.58c-2.19-2.09-5.24-3.13-9.15-3.13c-3.7,0-6.63,1.06-8.79,3.19c-2.16,2.12-3.48,4.97-3.96,8.53H695.49
		z"/>
	<path class="st1" d="M744.01,376.92c-2.4-3.36-5.62-5.04-9.66-5.04c-1.64,0-3.26,0.41-4.83,1.23c-1.58,0.82-2.36,2.16-2.36,4.01
		c0,1.51,0.65,2.6,1.95,3.29c1.3,0.69,2.95,1.27,4.93,1.75c1.99,0.48,4.13,0.98,6.42,1.49c2.29,0.51,4.44,1.3,6.42,2.36
		c1.99,1.06,3.63,2.52,4.93,4.37c1.3,1.85,1.95,4.39,1.95,7.61c0,2.95-0.63,5.43-1.9,7.45c-1.27,2.02-2.91,3.65-4.93,4.88
		c-2.02,1.23-4.3,2.12-6.83,2.67c-2.54,0.55-5.07,0.82-7.61,0.82c-3.84,0-7.37-0.55-10.59-1.64c-3.22-1.1-6.1-3.08-8.63-5.96
		l8.22-7.71c1.58,1.78,3.27,3.24,5.09,4.37c1.81,1.13,4.02,1.7,6.63,1.7c0.89,0,1.81-0.1,2.78-0.31c0.96-0.21,1.85-0.55,2.67-1.03
		c0.82-0.48,1.49-1.08,2-1.8c0.51-0.72,0.77-1.56,0.77-2.52c0-1.71-0.65-2.98-1.95-3.8c-1.3-0.82-2.95-1.49-4.93-2
		c-1.99-0.51-4.13-0.99-6.42-1.44c-2.3-0.44-4.44-1.16-6.42-2.16c-1.99-0.99-3.63-2.38-4.93-4.16c-1.3-1.78-1.95-4.25-1.95-7.4
		c0-2.74,0.57-5.12,1.7-7.14c1.13-2.02,2.62-3.68,4.47-4.98c1.85-1.3,3.97-2.26,6.37-2.88c2.4-0.62,4.83-0.93,7.3-0.93
		c3.29,0,6.54,0.57,9.76,1.7c3.22,1.13,5.82,3.07,7.81,5.81L744.01,376.92z"/>
	<path class="st1" d="M762.5,405.39c0-2.19,0.8-4.08,2.42-5.65c1.61-1.58,3.55-2.36,5.81-2.36c2.19,0,4.11,0.75,5.76,2.26
		c1.64,1.51,2.47,3.36,2.47,5.55c0,2.19-0.81,4.08-2.42,5.65c-1.61,1.58-3.55,2.36-5.81,2.36c-1.1,0-2.14-0.21-3.13-0.62
		c-0.99-0.41-1.87-0.96-2.62-1.64c-0.75-0.68-1.35-1.51-1.8-2.47C762.73,407.52,762.5,406.49,762.5,405.39z"/>
	<path class="st1" d="M165.12,454.8h12.95v28.98h34.02V454.8h12.95v72.77h-12.95V495.5h-34.02v32.07h-12.95V454.8z"/>
	<path class="st1" d="M248.27,507.22c0.41,3.7,1.85,6.58,4.32,8.63c2.47,2.06,5.45,3.08,8.94,3.08c3.08,0,5.67-0.63,7.76-1.9
		c2.09-1.27,3.92-2.86,5.5-4.78l8.84,6.68c-2.88,3.56-6.1,6.1-9.66,7.61c-3.56,1.51-7.3,2.26-11.2,2.26c-3.7,0-7.19-0.62-10.48-1.85
		c-3.29-1.23-6.13-2.98-8.53-5.24c-2.4-2.26-4.3-4.98-5.7-8.17c-1.41-3.19-2.11-6.73-2.11-10.64s0.7-7.45,2.11-10.64
		c1.4-3.19,3.31-5.91,5.7-8.17c2.4-2.26,5.24-4.01,8.53-5.24c3.29-1.23,6.78-1.85,10.48-1.85c3.43,0,6.56,0.6,9.4,1.8
		c2.84,1.2,5.28,2.93,7.3,5.19c2.02,2.26,3.6,5.05,4.73,8.38c1.13,3.32,1.7,7.14,1.7,11.46v3.39H248.27z M273.55,497.97
		c-0.07-3.63-1.2-6.49-3.39-8.58c-2.19-2.09-5.24-3.13-9.15-3.13c-3.7,0-6.63,1.06-8.79,3.19c-2.16,2.12-3.48,4.97-3.96,8.53H273.55
		z"/>
	<path class="st1" d="M296.02,478.24h12.33v7.81h0.21c1.37-2.88,3.32-5.1,5.86-6.68c2.53-1.58,5.45-2.36,8.74-2.36
		c0.75,0,1.49,0.07,2.21,0.21c0.72,0.14,1.46,0.31,2.21,0.51v11.92c-1.03-0.27-2.04-0.5-3.03-0.67c-0.99-0.17-1.97-0.26-2.93-0.26
		c-2.88,0-5.19,0.53-6.94,1.59c-1.75,1.06-3.08,2.28-4.01,3.65c-0.92,1.37-1.54,2.74-1.85,4.11c-0.31,1.37-0.46,2.4-0.46,3.08v26.41
		h-12.33V478.24z"/>
	<path class="st1" d="M344.44,507.22c0.41,3.7,1.85,6.58,4.32,8.63c2.47,2.06,5.45,3.08,8.94,3.08c3.08,0,5.67-0.63,7.76-1.9
		c2.09-1.27,3.92-2.86,5.5-4.78l8.84,6.68c-2.88,3.56-6.1,6.1-9.66,7.61c-3.56,1.51-7.3,2.26-11.2,2.26c-3.7,0-7.19-0.62-10.48-1.85
		c-3.29-1.23-6.13-2.98-8.53-5.24c-2.4-2.26-4.3-4.98-5.7-8.17c-1.41-3.19-2.11-6.73-2.11-10.64s0.7-7.45,2.11-10.64
		c1.4-3.19,3.31-5.91,5.7-8.17c2.4-2.26,5.24-4.01,8.53-5.24c3.29-1.23,6.78-1.85,10.48-1.85c3.43,0,6.56,0.6,9.4,1.8
		c2.84,1.2,5.28,2.93,7.3,5.19c2.02,2.26,3.6,5.05,4.73,8.38c1.13,3.32,1.7,7.14,1.7,11.46v3.39H344.44z M369.72,497.97
		c-0.07-3.63-1.2-6.49-3.39-8.58c-2.19-2.09-5.24-3.13-9.15-3.13c-3.7,0-6.63,1.06-8.79,3.19c-2.16,2.12-3.48,4.97-3.96,8.53H369.72
		z"/>
	<path class="st1" d="M418.44,488.72v-10.48h10.18v-14.29h12.33v14.29h13.57v10.48h-13.57v21.58c0,2.47,0.46,4.42,1.39,5.86
		c0.93,1.44,2.76,2.16,5.5,2.16c1.1,0,2.29-0.12,3.6-0.36c1.3-0.24,2.33-0.63,3.08-1.18v10.38c-1.3,0.62-2.9,1.04-4.78,1.28
		c-1.89,0.24-3.55,0.36-4.98,0.36c-3.29,0-5.98-0.36-8.07-1.08c-2.09-0.72-3.74-1.81-4.93-3.29c-1.2-1.47-2.02-3.31-2.47-5.5
		c-0.45-2.19-0.67-4.73-0.67-7.61v-22.61H418.44z"/>
	<path class="st1" d="M459.25,502.9c0-3.91,0.7-7.45,2.11-10.64c1.4-3.19,3.31-5.91,5.7-8.17c2.4-2.26,5.24-4.01,8.53-5.24
		c3.29-1.23,6.78-1.85,10.48-1.85s7.19,0.62,10.48,1.85c3.29,1.23,6.13,2.98,8.53,5.24c2.4,2.26,4.3,4.98,5.7,8.17
		c1.4,3.19,2.11,6.73,2.11,10.64s-0.7,7.45-2.11,10.64c-1.41,3.19-3.31,5.91-5.7,8.17c-2.4,2.26-5.24,4.01-8.53,5.24
		c-3.29,1.23-6.78,1.85-10.48,1.85s-7.19-0.62-10.48-1.85c-3.29-1.23-6.13-2.98-8.53-5.24c-2.4-2.26-4.3-4.98-5.7-8.17
		C459.95,510.36,459.25,506.81,459.25,502.9z M471.58,502.9c0,1.92,0.32,3.77,0.98,5.55c0.65,1.78,1.61,3.36,2.88,4.73
		c1.27,1.37,2.79,2.47,4.57,3.29c1.78,0.82,3.8,1.23,6.06,1.23s4.28-0.41,6.06-1.23c1.78-0.82,3.31-1.92,4.57-3.29
		c1.27-1.37,2.23-2.95,2.88-4.73c0.65-1.78,0.98-3.63,0.98-5.55c0-1.92-0.33-3.77-0.98-5.55c-0.65-1.78-1.61-3.36-2.88-4.73
		c-1.27-1.37-2.79-2.47-4.57-3.29c-1.78-0.82-3.8-1.23-6.06-1.23s-4.28,0.41-6.06,1.23c-1.78,0.82-3.31,1.92-4.57,3.29
		c-1.27,1.37-2.23,2.95-2.88,4.73C471.91,499.14,471.58,500.99,471.58,502.9z"/>
	<path class="st1" d="M581.35,491.91c-2.4-3.36-5.62-5.04-9.66-5.04c-1.64,0-3.26,0.41-4.83,1.23c-1.58,0.82-2.36,2.16-2.36,4.01
		c0,1.51,0.65,2.6,1.95,3.29c1.3,0.69,2.95,1.27,4.93,1.75c1.99,0.48,4.13,0.98,6.42,1.49c2.29,0.51,4.44,1.3,6.42,2.36
		c1.99,1.06,3.63,2.52,4.93,4.37c1.3,1.85,1.95,4.39,1.95,7.61c0,2.95-0.63,5.43-1.9,7.45c-1.27,2.02-2.91,3.65-4.93,4.88
		c-2.02,1.23-4.3,2.12-6.83,2.67c-2.54,0.55-5.07,0.82-7.61,0.82c-3.84,0-7.37-0.55-10.59-1.64c-3.22-1.1-6.1-3.08-8.63-5.96
		l8.22-7.71c1.58,1.78,3.27,3.24,5.09,4.37c1.81,1.13,4.02,1.7,6.63,1.7c0.89,0,1.81-0.1,2.78-0.31c0.96-0.21,1.85-0.55,2.67-1.03
		c0.82-0.48,1.49-1.08,2-1.8c0.51-0.72,0.77-1.56,0.77-2.52c0-1.71-0.65-2.98-1.95-3.8c-1.3-0.82-2.95-1.49-4.93-2
		c-1.99-0.51-4.13-0.99-6.42-1.44c-2.3-0.44-4.44-1.16-6.42-2.16c-1.99-0.99-3.63-2.38-4.93-4.16c-1.3-1.78-1.95-4.25-1.95-7.4
		c0-2.74,0.57-5.12,1.7-7.14c1.13-2.02,2.62-3.68,4.47-4.98c1.85-1.3,3.97-2.26,6.37-2.88c2.4-0.62,4.83-0.93,7.3-0.93
		c3.29,0,6.54,0.57,9.76,1.7c3.22,1.13,5.82,3.07,7.81,5.81L581.35,491.91z"/>
	<path class="st1" d="M595.06,488.72v-10.48h10.18v-14.29h12.33v14.29h13.57v10.48h-13.57v21.58c0,2.47,0.46,4.42,1.39,5.86
		c0.93,1.44,2.76,2.16,5.5,2.16c1.1,0,2.29-0.12,3.6-0.36c1.3-0.24,2.33-0.63,3.08-1.18v10.38c-1.3,0.62-2.9,1.04-4.78,1.28
		c-1.89,0.24-3.55,0.36-4.98,0.36c-3.29,0-5.98-0.36-8.07-1.08c-2.09-0.72-3.74-1.81-4.93-3.29c-1.2-1.47-2.02-3.31-2.47-5.5
		c-0.45-2.19-0.67-4.73-0.67-7.61v-22.61H595.06z"/>
	<path class="st1" d="M671.21,520.79h-0.31c-1.78,2.81-4.04,4.85-6.78,6.12c-2.74,1.27-5.76,1.9-9.04,1.9
		c-2.26,0-4.47-0.31-6.63-0.93c-2.16-0.62-4.08-1.54-5.76-2.77c-1.68-1.23-3.03-2.77-4.06-4.62s-1.54-4.01-1.54-6.48
		c0-2.67,0.48-4.95,1.44-6.83c0.96-1.88,2.24-3.46,3.85-4.73c1.61-1.27,3.48-2.28,5.6-3.03c2.12-0.75,4.33-1.32,6.63-1.7
		c2.29-0.38,4.61-0.62,6.94-0.72c2.33-0.1,4.52-0.15,6.58-0.15h3.08v-1.34c0-3.08-1.06-5.4-3.19-6.94
		c-2.12-1.54-4.83-2.31-8.12-2.31c-2.6,0-5.04,0.46-7.3,1.39c-2.26,0.92-4.21,2.18-5.86,3.75l-6.48-6.48
		c2.74-2.81,5.94-4.83,9.61-6.06c3.67-1.23,7.45-1.85,11.36-1.85c3.49,0,6.44,0.4,8.84,1.18c2.4,0.79,4.38,1.8,5.96,3.03
		c1.58,1.23,2.79,2.66,3.65,4.27c0.86,1.61,1.47,3.24,1.85,4.88c0.38,1.64,0.6,3.24,0.67,4.78c0.07,1.54,0.1,2.9,0.1,4.06v28.37
		h-11.1V520.79z M670.49,505.47h-2.57c-1.71,0-3.63,0.07-5.76,0.21c-2.12,0.14-4.13,0.46-6.01,0.98c-1.89,0.51-3.48,1.27-4.78,2.26
		c-1.3,0.99-1.95,2.38-1.95,4.16c0,1.17,0.26,2.14,0.77,2.93c0.51,0.79,1.18,1.46,2,2c0.82,0.55,1.75,0.94,2.77,1.18
		c1.03,0.24,2.06,0.36,3.08,0.36c4.25,0,7.38-1.01,9.4-3.03c2.02-2.02,3.03-4.78,3.03-8.27V505.47z"/>
	<path class="st1" d="M685.81,478.24h13.57l13.77,34.23h0.21l12.33-34.23h12.85l-23.33,59.92c-0.89,2.33-1.87,4.37-2.93,6.12
		c-1.06,1.75-2.31,3.22-3.75,4.42c-1.44,1.2-3.13,2.09-5.09,2.67c-1.95,0.58-4.3,0.87-7.04,0.87c-3.22,0-6.37-0.41-9.46-1.23
		l1.54-11.1c0.96,0.34,1.97,0.63,3.03,0.87c1.06,0.24,2.14,0.36,3.24,0.36c1.51,0,2.77-0.14,3.8-0.41c1.03-0.27,1.9-0.7,2.62-1.28
		c0.72-0.58,1.32-1.34,1.8-2.26c0.48-0.92,0.99-2.04,1.54-3.34l2.36-5.86L685.81,478.24z"/>
	<path class="st1" d="M738.57,520.38c0-2.19,0.8-4.08,2.42-5.65c1.61-1.58,3.55-2.36,5.81-2.36c2.19,0,4.11,0.75,5.76,2.26
		c1.64,1.51,2.47,3.36,2.47,5.55c0,2.19-0.81,4.08-2.42,5.65c-1.61,1.58-3.55,2.36-5.81,2.36c-1.1,0-2.14-0.21-3.13-0.62
		c-0.99-0.41-1.87-0.96-2.62-1.64c-0.75-0.68-1.35-1.51-1.8-2.47C738.79,522.5,738.57,521.47,738.57,520.38z"/>
	<path class="st1" d="M150.6,569.78h11.2l31.35,72.77h-14.8l-6.78-16.65h-31.55l-6.58,16.65h-14.49L150.6,569.78z M167.05,614.8
		l-11.2-29.6l-11.41,29.6H167.05z"/>
	<path class="st1" d="M189.19,593.22h13.46l13.16,34.53h0.21l13.26-34.53h12.64l-19.43,49.33h-13.16L189.19,593.22z"/>
	<path class="st1" d="M278.1,635.77h-0.31c-1.78,2.81-4.04,4.85-6.78,6.12c-2.74,1.27-5.76,1.9-9.04,1.9
		c-2.26,0-4.47-0.31-6.63-0.93c-2.16-0.62-4.08-1.54-5.76-2.77c-1.68-1.23-3.03-2.77-4.06-4.62s-1.54-4.01-1.54-6.48
		c0-2.67,0.48-4.95,1.44-6.83c0.96-1.88,2.24-3.46,3.85-4.73c1.61-1.27,3.48-2.28,5.6-3.03c2.12-0.75,4.33-1.32,6.63-1.7
		c2.29-0.38,4.61-0.62,6.94-0.72c2.33-0.1,4.52-0.15,6.58-0.15h3.08v-1.34c0-3.08-1.06-5.4-3.19-6.94
		c-2.12-1.54-4.83-2.31-8.12-2.31c-2.6,0-5.04,0.46-7.3,1.39c-2.26,0.92-4.21,2.18-5.86,3.75l-6.48-6.48
		c2.74-2.81,5.94-4.83,9.61-6.06c3.67-1.23,7.45-1.85,11.36-1.85c3.49,0,6.44,0.4,8.84,1.18c2.4,0.79,4.38,1.8,5.96,3.03
		c1.58,1.23,2.79,2.66,3.65,4.27c0.86,1.61,1.47,3.24,1.85,4.88c0.38,1.64,0.6,3.24,0.67,4.78c0.07,1.54,0.1,2.9,0.1,4.06v28.37
		h-11.1V635.77z M277.38,620.46h-2.57c-1.71,0-3.63,0.07-5.76,0.21c-2.12,0.14-4.13,0.46-6.01,0.98c-1.89,0.51-3.48,1.27-4.78,2.26
		c-1.3,0.99-1.95,2.38-1.95,4.16c0,1.17,0.26,2.14,0.77,2.93c0.51,0.79,1.18,1.46,2,2c0.82,0.55,1.75,0.94,2.77,1.18
		c1.03,0.24,2.06,0.36,3.08,0.36c4.25,0,7.38-1.01,9.4-3.03c2.02-2.02,3.03-4.78,3.03-8.27V620.46z"/>
	<path class="st1" d="M299.54,576.47c0-1.99,0.74-3.72,2.21-5.19c1.47-1.47,3.34-2.21,5.6-2.21s4.16,0.7,5.7,2.11
		c1.54,1.41,2.31,3.17,2.31,5.29c0,2.12-0.77,3.89-2.31,5.29c-1.54,1.41-3.44,2.11-5.7,2.11s-4.13-0.74-5.6-2.21
		C300.28,580.18,299.54,578.45,299.54,576.47z M301.29,593.22h12.33v49.33h-12.33V593.22z"/>
	<path class="st1" d="M326.59,564.85h12.33v77.7h-12.33V564.85z"/>
	<path class="st1" d="M382.66,635.77h-0.31c-1.78,2.81-4.04,4.85-6.78,6.12c-2.74,1.27-5.76,1.9-9.04,1.9
		c-2.26,0-4.47-0.31-6.63-0.93c-2.16-0.62-4.08-1.54-5.76-2.77c-1.68-1.23-3.03-2.77-4.06-4.62s-1.54-4.01-1.54-6.48
		c0-2.67,0.48-4.95,1.44-6.83c0.96-1.88,2.24-3.46,3.85-4.73c1.61-1.27,3.48-2.28,5.6-3.03c2.12-0.75,4.33-1.32,6.63-1.7
		c2.29-0.38,4.61-0.62,6.94-0.72c2.33-0.1,4.52-0.15,6.58-0.15h3.08v-1.34c0-3.08-1.06-5.4-3.19-6.94
		c-2.12-1.54-4.83-2.31-8.12-2.31c-2.6,0-5.04,0.46-7.3,1.39c-2.26,0.92-4.21,2.18-5.86,3.75l-6.48-6.48
		c2.74-2.81,5.94-4.83,9.61-6.06c3.67-1.23,7.45-1.85,11.36-1.85c3.49,0,6.44,0.4,8.84,1.18c2.4,0.79,4.38,1.8,5.96,3.03
		c1.58,1.23,2.79,2.66,3.65,4.27c0.86,1.61,1.47,3.24,1.85,4.88c0.38,1.64,0.6,3.24,0.67,4.78c0.07,1.54,0.1,2.9,0.1,4.06v28.37
		h-11.1V635.77z M381.94,620.46h-2.57c-1.71,0-3.63,0.07-5.76,0.21c-2.12,0.14-4.13,0.46-6.01,0.98c-1.89,0.51-3.48,1.27-4.78,2.26
		c-1.3,0.99-1.95,2.38-1.95,4.16c0,1.17,0.26,2.14,0.77,2.93c0.51,0.79,1.18,1.46,2,2c0.82,0.55,1.75,0.94,2.77,1.18
		c1.03,0.24,2.06,0.36,3.08,0.36c4.25,0,7.38-1.01,9.4-3.03c2.02-2.02,3.03-4.78,3.03-8.27V620.46z"/>
	<path class="st1" d="M405.93,564.85h12.33v34.64h0.31c0.62-0.82,1.4-1.66,2.36-2.52c0.96-0.86,2.12-1.66,3.49-2.42
		c1.37-0.75,2.95-1.37,4.73-1.85c1.78-0.48,3.84-0.72,6.17-0.72c3.49,0,6.71,0.67,9.66,2c2.95,1.34,5.46,3.17,7.55,5.5
		c2.09,2.33,3.72,5.07,4.88,8.22c1.16,3.15,1.75,6.54,1.75,10.18c0,3.63-0.55,7.02-1.64,10.18c-1.1,3.15-2.71,5.89-4.83,8.22
		c-2.12,2.33-4.69,4.16-7.71,5.5c-3.02,1.34-6.41,2-10.18,2c-3.49,0-6.75-0.69-9.76-2.06c-3.02-1.37-5.41-3.56-7.19-6.58h-0.21v7.4
		h-11.72V564.85z M446.83,617.89c0-1.92-0.33-3.77-0.98-5.55c-0.65-1.78-1.61-3.36-2.88-4.73c-1.27-1.37-2.79-2.47-4.57-3.29
		c-1.78-0.82-3.8-1.23-6.06-1.23s-4.28,0.41-6.06,1.23c-1.78,0.82-3.31,1.92-4.57,3.29c-1.27,1.37-2.23,2.95-2.88,4.73
		c-0.65,1.78-0.98,3.63-0.98,5.55c0,1.92,0.32,3.77,0.98,5.55c0.65,1.78,1.61,3.36,2.88,4.73c1.27,1.37,2.79,2.47,4.57,3.29
		c1.78,0.82,3.8,1.23,6.06,1.23s4.28-0.41,6.06-1.23c1.78-0.82,3.31-1.92,4.57-3.29c1.27-1.37,2.23-2.95,2.88-4.73
		C446.51,621.66,446.83,619.81,446.83,617.89z"/>
	<path class="st1" d="M469.45,564.85h12.33v77.7h-12.33V564.85z"/>
	<path class="st1" d="M504.29,622.2c0.41,3.7,1.85,6.58,4.32,8.63c2.47,2.06,5.45,3.08,8.94,3.08c3.08,0,5.67-0.63,7.76-1.9
		c2.09-1.27,3.92-2.86,5.5-4.78l8.84,6.68c-2.88,3.56-6.1,6.1-9.66,7.61c-3.56,1.51-7.3,2.26-11.2,2.26c-3.7,0-7.19-0.62-10.48-1.85
		c-3.29-1.23-6.13-2.98-8.53-5.24c-2.4-2.26-4.3-4.98-5.7-8.17c-1.41-3.19-2.11-6.73-2.11-10.64s0.7-7.45,2.11-10.64
		c1.4-3.19,3.31-5.91,5.7-8.17c2.4-2.26,5.24-4.01,8.53-5.24c3.29-1.23,6.78-1.85,10.48-1.85c3.43,0,6.56,0.6,9.4,1.8
		c2.84,1.2,5.28,2.93,7.3,5.19c2.02,2.26,3.6,5.05,4.73,8.38c1.13,3.32,1.7,7.14,1.7,11.46v3.39H504.29z M529.57,612.95
		c-0.07-3.63-1.2-6.49-3.39-8.58c-2.19-2.09-5.24-3.13-9.15-3.13c-3.7,0-6.63,1.06-8.79,3.19c-2.16,2.12-3.48,4.97-3.96,8.53H529.57
		z"/>
	<path class="st1" d="M584.04,593.22h11.72v7.91h0.21c1.16-2.47,2.95-4.61,5.34-6.42c2.4-1.81,5.65-2.72,9.76-2.72
		c3.29,0,6.08,0.55,8.38,1.64c2.29,1.1,4.16,2.54,5.6,4.32c1.44,1.78,2.47,3.84,3.08,6.17c0.62,2.33,0.93,4.76,0.93,7.3v31.14
		h-12.33v-24.98c0-1.37-0.07-2.89-0.21-4.57c-0.14-1.68-0.5-3.25-1.08-4.73c-0.58-1.47-1.49-2.71-2.72-3.7
		c-1.23-0.99-2.91-1.49-5.04-1.49c-2.06,0-3.79,0.34-5.19,1.03c-1.41,0.69-2.57,1.61-3.49,2.77c-0.93,1.17-1.59,2.5-2,4.01
		c-0.41,1.51-0.62,3.08-0.62,4.73v26.93h-12.33V593.22z"/>
	<path class="st1" d="M638.81,617.89c0-3.91,0.7-7.45,2.11-10.64c1.4-3.19,3.31-5.91,5.7-8.17c2.4-2.26,5.24-4.01,8.53-5.24
		c3.29-1.23,6.78-1.85,10.48-1.85s7.19,0.62,10.48,1.85c3.29,1.23,6.13,2.98,8.53,5.24c2.4,2.26,4.3,4.98,5.7,8.17
		c1.4,3.19,2.11,6.73,2.11,10.64s-0.7,7.45-2.11,10.64c-1.41,3.19-3.31,5.91-5.7,8.17c-2.4,2.26-5.24,4.01-8.53,5.24
		c-3.29,1.23-6.78,1.85-10.48,1.85s-7.19-0.62-10.48-1.85c-3.29-1.23-6.13-2.98-8.53-5.24c-2.4-2.26-4.3-4.98-5.7-8.17
		C639.51,625.34,638.81,621.79,638.81,617.89z M651.15,617.89c0,1.92,0.32,3.77,0.98,5.55c0.65,1.78,1.61,3.36,2.88,4.73
		c1.27,1.37,2.79,2.47,4.57,3.29c1.78,0.82,3.8,1.23,6.06,1.23s4.28-0.41,6.06-1.23c1.78-0.82,3.31-1.92,4.57-3.29
		c1.27-1.37,2.23-2.95,2.88-4.73c0.65-1.78,0.98-3.63,0.98-5.55c0-1.92-0.33-3.77-0.98-5.55c-0.65-1.78-1.61-3.36-2.88-4.73
		c-1.27-1.37-2.79-2.47-4.57-3.29c-1.78-0.82-3.8-1.23-6.06-1.23s-4.28,0.41-6.06,1.23c-1.78,0.82-3.31,1.92-4.57,3.29
		c-1.27,1.37-2.23,2.95-2.88,4.73C651.47,614.12,651.15,615.97,651.15,617.89z"/>
	<path class="st1" d="M694.49,593.22h13.36l10.69,34.53h0.21l9.97-34.53h13.36l10.69,34.53h0.21l10.28-34.53h12.44l-16.75,49.33
		H746.7l-11.72-33.71h-0.21l-10.38,33.71h-12.75L694.49,593.22z"/>
	<path class="st1" d="M776.62,635.36c0-2.19,0.8-4.08,2.42-5.65c1.61-1.58,3.55-2.36,5.81-2.36c2.19,0,4.11,0.75,5.76,2.26
		c1.64,1.51,2.47,3.36,2.47,5.55c0,2.19-0.81,4.08-2.42,5.65c-1.61,1.58-3.55,2.36-5.81,2.36c-1.1,0-2.14-0.21-3.13-0.62
		c-0.99-0.41-1.87-0.96-2.62-1.64c-0.75-0.68-1.35-1.51-1.8-2.47C776.84,637.48,776.62,636.46,776.62,635.36z"/>
</g>
<line class="st2" x1="383.06" y1="163.17" x2="523.1" y2="163.17"/>
<line class="st2" x1="383.06" y1="720.35" x2="523.1" y2="720.35"/>
</svg>
