<?xml version="1.0" encoding="UTF-8"?>
<svg width="19px" height="19px" viewBox="0 0 19 19" version="1.1" xmlns="http://www.w3.org/2000/svg" xmlns:xlink="http://www.w3.org/1999/xlink">
    <!-- Generator: Sketch 52.6 (67491) - http://www.bohemiancoding.com/sketch -->
    <title>icon_Calories</title>
    <desc>Created with Sketch.</desc>
    <g id="icon_Calories" stroke="none" stroke-width="1" fill="none" fill-rule="evenodd">
        <rect id="Rectangle-Copy-26" x="0" y="0" width="19" height="19"></rect>
        <path d="M3,15 L17,15 L17,16 L3,16 L2,16 L2,4 L3,4 L3,15 Z M5,10 L7,10 L7,14 L5,14 L5,10 Z M8,7 L10,7 L10,14 L8,14 L8,7 Z M11,9 L13,9 L13,14 L11,14 L11,9 Z M14,5 L16,5 L16,14 L14,14 L14,5 Z" id="Combined-Shape" fill="#333D47"></path>
    </g>
</svg>