<?xml version="1.0" encoding="UTF-8"?>
<svg width="20px" height="19px" viewBox="0 0 20 19" version="1.1" xmlns="http://www.w3.org/2000/svg" xmlns:xlink="http://www.w3.org/1999/xlink">
    <!-- Generator: Sketch 53.2 (72643) - https://sketchapp.com -->
    <title></title>
    <desc>Created with Sketch.</desc>
    <g id="Rocket-prototypes" stroke="none" stroke-width="1" fill="none" fill-rule="evenodd">
        <g id="11097---RAF-Welcome-Page-Component---4" transform="translate(-1018.000000, -742.000000)" fill="#FFFFFF" fill-rule="nonzero">
            <g id="Group-4" transform="translate(986.000000, 485.000000)">
                <g id="Group-3" transform="translate(17.000000, 242.000000)">
                    <path d="M31.9643051,28.4285672 C31.9643051,28.1383883 31.8526978,27.8705308 31.6518047,27.6696377 L29.3303734,25.3482064 C29.1294803,25.1473133 28.8504621,25.035706 28.5714439,25.035706 C28.2477828,25.035706 27.9910861,25.158474 27.7678715,25.3928493 C28.1361755,25.7611533 28.5714439,26.0736536 28.5714439,26.6428508 C28.5714439,27.2343693 28.0915326,27.7142806 27.500014,27.7142806 C26.9308169,27.7142806 26.6183166,27.2790122 26.2500126,26.9107082 C26.0156373,27.1339228 25.8817085,27.3906195 25.8817085,27.7254413 C25.8817085,28.0044595 25.9933158,28.2834777 26.1942089,28.4843708 L28.4933188,30.7946414 C28.6942119,30.9955345 28.9732301,31.0959811 29.2522483,31.0959811 C29.5312665,31.0959811 29.8102847,30.9955345 30.0111778,30.8058021 L31.6518047,29.1763359 C31.8526978,28.9754428 31.9643051,28.7075854 31.9643051,28.4285672 Z M24.1183136,20.5602542 C24.1183136,20.281236 24.0067063,20.0022178 23.8058132,19.8013247 L21.5067033,17.4910541 C21.3058102,17.290161 21.026792,17.1785538 20.7477739,17.1785538 C20.4687557,17.1785538 20.1897375,17.290161 19.9888444,17.4798934 L18.3482174,19.1093596 C18.1473243,19.3102527 18.0357171,19.5781102 18.0357171,19.8571284 C18.0357171,20.1473073 18.1473243,20.4151648 18.3482174,20.6160579 L20.6696488,22.9374892 C20.8705419,23.1383823 21.1495601,23.2388288 21.4285782,23.2388288 C21.7522393,23.2388288 22.0089361,23.1272216 22.2321506,22.8928463 C21.8638466,22.5245423 21.4285782,22.2120419 21.4285782,21.6428448 C21.4285782,21.0513262 21.9084895,20.5714149 22.5000081,20.5714149 C23.0692052,20.5714149 23.3817056,21.0066833 23.7500096,21.3749873 C23.9843849,21.1517728 24.1183136,20.895076 24.1183136,20.5602542 Z M34.1071648,28.4285672 C34.1071648,29.2767825 33.7611822,30.1026763 33.1585029,30.6941949 L31.517876,32.3236611 C30.9151967,32.9263404 30.1004636,33.2500015 29.2522483,33.2500015 C28.3928723,33.2500015 27.5781391,32.9151797 26.9754599,32.3013396 L24.67635,29.991069 C24.0736707,29.3883897 23.7500096,28.5736566 23.7500096,27.7254413 C23.7500096,26.8437439 24.1071529,26.0066893 24.7321536,25.3928493 L23.7500096,24.4107052 C23.1361696,25.035706 22.3102757,25.3928493 21.4285782,25.3928493 C20.5803629,25.3928493 19.7544691,25.0580274 19.1517898,24.4553481 L16.8303585,22.1339168 C16.2165185,21.5200768 15.8928574,20.7165044 15.8928574,19.8571284 C15.8928574,19.0089131 16.2388399,18.1830192 16.8415192,17.5915007 L18.4821462,15.9620345 C19.0848254,15.3593552 19.8995586,15.0356941 20.7477739,15.0356941 C21.6071499,15.0356941 22.421883,15.3705159 23.0245623,15.9843559 L25.3236722,18.2946265 C25.9263515,18.8973058 26.2500126,19.7120389 26.2500126,20.5602542 C26.2500126,21.4419517 25.8928693,22.2790063 25.2678685,22.8928463 L26.2500126,23.8749903 C26.8638526,23.2499896 27.6897464,22.8928463 28.5714439,22.8928463 C29.4196592,22.8928463 30.245553,23.2276681 30.8482323,23.8303474 L33.1696637,26.1517787 C33.7835037,26.7656188 34.1071648,27.5691911 34.1071648,28.4285672 Z" id=""></path>
                </g>
            </g>
        </g>
    </g>
</svg>