<?xml version="1.0" encoding="UTF-8"?>
<svg width="72px" height="71px" viewBox="0 0 72 71" version="1.1" xmlns="http://www.w3.org/2000/svg" xmlns:xlink="http://www.w3.org/1999/xlink">
    <!-- Generator: Sketch 42 (36781) - http://www.bohemiancoding.com/sketch -->
    <title>icon-dream</title>
    <desc>Created with Sketch.</desc>
    <defs></defs>
    <g id="Symbols" stroke="none" stroke-width="1" fill="none" fill-rule="evenodd">
        <g id="ownership-white" transform="translate(-253.000000, -108.000000)" fill="#333D47">
            <g id="icon-dream" transform="translate(253.000000, 108.000000)">
                <path d="M36.1348281,70.7006462 C34.9556875,70.7006462 34,69.746917 34,68.5705059 L34,33.1301403 C34,31.9535889 34.9558281,31 36.1348281,31 C37.3139687,31 38.2696562,31.9537292 38.2696562,33.1301403 L38.2696562,68.5705059 C38.2695156,69.7470573 37.3138281,70.7006462 36.1348281,70.7006462" id="Fill-1"></path>
                <path d="M10.1345921,68.5169435 C9.60795151,68.5169435 9.08032651,68.3237281 8.66745151,67.93407 C7.81118589,67.1254277 7.77377964,65.7772696 8.58420151,64.9226036 L34.4334671,37.6661807 C35.243889,36.8115146 36.595014,36.7743308 37.4515609,37.5828328 C38.3081078,38.3914751 38.3452328,39.7396332 37.5348109,40.5942992 L11.6855453,67.8508625 C11.265639,68.2935601 10.7006078,68.5169435 10.1345921,68.5169435" id="Fill-3"></path>
                <path d="M61.9845609,68.5169473 C61.4184046,68.5169473 60.8532328,68.2937042 60.4333265,67.8510066 L34.5842015,40.594303 C33.7737796,39.739637 33.8111859,38.3914789 34.6674515,37.5828366 C35.524139,36.7741943 36.8751234,36.8116588 37.6855453,37.6661845 L63.5348109,64.9226074 C64.3452328,65.7772734 64.3078265,67.1254315 63.4512796,67.9340738 C63.0389671,68.3235916 62.5112015,68.5169473 61.9845609,68.5169473" id="Fill-5"></path>
                <path d="M12.4757976,35.3928 L7.66768823,36.7249621 C6.85346948,36.9505905 6.01014136,36.4749186 5.78387573,35.6624878 L2.05618823,22.2679028 C1.83006323,21.455472 2.30678198,20.6139957 3.12100073,20.3882269 L7.92911011,19.0560648 C8.74332886,18.8304364 9.58665698,19.3061083 9.81292261,20.1185392 L13.5406101,33.5131241 C13.7668757,34.325555 13.2900164,35.1671716 12.4757976,35.3928" id="Fill-7"></path>
                <path d="M4.41001134,22.4096107 L7.81412072,34.6411146 L11.4568707,33.6318202 L8.05276134,21.4003162 L4.41001134,22.4096107 Z M7.39224572,39.0414308 C5.75241759,39.0414308 4.30074572,37.9399486 3.86157384,36.3625138 L0.13402697,22.9680692 C-0.406676155,21.0251107 0.73758947,19.0055395 2.68482384,18.4658834 L7.49293322,17.1337213 C7.81313634,17.0449012 8.14346447,17 8.47435509,17 C10.1141832,17 11.5658551,18.1014822 12.0047457,19.678917 L15.7324332,33.0733617 C15.9944176,34.0144625 15.8733395,35.001166 15.3915582,35.8516225 C14.909777,36.7019387 14.1249488,37.3141383 13.181777,37.5755474 L8.37380822,38.9077095 C8.05360509,38.996249 7.72327697,39.0414308 7.39224572,39.0414308 L7.39224572,39.0414308 Z" id="Fill-9"></path>
                <path d="M12.6888437,37.7581818 L7,17.316496 L62.2788438,2 L67.9674063,22.4416858 L50.6148438,27.2494802 C49.4787344,27.5643498 48.302125,26.9005138 47.9864219,25.7670395 C47.6708594,24.6332846 48.3362969,23.4593992 49.4722656,23.1445296 L62.711125,19.4763834 L59.3071563,7.24487945 L12.2565625,20.2816581 L15.6606719,32.5131621 L21.3857969,30.926747 C22.5230312,30.6122984 23.6986562,31.2758538 24.0140781,32.4091877 C24.3296406,33.5426621 23.6643438,34.7168281 22.528375,35.0316976 L12.6888437,37.7581818 Z" id="Fill-11"></path>
                <path d="M36.0374531,23 C39.3718125,23 42.0749062,25.6971581 42.0749062,29.0241957 C42.0749062,32.3512332 39.3718125,35.0483913 36.0374531,35.0483913 C32.7030937,35.0483913 30,32.3512332 30,29.0241957 C30,25.6971581 32.7030937,23 36.0374531,23" id="Fill-13"></path>
                <path d="M28,29.1546166 C28,24.6581838 31.6662344,21 36.1727031,21 C40.6791719,21 44.3452656,24.6581838 44.3452656,29.1546166 C44.3452656,33.6510494 40.6790313,37.3092332 36.1727031,37.3092332 C31.666375,37.3092332 28,33.6510494 28,29.1546166 Z" id="Fill-15"></path>
                <path d="M69.0174382,22.2217486 L61.7332039,24.2400569 C60.9189851,24.4656854 60.075657,23.9900135 59.8493914,23.1775826 L55.0561882,5.95404904 C54.8300632,5.14161821 55.306782,4.30014192 56.1210007,4.07437315 L63.4052351,2.05606485 C64.2194539,1.83043639 65.062782,2.30610833 65.2890476,3.11853916 L70.0822507,20.3419324 C70.3085164,21.1545036 69.831657,21.9961202 69.0174382,22.2217486" id="Fill-17"></path>
                <path d="M60.457745,26.5565257 C58.8181981,26.5565257 57.3663856,25.4550435 56.9273544,23.877749 L52.13387,6.65421542 C51.5935888,4.7111166 52.7375731,2.69168577 54.6846669,2.15202964 L61.9689013,0.133721344 C62.2893856,0.0449011858 62.6194325,0 62.9504638,0 C64.5902919,0 66.0418231,1.10148221 66.4808544,2.67877668 L71.2743388,19.90217 C71.81462,21.8452688 70.6703544,23.8646996 68.7235419,24.4040751 L61.4393075,26.4223834 C61.1191044,26.5116245 60.7889169,26.5565257 60.457745,26.5565257 L60.457745,26.5565257 Z" id="Fill-19"></path>
            </g>
        </g>
    </g>
</svg>
