<?xml version="1.0" encoding="UTF-8"?>
<svg width="40px" height="40px" viewBox="0 0 40 40" version="1.1" xmlns="http://www.w3.org/2000/svg" xmlns:xlink="http://www.w3.org/1999/xlink">
    <!-- Generator: Sketch 52.5 (67469) - http://www.bohemiancoding.com/sketch -->
    <title>icon_Messenger</title>
    <desc>Created with Sketch.</desc>
    <g id="study-8" stroke="none" stroke-width="1" fill="none" fill-rule="evenodd">
        <g id="overlay-v2" transform="translate(-32.000000, -375.000000)">
            <g id="icon_Messenger" transform="translate(32.000000, 375.000000)">
                <rect id="Bounding-box" fill-rule="nonzero" x="0" y="0" width="40" height="40"></rect>
                <path d="M11.1550167,36.8199926 L5.73906364,39.2270828 C5.55392778,39.3093654 5.34816585,39.3334739 5.1490238,39.296216 C4.60615843,39.1946501 4.24841455,38.6722353 4.34998047,38.1293699 L5.4546528,32.2249454 C2.67472689,28.9208023 1,24.6559778 1,20 C1,9.50658975 9.50658975,1 20,1 C30.4934102,1 39,9.50658975 39,20 C39,30.4934102 30.4934102,39 20,39 C16.8063753,39 13.7967825,38.2120658 11.1550167,36.8199926 Z" id="Combined-Shape" fill="#2196F3"></path>
                <path d="M33.4472163,14.33439 C33.1997309,14.0026941 32.7460077,13.9034348 32.3826549,14.1014855 L23.7329083,18.817275 L18.3517777,14.202928 C18.0217972,13.920043 17.5296335,13.9388344 17.222343,14.2462029 L7.24183618,24.2267097 C6.91801552,24.5524797 6.91957497,25.0791074 7.24542292,25.402928 C7.50592975,25.6618754 7.90538394,25.7192633 8.22826893,25.5441366 L16.8780155,20.8283471 L22.2641364,25.4443315 C22.5941169,25.7272165 23.0862806,25.7084251 23.3935711,25.4010567 L33.3740779,15.4205498 C33.6649161,15.1269826 33.6961052,14.6643705 33.4472163,14.33439 Z" id="Path" fill="#FAFAFA"></path>
            </g>
        </g>
    </g>
</svg>
