<?xml version="1.0" encoding="UTF-8"?>
<svg width="105px" height="78px" viewBox="0 0 105 78" version="1.1" xmlns="http://www.w3.org/2000/svg" xmlns:xlink="http://www.w3.org/1999/xlink">
    <!-- Generator: Sketch 42 (36781) - http://www.bohemiancoding.com/sketch -->
    <title>cost copy</title>
    <desc>Created with Sketch.</desc>
    <defs></defs>
    <g id="Page-1" stroke="none" stroke-width="1" fill="none" fill-rule="evenodd">
        <g id="cost-copy">
            <g id="Group-13" transform="translate(4.000000, 3.000000)">
                <path d="" id="Path-18" stroke="#979797" stroke-width="0.8"></path>
                <g id="Group-12" transform="translate(0.000000, 7.888889)" stroke="#615CFF" stroke-width="4.5" stroke-linecap="round" stroke-linejoin="round">
                    <path d="M11.0951034,1.91984779 C3.27679168,1.91984779 -7.76216261,15.4672354 10.5430684,24.7228861" id="Path-20"></path>
                    <path d="M77.8542054,10.6377349 C81.2265509,13.7309503 83.7552144,17.3647828 85.1756681,21.3402104 L96,21.3402104 L96,37.1179881 L84.8483559,37.1179881 C82.6721114,42.5230415 78.4304624,47.2527637 72.8143666,50.7873008 L75.4646813,58.0689806 L62.0437461,62.9538015 L59.5840502,56.1958425 C56.0453728,57.0131008 52.2871893,57.4529396 48.3924636,57.4529396 C44.0806637,57.4529396 39.9362157,56.913855 36.0716923,55.9203819 L33.5588718,62.8242996 L20.1379366,57.9394787 L22.9768091,50.1397406 C15.1995447,44.8934067 10.3064344,37.2757605 10.3064344,28.798274 C10.3064344,12.9727392 27.3581305,0.143608414 48.3924636,0.143608414 C56.1794875,0.143608414 63.4206829,1.90186705 69.4529595,4.91949724 C71.3939241,2.88604065 75.188261,0.31206973 81.9600607,0.31206973 C81.9600607,0.31206973 76.5107048,3.80351078 77.8542054,10.6377349 Z" id="Combined-Shape" fill="#FFFFFF"></path>
                </g>
                <path d="M33.1059787,16.7344453 C33.1059787,16.7344453 40.3450477,13.2703257 49.313517,14.3549382" id="Path-22" stroke="#615CFF" stroke-width="3.5" stroke-linecap="round"></path>
                <ellipse id="Oval-10" stroke="#615CFF" stroke-width="3.5" fill="#FFFFFF" cx="38.8709563" cy="7.24743797" rx="7.14113047" ry="7.06553398"></ellipse>
            </g>
        </g>
    </g>
</svg>
