<?xml version="1.0" encoding="UTF-8"?>
<svg width="79px" height="66px" viewBox="0 0 79 66" version="1.1" xmlns="http://www.w3.org/2000/svg" xmlns:xlink="http://www.w3.org/1999/xlink">
    <!-- Generator: Sketch 42 (36781) - http://www.bohemiancoding.com/sketch -->
    <title>icon-deliver</title>
    <desc>Created with Sketch.</desc>
    <defs></defs>
    <g id="Symbols" stroke="none" stroke-width="1" fill="none" fill-rule="evenodd">
        <g id="ownership-white" transform="translate(-669.000000, -116.000000)" fill="#333D47">
            <g id="icon-deliver" transform="translate(669.000000, 116.000000)">
                <path d="M21.0045457,40.2490127 L25.5954053,44.8158972 C25.9646159,45.1827508 26.4652938,45.3891386 26.9874893,45.3891386 C27.5094225,45.3891386 28.0101004,45.1827508 28.379311,44.8158972 L47.5722268,25.7256781 L73.2406295,62.0867204 L5.73360686,62.0867204 L21.0045457,40.2490127 Z M49.8048095,1.95690074 C49.8048095,0.875908773 48.9238997,0 47.8367359,0 L26.9874893,0 C25.9003255,0 25.0194158,0.875908773 25.0194158,1.95690074 L25.0194158,14.3993975 C25.0194158,15.4803895 25.9003255,16.3562983 26.9874893,16.3562983 C26.9874893,16.3562983 32.1603895,16.3562983 34.7468396,16.3562983 C38.4541138,16.3562983 45.8686623,16.3562983 45.8686623,16.3562983 L45.8686623,21.8841515 L26.9874893,40.6641365 L22.1245108,35.8266779 C21.712265,35.4167724 21.1354882,35.2103846 20.5579242,35.2610031 C19.9772113,35.3124044 19.4492428,35.6171591 19.1165071,36.0930773 L0.352106499,62.9261003 C-0.0661747365,63.5241292 -0.115507781,64.3037584 0.224050512,64.9495357 C0.563346395,65.5955738 1.23564033,66 1.96828851,66 L77.0266782,66 C78.1190903,66 79,65.1240912 79,64.0430993 C79,63.5778787 78.8367811,63.1504916 78.5641373,62.8146874 L49.8048095,22.0761887 L49.8048095,1.95690074 Z" id="Fill-1"></path>
            </g>
        </g>
    </g>
</svg>
