<?xml version="1.0" encoding="utf-8"?>
<!-- Generator: Adobe Illustrator 19.1.0, SVG Export Plug-In . SVG Version: 6.00 Build 0)  -->
<svg version="1.1" id="Layer_1" xmlns="http://www.w3.org/2000/svg" xmlns:xlink="http://www.w3.org/1999/xlink" x="0px" y="0px"
	 viewBox="0 0 40 32" style="enable-background:new 0 0 40 32;" xml:space="preserve">
<g>
	<path d="M23.5,9.4c0.3-0.3-1.5-1.1-1.7-1.2C21.5,8.1,21.1,8,21,8.2c-0.2,0.4,0.5,0.3,1.1,0.6C22.8,9.2,23.2,9.6,23.5,9.4z"/>
	<path d="M20.7,10.6c-0.3-0.1-0.6-0.1-0.9-0.1c0,0,0,0.1,0,0.1c0,0,0,0.1,0,0.1c0,0,0,0,0,0c0,0.1,0,0.2,0,0.3c0.2,0,0.4,0,0.6,0
		c0.5,0.1,1.3,0.8,1.5,0.5C22.2,11.2,21.3,10.8,20.7,10.6z"/>
	<path d="M29.2,1.6c-0.4-0.2-1.8-0.3-1.8-0.3s0.1-0.3,0.1-0.7c0.1-0.4,0-0.5-0.7-0.6c-0.7,0-2.1,0.1-2.5,0.1c-0.4,0-0.6,0.9-0.7,1.1
		s-0.1-0.2-0.1-0.4c0-0.2-0.3-0.2-0.7-0.1c-0.3,0.1-0.7,0.3-1.5,0.7c-0.7,0.3-0.7,0.8-0.7,1.3c0,0.5,0.1,3.6,0,3.8
		c-0.1,0.2-0.9,0.3-1.8,1.4c-0.4,0.4-0.8,1.1-1.1,1.9c0,0,0.1,0,0.1,0c0.2,0,0.4,0.1,0.5,0.2c0,0,0.1,0,0.1,0c0.1,0,0.1,0,0.2,0
		c0.6-1.2,1.8-2.6,2.8-2.7c1.1-0.1,2.9,0,4,1.2c0.6,0.6,1.2,1.5,1.4,2.3c0.1,0,0.3-0.1,0.4-0.1c0.2,0,0.4,0,0.5,0.1
		c-0.2-1.3-1-2.3-1.1-2.4c-0.1-0.1,0.4-0.9,0.6-1.6s1.7-3.4,1.9-3.8C29.6,2.4,29.6,1.8,29.2,1.6z M28.3,2.8
		c-0.2,0.3-0.5,1.3-1.1,2.2c-0.6,0.9-1,2.4-1.2,2.1c-0.3-0.3-1.6-0.8-2.3-1c-0.7-0.2-1.9,0.2-1.9-0.2c0-0.4-0.1-2.2-0.1-2.8
		s-0.2-0.6,0.2-0.9c0.4-0.3,0.9-0.4,0.9-0.1c0,0.3,0,2.2,0.4,2.3c0.4,0.1,0.7,0.1,0.8-0.6c0.1-0.7,0.5-2.2,0.6-2.4
		c0.1-0.2,0-0.5,0.5-0.5c0.4,0,1.5-0.1,1.4,0.3c-0.1,0.3-0.3,0.6-0.1,0.8c0.1,0.2,0,0.6,0,0.6s-0.9,1.9-1.1,2.3
		c-0.2,0.3-0.1,0.6,0.1,0.7c0.2,0.1,0.4-0.2,0.7-0.6c0.2-0.4,0.9-1.5,1.1-1.9c0.2-0.4,0.4-0.9,0.7-0.7S28.5,2.5,28.3,2.8z"/>
	<g>
		<path d="M15.7,9.8c3.4-0.1,5.3,2.8,4.7,6c-0.1,0.6-0.3,1.1-0.6,1.5c0.4,0,0.8-0.1,1.2,0c0.3-0.6,0.5-1.3,0.6-2.1
			c0.5-3.6-2-6.5-5.7-6.4C15.4,8.8,14.9,9.8,15.7,9.8z"/>
		<path d="M6.5,18.9c-0.1-0.1-0.2-0.1-0.2-0.2c-1.9-1.9-3.3-6.3,0.8-7.2c0.7-0.1,0.9-1,0-0.8c-2.9,0.5-4.6,3.2-3.7,6.1
			c0.3,0.9,0.9,1.8,1.6,2.5C5.4,19.1,5.9,19,6.5,18.9z"/>
		<path d="M17.3,13.6c-0.2,0.7-0.3,1.2,0,1.3c0.3,0.1,0.9-0.5,1-1.5c0.1-1,0.1-2.7-0.3-2.8s-1.1-0.1-0.8,0.7S17.4,12.9,17.3,13.6z"
			/>
		<path d="M11.2,7.5c0.1-0.7,0.3-1.2,0.9-1.8c-0.2,0-0.3,0-0.5,0c0.2,0.9,0.5,1.6,0.9,2.4c0.1,0.2,0.3,0.1,0.5,0
			c1.8-1.4,0.7,0.1,0.9,0.6c0.2,0.5,1.5,1.1,1.9,1.3c0-0.1,0.1-0.3,0.1-0.4c-0.8,0.5-1.6,0.5-2.4,0.1c-0.2-0.1-0.5,0.1-0.5,0.3
			c0.1,0.7,0.1,1.4,0.2,2.1c0.2-0.1,0.3-0.2,0.5-0.3c-0.8-0.4-1.2-0.8-1.6-1.6c-0.1-0.2-0.5-0.1-0.6,0.1c-0.4,0.6-0.8,1.3-1.2,1.9
			c0.2,0,0.4,0,0.6-0.1c-0.3-0.6-0.6-1.2-0.9-1.8c-0.1-0.2-0.5-0.1-0.6,0.1c-0.4,0.6-0.8,1.2-1.4,1.7c0.2,0,0.3,0,0.5-0.1
			C7,11,8.1,9.6,9,8.9c0.1-0.1,0.1-0.3-0.1-0.3C8.4,8.4,7.6,8.6,8.3,8.1C9,7.5,10,7.8,10.7,8.3c0.2,0.2,0.8-0.2,0.5-0.3
			C9.9,7,8.2,7.2,7.1,8.3C6.9,8.4,7,8.6,7.1,8.6c0.3,0.1,0.7,0.2,1,0.2c0.1,0.2,0,0.4-0.3,0.5c-0.1,0.3-0.5,0.6-0.6,1
			c-0.2,0.8,0,1.5,0.6,1.9c0.2,0.1,0.3,0.1,0.5-0.1c0.6-0.5,1.1-1.1,1.5-1.8c-0.2,0-0.4,0-0.6,0.1c0.3,0.6,0.6,1.2,0.9,1.8
			c0.1,0.2,0.5,0.1,0.6-0.1c0.4-0.6,0.8-1.3,1.2-1.9c-0.2,0-0.4,0-0.6,0.1c0.4,0.8,1,1.3,1.8,1.7c0.2,0.1,0.5-0.1,0.5-0.3
			c-0.1-0.7-0.1-1.4-0.2-2.1c-0.2,0.1-0.3,0.2-0.5,0.3c1,0.5,2,0.5,3-0.1C16,9.9,16.2,9.7,16,9.6c-0.3-0.2-0.7-0.4-1-0.6
			c-0.6-0.4-0.8-0.8-0.5-1.2c-0.1-0.4,0.2-0.1-0.1-0.6C14.4,7,14.3,7,14.2,7.1c-0.7,0.1-1.1,0.3-1.6,0.7c0.2,0,0.3,0,0.5,0
			c-0.5-0.8-0.8-1.5-0.9-2.4c0-0.2-0.4-0.1-0.5,0c-0.6,0.7-0.9,1.3-1,2.2C10.5,7.9,11.1,7.7,11.2,7.5L11.2,7.5z"/>
	</g>
	<g>
		<path d="M25.3,17.2c-1-0.7-1.7-1.6-1.7-3c0-3.6,3.6-2.5,5.6-3.9c0.2,0,0.4-0.1,0.4-0.2c0-0.1,0-0.1,0-0.2c0-0.1,0.1-0.1,0.1-0.2
			c0.1-0.2,0-0.3-0.1-0.3c0-0.5,0-1-0.1-1.5c0.1,0.1,0.2,0.2,0.3,0.3c0.1,0.2,0.5,0.3,0.6,0.1l0.9,0.1c0.1,0.2,0.5,0.2,0.7,0
			c0.8-0.9-0.3,2.2-0.2,1.7c0,0.7,0,1.1,0.4,1.7c0.6,0.8,1.7,1.2,2.3,2c0.7,0.9,1.3,2.1,0.7,3.2c-0.1,0.2-0.2,0.4-0.4,0.5
			c0.2,0,0.5,0.1,0.7,0.2c0,0,0,0,0.1,0c0.8-1.2,0.8-2.8-0.1-4c-0.4-0.6-0.6-0.6-1.1-1c-1.1-0.9-1.7-0.7-1.3-2.4
			c0.1-0.4,0.7-1.9,0.5-2.4c-0.5-1-1.2-0.3-1.8-0.2c-0.4,0-0.9-0.3-1.4-0.1C30,7.2,29.7,7,29,6.8c-0.2,0-0.6,0-0.5,0.3
			c0.3,0.9,0.4,1.7,0.3,2.5c-0.9,0.7-2.7,0.6-3.7,1.1c-0.8,0.4-1.5,0.9-1.9,1.7c-0.7,1.3-0.5,3.6,0.5,4.7
			C24.3,17.2,24.8,17.1,25.3,17.2z"/>
		<path d="M27.5,17.4c-0.8-1.2-0.8-2.8-0.1-4.1c0.1-0.3-0.4-0.4-0.6-0.1c-0.7,1.3-0.7,2.9,0,4.1C27.1,17.3,27.3,17.3,27.5,17.4z"/>
		<path d="M30.9,17.6c0,0,0.1,0,0.1,0c0.2,0,0.4,0,0.6,0c0.8-1.1,1.2-2.5,0.6-3.7c-0.1-0.2-0.7-0.2-0.6,0.1
			C32.2,15.1,31.7,16.5,30.9,17.6z"/>
		<path d="M29.9,9.6c0,0.7-0.3,1.3-0.8,1.8c-0.1,0.1,0.2,0.2,0.3,0.1c0.6-0.5,0.9-1.2,0.9-1.9C30.3,9.5,29.9,9.5,29.9,9.6L29.9,9.6z
			"/>
		<path d="M30.7,10.6c-0.2,0.5-0.2,1,0,1.5c0.1,0.1,0.4,0.1,0.4,0c-0.2-0.5-0.2-0.9,0-1.4C31.1,10.5,30.7,10.5,30.7,10.6L30.7,10.6z
			"/>
		<path d="M25.2,12.2c-0.7,0.6-1,1.5-0.8,2.4c0,0.2,0.4,0.2,0.4,0c-0.1-0.9,0.1-1.7,0.8-2.3C25.7,12.2,25.3,12.1,25.2,12.2
			L25.2,12.2z"/>
		<path d="M28.2,13.5c-0.4,0.9-0.5,1.8-0.1,2.7c0.1,0.2,0.4,0.1,0.4-0.1c-0.3-0.9-0.3-1.8,0.1-2.6C28.7,13.5,28.3,13.4,28.2,13.5
			L28.2,13.5z"/>
		<path d="M33.8,14.3c0.4,0.8,0.4,1.6,0,2.4c-0.1,0.2,0.3,0.2,0.4,0.1c0.4-0.8,0.4-1.7,0-2.5C34.1,14.1,33.7,14.1,33.8,14.3
			L33.8,14.3z"/>
	</g>
	<path d="M9,32c-2.3,0-3.1-3.5-3.5-5.1c-0.5-2.2-1.7-5.3-2.2-6c-0.4-0.6-0.4-1.1-0.2-1.5c0.2-0.4,0.5-0.6,1-0.7
		c0.4-0.1,2.1-0.3,4.2-0.7c2.1-0.4,4.7-0.8,7-1.2c2.1-0.3,3.9-0.5,5.5-0.5c0.8,0,1.5,0,2.1,0.1c0.2,0,0.4,0,0.6,0
		c0.4,0,0.9,0.1,1.4,0.1c1.3,0.1,2.7,0.2,5,0.2c0.4,0,0.7,0,1.1,0c1.7,0,4.6,0.1,5.8,0.6c1.2,0.6,0.9,2,0.5,3.9
		c-0.1,0.3-0.2,0.7-0.2,1.1c-0.4,1.7-0.9,3.7-1.3,5.2c-0.2,0.7-0.3,1.2-0.4,1.6c-0.4,1.7-1.4,2.2-2.3,2.4c-1,0.3-2.3,0.4-4.2,0.3
		c-1.9-0.1-6.3-0.2-9.5-0.2h-0.1c-2,0-4.8,0.1-7,0.2C10.8,31.9,9.6,32,9,32L9,32z M4.4,19.9c0,0.1,0.1,0.1,0.1,0.2
		c0.6,1,1.8,4.3,2.3,6.4c0.2,1,0.9,4.1,2.2,4.1v0.6l0-0.6c0.6,0,1.8-0.1,3.1-0.1c2.2-0.1,5-0.2,7.1-0.2h0.1c3.2,0,7.7,0.2,9.6,0.2
		c1.7,0.1,3,0,3.8-0.2c0.7-0.2,1.1-0.5,1.4-1.5c0.1-0.4,0.2-0.9,0.4-1.6c0.4-1.5,0.9-3.5,1.2-5.2c0.1-0.4,0.2-0.8,0.2-1.1
		c0.2-1,0.5-2.3,0.3-2.5C35.7,18.3,34,18,30.9,18c-0.3,0-0.7,0-1.1,0c-2.3,0-3.9-0.1-5.1-0.2c-0.5,0-0.9-0.1-1.3-0.1
		c-0.2,0-0.4,0-0.6,0c-0.6,0-1.2-0.1-2-0.1c-1.5,0-3.3,0.2-5.3,0.5c-2.3,0.4-4.8,0.8-6.9,1.2C6.4,19.6,4.9,19.9,4.4,19.9z"/>
	<g>
		<path d="M2,21.2c-0.2,0.6-0.3,1.2-0.5,1.8c-0.4-0.3-0.9-0.7-0.9-1.1c0-0.4,0.7-1.3,0.9-1.7c0.4-0.9,0.7-1.8,1-2.7
			c0.5,0.3,1,0.6,1.5,1c0.1,0.1,0.5-0.1,0.4-0.2c-0.6-0.5-1.2-0.9-1.8-1.2c-0.1-0.1-0.4,0-0.4,0.1c-0.3,0.9-0.6,1.7-0.9,2.5
			c-0.3,0.7-0.9,1.4-1,2.1C0,22.7,0.9,23,1.5,23.5c0.1,0.1,0.4,0,0.4-0.1c0.2-0.7,0.4-1.4,0.6-2.2C2.5,21,2.1,21,2,21.2z"/>
		<path d="M1.6,23.7L1.6,23.7c-0.1,0-0.2,0-0.2-0.1c-0.1-0.1-0.3-0.2-0.4-0.3C0.4,23-0.1,22.6,0,21.8c0.1-0.4,0.4-0.9,0.6-1.3
			C0.8,20.2,1,20,1.1,19.7c0.3-0.8,0.6-1.6,0.9-2.5c0.1-0.2,0.2-0.3,0.4-0.3c0.1,0,0.1,0,0.2,0c0.7,0.3,1.3,0.7,1.9,1.2
			c0.1,0.1,0.1,0.2,0.1,0.3c-0.1,0.2-0.5,0.3-0.7,0.2c-0.4-0.3-0.8-0.7-1.3-0.9c-0.3,0.9-0.6,1.8-1,2.5c-0.1,0.1-0.2,0.3-0.3,0.5
			c-0.2,0.4-0.5,0.9-0.5,1.1c0,0.3,0.4,0.6,0.6,0.8l0.4-1.6C2,20.9,2.5,20.8,2.6,21c0,0.1,0.1,0.1,0,0.2L2,23.4
			C2,23.6,1.8,23.7,1.6,23.7z M2.4,17.2c-0.1,0-0.1,0-0.1,0.1c-0.3,0.9-0.6,1.8-1,2.5c-0.1,0.3-0.3,0.5-0.4,0.8
			c-0.2,0.4-0.5,0.9-0.6,1.2c-0.1,0.5,0.2,0.8,0.8,1.2c0.1,0.1,0.3,0.2,0.4,0.3l0,0c0.1,0,0.1,0,0.1-0.1l0.6-2.1c-0.1,0-0.1,0-0.1,0
			l-0.6,2l-0.2-0.1c-0.5-0.4-1-0.8-1-1.3c0-0.3,0.3-0.8,0.6-1.3c0.1-0.2,0.2-0.4,0.3-0.5c0.4-0.8,0.7-1.7,1-2.7L2.4,17.2l0.2,0.1
			c0.6,0.3,1.1,0.7,1.5,1.1c0,0,0.1,0,0.1,0C3.7,17.9,3.1,17.6,2.4,17.2C2.5,17.2,2.5,17.2,2.4,17.2z"/>
	</g>
	<g>
		<path d="M38,20.3c0.2,0.8,0.3,1.5,0.5,2.3c0.4-0.4,0.9-0.9,0.9-1.4c0-0.5-0.7-1.7-0.9-2.1c-0.4-1.1-0.8-2.2-1.1-3.4
			c-0.5,0.4-1,0.8-1.5,1.3c-0.1,0.1-0.5-0.1-0.4-0.3c0.6-0.6,1.2-1.1,1.8-1.5c0.1-0.1,0.4,0,0.4,0.2c0.3,1.1,0.6,2.1,1,3.2
			c0.3,0.8,0.9,1.8,1,2.6c0.2,1-0.7,1.4-1.3,2.1c-0.1,0.1-0.4,0-0.4-0.2c-0.2-0.9-0.4-1.8-0.6-2.7C37.4,20,37.9,20.1,38,20.3z"/>
		<path d="M38.4,23.4c-0.2,0-0.4-0.2-0.4-0.4l-0.6-2.7c0-0.1,0-0.2,0-0.2c0.2-0.2,0.7-0.1,0.7,0.2l0.4,2c0.3-0.3,0.7-0.7,0.7-1.1
			c0-0.3-0.3-0.9-0.6-1.4c-0.1-0.3-0.2-0.5-0.3-0.7c-0.4-1-0.7-2-1-3.2c-0.5,0.3-0.9,0.7-1.3,1.1c-0.2,0.2-0.6,0.1-0.7-0.2
			c-0.1-0.1,0-0.3,0.1-0.4c0.6-0.6,1.2-1.1,1.9-1.5c0.2-0.1,0.6,0,0.7,0.3c0.3,1.2,0.6,2.2,1,3.2c0.1,0.3,0.3,0.6,0.4,1
			c0.3,0.5,0.5,1.1,0.6,1.7c0.2,0.9-0.4,1.4-0.9,1.8c-0.1,0.1-0.3,0.2-0.4,0.4C38.6,23.4,38.5,23.4,38.4,23.4z M37.7,20.3l0.6,2.7
			c0,0.1,0.1,0.1,0.1,0.1c0,0,0,0,0,0c0.1-0.1,0.3-0.3,0.4-0.4c0.5-0.4,0.9-0.8,0.8-1.5c-0.1-0.5-0.4-1.1-0.6-1.6
			c-0.2-0.4-0.3-0.7-0.4-1c-0.3-1-0.7-2-1-3.2c0-0.1-0.1-0.1-0.2-0.1c-0.7,0.4-1.2,0.9-1.8,1.5c0,0,0.1,0.1,0.1,0.1
			c0.5-0.5,1-0.9,1.6-1.3l0.2-0.1l0.1,0.2c0.3,1.2,0.7,2.4,1.1,3.4c0.1,0.2,0.2,0.4,0.3,0.6c0.3,0.5,0.6,1.2,0.6,1.6
			c0,0.6-0.6,1.2-1,1.5l-0.2,0.2l-0.6-2.5C37.8,20.3,37.7,20.3,37.7,20.3z"/>
	</g>
	<path d="M7.1,22.3c0.7,2.2,1.5,4.4,2.5,6.5c0.1,0.1,0.4,0,0.3-0.1c-1-2.1-1.8-4.2-2.5-6.5C7.4,22.1,7.1,22.2,7.1,22.3z"/>
	<g>
		<path d="M15.1,23.2v1.7c-0.1,0.1-0.2,0.1-0.3,0.2c-0.1,0.1-0.2,0.1-0.4,0.1c-0.1,0-0.3,0.1-0.4,0.1c-0.2,0-0.3,0-0.5,0
			c-0.3,0-0.6-0.1-0.9-0.2c-0.3-0.1-0.5-0.3-0.7-0.4c-0.2-0.2-0.3-0.4-0.4-0.7c-0.1-0.3-0.2-0.6-0.2-0.9c0-0.3,0.1-0.6,0.2-0.9
			c0.1-0.3,0.3-0.5,0.4-0.7c0.2-0.2,0.4-0.3,0.7-0.4c0.3-0.1,0.6-0.2,0.9-0.2c0,0,0,0,0,0l0,0c0.5,0,1,0.1,1.5,0.3l0,1.1h0H15h-0.2
			c-0.1,0-0.1,0-0.1-0.1c0-0.1,0-0.2-0.1-0.5c-0.3-0.1-0.6-0.1-1-0.1c-0.2,0-0.4,0-0.6,0.1c-0.2,0.1-0.3,0.2-0.4,0.3
			c-0.1,0.1-0.2,0.3-0.3,0.5c-0.1,0.2-0.1,0.4-0.1,0.6c0,0.2,0,0.5,0.1,0.6c0.1,0.2,0.2,0.3,0.3,0.5c0.1,0.1,0.3,0.2,0.4,0.3
			c0.2,0.1,0.4,0.1,0.6,0.1c0.2,0,0.3,0,0.5,0c0.1,0,0.3-0.1,0.4-0.1v-0.8h-0.5c-0.1,0-0.1,0-0.1,0c0,0,0-0.1,0-0.1l0-0.4H15.1z"/>
		<path d="M17.7,22.3c0.2,0.1,0.3,0.2,0.5,0.3c0.1,0.1,0.2,0.3,0.3,0.5c0.1,0.2,0.1,0.4,0.1,0.6c0,0.2,0,0.5-0.1,0.6
			s-0.2,0.4-0.3,0.5c-0.1,0.1-0.3,0.2-0.5,0.3c-0.2,0.1-0.4,0.1-0.6,0.1s-0.4,0-0.6-0.1c-0.2-0.1-0.3-0.2-0.5-0.3
			c-0.1-0.1-0.2-0.3-0.3-0.5s-0.1-0.4-0.1-0.6c0-0.2,0-0.4,0.1-0.6c0.1-0.2,0.2-0.4,0.3-0.5c0.1-0.1,0.3-0.2,0.5-0.3
			c0.2-0.1,0.4-0.1,0.6-0.1S17.5,22.3,17.7,22.3z M17.6,24.5c0.1-0.2,0.2-0.4,0.2-0.7c0-0.3-0.1-0.6-0.2-0.7s-0.3-0.3-0.6-0.3
			c-0.3,0-0.4,0.1-0.6,0.3c-0.1,0.2-0.2,0.4-0.2,0.7s0.1,0.6,0.2,0.7c0.1,0.2,0.3,0.3,0.6,0.3C17.3,24.8,17.5,24.7,17.6,24.5z"/>
		<path d="M24.9,24.3c0,0.1,0,0.3-0.1,0.4c-0.1,0.1-0.1,0.2-0.2,0.3c-0.1,0.1-0.2,0.2-0.4,0.2c-0.2,0-0.3,0.1-0.5,0.1
			c-0.4,0-0.7-0.1-1-0.2v0v-0.3v-0.6h0h0.1h0.2c0.1,0,0.1,0,0.1,0.1c0,0,0,0.1,0,0.3c0.2,0,0.3,0.1,0.5,0.1c0.1,0,0.2,0,0.2,0
			c0.1,0,0.1,0,0.2-0.1c0,0,0.1-0.1,0.1-0.1c0,0,0-0.1,0-0.1c0-0.1,0-0.1-0.1-0.2c0,0-0.1-0.1-0.2-0.1c-0.1,0-0.1-0.1-0.2-0.1
			c-0.1,0-0.2-0.1-0.3-0.1c-0.1,0-0.2-0.1-0.3-0.1c-0.1,0-0.2-0.1-0.2-0.2c-0.1-0.1-0.1-0.1-0.2-0.2c0-0.1-0.1-0.2-0.1-0.3
			c0-0.1,0-0.2,0.1-0.3c0-0.1,0.1-0.2,0.2-0.3c0.1-0.1,0.2-0.1,0.4-0.2c0.1,0,0.3-0.1,0.5-0.1c0.3,0,0.5,0,0.9,0.2l0,0v0.8h0h-0.1
			h-0.2c-0.1,0-0.1,0-0.1-0.1c0,0,0-0.1,0-0.3c-0.1,0-0.2,0-0.4,0c-0.1,0-0.3,0-0.3,0.1c-0.1,0.1-0.1,0.1-0.1,0.2
			c0,0.1,0,0.1,0.1,0.2c0,0,0.1,0.1,0.2,0.1c0.1,0,0.1,0.1,0.2,0.1c0.1,0,0.2,0.1,0.3,0.1c0.1,0,0.2,0.1,0.3,0.1
			c0.1,0,0.2,0.1,0.2,0.2c0.1,0.1,0.1,0.1,0.2,0.2C24.9,24.1,24.9,24.2,24.9,24.3z"/>
		<path d="M25.9,25.1c-0.1-0.1-0.2-0.3-0.2-0.6v-1.7h-0.3c0,0-0.1,0-0.1,0c0,0,0-0.1,0-0.1v-0.3l0.5-0.1l0.2-0.8c0,0,0-0.1,0.1-0.1
			c0,0,0.1,0,0.1,0h0.4v0.9h0.8v0.5h-0.8v1.6c0,0.1,0,0.2,0.1,0.2c0,0.1,0.1,0.1,0.2,0.1c0,0,0.1,0,0.1,0c0,0,0.1,0,0.1,0
			c0,0,0,0,0.1,0s0,0,0.1,0c0,0,0,0,0.1,0c0,0,0,0,0,0l0.2,0.3c-0.1,0.1-0.2,0.2-0.4,0.2c-0.1,0-0.3,0.1-0.4,0.1
			C26.2,25.3,26,25.2,25.9,25.1z"/>
		<path d="M29.7,22.3c0.2,0.1,0.3,0.2,0.5,0.3c0.1,0.1,0.2,0.3,0.3,0.5c0.1,0.2,0.1,0.4,0.1,0.6c0,0.2,0,0.5-0.1,0.6
			s-0.2,0.4-0.3,0.5c-0.1,0.1-0.3,0.2-0.5,0.3c-0.2,0.1-0.4,0.1-0.6,0.1s-0.4,0-0.6-0.1c-0.2-0.1-0.3-0.2-0.5-0.3
			c-0.1-0.1-0.2-0.3-0.3-0.5s-0.1-0.4-0.1-0.6c0-0.2,0-0.4,0.1-0.6c0.1-0.2,0.2-0.4,0.3-0.5c0.1-0.1,0.3-0.2,0.5-0.3
			c0.2-0.1,0.4-0.1,0.6-0.1S29.5,22.3,29.7,22.3z M29.6,24.5c0.1-0.2,0.2-0.4,0.2-0.7c0-0.3-0.1-0.6-0.2-0.7s-0.3-0.3-0.6-0.3
			c-0.3,0-0.4,0.1-0.6,0.3c-0.1,0.2-0.2,0.4-0.2,0.7s0.1,0.6,0.2,0.7c0.1,0.2,0.3,0.3,0.6,0.3C29.3,24.8,29.5,24.7,29.6,24.5z"/>
		<path d="M20.7,21.7c-0.2,0-0.3,0-0.5,0.1c0,0,0,0,0-0.1c0-0.1,0-0.1,0-0.2c0,0,0.1-0.1,0.2-0.1c0,0,0,0,0.1,0
			C20.6,21.4,20.7,21.4,20.7,21.7C20.7,21.6,20.7,21.7,20.7,21.7 M22.6,21.9c-0.1,0-0.1,0-0.2,0c-0.1,0-0.1,0-0.1,0l0,0
			c-0.3-0.1-0.4-0.1-0.5-0.1c-0.2,0-0.4-0.1-0.5-0.1c-0.1,0-0.2,0-0.3,0c0,0,0-0.1,0-0.1c0-0.2-0.1-0.3-0.2-0.3
			c-0.1-0.1-0.3-0.1-0.5-0.1c-0.1,0-0.2,0-0.2,0.1c-0.1,0-0.1,0.1-0.2,0.1c0,0.1-0.1,0.1-0.1,0.2c0,0.1,0,0.1,0,0.2c0,0,0,0.1,0,0.1
			c-0.1,0-0.1,0-0.2,0.1c-0.1,0-0.3,0.1-0.5,0.2c-0.2,0.1-0.3,0.2-0.5,0.4l0,0l0.1,0.3l0.1,0c0.1-0.1,0.3-0.1,0.4-0.2
			c0.1-0.1,0.3-0.1,0.4-0.2c0.1,0,0.3-0.1,0.5-0.1c0.2,0,0.3-0.1,0.5-0.1c0.2,0,0.3,0,0.5,0h0c0.2,0,0.3,0,0.4,0
			c0.1,0,0.3,0,0.4,0.1c0.1,0,0.3,0.1,0.4,0.1l0.1,0L22.6,21.9L22.6,21.9z"/>
		<g>
			<path d="M21.6,22.9c-0.1,0-0.2,0-0.2,0v0.9h0c0,0.3-0.1,0.6-0.2,0.7c-0.1,0.2-0.3,0.3-0.6,0.3c-0.3,0-0.4-0.1-0.6-0.3
				c-0.1-0.2-0.2-0.4-0.2-0.7h0V23c-0.1,0-0.1,0-0.2,0.1c-0.1,0-0.3,0.1-0.4,0.2c0,0-0.1,0-0.1,0.1v0.5h0c0,0,0,0,0,0v0h0
				c0,0.2,0,0.4,0.1,0.6c0.1,0.2,0.2,0.4,0.3,0.5c0.1,0.1,0.3,0.2,0.5,0.3c0.2,0.1,0.4,0.1,0.6,0.1s0.4,0,0.6-0.1
				c0.2-0.1,0.3-0.2,0.5-0.3c0.1-0.1,0.2-0.3,0.3-0.5c0.1-0.2,0.1-0.4,0.1-0.6h0V23c0,0,0,0-0.1,0C21.9,22.9,21.8,22.9,21.6,22.9z"
				/>
		</g>
	</g>
</g>
</svg>
