<svg viewBox="0 0 40 40" fill="none" xmlns="http://www.w3.org/2000/svg"><path d="M20 3.333C10.8 3.333 3.333 10.8 3.333 20c0 9.2 7.467 16.667 16.667 16.667 9.2 0 16.666-7.467 16.666-16.667C36.666 10.8 29.2 3.333 20 3.333zm-1.667 29.884C11.75 32.4 6.666 26.8 6.666 20c0-1.033.134-2.017.35-2.983L15 25v1.667C15 28.5 16.5 30 18.333 30v3.217zm11.5-4.234a3.307 3.307 0 00-3.167-2.316H25v-5C25 20.75 24.25 20 23.333 20h-10v-3.333h3.333c.917 0 1.667-.75 1.667-1.667v-3.333h3.333c1.834 0 3.334-1.5 3.334-3.334V7.65c4.883 1.983 8.333 6.767 8.333 12.35 0 3.467-1.333 6.617-3.5 8.983z" fill="#FF0032"/></svg>