<svg viewBox="0 0 125 174" fill="none" xmlns="http://www.w3.org/2000/svg"><mask id="a" maskUnits="userSpaceOnUse" x="0" y="0" width="125" height="174"><path fill="#F4F7FA" d="M0 0h125v174H0z"/></mask><g mask="url(#a)" fill="#333D47"><path d="M4.846 99.128c-.7-1.3-1.55-1.43-2.81-.66a7.592 7.592 0 00-2.4 3 7.167 7.167 0 00-.79 5.82 3.42 3.42 0 003 2.76 3.55 3.55 0 003.27-2.23 8.571 8.571 0 00.88-4.21 7.9 7.9 0 00-1.15-4.48zM18.536 130.138a6.243 6.243 0 00-3.59-.82 9.137 9.137 0 00-7.36 3c-.57.58-.3 1.26-.58 1.88a3.078 3.078 0 001.347 4.046c.466.245.987.367 1.513.354 4.75.08 7.9-3.09 9.28-7.06a1.09 1.09 0 00-.61-1.4zM8.055 162.42c-.35-.12-.68-.33-1-.45-2.84-1-5.64-1.55-8.21.71a2.548 2.548 0 00.37 4.3c.904.55 1.943.838 3 .83a14.013 14.013 0 006.19-2 2.142 2.142 0 001.1-2c-.03-.72-.72-1.14-1.45-1.39zM47.316 34.1a12.832 12.832 0 00-4.88-2.38c-1.89-.6-4.37.36-5 1.91a4 4 0 001.85 5 9.258 9.258 0 004.21.95c1.14.2 2.37-.47 3.57-1a2.58 2.58 0 001.58-2.75c-.04-.95-.69-1.17-1.33-1.73zM68.845 132.7c-2.15-1.64-4.42-2.831-7.32-2.401a5.263 5.263 0 00-4.58 3.671 1.999 1.999 0 00.31 2.19 3.827 3.827 0 002.7 1.78c3.15.55 5.81-.951 8.56-1.921a1.926 1.926 0 00.96-2.547 1.924 1.924 0 00-.63-.772zM45.318 166.011c-.057.764-.438 1.528.467 2.107a2.344 2.344 0 001.774.361 13.616 13.616 0 003.055-.849 7.05 7.05 0 004.922-5.543 2.81 2.81 0 00-.955-3.133 3.295 3.295 0 00-3.514-.233 11.01 11.01 0 00-5.75 7.29zM34.716 143.566c.122.618.48 1.164 1 1.52a14.706 14.706 0 002.76 1.56 7.074 7.074 0 007.4-.44 2.84 2.84 0 001.55-2.89 3.312 3.312 0 00-2.33-2.66 10.996 10.996 0 00-9.16 1.1c-.64.49-1.45.77-1.22 1.81zM90.725 144.98c1.59-1.09 1.92-2.91.65-4.22a8.4 8.4 0 00-7.83-2.61 2.825 2.825 0 00-2.5 2 2.778 2.778 0 001.06 2.72c.78.74 1.67 1.31 2.46 2 1.58 1.47 4.79 1.17 6.16.11zM88.516 169.192a18.423 18.423 0 003.672 3.091c.72.491 1.498.813 2.27.318a2.464 2.464 0 001.116-2.495c-.507-1.951-.616-4.024-2-5.669-.444-1.233-1.539-1.816-2.558-2.52-1.925-1.301-3.918-.497-4.338 1.847a6.331 6.331 0 001.838 5.428zM10.485 40.996a2.32 2.32 0 00.08-.91 1.582 1.582 0 00-2-1.58 20.275 20.275 0 00-5.27 1.75 4.53 4.53 0 00-2.75 4.4 3 3 0 00.41 1.68 2.12 2.12 0 002 1 7.498 7.498 0 002.9-.4c2.69-.94 3.75-3.38 4.63-5.94zM14.996 22.158a5.9 5.9 0 00-.24-2.2c-.66-2-2-3.13-3.53-2.73a3.89 3.89 0 00-2.7 3.12c-.63 2.94.74 5.41 2.5 7.61.74.94 1.62.78 2.28-.26a9 9 0 001.69-5.54zM98.405 27.495a5.897 5.897 0 001.685 1.435c1.853 1.002 3.603.903 4.441-.438a3.897 3.897 0 00-.179-4.122c-1.56-2.57-4.252-3.426-7.042-3.818-1.183-.175-1.713.545-1.48 1.755a9 9 0 002.575 5.188zM23.595 57.818c-1.39-.34-2.81-.51-4.18-.74a7 7 0 00-4.42 1.74 2.728 2.728 0 00-.69 3.82 3.23 3.23 0 003.57 1.74c2.88-.38 4.6-2.39 6.33-4.35a1.3 1.3 0 00-.61-2.21zM56.014 103.628c1.39.34 2.81.51 4.18.74a7.002 7.002 0 004.42-1.74 2.73 2.73 0 00.69-3.82 3.23 3.23 0 00-3.57-1.74c-2.88.38-4.6 2.39-6.33 4.35a1.302 1.302 0 00.61 2.21zM32.455 114.297c-.34 1.39-.51 2.81-.74 4.18a7.001 7.001 0 001.74 4.42 2.725 2.725 0 002.838 1.122c.353-.078.686-.225.982-.432a3.227 3.227 0 001.74-3.57c-.38-2.88-2.39-4.6-4.35-6.33a1.298 1.298 0 00-2.21.61zM67.21 17.996c-.77.07-1.59-.15-2 .83a2.41 2.41 0 00-.07 1.79c.355.999.821 1.955 1.39 2.85a7.07 7.07 0 006.34 3.83 2.83 2.83 0 002.92-1.5 3.35 3.35 0 00-.41-3.51 10.998 10.998 0 00-8.17-4.29zM96.256 68.208a9.098 9.098 0 00-1.24-2.35c-1.06-1.42-3.18-1.35-3.73.26-.6 1.79-1.59 3.51-1.47 5.65a4.32 4.32 0 00.51 2.45c.53 1.29 1.27 2.47 2.84 2.67a3.76 3.76 0 003.81-1.73 4.66 4.66 0 00.34-3.57 17.663 17.663 0 00-1.06-3.38zM78.662 55c-.17-1.78-.9-2.7-2.66-3a4.32 4.32 0 00-4.1 2.52 6.81 6.81 0 00-.88 3.93c.001.965.051 1.93.15 2.89.33 2.6 1.7 2.42 3.24 1.53 3.04-1.74 4.61-4.27 4.25-7.87zM28.965 18.776c0-.51-.13-1-.12-1.53a6.86 6.86 0 00-1-4.18c-1-1.47-1.93-2.85-3.7-2.85a2.23 2.23 0 00-1.49.32c-1.66 1.24-2 2.39-1.49 4.41.69 2.87 3.14 4.11 5.14 5.76.76.62 1.67 0 2.39-.42.57-.29.32-.97.27-1.51zM48.086 58.998a3.91 3.91 0 00-3.61 2c-1.6 2.54-1.17 5.34-.28 8 .37 1.14 1.25 1.29 2.23.54a9.06 9.06 0 003.5-4.62c.307-.675.49-1.4.54-2.14.07-2.14-.82-3.67-2.38-3.78zM88.345 100.458c-2.57.94-3.75 3-4.45 5.38-.7 2.38.31 3.29 2.72 2.89 1.76-.29 3.41-.77 4.39-2.14l1-1c1-1.07 1.36-3.16.64-4.16a3.562 3.562 0 00-4.3-.97zM36.775 89.257c-2.31-1.77-4.94-1.56-7.56-1.4a1.3 1.3 0 00-1.12 2c.74 1.21 1.62 2.34 2.43 3.48a7.06 7.06 0 004.36 1.89 2.74 2.74 0 003.19-2.21 3.24 3.24 0 00-1.3-3.76z"/></g></svg>