<svg width="40" height="40" viewBox="0 0 40 40" fill="none" xmlns="http://www.w3.org/2000/svg">
<rect width="40" height="40" rx="4" fill="#FF0032"/>
<path fill-rule="evenodd" clip-rule="evenodd" d="M29.4952 4.36547C29.219 4.09109 29.0342 4 28.8039 4C28.5277 4 28.343 4.09109 28.0205 4.41102L25.2095 7.01711C23.6889 5.96549 21.7999 5.37118 19.772 5.37118C14.7492 5.37118 10.5561 9.07407 10.5561 14.3311C10.5561 19.5884 14.7492 23.2913 19.772 23.2913C24.7949 23.2913 28.9883 19.5884 28.9883 14.3311C28.9883 12.6855 28.5737 11.1769 27.8824 9.89722L30.7396 7.15412C31.0617 6.87973 31.108 6.60572 31.108 6.42243C31.108 6.14842 31.0158 6.01141 30.6933 5.64556L29.4952 4.36547ZM19.772 19.7258C16.7767 19.7258 14.3349 17.3026 14.3349 14.3311C14.3349 11.3599 16.7767 8.93706 19.772 8.93706C22.7674 8.93706 25.2095 11.3599 25.2095 14.3311C25.2095 17.3026 22.7674 19.7258 19.772 19.7258ZM28.1586 24.297H26.2237C25.4861 24.297 25.2554 24.5714 25.2554 25.2113C25.1173 28.0914 22.8595 30.4686 19.772 30.4686C16.7767 30.4686 14.4267 28.0914 14.2886 25.2113C14.2886 24.5714 14.0583 24.297 13.3211 24.297H11.3854C10.6942 24.297 10.4639 24.5714 10.4639 25.1657C10.4639 29.9658 14.5189 34.0341 19.772 34.0341C25.0252 34.0341 29.0802 29.9658 29.0802 25.1657C29.0802 24.5714 28.8499 24.297 28.1586 24.297Z" fill="white"/>
</svg>
