<?xml version="1.0" encoding="utf-8"?>
<!-- Generator: Adobe Illustrator 23.0.1, SVG Export Plug-In . SVG Version: 6.00 Build 0)  -->
<svg version="1.1" id="Layer_1" xmlns="http://www.w3.org/2000/svg" xmlns:xlink="http://www.w3.org/1999/xlink" x="0px" y="0px"
	 viewBox="0 0 900 900" style="enable-background:new 0 0 900 900;" xml:space="preserve">
<style type="text/css">
	.st0{fill:#E73843;}
	.st1{fill:#FFFFFF;}
	.st2{fill:none;stroke:#FFFFFF;stroke-width:7;stroke-linecap:round;stroke-miterlimit:10;}
	.st3{fill:#323E48;}
</style>
<g>
	<circle class="st3" cx="441.82" cy="459.61" r="424.6"/>
</g>
<g>
	<circle class="st0" cx="470.99" cy="440.53" r="424.6"/>
</g>
<g>
	<path class="st1" d="M273.88,267.42c0-5.49,0.9-10.49,2.71-14.98c1.81-4.49,4.32-8.32,7.52-11.49c3.2-3.17,7.01-5.61,11.44-7.32
		c4.43-1.71,9.29-2.57,14.59-2.57c5.37-0.06,10.28,0.73,14.74,2.38c4.46,1.65,8.31,4.06,11.54,7.22c3.23,3.17,5.75,6.98,7.56,11.44
		c1.81,4.46,2.72,9.44,2.72,14.93c0,5.37-0.91,10.25-2.72,14.64c-1.81,4.4-4.33,8.18-7.56,11.35c-3.23,3.17-7.08,5.64-11.54,7.42
		c-4.46,1.78-9.38,2.7-14.74,2.76c-5.3,0-10.17-0.86-14.59-2.57c-4.43-1.71-8.24-4.14-11.44-7.27c-3.2-3.14-5.71-6.9-7.52-11.3
		C274.79,277.66,273.88,272.78,273.88,267.42z M286.69,266.64c0,3.69,0.57,7.08,1.7,10.18c1.13,3.1,2.73,5.79,4.8,8.05
		c2.07,2.26,4.54,4.04,7.42,5.33c2.88,1.29,6.09,1.94,9.65,1.94c3.55,0,6.79-0.65,9.7-1.94c2.91-1.29,5.4-3.07,7.47-5.33
		c2.07-2.26,3.67-4.95,4.8-8.05c1.13-3.1,1.7-6.5,1.7-10.18c0-3.43-0.57-6.63-1.7-9.6c-1.13-2.97-2.73-5.58-4.8-7.81
		c-2.07-2.23-4.56-3.98-7.47-5.24c-2.91-1.26-6.14-1.89-9.7-1.89c-3.56,0-6.77,0.63-9.65,1.89c-2.88,1.26-5.35,3.01-7.42,5.24
		c-2.07,2.23-3.67,4.83-4.8,7.81C287.25,260.01,286.69,263.21,286.69,266.64z"/>
	<path class="st1" d="M398.68,301.46h-11.06v-7.47h-0.19c-1.1,2.33-2.78,4.35-5.04,6.06c-2.26,1.71-5.33,2.57-9.21,2.57
		c-3.1,0-5.74-0.5-7.9-1.5c-2.17-1-3.93-2.36-5.29-4.07c-1.36-1.71-2.33-3.67-2.91-5.87c-0.58-2.2-0.87-4.49-0.87-6.89v-29.38h11.64
		v23.57c0,1.29,0.06,2.73,0.19,4.32c0.13,1.58,0.47,3.07,1.02,4.46c0.55,1.39,1.39,2.55,2.52,3.49c1.13,0.94,2.73,1.41,4.8,1.41
		c1.94,0,3.57-0.32,4.9-0.97c1.32-0.65,2.42-1.52,3.3-2.62c0.87-1.1,1.5-2.36,1.89-3.78c0.39-1.42,0.58-2.91,0.58-4.46v-25.41h11.64
		V301.46z"/>
	<path class="st1" d="M410.65,254.91h11.64v7.37h0.19c1.29-2.72,3.14-4.82,5.53-6.3c2.39-1.49,5.14-2.23,8.24-2.23
		c0.71,0,1.41,0.07,2.08,0.19c0.68,0.13,1.37,0.29,2.08,0.48v11.25c-0.97-0.26-1.92-0.47-2.86-0.63c-0.94-0.16-1.86-0.24-2.76-0.24
		c-2.71,0-4.9,0.5-6.55,1.5c-1.65,1-2.91,2.15-3.78,3.44c-0.87,1.29-1.46,2.59-1.75,3.88c-0.29,1.29-0.44,2.26-0.44,2.91v24.92
		h-11.64V254.91z"/>
	<path class="st1" d="M476.79,254.91h11.06v7.27h0.19c1.03-2.2,2.7-4.15,4.99-5.87c2.29-1.71,5.38-2.57,9.26-2.57
		c7.31,0,12.15,2.88,14.55,8.63c1.68-2.97,3.78-5.16,6.3-6.55c2.52-1.39,5.53-2.08,9.02-2.08c3.1,0,5.72,0.52,7.86,1.55
		c2.13,1.04,3.86,2.46,5.19,4.27c1.32,1.81,2.28,3.93,2.86,6.35s0.87,5.03,0.87,7.81v27.74h-11.64v-26.38c0-1.42-0.13-2.8-0.39-4.12
		c-0.26-1.32-0.71-2.49-1.36-3.49c-0.65-1-1.52-1.79-2.62-2.38c-1.1-0.58-2.52-0.87-4.27-0.87c-1.81,0-3.35,0.34-4.61,1.02
		s-2.29,1.58-3.1,2.72c-0.81,1.13-1.39,2.42-1.75,3.88c-0.36,1.45-0.53,2.93-0.53,4.41v25.21h-11.64v-27.74
		c0-2.91-0.62-5.22-1.84-6.93c-1.23-1.71-3.27-2.57-6.11-2.57c-1.94,0-3.57,0.32-4.9,0.97c-1.33,0.65-2.42,1.52-3.3,2.62
		c-0.87,1.1-1.5,2.36-1.89,3.78c-0.39,1.42-0.58,2.91-0.58,4.46v25.41h-11.64V254.91z"/>
	<path class="st1" d="M557.92,278.18c0-3.69,0.66-7.03,1.99-10.04c1.32-3.01,3.12-5.58,5.38-7.71c2.26-2.13,4.95-3.78,8.05-4.95
		c3.1-1.16,6.4-1.75,9.89-1.75s6.79,0.58,9.89,1.75c3.1,1.16,5.79,2.81,8.05,4.95c2.26,2.13,4.06,4.7,5.38,7.71
		c1.32,3.01,1.99,6.35,1.99,10.04c0,3.69-0.66,7.03-1.99,10.04c-1.33,3.01-3.12,5.58-5.38,7.71c-2.26,2.13-4.95,3.78-8.05,4.95
		c-3.1,1.16-6.4,1.75-9.89,1.75s-6.79-0.58-9.89-1.75c-3.1-1.16-5.79-2.81-8.05-4.95c-2.26-2.13-4.06-4.7-5.38-7.71
		C558.59,285.21,557.92,281.87,557.92,278.18z M569.56,278.18c0,1.81,0.31,3.56,0.92,5.24c0.61,1.68,1.52,3.17,2.71,4.46
		c1.2,1.29,2.63,2.33,4.32,3.1c1.68,0.78,3.59,1.16,5.72,1.16c2.13,0,4.04-0.39,5.72-1.16c1.68-0.78,3.12-1.81,4.32-3.1
		c1.2-1.29,2.1-2.78,2.71-4.46c0.61-1.68,0.92-3.43,0.92-5.24c0-1.81-0.31-3.56-0.92-5.24c-0.62-1.68-1.52-3.17-2.71-4.46
		c-1.2-1.29-2.64-2.33-4.32-3.1c-1.68-0.78-3.59-1.16-5.72-1.16c-2.13,0-4.04,0.39-5.72,1.16c-1.68,0.78-3.12,1.81-4.32,3.1
		c-1.2,1.29-2.1,2.78-2.71,4.46C569.87,274.63,569.56,276.37,569.56,278.18z"/>
	<path class="st1" d="M642.4,267.8c-2.26-3.17-5.3-4.75-9.12-4.75c-1.55,0-3.07,0.39-4.56,1.16c-1.49,0.78-2.23,2.04-2.23,3.78
		c0,1.42,0.61,2.46,1.84,3.1c1.23,0.65,2.78,1.2,4.66,1.65c1.87,0.45,3.89,0.92,6.06,1.41c2.17,0.48,4.19,1.23,6.06,2.23
		c1.87,1,3.43,2.38,4.66,4.12c1.23,1.75,1.84,4.14,1.84,7.18c0,2.78-0.6,5.12-1.79,7.03c-1.2,1.91-2.75,3.44-4.65,4.61
		c-1.91,1.16-4.06,2-6.45,2.52c-2.39,0.52-4.79,0.78-7.18,0.78c-3.62,0-6.95-0.52-9.99-1.55c-3.04-1.03-5.75-2.91-8.15-5.62
		l7.76-7.27c1.49,1.68,3.09,3.05,4.8,4.12c1.71,1.07,3.8,1.6,6.25,1.6c0.84,0,1.71-0.1,2.62-0.29c0.91-0.19,1.75-0.52,2.52-0.97
		c0.78-0.45,1.41-1.02,1.89-1.7c0.48-0.68,0.73-1.47,0.73-2.38c0-1.62-0.62-2.81-1.84-3.59c-1.23-0.78-2.78-1.41-4.66-1.89
		c-1.88-0.48-3.9-0.94-6.06-1.36c-2.17-0.42-4.19-1.1-6.06-2.04c-1.88-0.94-3.43-2.25-4.66-3.93c-1.23-1.68-1.84-4.01-1.84-6.98
		c0-2.58,0.53-4.83,1.6-6.74c1.07-1.91,2.47-3.47,4.22-4.7c1.75-1.23,3.75-2.13,6.01-2.72c2.26-0.58,4.56-0.87,6.88-0.87
		c3.1,0,6.17,0.53,9.21,1.6c3.04,1.07,5.49,2.89,7.37,5.48L642.4,267.8z"/>
	<path class="st1" d="M655.34,264.8v-9.89h9.6v-13.48h11.64v13.48h12.8v9.89h-12.8v20.37c0,2.33,0.44,4.17,1.31,5.53
		c0.87,1.36,2.6,2.04,5.19,2.04c1.03,0,2.17-0.11,3.39-0.34c1.23-0.23,2.2-0.6,2.91-1.12v9.79c-1.23,0.58-2.73,0.98-4.51,1.21
		c-1.78,0.23-3.35,0.34-4.7,0.34c-3.1,0-5.64-0.34-7.61-1.02c-1.97-0.68-3.53-1.71-4.66-3.1c-1.13-1.39-1.91-3.12-2.33-5.19
		c-0.42-2.07-0.63-4.46-0.63-7.18V264.8H655.34z"/>
	<path class="st1" d="M179.68,336.63h11.64v73.32h-11.64V336.63z"/>
	<path class="st1" d="M200.91,386.67c0-3.69,0.66-7.03,1.99-10.04c1.32-3.01,3.12-5.58,5.38-7.71c2.26-2.13,4.95-3.78,8.05-4.95
		c3.1-1.16,6.4-1.75,9.89-1.75s6.79,0.58,9.89,1.75c3.1,1.16,5.79,2.81,8.05,4.95c2.26,2.13,4.06,4.7,5.38,7.71
		c1.32,3.01,1.99,6.35,1.99,10.04c0,3.69-0.66,7.03-1.99,10.04c-1.33,3.01-3.12,5.58-5.38,7.71c-2.26,2.13-4.95,3.78-8.05,4.95
		c-3.1,1.16-6.4,1.75-9.89,1.75s-6.79-0.58-9.89-1.75c-3.1-1.16-5.79-2.81-8.05-4.95c-2.26-2.13-4.06-4.7-5.38-7.71
		C201.57,393.7,200.91,390.36,200.91,386.67z M212.55,386.67c0,1.81,0.31,3.56,0.92,5.24c0.61,1.68,1.52,3.17,2.71,4.46
		c1.2,1.29,2.63,2.33,4.32,3.1c1.68,0.78,3.59,1.16,5.72,1.16c2.13,0,4.04-0.39,5.72-1.16c1.68-0.78,3.12-1.81,4.32-3.1
		c1.2-1.29,2.1-2.78,2.71-4.46c0.61-1.68,0.92-3.43,0.92-5.24c0-1.81-0.31-3.56-0.92-5.24c-0.62-1.68-1.52-3.17-2.71-4.46
		c-1.2-1.29-2.64-2.33-4.32-3.1c-1.68-0.78-3.59-1.16-5.72-1.16c-2.13,0-4.04,0.39-5.72,1.16c-1.68,0.78-3.12,1.81-4.32,3.1
		c-1.2,1.29-2.1,2.78-2.71,4.46C212.85,383.12,212.55,384.86,212.55,386.67z"/>
	<path class="st1" d="M252.92,363.4h12.7l12.41,32.58h0.19l12.51-32.58h11.93l-18.33,46.55h-12.41L252.92,363.4z"/>
	<path class="st1" d="M315.86,390.75c0.39,3.49,1.75,6.21,4.07,8.15c2.33,1.94,5.14,2.91,8.44,2.91c2.91,0,5.35-0.6,7.32-1.79
		c1.97-1.2,3.7-2.7,5.19-4.51l8.34,6.3c-2.72,3.36-5.75,5.76-9.12,7.18c-3.36,1.42-6.89,2.13-10.57,2.13
		c-3.49,0-6.79-0.58-9.89-1.75c-3.1-1.16-5.79-2.81-8.05-4.95c-2.26-2.13-4.06-4.7-5.38-7.71c-1.33-3.01-1.99-6.35-1.99-10.04
		c0-3.69,0.66-7.03,1.99-10.04c1.32-3.01,3.12-5.58,5.38-7.71c2.26-2.13,4.95-3.78,8.05-4.95c3.1-1.16,6.4-1.75,9.89-1.75
		c3.23,0,6.19,0.57,8.87,1.7c2.68,1.13,4.98,2.76,6.89,4.9c1.91,2.13,3.39,4.77,4.46,7.9c1.07,3.14,1.6,6.74,1.6,10.81v3.2H315.86z
		 M339.71,382.02c-0.07-3.43-1.13-6.12-3.2-8.1c-2.07-1.97-4.95-2.96-8.63-2.96c-3.49,0-6.25,1-8.29,3.01
		c-2.04,2-3.28,4.69-3.73,8.05H339.71z"/>
	<path class="st1" d="M397.59,402.97h-0.19c-1.68,2.85-3.94,4.91-6.79,6.21c-2.85,1.29-5.92,1.94-9.21,1.94
		c-3.62,0-6.84-0.63-9.65-1.89s-5.22-2.99-7.22-5.19c-2-2.2-3.52-4.78-4.56-7.76c-1.03-2.97-1.55-6.17-1.55-9.6
		c0-3.43,0.55-6.63,1.65-9.6c1.1-2.97,2.63-5.56,4.61-7.76c1.97-2.2,4.35-3.93,7.13-5.19c2.78-1.26,5.82-1.89,9.12-1.89
		c2.2,0,4.14,0.23,5.82,0.68c1.68,0.45,3.17,1.04,4.46,1.75c1.29,0.71,2.39,1.47,3.3,2.28c0.9,0.81,1.65,1.6,2.23,2.38h0.29v-32.68
		h11.64v73.32h-11.06V402.97z M370.05,386.67c0,1.81,0.31,3.56,0.92,5.24c0.61,1.68,1.52,3.17,2.71,4.46
		c1.2,1.29,2.63,2.33,4.32,3.1c1.68,0.78,3.59,1.16,5.72,1.16c2.13,0,4.04-0.39,5.72-1.16c1.68-0.78,3.12-1.81,4.32-3.1
		c1.2-1.29,2.1-2.78,2.71-4.46c0.61-1.68,0.92-3.43,0.92-5.24c0-1.81-0.31-3.56-0.92-5.24c-0.62-1.68-1.52-3.17-2.71-4.46
		c-1.2-1.29-2.64-2.33-4.32-3.1c-1.68-0.78-3.59-1.16-5.72-1.16c-2.13,0-4.04,0.39-5.72,1.16c-1.68,0.78-3.12,1.81-4.32,3.1
		c-1.2,1.29-2.1,2.78-2.71,4.46C370.35,383.12,370.05,384.86,370.05,386.67z"/>
	<path class="st1" d="M450.73,363.4h11.64v7.37h0.19c1.29-2.72,3.14-4.82,5.53-6.3c2.39-1.49,5.14-2.23,8.24-2.23
		c0.71,0,1.41,0.07,2.08,0.19c0.68,0.13,1.37,0.29,2.08,0.48v11.25c-0.97-0.26-1.92-0.47-2.86-0.63c-0.94-0.16-1.86-0.24-2.76-0.24
		c-2.71,0-4.9,0.5-6.55,1.5c-1.65,1-2.91,2.15-3.78,3.44c-0.87,1.29-1.46,2.59-1.75,3.88c-0.29,1.29-0.44,2.26-0.44,2.91v24.92
		h-11.64V363.4z"/>
	<path class="st1" d="M496.42,390.75c0.39,3.49,1.75,6.21,4.07,8.15c2.33,1.94,5.14,2.91,8.44,2.91c2.91,0,5.35-0.6,7.32-1.79
		c1.97-1.2,3.7-2.7,5.19-4.51l8.34,6.3c-2.72,3.36-5.75,5.76-9.12,7.18c-3.36,1.42-6.89,2.13-10.57,2.13
		c-3.49,0-6.79-0.58-9.89-1.75c-3.1-1.16-5.79-2.81-8.05-4.95c-2.26-2.13-4.06-4.7-5.38-7.71c-1.33-3.01-1.99-6.35-1.99-10.04
		c0-3.69,0.66-7.03,1.99-10.04c1.32-3.01,3.12-5.58,5.38-7.71c2.26-2.13,4.95-3.78,8.05-4.95c3.1-1.16,6.4-1.75,9.89-1.75
		c3.23,0,6.19,0.57,8.87,1.7c2.68,1.13,4.98,2.76,6.89,4.9c1.91,2.13,3.39,4.77,4.46,7.9c1.07,3.14,1.6,6.74,1.6,10.81v3.2H496.42z
		 M520.28,382.02c-0.07-3.43-1.13-6.12-3.2-8.1c-2.07-1.97-4.95-2.96-8.63-2.96c-3.49,0-6.25,1-8.29,3.01
		c-2.04,2-3.28,4.69-3.73,8.05H520.28z"/>
	<path class="st1" d="M572.86,377.36c-1.36-1.42-2.78-2.55-4.27-3.39c-1.49-0.84-3.01-1.26-4.56-1.26c-2.13,0-4.04,0.39-5.72,1.16
		c-1.68,0.78-3.12,1.81-4.32,3.1c-1.2,1.29-2.1,2.78-2.71,4.46c-0.62,1.68-0.92,3.43-0.92,5.24c0,1.81,0.31,3.56,0.92,5.24
		c0.61,1.68,1.52,3.17,2.71,4.46c1.2,1.29,2.63,2.33,4.32,3.1c1.68,0.78,3.59,1.16,5.72,1.16c1.81,0,3.49-0.37,5.04-1.12
		c1.55-0.74,2.88-1.83,3.98-3.25l7.76,8.34c-1.16,1.16-2.51,2.17-4.03,3.01c-1.52,0.84-3.05,1.52-4.61,2.04s-3.04,0.89-4.46,1.12
		c-1.42,0.23-2.65,0.34-3.68,0.34c-3.49,0-6.79-0.58-9.89-1.75c-3.1-1.16-5.79-2.81-8.05-4.95c-2.26-2.13-4.06-4.7-5.38-7.71
		c-1.33-3.01-1.99-6.35-1.99-10.04c0-3.69,0.66-7.03,1.99-10.04c1.32-3.01,3.12-5.58,5.38-7.71c2.26-2.13,4.95-3.78,8.05-4.95
		c3.1-1.16,6.4-1.75,9.89-1.75c2.97,0,5.96,0.57,8.97,1.7c3.01,1.13,5.64,2.93,7.9,5.38L572.86,377.36z"/>
	<path class="st1" d="M585.49,347.59c0-1.87,0.69-3.51,2.08-4.9c1.39-1.39,3.15-2.09,5.29-2.09c2.13,0,3.93,0.66,5.38,1.99
		c1.46,1.33,2.18,2.99,2.18,4.99c0,2-0.73,3.67-2.18,4.99c-1.46,1.33-3.25,1.99-5.38,1.99c-2.13,0-3.9-0.69-5.29-2.09
		C586.19,351.1,585.49,349.47,585.49,347.59z M587.14,363.4h11.64v46.55h-11.64V363.4z"/>
	<path class="st1" d="M610.84,363.4h11.06v6.98h0.19c1.68-2.84,3.94-4.91,6.79-6.21c2.84-1.29,5.92-1.94,9.21-1.94
		c3.55,0,6.75,0.63,9.6,1.89c2.84,1.26,5.27,2.99,7.27,5.19c2,2.2,3.52,4.79,4.56,7.76c1.03,2.97,1.55,6.17,1.55,9.6
		c0,3.43-0.55,6.63-1.65,9.6c-1.1,2.97-2.64,5.56-4.61,7.76c-1.97,2.2-4.35,3.93-7.13,5.19c-2.78,1.26-5.82,1.89-9.12,1.89
		c-2.2,0-4.14-0.23-5.82-0.68c-1.68-0.45-3.17-1.03-4.46-1.75c-1.29-0.71-2.39-1.47-3.3-2.28c-0.91-0.81-1.65-1.6-2.23-2.38h-0.29
		v28.03h-11.64V363.4z M649.44,386.67c0-1.81-0.31-3.56-0.92-5.24c-0.62-1.68-1.52-3.17-2.72-4.46c-1.2-1.29-2.63-2.33-4.32-3.1
		c-1.68-0.78-3.59-1.16-5.72-1.16c-2.13,0-4.04,0.39-5.72,1.16c-1.68,0.78-3.12,1.81-4.32,3.1c-1.2,1.29-2.1,2.78-2.71,4.46
		c-0.62,1.68-0.92,3.43-0.92,5.24c0,1.81,0.31,3.56,0.92,5.24c0.61,1.68,1.52,3.17,2.71,4.46c1.2,1.29,2.63,2.33,4.32,3.1
		c1.68,0.78,3.59,1.16,5.72,1.16c2.13,0,4.04-0.39,5.72-1.16c1.68-0.78,3.12-1.81,4.32-3.1c1.2-1.29,2.1-2.78,2.72-4.46
		C649.13,390.23,649.44,388.48,649.44,386.67z"/>
	<path class="st1" d="M679.72,390.75c0.39,3.49,1.75,6.21,4.07,8.15c2.33,1.94,5.14,2.91,8.44,2.91c2.91,0,5.35-0.6,7.32-1.79
		c1.97-1.2,3.7-2.7,5.19-4.51l8.34,6.3c-2.72,3.36-5.75,5.76-9.12,7.18c-3.36,1.42-6.89,2.13-10.57,2.13
		c-3.49,0-6.79-0.58-9.89-1.75c-3.1-1.16-5.79-2.81-8.05-4.95c-2.26-2.13-4.06-4.7-5.38-7.71c-1.33-3.01-1.99-6.35-1.99-10.04
		c0-3.69,0.66-7.03,1.99-10.04c1.32-3.01,3.12-5.58,5.38-7.71c2.26-2.13,4.95-3.78,8.05-4.95c3.1-1.16,6.4-1.75,9.89-1.75
		c3.23,0,6.19,0.57,8.87,1.7c2.68,1.13,4.98,2.76,6.89,4.9c1.91,2.13,3.39,4.77,4.46,7.9c1.07,3.14,1.6,6.74,1.6,10.81v3.2H679.72z
		 M703.57,382.02c-0.07-3.43-1.13-6.12-3.2-8.1c-2.07-1.97-4.95-2.96-8.63-2.96c-3.49,0-6.25,1-8.29,3.01
		c-2.04,2-3.28,4.69-3.73,8.05H703.57z"/>
	<path class="st1" d="M749.36,376.3c-2.26-3.17-5.3-4.75-9.12-4.75c-1.55,0-3.07,0.39-4.56,1.16c-1.49,0.78-2.23,2.04-2.23,3.78
		c0,1.42,0.61,2.46,1.84,3.1c1.23,0.65,2.78,1.2,4.66,1.65c1.87,0.45,3.89,0.92,6.06,1.41c2.17,0.48,4.19,1.23,6.06,2.23
		c1.87,1,3.43,2.38,4.66,4.12c1.23,1.75,1.84,4.14,1.84,7.18c0,2.78-0.6,5.12-1.79,7.03c-1.2,1.91-2.75,3.44-4.65,4.61
		c-1.91,1.16-4.06,2-6.45,2.52c-2.39,0.52-4.79,0.78-7.18,0.78c-3.62,0-6.95-0.52-9.99-1.55c-3.04-1.03-5.75-2.91-8.15-5.62
		l7.76-7.27c1.49,1.68,3.09,3.05,4.8,4.12c1.71,1.07,3.8,1.6,6.25,1.6c0.84,0,1.71-0.1,2.62-0.29c0.91-0.19,1.75-0.52,2.52-0.97
		c0.78-0.45,1.41-1.02,1.89-1.7c0.48-0.68,0.73-1.47,0.73-2.38c0-1.62-0.62-2.81-1.84-3.59c-1.23-0.78-2.78-1.41-4.66-1.89
		c-1.88-0.48-3.9-0.94-6.06-1.36c-2.17-0.42-4.19-1.1-6.06-2.04c-1.88-0.94-3.43-2.25-4.66-3.93c-1.23-1.68-1.84-4.01-1.84-6.98
		c0-2.58,0.53-4.83,1.6-6.74c1.07-1.91,2.47-3.47,4.22-4.7c1.75-1.23,3.75-2.13,6.01-2.72c2.26-0.58,4.56-0.87,6.88-0.87
		c3.1,0,6.17,0.53,9.21,1.6c3.04,1.07,5.49,2.89,7.37,5.48L749.36,376.3z"/>
	<path class="st1" d="M766.8,403.16c0-2.07,0.76-3.85,2.28-5.33c1.52-1.49,3.35-2.23,5.48-2.23c2.07,0,3.88,0.71,5.43,2.13
		c1.55,1.42,2.33,3.17,2.33,5.24c0,2.07-0.76,3.85-2.28,5.33c-1.52,1.49-3.35,2.23-5.48,2.23c-1.03,0-2.02-0.19-2.96-0.58
		c-0.94-0.39-1.76-0.9-2.47-1.55c-0.71-0.65-1.28-1.42-1.7-2.33C767.01,405.16,766.8,404.19,766.8,403.16z"/>
	<path class="st1" d="M203.14,449.78h12.22v27.35h32.1v-27.35h12.22v68.66h-12.22v-30.26h-32.1v30.26h-12.22V449.78z"/>
	<path class="st1" d="M281.59,499.24c0.39,3.49,1.75,6.21,4.07,8.15c2.33,1.94,5.14,2.91,8.44,2.91c2.91,0,5.35-0.6,7.32-1.79
		c1.97-1.2,3.7-2.7,5.19-4.51l8.34,6.3c-2.72,3.36-5.75,5.76-9.12,7.18c-3.36,1.42-6.89,2.13-10.57,2.13
		c-3.49,0-6.79-0.58-9.89-1.75c-3.1-1.16-5.79-2.81-8.05-4.95c-2.26-2.13-4.06-4.7-5.38-7.71c-1.33-3.01-1.99-6.35-1.99-10.04
		c0-3.69,0.66-7.03,1.99-10.04c1.32-3.01,3.12-5.58,5.38-7.71c2.26-2.13,4.95-3.78,8.05-4.95c3.1-1.16,6.4-1.75,9.89-1.75
		c3.23,0,6.19,0.57,8.87,1.7c2.68,1.13,4.98,2.76,6.89,4.9c1.91,2.13,3.39,4.77,4.46,7.9c1.07,3.14,1.6,6.74,1.6,10.81v3.2H281.59z
		 M305.45,490.51c-0.07-3.43-1.13-6.12-3.2-8.1c-2.07-1.97-4.95-2.96-8.63-2.96c-3.49,0-6.25,1-8.29,3.01
		c-2.04,2-3.28,4.69-3.73,8.05H305.45z"/>
	<path class="st1" d="M326.65,471.89h11.64v7.37h0.19c1.29-2.72,3.14-4.82,5.53-6.3c2.39-1.49,5.14-2.23,8.24-2.23
		c0.71,0,1.41,0.07,2.08,0.19c0.68,0.13,1.37,0.29,2.08,0.48v11.25c-0.97-0.26-1.92-0.47-2.86-0.63c-0.94-0.16-1.86-0.24-2.76-0.24
		c-2.71,0-4.9,0.5-6.55,1.5c-1.65,1-2.91,2.15-3.78,3.44c-0.87,1.29-1.46,2.59-1.75,3.88c-0.29,1.29-0.44,2.26-0.44,2.91v24.92
		h-11.64V471.89z"/>
	<path class="st1" d="M372.33,499.24c0.39,3.49,1.75,6.21,4.07,8.15c2.33,1.94,5.14,2.91,8.44,2.91c2.91,0,5.35-0.6,7.32-1.79
		c1.97-1.2,3.7-2.7,5.19-4.51l8.34,6.3c-2.72,3.36-5.75,5.76-9.12,7.18c-3.36,1.42-6.89,2.13-10.57,2.13
		c-3.49,0-6.79-0.58-9.89-1.75c-3.1-1.16-5.79-2.81-8.05-4.95c-2.26-2.13-4.06-4.7-5.38-7.71c-1.33-3.01-1.99-6.35-1.99-10.04
		c0-3.69,0.66-7.03,1.99-10.04c1.32-3.01,3.12-5.58,5.38-7.71c2.26-2.13,4.95-3.78,8.05-4.95c3.1-1.16,6.4-1.75,9.89-1.75
		c3.23,0,6.19,0.57,8.87,1.7c2.68,1.13,4.98,2.76,6.89,4.9c1.91,2.13,3.39,4.77,4.46,7.9c1.07,3.14,1.6,6.74,1.6,10.81v3.2H372.33z
		 M396.19,490.51c-0.07-3.43-1.13-6.12-3.2-8.1c-2.07-1.97-4.95-2.96-8.63-2.96c-3.49,0-6.25,1-8.29,3.01
		c-2.04,2-3.28,4.69-3.73,8.05H396.19z"/>
	<path class="st1" d="M442.16,481.78v-9.89h9.6v-13.48h11.64v13.48h12.8v9.89h-12.8v20.37c0,2.33,0.44,4.17,1.31,5.53
		c0.87,1.36,2.6,2.04,5.19,2.04c1.03,0,2.17-0.11,3.39-0.34c1.23-0.23,2.2-0.6,2.91-1.12v9.79c-1.23,0.58-2.73,0.98-4.51,1.21
		c-1.78,0.23-3.35,0.34-4.7,0.34c-3.1,0-5.64-0.34-7.61-1.02c-1.97-0.68-3.53-1.71-4.66-3.1c-1.13-1.39-1.91-3.12-2.33-5.19
		c-0.42-2.07-0.63-4.46-0.63-7.18v-21.34H442.16z"/>
	<path class="st1" d="M480.67,495.16c0-3.69,0.66-7.03,1.99-10.04c1.32-3.01,3.12-5.58,5.38-7.71c2.26-2.13,4.95-3.78,8.05-4.95
		c3.1-1.16,6.4-1.75,9.89-1.75s6.79,0.58,9.89,1.75c3.1,1.16,5.79,2.81,8.05,4.95c2.26,2.13,4.06,4.7,5.38,7.71
		c1.32,3.01,1.99,6.35,1.99,10.04c0,3.69-0.66,7.03-1.99,10.04c-1.33,3.01-3.12,5.58-5.38,7.71c-2.26,2.13-4.95,3.78-8.05,4.95
		c-3.1,1.16-6.4,1.75-9.89,1.75s-6.79-0.58-9.89-1.75c-3.1-1.16-5.79-2.81-8.05-4.95c-2.26-2.13-4.06-4.7-5.38-7.71
		C481.33,502.2,480.67,498.85,480.67,495.16z M492.3,495.16c0,1.81,0.31,3.56,0.92,5.24c0.61,1.68,1.52,3.17,2.71,4.46
		c1.2,1.29,2.63,2.33,4.32,3.1c1.68,0.78,3.59,1.16,5.72,1.16c2.13,0,4.04-0.39,5.72-1.16c1.68-0.78,3.12-1.81,4.32-3.1
		c1.2-1.29,2.1-2.78,2.71-4.46c0.61-1.68,0.92-3.43,0.92-5.24c0-1.81-0.31-3.56-0.92-5.24c-0.62-1.68-1.52-3.17-2.71-4.46
		c-1.2-1.29-2.64-2.33-4.32-3.1c-1.68-0.78-3.59-1.16-5.72-1.16c-2.13,0-4.04,0.39-5.72,1.16c-1.68,0.78-3.12,1.81-4.32,3.1
		c-1.2,1.29-2.1,2.78-2.71,4.46C492.61,491.61,492.3,493.35,492.3,495.16z"/>
	<path class="st1" d="M595.88,484.79c-2.26-3.17-5.3-4.75-9.12-4.75c-1.55,0-3.07,0.39-4.56,1.16c-1.49,0.78-2.23,2.04-2.23,3.78
		c0,1.42,0.61,2.46,1.84,3.1c1.23,0.65,2.78,1.2,4.66,1.65c1.87,0.45,3.89,0.92,6.06,1.41c2.17,0.48,4.19,1.23,6.06,2.23
		c1.87,1,3.43,2.38,4.66,4.12c1.23,1.75,1.84,4.14,1.84,7.18c0,2.78-0.6,5.12-1.79,7.03c-1.2,1.91-2.75,3.44-4.65,4.61
		c-1.91,1.16-4.06,2-6.45,2.52c-2.39,0.52-4.79,0.78-7.18,0.78c-3.62,0-6.95-0.52-9.99-1.55c-3.04-1.03-5.75-2.91-8.15-5.62
		l7.76-7.27c1.49,1.68,3.09,3.05,4.8,4.12c1.71,1.07,3.8,1.6,6.25,1.6c0.84,0,1.71-0.1,2.62-0.29c0.91-0.19,1.75-0.52,2.52-0.97
		c0.78-0.45,1.41-1.02,1.89-1.7c0.48-0.68,0.73-1.47,0.73-2.38c0-1.62-0.62-2.81-1.84-3.59c-1.23-0.78-2.78-1.41-4.66-1.89
		c-1.88-0.48-3.9-0.94-6.06-1.36c-2.17-0.42-4.19-1.1-6.06-2.04c-1.88-0.94-3.43-2.25-4.66-3.93c-1.23-1.68-1.84-4.01-1.84-6.98
		c0-2.58,0.53-4.83,1.6-6.74c1.07-1.91,2.47-3.47,4.22-4.7c1.75-1.23,3.75-2.13,6.01-2.72c2.26-0.58,4.56-0.87,6.88-0.87
		c3.1,0,6.17,0.53,9.21,1.6c3.04,1.07,5.49,2.89,7.37,5.48L595.88,484.79z"/>
	<path class="st1" d="M608.81,481.78v-9.89h9.6v-13.48h11.64v13.48h12.8v9.89h-12.8v20.37c0,2.33,0.44,4.17,1.31,5.53
		c0.87,1.36,2.6,2.04,5.19,2.04c1.03,0,2.17-0.11,3.39-0.34c1.23-0.23,2.2-0.6,2.91-1.12v9.79c-1.23,0.58-2.73,0.98-4.51,1.21
		c-1.78,0.23-3.35,0.34-4.7,0.34c-3.1,0-5.64-0.34-7.61-1.02c-1.97-0.68-3.53-1.71-4.66-3.1c-1.13-1.39-1.91-3.12-2.33-5.19
		c-0.42-2.07-0.63-4.46-0.63-7.18v-21.34H608.81z"/>
	<path class="st1" d="M680.66,512.04h-0.29c-1.68,2.65-3.82,4.57-6.4,5.77c-2.59,1.2-5.43,1.79-8.53,1.79
		c-2.13,0-4.22-0.29-6.26-0.87c-2.04-0.58-3.85-1.45-5.43-2.62c-1.58-1.16-2.86-2.62-3.83-4.36s-1.46-3.78-1.46-6.11
		c0-2.52,0.45-4.67,1.36-6.45c0.91-1.78,2.12-3.26,3.64-4.46c1.52-1.2,3.28-2.15,5.29-2.86c2-0.71,4.09-1.24,6.25-1.6
		c2.17-0.35,4.35-0.58,6.55-0.68c2.2-0.1,4.27-0.15,6.21-0.15h2.91v-1.26c0-2.91-1-5.09-3.01-6.55s-4.56-2.18-7.66-2.18
		c-2.46,0-4.75,0.44-6.89,1.31c-2.13,0.87-3.98,2.05-5.53,3.54l-6.11-6.11c2.58-2.65,5.61-4.56,9.07-5.72
		c3.46-1.16,7.03-1.75,10.72-1.75c3.3,0,6.08,0.37,8.34,1.12c2.26,0.74,4.14,1.7,5.62,2.86c1.49,1.16,2.63,2.51,3.44,4.02
		c0.81,1.52,1.39,3.05,1.75,4.61c0.35,1.55,0.57,3.05,0.63,4.51c0.06,1.46,0.1,2.73,0.1,3.83v26.77h-10.47V512.04z M679.99,497.59
		h-2.42c-1.62,0-3.43,0.07-5.43,0.19c-2,0.13-3.9,0.44-5.67,0.92s-3.28,1.2-4.51,2.13c-1.23,0.94-1.84,2.25-1.84,3.93
		c0,1.1,0.24,2.02,0.73,2.76c0.48,0.74,1.12,1.37,1.89,1.89c0.78,0.52,1.65,0.89,2.62,1.12c0.97,0.23,1.94,0.34,2.91,0.34
		c4.01,0,6.97-0.95,8.87-2.86c1.91-1.91,2.86-4.51,2.86-7.81V497.59z"/>
	<path class="st1" d="M694.44,471.89h12.8l13,32.29h0.19l11.64-32.29h12.12l-22.01,56.54c-0.84,2.2-1.76,4.12-2.76,5.77
		c-1,1.65-2.18,3.04-3.54,4.17c-1.36,1.13-2.96,1.97-4.8,2.52c-1.84,0.55-4.06,0.82-6.64,0.82c-3.04,0-6.01-0.39-8.92-1.16
		l1.46-10.47c0.9,0.32,1.86,0.6,2.86,0.82c1,0.23,2.02,0.34,3.06,0.34c1.42,0,2.62-0.13,3.59-0.39c0.97-0.26,1.79-0.66,2.47-1.21
		c0.68-0.55,1.24-1.26,1.7-2.13c0.45-0.87,0.94-1.92,1.46-3.15l2.23-5.53L694.44,471.89z"/>
	<path class="st1" d="M744.22,511.65c0-2.07,0.76-3.85,2.28-5.33c1.52-1.49,3.35-2.23,5.48-2.23c2.07,0,3.88,0.71,5.43,2.13
		c1.55,1.42,2.33,3.17,2.33,5.24c0,2.07-0.76,3.85-2.28,5.33c-1.52,1.49-3.35,2.23-5.48,2.23c-1.03,0-2.02-0.19-2.96-0.58
		c-0.94-0.39-1.76-0.9-2.47-1.55c-0.71-0.65-1.28-1.42-1.7-2.33C744.43,513.66,744.22,512.69,744.22,511.65z"/>
	<path class="st1" d="M189.44,558.27h10.57l29.58,68.66h-13.96l-6.4-15.71h-29.77l-6.21,15.71h-13.67L189.44,558.27z M204.96,600.75
		l-10.57-27.93l-10.76,27.93H204.96z"/>
	<path class="st1" d="M225.85,580.38h12.7l12.41,32.58h0.19l12.51-32.58h11.93l-18.33,46.55h-12.41L225.85,580.38z"/>
	<path class="st1" d="M309.74,620.53h-0.29c-1.68,2.65-3.82,4.57-6.4,5.77c-2.59,1.2-5.43,1.79-8.53,1.79
		c-2.13,0-4.22-0.29-6.26-0.87c-2.04-0.58-3.85-1.45-5.43-2.62c-1.58-1.16-2.86-2.62-3.83-4.36s-1.46-3.78-1.46-6.11
		c0-2.52,0.45-4.67,1.36-6.45c0.91-1.78,2.12-3.26,3.64-4.46c1.52-1.2,3.28-2.15,5.29-2.86c2-0.71,4.09-1.24,6.25-1.6
		c2.17-0.35,4.35-0.58,6.55-0.68c2.2-0.1,4.27-0.15,6.21-0.15h2.91v-1.26c0-2.91-1-5.09-3.01-6.55s-4.56-2.18-7.66-2.18
		c-2.46,0-4.75,0.44-6.89,1.31c-2.13,0.87-3.98,2.05-5.53,3.54l-6.11-6.11c2.58-2.65,5.61-4.56,9.07-5.72
		c3.46-1.16,7.03-1.75,10.72-1.75c3.3,0,6.08,0.37,8.34,1.12c2.26,0.74,4.14,1.7,5.62,2.86c1.49,1.16,2.63,2.51,3.44,4.02
		c0.81,1.52,1.39,3.05,1.75,4.61c0.35,1.55,0.57,3.05,0.63,4.51c0.06,1.46,0.1,2.73,0.1,3.83v26.77h-10.47V620.53z M309.07,606.08
		h-2.42c-1.62,0-3.43,0.07-5.43,0.19c-2,0.13-3.9,0.44-5.67,0.92s-3.28,1.2-4.51,2.13c-1.23,0.94-1.84,2.25-1.84,3.93
		c0,1.1,0.24,2.02,0.73,2.76c0.48,0.74,1.12,1.37,1.89,1.89c0.78,0.52,1.65,0.89,2.62,1.12c0.97,0.23,1.94,0.34,2.91,0.34
		c4.01,0,6.97-0.95,8.87-2.86c1.91-1.91,2.86-4.51,2.86-7.81V606.08z"/>
	<path class="st1" d="M329.97,564.57c0-1.87,0.69-3.51,2.08-4.9c1.39-1.39,3.15-2.09,5.29-2.09c2.13,0,3.93,0.66,5.38,1.99
		c1.46,1.33,2.18,2.99,2.18,4.99c0,2-0.73,3.67-2.18,4.99c-1.46,1.33-3.25,1.99-5.38,1.99c-2.13,0-3.9-0.69-5.29-2.09
		C330.67,568.08,329.97,566.45,329.97,564.57z M331.62,580.38h11.64v46.55h-11.64V580.38z"/>
	<path class="st1" d="M355.5,553.62h11.64v73.32H355.5V553.62z"/>
	<path class="st1" d="M408.4,620.53h-0.29c-1.68,2.65-3.82,4.57-6.4,5.77c-2.59,1.2-5.43,1.79-8.53,1.79
		c-2.13,0-4.22-0.29-6.26-0.87c-2.04-0.58-3.85-1.45-5.43-2.62c-1.58-1.16-2.86-2.62-3.83-4.36s-1.46-3.78-1.46-6.11
		c0-2.52,0.45-4.67,1.36-6.45c0.91-1.78,2.12-3.26,3.64-4.46c1.52-1.2,3.28-2.15,5.29-2.86c2-0.71,4.09-1.24,6.25-1.6
		c2.17-0.35,4.35-0.58,6.55-0.68c2.2-0.1,4.27-0.15,6.21-0.15h2.91v-1.26c0-2.91-1-5.09-3.01-6.55s-4.56-2.18-7.66-2.18
		c-2.46,0-4.75,0.44-6.89,1.31c-2.13,0.87-3.98,2.05-5.53,3.54l-6.11-6.11c2.58-2.65,5.61-4.56,9.07-5.72
		c3.46-1.16,7.03-1.75,10.72-1.75c3.3,0,6.08,0.37,8.34,1.12c2.26,0.74,4.14,1.7,5.62,2.86c1.49,1.16,2.63,2.51,3.44,4.02
		c0.81,1.52,1.39,3.05,1.75,4.61c0.35,1.55,0.57,3.05,0.63,4.51c0.06,1.46,0.1,2.73,0.1,3.83v26.77H408.4V620.53z M407.72,606.08
		h-2.42c-1.62,0-3.43,0.07-5.43,0.19c-2,0.13-3.9,0.44-5.67,0.92s-3.28,1.2-4.51,2.13c-1.23,0.94-1.84,2.25-1.84,3.93
		c0,1.1,0.24,2.02,0.73,2.76c0.48,0.74,1.12,1.37,1.89,1.89c0.78,0.52,1.65,0.89,2.62,1.12c0.97,0.23,1.94,0.34,2.91,0.34
		c4.01,0,6.97-0.95,8.87-2.86c1.91-1.91,2.86-4.51,2.86-7.81V606.08z"/>
	<path class="st1" d="M430.35,553.62h11.64v32.68h0.29c0.58-0.78,1.32-1.57,2.23-2.38c0.9-0.81,2-1.57,3.3-2.28
		c1.29-0.71,2.78-1.29,4.46-1.75c1.68-0.45,3.62-0.68,5.82-0.68c3.3,0,6.33,0.63,9.12,1.89c2.78,1.26,5.16,2.99,7.13,5.19
		c1.97,2.2,3.51,4.79,4.61,7.76c1.1,2.97,1.65,6.17,1.65,9.6c0,3.43-0.52,6.63-1.55,9.6c-1.04,2.97-2.55,5.56-4.56,7.76
		c-2,2.2-4.43,3.93-7.27,5.19c-2.85,1.26-6.05,1.89-9.6,1.89c-3.3,0-6.37-0.65-9.21-1.94c-2.85-1.29-5.11-3.36-6.79-6.21h-0.19v6.98
		h-11.06V553.62z M468.95,603.66c0-1.81-0.31-3.56-0.92-5.24c-0.62-1.68-1.52-3.17-2.72-4.46c-1.2-1.29-2.63-2.33-4.32-3.1
		c-1.68-0.78-3.59-1.16-5.72-1.16c-2.13,0-4.04,0.39-5.72,1.16c-1.68,0.78-3.12,1.81-4.32,3.1c-1.2,1.29-2.1,2.78-2.71,4.46
		c-0.62,1.68-0.92,3.43-0.92,5.24c0,1.81,0.31,3.56,0.92,5.24c0.61,1.68,1.52,3.17,2.71,4.46c1.2,1.29,2.63,2.33,4.32,3.1
		c1.68,0.78,3.59,1.16,5.72,1.16c2.13,0,4.04-0.39,5.72-1.16c1.68-0.78,3.12-1.81,4.32-3.1c1.2-1.29,2.1-2.78,2.72-4.46
		C468.64,607.21,468.95,605.47,468.95,603.66z"/>
	<path class="st1" d="M490.29,553.62h11.64v73.32h-11.64V553.62z"/>
	<path class="st1" d="M523.16,607.73c0.39,3.49,1.75,6.21,4.07,8.15c2.33,1.94,5.14,2.91,8.44,2.91c2.91,0,5.35-0.6,7.32-1.79
		c1.97-1.2,3.7-2.7,5.19-4.51l8.34,6.3c-2.72,3.36-5.75,5.76-9.12,7.18c-3.36,1.42-6.89,2.13-10.57,2.13
		c-3.49,0-6.79-0.58-9.89-1.75c-3.1-1.16-5.79-2.81-8.05-4.95c-2.26-2.13-4.06-4.7-5.38-7.71c-1.33-3.01-1.99-6.35-1.99-10.04
		c0-3.69,0.66-7.03,1.99-10.04c1.32-3.01,3.12-5.58,5.38-7.71c2.26-2.13,4.95-3.78,8.05-4.95c3.1-1.16,6.4-1.75,9.89-1.75
		c3.23,0,6.19,0.57,8.87,1.7c2.68,1.13,4.98,2.76,6.89,4.9c1.91,2.13,3.39,4.77,4.46,7.9c1.07,3.14,1.6,6.74,1.6,10.81v3.2H523.16z
		 M547.02,599c-0.07-3.43-1.13-6.12-3.2-8.1c-2.07-1.97-4.95-2.96-8.63-2.96c-3.49,0-6.25,1-8.29,3.01c-2.04,2-3.28,4.69-3.73,8.05
		H547.02z"/>
	<path class="st1" d="M598.41,580.38h11.06v7.47h0.19c1.1-2.33,2.78-4.35,5.04-6.06c2.26-1.71,5.33-2.57,9.21-2.57
		c3.1,0,5.74,0.52,7.9,1.55c2.17,1.04,3.93,2.39,5.29,4.07c1.36,1.68,2.33,3.62,2.91,5.82c0.58,2.2,0.87,4.49,0.87,6.89v29.38
		h-11.64v-23.57c0-1.29-0.06-2.73-0.19-4.32c-0.13-1.58-0.47-3.07-1.02-4.46c-0.55-1.39-1.41-2.55-2.57-3.49
		c-1.16-0.94-2.75-1.41-4.75-1.41c-1.94,0-3.57,0.32-4.9,0.97c-1.33,0.65-2.42,1.52-3.3,2.62c-0.87,1.1-1.5,2.36-1.89,3.78
		c-0.39,1.42-0.58,2.91-0.58,4.46v25.41h-11.64V580.38z"/>
	<path class="st1" d="M650.09,603.66c0-3.69,0.66-7.03,1.99-10.04c1.32-3.01,3.12-5.58,5.38-7.71c2.26-2.13,4.95-3.78,8.05-4.95
		c3.1-1.16,6.4-1.75,9.89-1.75s6.79,0.58,9.89,1.75c3.1,1.16,5.79,2.81,8.05,4.95c2.26,2.13,4.06,4.7,5.38,7.71
		c1.32,3.01,1.99,6.35,1.99,10.04c0,3.69-0.66,7.03-1.99,10.04c-1.33,3.01-3.12,5.58-5.38,7.71c-2.26,2.13-4.95,3.78-8.05,4.95
		c-3.1,1.16-6.4,1.75-9.89,1.75s-6.79-0.58-9.89-1.75c-3.1-1.16-5.79-2.81-8.05-4.95c-2.26-2.13-4.06-4.7-5.38-7.71
		C650.75,610.69,650.09,607.34,650.09,603.66z M661.73,603.66c0,1.81,0.31,3.56,0.92,5.24c0.61,1.68,1.52,3.17,2.71,4.46
		c1.2,1.29,2.63,2.33,4.32,3.1c1.68,0.78,3.59,1.16,5.72,1.16c2.13,0,4.04-0.39,5.72-1.16c1.68-0.78,3.12-1.81,4.32-3.1
		c1.2-1.29,2.1-2.78,2.71-4.46c0.61-1.68,0.92-3.43,0.92-5.24c0-1.81-0.31-3.56-0.92-5.24c-0.62-1.68-1.52-3.17-2.71-4.46
		c-1.2-1.29-2.64-2.33-4.32-3.1c-1.68-0.78-3.59-1.16-5.72-1.16c-2.13,0-4.04,0.39-5.72,1.16c-1.68,0.78-3.12,1.81-4.32,3.1
		c-1.2,1.29-2.1,2.78-2.71,4.46C662.04,600.1,661.73,601.85,661.73,603.66z"/>
	<path class="st1" d="M702.62,580.38h12.61l10.09,32.58h0.19l9.41-32.58h12.61l10.09,32.58h0.19l9.7-32.58h11.73l-15.81,46.55
		h-11.54l-11.06-31.81h-0.19l-9.79,31.81h-12.03L702.62,580.38z"/>
	<path class="st1" d="M780.12,620.14c0-2.07,0.76-3.85,2.28-5.33c1.52-1.49,3.35-2.23,5.48-2.23c2.07,0,3.88,0.71,5.43,2.13
		c1.55,1.42,2.33,3.17,2.33,5.24c0,2.07-0.76,3.85-2.28,5.33c-1.52,1.49-3.35,2.23-5.48,2.23c-1.03,0-2.02-0.19-2.96-0.58
		c-0.94-0.39-1.76-0.9-2.47-1.55c-0.71-0.65-1.28-1.42-1.7-2.33C780.33,622.15,780.12,621.18,780.12,620.14z"/>
</g>
<line class="st2" x1="408.77" y1="169.89" x2="540.91" y2="169.89"/>
<line class="st2" x1="408.77" y1="695.62" x2="540.91" y2="695.62"/>
</svg>
