<?xml version="1.0" encoding="UTF-8"?>
<svg width="17px" height="16px" viewBox="0 0 17 16" version="1.1" xmlns="http://www.w3.org/2000/svg" xmlns:xlink="http://www.w3.org/1999/xlink">
    <g id="filter-icon" stroke="none" stroke-width="1" fill="none" fill-rule="evenodd">
        <g id="ICONS/filter" fill="#FFFFFF" fill-rule="nonzero">
            <path d="M16.9362156,0.41217033 C16.8237232,0.160814223 16.5806427,0 16.3132907,0 L0.686713021,0 C0.419394234,0 0.176313767,0.16077981 0.0637881967,0.41217033 C-0.0487373739,0.663560849 -0.0102548905,0.959723316 0.162368432,1.17133184 L6.25063598,8.63313933 L6.25063598,13.6686583 C6.25063598,13.9382192 6.39759325,14.1846886 6.63024792,14.3052734 L9.75556346,15.9248754 C9.85248354,15.975119 9.95770441,16 10.0626597,16 C10.1882341,16 10.3134101,15.9643476 10.423711,15.8936967 C10.6261508,15.7639923 10.749401,15.5349017 10.749401,15.2882259 L10.749401,8.63313933 L16.8376685,1.17133184 C17.0102919,0.959723316 17.0487079,0.663526436 16.9362156,0.41217033 Z M9.53828187,7.91293388 C9.43345943,8.04143384 9.37595153,8.20427846 9.37595153,8.37252599 L9.37595153,14.1366474 L7.62405224,13.2287852 L7.62405224,8.37256041 C7.62405224,8.20427846 7.56651113,8.04146825 7.4616887,7.91296829 L2.16681109,1.42347946 L14.8332259,1.42347946 L9.53828187,7.91293388 Z" id="filter-icon"></path>
        </g>
    </g>
</svg>
