<?xml version="1.0" encoding="UTF-8"?>
<svg width="90px" height="27px" viewBox="0 0 90 27" version="1.1" xmlns="http://www.w3.org/2000/svg" xmlns:xlink="http://www.w3.org/1999/xlink">
    <!-- Generator: Sketch 55.2 (78181) - https://sketchapp.com -->
    <title>gousto_logo</title>
    <desc>Created with Sketch.</desc>
    <g id="gousto_logo" stroke="none" stroke-width="1" fill="none" fill-rule="evenodd">
        <path d="M14.8580877,18.7844692 C15.4384793,18.7844692 15.6321548,19.0155181 15.6321548,19.5171792 C15.6321548,23.5671824 12.2269581,27 7.81591865,27 C3.40487921,27 0,23.5671824 0,19.5171792 C0,19.0155181 0.193358023,18.7844692 0.774067094,18.7844692 L2.39903649,18.7844692 C3.01816317,18.7844692 3.21152119,19.0155181 3.21152119,19.5557929 C3.3277265,21.9856049 5.30067684,23.9916161 7.81591865,23.9916161 C10.4083132,23.9916161 12.3044283,21.9856049 12.4203161,19.5557929 C12.4203161,19.0155181 12.6139916,18.7844692 13.2331183,18.7844692 L14.8580877,18.7844692 Z M7.8160139,14.9270596 C10.3309382,14.9270596 12.3816762,12.8830677 12.3816762,10.3757118 C12.3816762,7.86867253 10.3309382,5.82436412 7.8160139,5.82436412 C5.30077209,5.82436412 3.25003404,7.86867253 3.25003404,10.3757118 C3.25003404,12.8830677 5.30077209,14.9270596 7.8160139,14.9270596 Z M15.980231,1.96711274 L16.9863912,3.04702919 C17.2569019,3.35562196 17.3343721,3.47146293 17.3343721,3.70282839 C17.3343721,3.85696652 17.295637,4.08833197 17.0251263,4.32001393 L14.6454574,6.61689365 C15.2712516,7.70029165 15.6319325,8.97232688 15.6319325,10.3757118 C15.6319325,14.8115351 12.0333778,17.93576 7.8160139,17.93576 C3.59833249,17.93576 9.52502576e-05,14.8115351 9.52502576e-05,10.3757118 C9.52502576e-05,5.93988859 3.59833249,2.81566374 7.8160139,2.81566374 C9.53274104,2.81566374 11.1469154,3.33346658 12.457559,4.24658467 L12.4204114,4.20417295 L14.7419776,2.0057264 C15.0128059,1.73543079 15.1674288,1.65851997 15.3998394,1.65851997 C15.5931974,1.65851997 15.7478204,1.73543079 15.980231,1.96711274 Z M82.1840814,14.9270596 C84.6993232,14.9270596 86.7500612,12.8830677 86.7500612,10.3757118 C86.7500612,7.86867253 84.6993232,5.82436412 82.1840814,5.82436412 C79.669157,5.82436412 77.618419,7.86867253 77.618419,10.3757118 C77.618419,12.8830677 79.669157,14.9270596 82.1840814,14.9270596 Z M82.1840814,2.81566374 C86.4017628,2.81566374 90,5.93988859 90,10.3757118 C90,14.8115351 86.4017628,17.93576 82.1840814,17.93576 C77.9667174,17.93576 74.3681627,14.8115351 74.3681627,10.3757118 C74.3681627,5.93988859 77.9667174,2.81566374 82.1840814,2.81566374 Z M72.5883799,14.8501171 L73.1300364,16.1227853 C73.2071891,16.3544673 73.2459242,16.4313781 73.2459242,16.6241299 C73.2459242,16.8171982 73.1300364,16.9713363 72.820473,17.125791 C71.891783,17.5885219 70.5763769,17.9357283 69.4927465,17.9357283 C66.5907887,17.9357283 64.4625804,16.6241299 64.4625804,13.1144015 L64.4625804,0.848550991 C64.4625804,0.231365451 64.694991,0 65.3141177,0 L66.8616169,0 C67.4807436,0 67.7131542,0.231365451 67.7131542,0.848550991 L67.7131542,3.20145217 L71.4275968,3.20145217 C72.0467234,3.20145217 72.2784991,3.43281762 72.2784991,4.05000317 L72.2784991,5.28405774 C72.2784991,5.90155979 72.0467234,6.13292524 71.4275968,6.13292524 L67.7131542,6.13292524 L67.7131542,13.1913123 C67.7131542,14.5412078 68.4869038,14.9270279 69.7248396,14.9270279 C70.3442838,14.9270279 71.0018281,14.7342761 71.505067,14.5029107 C71.7755777,14.3870697 71.891783,14.348456 72.0467234,14.348456 C72.2784991,14.348456 72.433757,14.464297 72.5883799,14.8501171 Z M57.652822,8.94855732 C60.2064814,9.87433563 61.9476561,10.9156384 61.9476561,13.4612914 C61.9476561,16.1227853 59.8969181,17.9357283 56.5307739,17.9357283 C54.4800359,17.9357283 52.6226559,17.2030183 51.2685147,15.8528062 C51.0361041,15.6214408 50.9202163,15.4669861 50.9202163,15.2742343 C50.9202163,15.0811661 51.0361041,14.9270279 51.1523094,14.7728898 L52.0422643,13.731587 C52.2356223,13.499905 52.3518276,13.3843806 52.5839208,13.3843806 C52.8163314,13.3843806 52.9709543,13.5385187 53.1643123,13.6929733 C54.4025657,14.8115034 55.4858786,15.2359372 56.6079267,15.2359372 C57.8849151,15.2359372 58.6973998,14.7342761 58.6973998,13.731587 C58.6973998,12.5355131 57.3045235,12.0727822 55.5633488,11.416983 C52.7385437,10.3370665 51.6164957,9.33437741 51.6164957,7.13561436 C51.6164957,4.28136862 54.0542672,2.81563208 56.5307739,2.81563208 C58.5427769,2.81563208 59.7422951,3.31697665 61.0192836,4.2041413 C61.2897943,4.39720959 61.4059996,4.51273407 61.4059996,4.74409952 C61.4059996,4.89855416 61.3285294,5.01407863 61.1351714,5.3226714 L60.3998394,6.36429069 C60.2452165,6.59565614 60.0905936,6.67288346 59.9356532,6.67288346 C59.70356,6.67288346 59.5489371,6.51842882 59.3552616,6.40290435 C58.3878365,5.74710515 57.5753518,5.5157397 56.6853969,5.5157397 C55.5633488,5.5157397 54.7505466,5.90155979 54.7505466,6.90424891 C54.7505466,8.02277901 55.640819,8.21584731 57.652822,8.94855732 Z M47.9795868,3.20138887 C48.598396,3.20138887 48.8308066,3.43275432 48.8308066,4.04993986 L48.8308066,11.609988 C48.8308066,15.6986048 46.0447366,17.935665 42.4074467,17.935665 C38.7704744,17.935665 35.9847219,15.6986048 35.9847219,11.609988 L35.9847219,4.04993986 C35.9847219,3.43275432 36.216815,3.20138887 36.8356242,3.20138887 L38.3834408,3.20138887 C39.002885,3.20138887 39.2346607,3.43275432 39.2346607,4.04993986 L39.2346607,11.609988 C39.2346607,14.0015028 40.6278544,14.9269646 42.4074467,14.9269646 C44.1489389,14.9269646 45.5802328,14.0015028 45.5802328,11.609988 L45.5802328,4.04993986 C45.5802328,3.43275432 45.8126434,3.20138887 46.4317701,3.20138887 L47.9795868,3.20138887 Z M25.7309681,14.9270596 C28.2458924,14.9270596 30.2966305,12.8830677 30.2966305,10.3757118 C30.2966305,7.86867253 28.2458924,5.82436412 25.7309681,5.82436412 C23.2157263,5.82436412 21.1649883,7.86867253 21.1649883,10.3757118 C21.1649883,12.8830677 23.2157263,14.9270596 25.7309681,14.9270596 Z M25.7309681,2.81566374 C29.948332,2.81566374 33.5468868,5.93988859 33.5468868,10.3757118 C33.5468868,14.8115351 29.948332,17.93576 25.7309681,17.93576 C21.5132867,17.93576 17.9150495,14.8115351 17.9150495,10.3757118 C17.9150495,5.93988859 21.5132867,2.81566374 25.7309681,2.81566374 Z" id="Gousto-primary-logo-Copy-2" fill="#FFFFFF"></path>
    </g>
</svg>