<svg id="Layer_1" data-name="Layer 1" xmlns="http://www.w3.org/2000/svg" viewBox="0 0 1241.87 22"><defs><style>.cls-1{fill:#ff0027;}</style></defs><path class="cls-1" d="M1037.74,0h-13.15a14.42,14.42,0,0,0,6.9,1.57A17.19,17.19,0,0,0,1037.74,0Z"/><path class="cls-1" d="M948.12,15.14c13.18-1.68,24.37-7.53,34.25-12.68C984,1.61,985.58.78,987.12,0H971.8c-7.46,3.67-15.64,7.05-24.57,8.19C935.38,9.7,922.4,5,909.69,0H890.17c4.36,1.49,8.87,3.29,13.49,5.14C918.28,11,933.39,17,948.12,15.14Z"/><path class="cls-1" d="M337.42,7.8c23.44-2.19,36.48-2.35,56.5,2.32C406.18,13,417.34,10,428.14,7.2,437,4.87,445.36,2.68,454.4,3.36c8.79.66,15.52,3.05,22.65,5.57,9.37,3.32,20,7.07,36.54,7.2,2.16.08,4.25.11,6.3.11,20.92,0,35.91-3.64,49.27-6.88,10.32-2.51,19.22-4.68,28.56-4.4a143.29,143.29,0,0,1,23.9,2.55,61.26,61.26,0,0,0,15.84,1.35c5.94-.34,12.62-2.15,19.09-3.91,7-1.89,14.22-3.86,18.49-3.21s8.66,3,13.4,5.44,9.47,4.94,14.59,6.13l.17,0c10.4,1.88,23.7-.94,36.55-3.67,7.63-1.62,14.83-3.15,20.85-3.57a173.85,173.85,0,0,1,20.64.24c9.53.48,18.55.93,25.62-.86,20.78,2.67,35.2-1.71,46.81-5.24l.8-.24H752.7c-4.54.72-9.38,1.75-14.41,2.82-12.15,2.58-24.71,5.25-33.76,3.65-4.22-1-8.61-3.29-12.85-5.5l-1.86-1h-42a62,62,0,0,1-10.78,1.87c-5.48.32-9.14-.34-14.2-1.25L619.37,0H578.54c-3.56.74-7.2,1.62-11,2.55C553.28,6,537.15,9.92,513.73,9.13c-15.47-.12-25.06-3.52-34.34-6.8-2.27-.81-4.51-1.6-6.79-2.33H428l-1.62.42c-10.44,2.74-20.3,5.33-30.86,2.88a151.08,151.08,0,0,0-19-3.3H346.48c-3.06.23-6.27.51-9.71.83C323.62,2.06,316.9,2,309.87,0H291C308.51,7.9,313.89,10,337.42,7.8Z"/><path class="cls-1" d="M1241.87.12V0h-.42Z"/><path class="cls-1" d="M33.27,11.47c19.51-4.28,27.95-5,46.18-1.7,30.11,6,45.34,1.67,66.43-4.3,6.17-1.75,12.85-3.64,20.57-5.47h-27C121,5.17,107.18,8.14,80.76,2.89,61.42-.63,52,.19,31.77,4.62,17.42,7.77,7.06,6.87,0,5v7.21C7.87,14,18.81,14.63,33.27,11.47Z"/><path class="cls-1" d="M1241.87,6.7c-29.39-7.93-55.68-5.28-73.62-3.47-5.16.52-9.61,1-12.89,1h-.13c-3.82,0-10.4-1.76-18.18-4.23H1115l5.57,1.89c14.9,5.05,27.77,9.45,34.92,9.34,3.59,0,8.19-.5,13.51-1,17.78-1.79,44-4.43,72.92,3.78Z"/><path class="cls-1" d="M947.53,1.12C949.64.85,951.7.46,953.72,0H929.35A53.53,53.53,0,0,0,947.53,1.12Z"/><path class="cls-1" d="M30.45,0h-29C7.54,2.05,15.72,3.23,28.18.5Z"/><path class="cls-1" d="M513,2.12c2.16.07,4.25.1,6.3.1A167.13,167.13,0,0,0,546.77,0H493.36A94.84,94.84,0,0,0,513,2.12Z"/></svg>
