<?xml version="1.0" encoding="utf-8"?>
<!-- Generator: Adobe Illustrator 19.1.0, SVG Export Plug-In . SVG Version: 6.00 Build 0)  -->
<svg version="1.1" id="Layer_1" xmlns="http://www.w3.org/2000/svg" xmlns:xlink="http://www.w3.org/1999/xlink" x="0px" y="0px"
	 viewBox="0 0 32 32" style="enable-background:new 0 0 32 32;" xml:space="preserve">
<style type="text/css">
	.st0{fill:white;}
</style>
<g>
	<path class="st0" id="u_2_" d="M26,11.7h-2v-1c-0.8,0.7-1.4,1.1-2.1,1.1c-0.6,0-1.1-0.2-1.3-0.7c-0.1-0.3-0.2-0.7-0.2-1.3V2.9h2v6.5
		c0,0.4,0,0.5,0,0.6c0,0.2,0.2,0.3,0.4,0.3c0.4,0,0.7-0.3,1.2-0.8V2.9h2V11.7z"/>
	<path class="st0" id="o_2_" d="M18.8,5.8c0-0.9-0.2-1.6-0.6-2.1c-0.5-0.6-1.4-0.8-2.3-0.8c-1,0-1.7,0.2-2.3,0.8C13.2,4.1,13,4.9,13,5.8v3.1
		c0,0.9,0.2,1.6,0.6,2c0.5,0.6,1.4,0.9,2.3,0.9c0.9,0,1.8-0.3,2.3-0.9c0.4-0.4,0.6-1.1,0.6-2V5.8z M16.8,9.1
		c0.1,0.9-0.2,1.3-0.9,1.3c-0.6,0-1-0.4-0.9-1.3V5.6c-0.1-0.9,0.2-1.3,0.9-1.3c0.6,0,1,0.4,0.9,1.3V9.1z"/>
	<path class="st0" id="y_2_" d="M10.8,6.9v4.8H8.6V6.9c0,0-2.2-5.8-2.7-6.9h2.3l1.5,4.6L11.2,0h2.3L10.8,6.9z"/>
</g>
<g>
	<path class="st0" d="M19.3,21.2c-0.3,0-0.7,0.1-1,0.4v5.3c0.3,0.3,0.7,0.4,1,0.4c0.6,0,0.8-0.3,0.8-1.2v-3.7C20.1,21.4,19.8,21.2,19.3,21.2z"/>
	<path class="st0" d="M27.3,22.2c0-0.8-0.3-1-0.9-1s-0.9,0.2-0.9,1v1h1.8V22.2z"/>
	<path class="st0" d="M31.7,17.8c0,0-0.3-1.8-1.3-2.6c-1.2-1-2.6-1-3.2-1.1C22.7,13.9,16,13.9,16,13.9l0,0c0,0-6.7,0-11.2,0.3
		c-0.6,0.1-2,0.1-3.2,1.1c-1,0.8-1.3,2.6-1.3,2.6S0,19.9,0,22v2c0,2.1,0.3,4.2,0.3,4.2s0.3,1.8,1.3,2.6c1.2,1,2.8,1,3.5,1.1
		C7.7,31.9,16,32,16,32s6.7,0,11.2-0.3c0.6-0.1,2-0.1,3.2-1.1c1-0.8,1.3-2.6,1.3-2.6s0.3-2,0.3-4.1v-2C32,19.9,31.7,17.8,31.7,17.8z
		 M7,28.5H4.9v-10H2.6v-1.6h6.8v1.6H7V28.5z M14.7,28.5h-2v-1c-0.8,0.7-1.4,1.1-2.1,1.1c-0.6,0-1.1-0.2-1.3-0.7
		c-0.1-0.3-0.2-0.7-0.2-1.3v-6.8h2v6.4c0,0.4,0,0.5,0,0.6c0,0.2,0.2,0.3,0.4,0.3c0.4,0,0.7-0.3,1.2-0.8v-6.6h2V28.5z M22.1,25.9
		c0,0.8-0.1,1.4-0.2,1.7c-0.3,0.6-0.8,1-1.6,1c-0.7,0-1.4-0.3-2-1v0.9h-1.9V16.9h1.9v3.8c0.6-0.6,1.3-1,2-1c0.8,0,1.3,0.4,1.6,1
		c0.1,0.3,0.3,0.9,0.3,1.7L22.1,25.9L22.1,25.9z M26.4,27.2c0.5,0,0.8-0.2,0.9-0.6c0-0.1,0-0.5,0-1.1h2v0.2c0,0.5-0.1,0.9-0.1,1
		c-0.1,0.3-0.2,0.7-0.5,0.9c-0.5,0.6-1.3,0.9-2.3,0.9s-1.8-0.3-2.3-0.9c-0.4-0.4-0.7-1.1-0.7-2v-3c0-0.9,0.2-1.6,0.7-2.1
		c0.6-0.6,1.3-0.9,2.3-0.9s1.7,0.3,2.3,0.9c0.4,0.4,0.6,1.1,0.6,2v1.8h-3.9V26C25.5,26.8,25.7,27.2,26.4,27.2z"/>
</g>
</svg>
