<?xml version="1.0" encoding="UTF-8"?>
<svg width="65px" height="112px" viewBox="0 0 65 112" version="1.1" xmlns="http://www.w3.org/2000/svg" xmlns:xlink="http://www.w3.org/1999/xlink">
    <!-- Generator: Sketch 52.5 (67469) - http://www.bohemiancoding.com/sketch -->
    <title>mobile-refer-box</title>
    <desc>Created with Sketch.</desc>
    <g id="mobile-refer-box" stroke="none" stroke-width="1" fill="none" fill-rule="evenodd">
        <g id="raf-icon" fill-rule="nonzero">
            <g id="box-illustration" transform="translate(8.194847, 0.000000)" fill="#F6323E">
                <g id="Group-31" transform="translate(0.034808, 0.199362)">
                    <path d="M38.5551558,34.7350274 C41.2472914,32.6611977 44.962819,32.2330185 48.0362704,33.9449248 C52.1759685,36.2500333 53.1732504,41.4225082 51.1836685,45.8155576 C51.1836685,45.8155576 50.7991998,46.9675645 49.2971146,48.5898022 C47.2517586,50.7992564 44.5482017,52.2678021 41.6507683,52.9246927 L26.3950841,56.2585863 L21.4790073,41.690253 C20.5324963,38.8932668 20.3859083,35.8363638 21.2184188,32.9516245 C21.8298338,30.8335006 22.619153,29.9074346 22.619153,29.9074346 C25.35792,25.9307274 30.3234405,24.0796721 34.4631394,26.3856259 C37.5374427,28.0975327 38.9341058,31.3724025 38.5551558,34.7350274" id="Fill-6" transform="translate(36.422416, 40.818197) rotate(-10.000000) translate(-36.422416, -40.818197) "></path>
                    <path d="M8.52091631,20.821155 C9.2384108,19.2472532 10.8122972,18.1737542 12.6111462,18.219399 C15.0337553,18.2802588 16.7252358,20.3790763 16.8820279,22.8345998 C16.8820279,22.8345998 16.9851358,23.4457335 16.6971155,24.5336022 C16.304283,26.0162143 15.4359612,27.3196282 14.2855841,28.3026828 L8.19966285,33.4208221 L2.48271444,28.0059914 C1.38346515,26.9671486 0.583313928,25.6214709 0.266321111,24.1211081 C0.0336892847,23.0197149 0.167473888,22.4144982 0.167473888,22.4144982 C0.449529325,19.9708085 2.24667408,17.9590543 4.66928316,18.0190689 C6.46728005,18.0647137 7.88437428,19.212597 8.52091631,20.821155" id="Fill-8"></path>
                    <path d="M22.0104369,3.48591569 C22.1143969,2.05317479 23.0321422,0.766666442 24.4483844,0.289931415 C26.3563062,-0.353322756 28.2846791,0.803013259 29.1180636,2.67360653 C29.1180636,2.67360653 29.375407,3.12160221 29.4657331,4.05309512 C29.5884399,5.3218527 29.2893419,6.5863839 28.6758073,7.68101485 L25.4095883,13.4094426 L19.3790557,10.8136035 C18.2210093,10.3165819 17.2069732,9.49412943 16.5252682,8.41386816 C16.024215,7.62100032 15.9534881,7.11045432 15.9534881,7.11045432 C15.4652169,5.12236782 16.2849672,3.04045582 18.192889,2.39720166 C19.6099832,1.92046663 21.0483808,2.41241661 22.0104369,3.48591569" id="Fill-10"></path>
                </g>
            </g>
            <g id="Group" transform="translate(0.685695, 59.672131)">
                <g id="package">
                    <path d="M2.26106841,3.98510383 L28.2196456,9.51857514 C29.2269984,9.68975956 29.8014485,9.84453415 30.0473733,9.83371858 C30.3188292,9.82103825 30.7286412,9.6720444 32.3536218,9.34608538 L58.3127621,3.98473087 C59.489634,3.74193989 60.3794686,4.29651776 60.3794686,5.56809358 L60.3794686,39.2785587 C60.3794686,40.550694 59.4498355,41.91961 58.3127621,42.3207186 L32.3536218,51.4764747 C32.0902382,51.5689665 31.837743,51.6025321 31.6057102,51.5816469 C31.5463879,51.5857493 31.4868778,51.58836 31.4260537,51.58836 L29.243894,51.58836 C29.1629828,51.58836 29.0837613,51.5842575 29.0041643,51.5777309 C28.7610555,51.6051428 28.4963578,51.5736284 28.2188946,51.4764747 L2.26031749,42.3207186 C1.12324407,41.9203559 0.192860068,40.5508805 0.192860068,39.2785587 L0.192860068,5.56846653 C0.192860068,4.29689071 1.08138054,3.7342944 2.26031749,3.98510383 L2.26106841,3.98510383 Z" id="Shape" fill="#FFE4A3"></path>
                    <path d="M29.8887424,9.82514071 C29.9521948,9.83259973 30.0055098,9.83595628 30.0481242,9.83390505 C30.3195801,9.82122473 30.7286412,9.67223087 32.3543727,9.34627186 L58.3129498,3.98491735 C59.4898218,3.74212637 60.3804073,4.29670423 60.3804073,5.56828005 L60.3804073,39.2785587 C60.3804073,40.550694 59.4507742,41.91961 58.3129498,42.3207186 L32.3543727,51.4764747 C32.0909892,51.5689665 31.8384939,51.6025321 31.6064611,51.5823928 C31.5471388,51.5857493 31.4876287,51.58836 31.4268046,51.58836 L29.8887424,51.58836 L29.8887424,9.82570014 L29.8887424,9.82514071 L29.8887424,9.82514071 Z" id="Shape" fill="#D5A148"></path>
                    <path d="M59.1252524,3.87899932 L33.897879,0.269581284 C32.9567944,0.134946038 31.1897031,0.0609153005 30.0331059,0.210655055 L19.5965102,1.55663456 L18.818562,1.65714481 L2.50455268,3.76226571 C1.35264868,3.91032719 1.15234203,4.29148292 2.17921864,4.4979112 L27.9575761,9.70822063 C28.5025529,9.81749522 29.2863207,10.012735 30.0269108,10.0214993 C30.6824599,10.0295178 31.3023404,9.87138661 31.8221615,9.76733333 L45.4873173,7.04777596 L47.2643582,6.72256284 L58.7993552,4.61464481 C59.9120239,4.41138661 60.0665247,4.01307514 59.1246892,3.87825342 L59.1246892,3.87881284 L59.1252524,3.87881284 L59.1252524,3.87899932 Z" id="Shape" fill="#C79643"></path>
                </g>
                <polygon id="Path-2" fill="#645B57" points="42.3607815 1.474152 13.9323395 6.86678521 21.6368978 8.42364802 50.0924438 2.58392484"></polygon>
                <path d="M13.9703884,6.87269859 L13.9703884,13.3475523 C13.9703884,13.9665302 14.460266,14.5914947 15.0617099,14.7427326 L20.1596642,16.0246541 C20.9637999,16.2268605 21.6156807,15.7237372 21.6156807,14.8999861 L21.6156807,8.36491222 L13.9703884,6.87269859 Z" id="Path-3" fill="#9F8C83"></path>
            </g>
        </g>
    </g>
</svg>