<?xml version="1.0" encoding="UTF-8"?>
<svg width="19px" height="19px" viewBox="0 0 19 19" version="1.1" xmlns="http://www.w3.org/2000/svg" xmlns:xlink="http://www.w3.org/1999/xlink">
    <!-- Generator: Sketch 52.6 (67491) - http://www.bohemiancoding.com/sketch -->
    <title>icon_GF</title>
    <desc>Created with Sketch.</desc>
    <g id="icon_GF" stroke="none" stroke-width="1" fill="none" fill-rule="evenodd">
        <g>
            <rect id="Rectangle" x="0" y="0" width="19" height="19"></rect>
            <path d="M7.45244426,8.55796338 L5.29724745,10.7131602 C4.96299289,10.5385057 4.64929583,10.3099991 4.36883343,10.0276405 C4.30700731,9.96539632 4.24778058,9.90152623 4.19115323,9.83616688 C4.24778058,9.77080754 4.30700731,9.70693744 4.36883343,9.64469331 C5.21134448,8.79648599 6.35376713,8.43424268 7.45244426,8.55796338 Z M10.7678594,5.24254827 L8.61544891,7.39495873 C8.49023707,6.28668735 8.84978378,5.13344696 9.69408905,4.28343329 C9.75591517,4.22118916 9.81935634,4.16156199 9.88427675,4.10455178 C9.94919717,4.16156199 10.0126383,4.22118916 10.0744645,4.28343329 C10.3617021,4.57261293 10.5928337,4.89688805 10.7678594,5.24254827 Z M9.21873191,11.0343164 C10.2750978,10.9540308 11.3586833,11.320542 12.1665292,12.1338497 C12.2283553,12.1960939 12.287582,12.259964 12.3442094,12.3253233 C12.287582,12.3906827 12.2283553,12.4545528 12.1665292,12.5167969 C10.8480144,13.8442262 8.79496542,13.9814475 7.32458763,12.9284607 L9.21873191,11.0343164 Z M12.9714959,7.28155245 C14.0003181,8.76026389 13.8587876,10.813097 12.5469046,12.1338497 C12.4850784,12.1960939 12.4216373,12.255721 12.3567169,12.3127313 C12.2917964,12.255721 12.2283553,12.1960939 12.1665292,12.1338497 C11.3621105,11.3239924 10.9977304,10.2388816 11.0733889,9.17965941 L12.9714959,7.28155245 Z M7.39932914,7.34701044 C7.34270179,7.41236979 7.28347506,7.47623989 7.22164894,7.53848402 C5.75112021,9.01895509 3.36692206,9.01895509 1.89639332,7.53848402 C1.83456721,7.47623989 1.77534047,7.41236979 1.71871312,7.34701044 C1.77534047,7.2816511 1.83456721,7.217781 1.89639332,7.15553687 C3.36692206,5.6750658 5.75112021,5.6750658 7.22164894,7.15553687 C7.28347506,7.217781 7.34270179,7.2816511 7.39932914,7.34701044 Z M7.41183664,7.33441838 C7.34691623,7.27740817 7.28347506,7.217781 7.22164894,7.15553687 C5.75112021,5.6750658 5.75112021,3.27474793 7.22164894,1.79427685 C7.28347506,1.73203272 7.34691623,1.67240555 7.41183664,1.61539534 C7.47675706,1.67240555 7.54019823,1.73203272 7.60202434,1.79427685 C9.07255308,3.27474793 9.07255308,5.6750658 7.60202434,7.15553687 C7.54019823,7.217781 7.47675706,7.27740817 7.41183664,7.33441838 Z M15.2027376,14.4249237 C15.2050313,14.4270788 15.2072966,14.4292817 15.2095324,14.4315326 L17.9212217,17.1547948 C18.0262594,17.2605427 18.0262594,17.431994 17.9212217,17.5377419 L17.5408463,17.920689 C17.4358085,18.026437 17.2655086,18.026437 17.1604709,17.920689 L14.4487816,15.1974269 C14.4465458,15.195176 14.4443576,15.1928954 14.442217,15.1905862 C12.9629342,16.4836282 10.720334,16.4220839 9.31371365,15.0059533 C9.25188753,14.9437092 9.1926608,14.8798391 9.13603345,14.8144798 C9.1926608,14.7491204 9.25188753,14.6852503 9.31371365,14.6230062 C10.7842424,13.1425351 13.1684405,13.1425351 14.6389693,14.6230062 C13.1684405,13.1425351 13.1684405,10.7422172 14.6389693,9.26174616 C14.7007954,9.19950204 14.7642366,9.13987487 14.829157,9.08286465 C14.8940774,9.13987487 14.9575186,9.19950204 15.0193447,9.26174616 C16.425965,10.6778767 16.487096,12.9356393 15.2027376,14.4249237 Z M5.48231357,5.48231357 C5.36382736,5.49401155 5.24366356,5.5 5.12210108,5.5 C3.12166989,5.5 1.5,3.87833011 1.5,1.87789892 C1.5,1.75633644 1.50598845,1.63617264 1.51768643,1.51768643 C1.63617208,1.50598848 1.75633615,1.5 1.87789892,1.5 C3.87833011,1.5 5.5,3.12166989 5.5,5.12210108 C5.5,5.24366385 5.49401152,5.36382792 5.48231349,5.4823144 Z M16.5563492,0.868272016 L17.263456,1.5753788 L1.70710678,17.131728 L1,16.4246212 L16.5563492,0.868272016 Z" id="Combined-Shape" fill="#333D47"></path>
        </g>
    </g>
</svg>