<?xml version="1.0" encoding="utf-8"?>
<!-- Generator: Adobe Illustrator 23.0.3, SVG Export Plug-In . SVG Version: 6.00 Build 0)  -->
<svg version="1.1" id="Layer_1" xmlns="http://www.w3.org/2000/svg" xmlns:xlink="http://www.w3.org/1999/xlink" x="0px" y="0px"
	 viewBox="0 0 168 116" style="enable-background:new 0 0 168 116;" xml:space="preserve">
<style type="text/css">
	.st0{fill:#F5333F;}
	.st1{fill:#FFFFFF;stroke:#323E48;stroke-width:2.72;stroke-linecap:round;stroke-linejoin:round;}
	.st2{fill:#FB6126;}
	.st3{fill:none;stroke:#323E48;stroke-width:2.01;stroke-linecap:round;stroke-linejoin:round;}
	.st4{fill:#FFFFFF;}
	.st5{fill:#323E48;}
	.st6{fill:none;stroke:#323E48;stroke-width:2.72;stroke-linecap:round;stroke-linejoin:round;}
</style>
<title>Group 11</title>
<desc>Created with Sketch.</desc>
<g id="Page-1">
	<g id="Artboard" transform="translate(-21.000000, -4.000000)">
		<g id="Group-11" transform="translate(23.000000, 6.000000)">
			<g id="Group-5">
				<path id="Shape" class="st0" d="M32.4,70c-1.8,0-3.3,1.4-3.4,3.3c-0.1,0.9,0.3,1.8,0.9,2.5s1.5,1,2.4,1c1.7,0,3.2-1.3,3.4-3
					c0.1-0.9-0.2-1.9-0.8-2.6S33.4,70,32.4,70z"/>
				<g id="Group-7" transform="translate(0.000000, 51.000000)">
					<path id="Rectangle-path" class="st1" d="M4.6,0h58.1c2.6,0,4.6,2.1,4.6,4.6v37c0,2.6-2.1,4.6-4.6,4.6H4.6
						c-2.6,0-4.6-2.1-4.6-4.6v-37C0,2.1,2.1,0,4.6,0z"/>
					<path class="st2" d="M43.8,21.5c-1-5.2-5.4-8.4-10.7-8.5c-4.6,0.1-8.9,2.5-10.4,7.2c-1.6,4.9-0.1,9.6,3.4,12.4
						c3.7,2.9,8.8,3.2,12.8,0.8C42.8,31,44.7,26,43.8,21.5z"/>
				</g>
				<path class="st3" d="M66,53l15.6,12.8"/>
				<g id="Group-9" transform="translate(92.000000, 51.000000)">
					<path id="Rectangle-path-Copy" class="st4" d="M10.6,3h58.1c2.6,0,4.6,2.1,4.6,4.6v37c0,2.6-2.1,4.6-4.6,4.6H10.6
						c-2.6,0-4.6-2.1-4.6-4.6v-37C6,5.1,8.1,3,10.6,3z"/>
					<path class="st1" d="M4.6,0h58.1c2.6,0,4.6,2.1,4.6,4.6v37c0,2.6-2.1,4.6-4.6,4.6H4.6c-2.6,0-4.6-2.1-4.6-4.6v-37
						C0,2.1,2.1,0,4.6,0z"/>
					<path class="st2" d="M43.8,21.5c-1-5.2-5.5-8.4-10.7-8.5c-4.6,0.1-8.9,2.5-10.4,7.2c-1.6,4.9-0.1,9.6,3.4,12.4
						c3.7,2.9,8.8,3.2,12.8,0.8C42.8,31,44.7,26,43.8,21.5z"/>
				</g>
				<g id="Group-2" transform="translate(14.000000, 0.000000)">
					<path class="st4" d="M134.1,65.4l-21-17.4l-0.1-0.1l5.2-9.2c1.6-2.7,1.9-5.9,1-8.8c-0.2-0.7-0.6-1.4-1-2l3.3-1.7
						c1-0.6,1.4-1.9,0.8-2.9c-0.5-1-1.8-1.5-2.9-1l-3,1.6l1.5-4c0.4-1.1-0.2-2.3-1.3-2.7c-1.1-0.4-2.3,0.1-2.8,1.2l-1.3,3.6
						l-1.1-3.5c-0.4-1.1-1.6-1.7-2.7-1.4s-1.8,1.5-1.5,2.6l1.2,3.8c-3.7,0.2-7.3,3-9,7.2c-1.4-1.7-3.1-3.2-5-4.4
						c-3.3-2.1-6.8-3.7-10.6-4.6c-1.3-0.2-2.5-0.7-3.6-1.4c0.2-1.3-0.1-2.7-1-3.7l-6.4-7.2c-1.6-1.7-3.9-2.6-6.2-2.6h-0.1
						c-1.7,0-3.4,0.4-5,1.2c-0.4-0.5-0.6-1-0.7-1.6c0-0.3,0.1-0.6,0.3-0.8c0.7-0.9,0.6-2.2-0.2-3s-2.2-0.8-3,0c-1,1.1-1.6,2.5-1.5,4
						c0.1,1.4,0.6,2.7,1.4,3.8c-2.6,1.9-4.2,4.9-4.3,8.1c-1.4-0.3-2.8-0.4-4.2-0.4c-2.3,0.1-4,0.2-5,0.2c-0.2,0-0.4,0-0.6,0
						c-0.3-0.5-0.7-0.9-1.2-1.2c-3.1-2.4-5.6-0.8-7,0.1c-0.5,0.4-1.1,0.7-1.7,0.8c-4.2,0.3-7,1.6-8.5,3.9c-0.6,0.9-0.9,1.9-1,2.9
						c-2.9,0.8-4.9,2.1-6,3.8c-1.5,2.4-0.9,5-0.5,6.8c0.1,0.5,0.2,0.9,0.3,1.4c-0.6,2.1-0.7,5.7,1.2,7.4c0.8,0.7,1.3,1.6,1.5,2.6
						c0.1,0.4,0.2,0.9,0.3,1.3c0.1,0.4,0.3,0.9,0.5,1.3L1.8,65.4c-0.6,0.5-0.9,1.3-0.8,2.1c0.1,0.8,0.7,1.4,1.4,1.7s1.6,0.2,2.2-0.3
						l15.6-12.7v48.4c0,4.7,3.8,8.5,8.5,8.5h78.6c4.7,0,8.5-3.8,8.5-8.5V55.9l15.6,12.9c0.6,0.6,1.5,0.7,2.2,0.5
						c0.8-0.3,1.3-1,1.5-1.8C135.1,66.7,134.8,65.9,134.1,65.4L134.1,65.4z"/>
					<path class="st4" d="M77.2,49.4c-4.2,0-7.3-0.8-9.4-2.5c-5.7-4.6-6.5-11.6-7.1-17.8c-0.1-0.8-0.2-1.6-0.3-2.4L60,27.9
						c-0.2,0.6-0.7,0.9-1.2,0.9c-0.6,0-1.1-0.3-1.3-0.9l-4-10.1c-1.3-3.3-0.2-7,2.7-9c0.6-0.4,1.1-0.8,1.6-1.1l0.2-0.1
						c1.5-1,3.2-1.6,5-1.6c1.5-0.1,2.9,0.5,4,1.5l6.4,7.2c0.3,0.4,0.4,0.9,0.2,1.4c-0.2,0.5-0.6,0.8-1.1,0.9c1.9,2,4.3,3.3,7,3.8
						c3.5,0.8,6.8,2.3,9.8,4.2c8,5,7.7,12,6.8,15.8c-1,4.1-4.5,7.2-8.7,7.5c-0.5,0-1.2,0.2-2,0.3C82.8,49.1,80,49.4,77.2,49.4z"/>
					<path class="st5" d="M63.4,6.7L63.4,6.7c1.2-0.1,2.2,0.3,3,1.1l6.4,7.2l-3.3-0.2c8.5,9.2,8.9,4.1,19.5,10.7
						c7,4.4,7.2,10.3,6.2,14.3c-0.8,3.6-3.8,6.2-7.5,6.5c-3.4,0.5-6.8,0.9-10.3,1c-3.2,0-6.4-0.5-8.5-2.2c-7.6-6.1-5.7-17-7.9-24.5
						l-0.4,0.9l-1.6,5.2l-3.9-10.2c-1-2.7-0.1-5.7,2.2-7.3c0.7-0.5,1.3-0.9,1.8-1.2C60.4,7.2,61.9,6.7,63.4,6.7z M63.4,4
						c-2.1,0-4.1,0.6-5.8,1.8l-0.2,0.1l-1.6,1.1c-3.4,2.4-4.7,6.7-3.2,10.6l3.9,10.2c0.4,1,1.4,1.7,2.5,1.7h0.1c0.2,0,0.4,0,0.6-0.1
						c0.7,6.2,1.7,13.1,7.5,17.9c2.3,1.8,5.7,2.8,10.2,2.8c2.9-0.1,5.7-0.3,8.6-0.8c0.8-0.1,1.5-0.2,1.9-0.2
						c4.8-0.4,8.8-3.9,9.9-8.6c1.7-7.1-0.9-13.2-7.4-17.3c-3.1-2-6.5-3.5-10.2-4.4c-1.9-0.4-3.7-1.2-5.2-2.4c0-0.1,0.1-0.2,0.1-0.3
						c0.5-1,0.3-2.2-0.4-3L68.5,6C67.2,4.7,65.3,3.9,63.4,4L63.4,4z"/>
					<path class="st6" d="M73.4,15.3L70.6,15c-1-0.1-2,0.2-2.8,0.9s-1.3,1.6-1.4,2.6l-0.3,2.8L63.5,21c-2.2-0.2-4.1,1.4-4.3,3.6
						L59,27.3"/>
					<path class="st6" d="M57.2,6.3c0,0-3.9-3.5-1.2-6.3"/>
					<path class="st1" d="M81.6,29.5l1.6-0.6c3.6-1.1,0.1-3.8-5.6-2.2c-1.6-0.6-3.3-0.8-5.1-0.6c-2,0.4-0.4,2.5,0.3,3.2
						c-5.1,1.3-8.8,4.9-8.8,9.1c0,5.3,5.8,9.6,12.8,9.6s12.8-4.3,12.8-9.6C89.7,34.4,86.3,30.9,81.6,29.5z"/>
					<path class="st1" d="M77.3,26.7c-1.6-0.6-3.4-0.8-5.1-0.6c-2.5,0.4,0.6,3.5,0.6,3.5s-3.5,2.7-2.7,3.6c0.9,0.9,5.8-1,5.8-1
						s3.6,4.6,4.5,3.7C81.3,35,80,30,80,30s2.4-0.9,3-1.1C86.6,27.8,83.1,25.2,77.3,26.7z"/>
					<path class="st4" d="M93.1,62.6c-0.9,0-1.8-0.4-2.4-1.2c-0.8-1.2-1-2.7-0.5-4l8-28.8c1-3.8,4-6.6,6.9-6.6
						c0.6,0,1.1,0.1,1.7,0.3l3.7,1.5c1.1,0.5,1.9,1.4,2.3,2.6c0.6,2.1,0.3,4.4-0.8,6.3L96.7,60.1C96.1,61.5,94.7,62.5,93.1,62.6z"/>
					<path class="st5" d="M105.6,23.7c0.4,0,0.8,0.1,1.1,0.2l3.7,1.5c2,0.8,2.4,4.2,0.8,7L95.9,59.8c-0.4,1-1.3,1.7-2.4,1.8
						c-1.2,0-2.2-1.3-1.6-3.4l6.8-24.2l1.3-4.6C100.8,26.1,103.3,23.7,105.6,23.7z M105.6,21c-3.5,0-7,3.2-8.2,7.6l-1.3,4.6
						l-6.8,24.2C88.7,59.1,89,61,90,62.5c0.8,1.1,2.1,1.7,3.4,1.7c2-0.1,3.9-1.3,4.8-3.2l15.4-27.3c1.3-2.2,1.7-4.9,0.9-7.5
						c-0.5-1.5-1.6-2.7-3.1-3.4l-3.7-1.5C107.1,21.1,106.3,21,105.6,21L105.6,21z"/>
					<path class="st1" d="M112,23.1l5.9-3.1"/>
					<path class="st1" d="M110,22.2l2.7-7.2"/>
					<path class="st1" d="M108,21.6l-2-6.6"/>
					<path class="st1" d="M99,29l5.9,1.6"/>
					<path class="st1" d="M101,37l5.9,1.6"/>
					<path class="st4" d="M39.9,54c-4.1-0.1-8.1-0.8-12-2.1c-0.6-0.2-1-0.8-0.9-1.5c0.1-0.7,0.7-1.1,1.3-1.2c0,0,3.1-0.1,4.6-1.8
						c0.7-0.9,1-2.2,0.8-3.3c-1-7.9,1.8-9.5,4.4-10.3c0.4-0.1,1-0.3,1-0.4c0.9-2.9,2.4-6.2,5.7-6.2c0.4,0,0.8,0.1,1.2,0.2h0.1
						c0.2,0,0.5-0.1,0.6-0.4c1.2-2.7,3.4-6,6.7-6c0.7,0,1.5,0.2,2.2,0.5c3.1,1.4,4.5,4.6,4,9c-0.1,0.6,0.1,1.3,0.5,1.8
						c0.8,1,1.2,2.2,1.3,3.4c0.2,1.8-0.5,3.6-1.7,5c-0.3,0.3-0.5,0.7-0.4,1.1c0.1,1.1-0.2,2.1-0.8,3C57.2,46.9,51.8,54,39.9,54z"/>
					<path class="st5" d="M52.8,22.8c0.6,0,1.1,0.1,1.6,0.4c3.4,1.5,3.5,5.3,3.2,7.6c-0.1,1,0.2,2,0.8,2.8c0.6,0.7,0.9,1.6,0.9,2.6
						c0.1,1.5-0.4,2.9-1.3,4c-0.6,0.6-0.9,1.4-0.8,2.2c0,0.8-0.2,1.5-0.6,2.1c-1.7,2.7-6.9,8.7-17.5,8.7c-3.9-0.1-7.8-0.7-11.5-2
						c0,0,7.6-0.1,6.7-6.7c-1.4-10.9,4.5-7.5,5.4-10.1c1.4-4.2,2.9-5.3,4.4-5.3c0.3,0,0.6,0,0.9,0.1c0.9,0.2,1.9-0.3,2.2-1.2
						C48.3,26,50.2,22.8,52.8,22.8L52.8,22.8z M52.9,20c-3.1,0-5.7,2.2-7.7,6.3c-0.3,0-0.6-0.1-0.9-0.1c-4,0-5.8,3.6-6.8,6.6
						L37.2,33c-3.4,1-6.4,3.2-5.4,11.8c0.2,0.8,0,1.6-0.5,2.3c-1,1.1-3.1,1.4-3.6,1.4c-1.3,0-2.5,1-2.7,2.3s0.6,2.6,1.8,3
						c4,1.4,8.1,2.1,12.3,2.1c12.6,0,18.3-7.6,19.8-10c0.8-1.1,1.1-2.4,1-3.8l0.1-0.1c1.4-1.6,2.2-3.8,2-5.9c0-1.6-0.6-3-1.6-4.2
						c-0.2-0.2-0.2-0.5-0.2-0.8c0.6-5-1.2-8.7-4.8-10.4C54.6,20.2,53.7,20,52.9,20L52.9,20z"/>
					<path class="st6" d="M26.2,49.6c0,0-5.6-2.8-6.5-6.5c-0.1-0.5-0.2-0.9-0.3-1.2c-0.3-1.5-1.1-2.8-2.2-3.8
						c-0.9-0.9-1.1-3.4-0.5-5.2c0.8-2.5-4.8-8.7,6.4-10.9c2.4-0.5,1.9,3.8,6.1,6.2c6.1,3.5,6.2,5.2,6.2,5.2"/>
					<path class="st6" d="M23.2,22.4c0,0-2-5.5,7.2-6.2c2.8-0.2,4.2-3.6,7.3-1.3c2.3,1.7,1.6,5.3,1.6,6.8s3.2,3.2,3.2,5"/>
					<path class="st6" d="M40,16.4c0,0-0.6-0.1,5.8-0.4c7.4-0.3,7.4,3.7,7.4,3.7"/>
					<path class="st6" d="M34,49.6c0,0,12.7-3.2,19-19.6"/>
					<path class="st6" d="M23,33c0,0,2,6.3,6.8,9.2"/>
					<path class="st6" d="M35.1,33c0,0-3.2-4.2-1.6-9"/>
					<path class="st6" d="M47,40.7c-1-2.1-1.7-4.3-2-6.7"/>
					<path class="st1" d="M25.3,44h78.6c3.5,0,6.3,2.8,6.3,6.3v50c0,3.5-2.8,6.3-6.3,6.3H25.3c-3.5,0-6.3-2.8-6.3-6.3v-50
						C19,46.8,21.8,44,25.3,44z"/>
					<path class="st6" d="M21.5,45L0,62.5"/>
					<path class="st6" d="M109,46l21,17.4"/>
					<path class="st2" d="M85.6,69.6c-1.8-9.5-9.9-15.4-19.4-15.6c-8.4,0.2-16.1,4.5-19,13.1c-2.9,9-0.2,17.5,6.3,22.4
						c6.7,5.3,16,5.9,23.4,1.6C83.9,86.7,87.2,77.7,85.6,69.6z"/>
				</g>
			</g>
		</g>
	</g>
</g>
</svg>
