<?xml version="1.0" encoding="UTF-8"?>
<svg width="18px" height="18px" viewBox="0 0 18 18" version="1.1" xmlns="http://www.w3.org/2000/svg" xmlns:xlink="http://www.w3.org/1999/xlink">
    <!-- Generator: Sketch 56.2 (81672) - https://sketch.com -->
    <title>icon_cart_in_box_full</title>
    <desc>Created with Sketch.</desc>
    <g id="icon_cart_in_box_full" stroke="none" stroke-width="1" fill="none" fill-rule="evenodd">
        <g id="Group-12-Copy">
            <path d="M14.5,6.56228956 C14.5,6.73063973 14.4290323,6.8989899 14.3012903,7.02020202 L8.19806452,12.8114478 C8.07032258,12.9326599 7.89290323,13 7.71548387,13 C7.53806452,13 7.36064516,12.9326599 7.23290323,12.8114478 L3.69870968,9.45791246 C3.57096774,9.33670034 3.5,9.16835017 3.5,9 C3.5,8.83164983 3.57096774,8.66329966 3.69870968,8.54208754 L4.66387097,7.62626263 C4.7916129,7.50505051 4.96903226,7.43771044 5.14645161,7.43771044 C5.32387097,7.43771044 5.50129032,7.50505051 5.62903226,7.62626263 L7.71548387,9.61279461 L12.3709677,5.18855219 C12.4987097,5.06734007 12.676129,5 12.8535484,5 C13.0309677,5 13.2083871,5.06734007 13.336129,5.18855219 L14.3012903,6.1043771 C14.4290323,6.22558923 14.5,6.39393939 14.5,6.56228956 Z" id="subscription_tip_checkmark-copy" fill="#3E3AC2" fill-rule="nonzero"></path>
            <rect id="Rectangle-Copy" stroke="#C0C5C9" x="0.5" y="0.5" width="17" height="17" rx="2"></rect>
        </g>
    </g>
</svg>