<?xml version="1.0" encoding="UTF-8"?>
<svg width="168px" height="116px" viewBox="0 0 168 116" version="1.1" xmlns="http://www.w3.org/2000/svg" xmlns:xlink="http://www.w3.org/1999/xlink">
    <!-- Generator: Sketch 51.3 (57544) - http://www.bohemiancoding.com/sketch -->
    <title>Group 11</title>
    <desc>Created with Sketch.</desc>
    <defs></defs>
    <g id="Page-1" stroke="none" stroke-width="1" fill="none" fill-rule="evenodd">
        <g id="Artboard" transform="translate(-21.000000, -4.000000)">
            <g id="Group-11" transform="translate(23.000000, 6.000000)">
                <g id="Group-5">
                    <path d="M32.446257,70.0007187 C30.6224784,70.0180395 29.1214763,71.4405009 29.006257,73.2607187 C28.9498093,74.1681975 29.277267,75.0576348 29.9086793,75.7118693 C30.5400916,76.3661037 31.4173465,76.7249228 32.326257,76.7007187 C34.0731449,76.7375995 35.5602068,75.4369623 35.756257,73.7007187 C35.8819568,72.7547219 35.5881328,71.8010173 34.9518591,71.0897747 C34.3155853,70.378532 33.4003591,69.9807304 32.446257,70.0007187 Z" id="Shape" fill="#F5333F" fill-rule="nonzero"></path>
                    <g id="Group-7" transform="translate(0.000000, 51.000000)" fill-rule="nonzero">
                        <rect id="Rectangle-path" stroke="#323E48" stroke-width="2.72" fill="#FFFFFF" stroke-linecap="round" stroke-linejoin="round" x="0" y="0" width="67.36" height="46.23" rx="4.64"></rect>
                        <path d="M43.7882765,21.5458071 C42.7761805,16.3456912 38.3385288,13.100448 33.0989856,13 C28.4667,13.0927212 24.2158967,15.4648395 22.6510406,20.2322563 C21.031687,25.1542085 22.5264749,29.8443576 26.0999524,32.5950875 C29.8018835,35.4714047 34.9034514,35.7966756 38.9457864,33.4141251 C42.8384633,30.9879195 44.6524508,26.042787 43.7882765,21.5458071 Z" id="Shape" fill="#01A92B"></path>
                    </g>
                    <path d="M66,53 L81.55,65.84" id="Shape" stroke="#323E48" stroke-width="2.01" stroke-linecap="round" stroke-linejoin="round"></path>
                    <g id="Group-9" transform="translate(92.000000, 51.000000)" fill-rule="nonzero">
                        <rect id="Rectangle-path-Copy" fill="#FFFFFF" x="6" y="3" width="67.36" height="46.23" rx="4.64"></rect>
                        <rect id="Rectangle-path" stroke="#323E48" stroke-width="2.72" fill="#FFFFFF" stroke-linecap="round" stroke-linejoin="round" x="0" y="0" width="67.36" height="46.23" rx="4.64"></rect>
                        <path d="M43.7877087,21.5458071 C42.783211,16.3456912 38.3369459,13.100448 33.0964268,13 C28.4632785,13.0927212 24.2116835,15.4648395 22.6465359,20.2322563 C21.0346675,25.1542085 22.5297339,29.8443576 26.0960901,32.5950875 C29.7987106,35.4714047 34.9012287,35.7966756 38.9443166,33.4141251 C42.8455054,30.9879195 44.6520439,26.042787 43.7877087,21.5458071 Z" id="Shape" fill="#01A92B"></path>
                    </g>
                    <g id="Group-2" transform="translate(14.000000, 0.000000)">
                        <path d="M134.097414,65.362138 L113.097414,48.002138 L112.997414,47.932138 L118.187414,38.702138 C119.753503,36.0250371 120.116649,32.8111964 119.187414,29.852138 C118.949353,29.1419442 118.612732,28.4687028 118.187414,27.852138 L121.487414,26.122138 C122.503826,25.5247834 122.872381,24.2347649 122.32494,23.1906215 C121.777499,22.1464781 120.506839,21.7158949 119.437414,22.212138 L116.437414,23.782138 L117.947414,19.782138 C118.310042,18.6603887 117.728333,17.451493 116.62548,17.0349188 C115.522626,16.6183445 114.286955,17.1407725 113.817414,18.222138 L112.477414,21.812138 L111.417414,18.282138 C111.022353,17.1759544 109.830991,16.5720776 108.705259,16.907402 C107.579526,17.2427265 106.912786,18.4000805 107.187414,19.542138 L108.337414,23.382138 C104.617414,23.532138 101.047414,26.382138 99.3374139,30.572138 C97.919254,28.8590422 96.23026,27.3896174 94.3374139,26.222138 C91.0853274,24.090506 87.4889549,22.5376039 83.7074139,21.632138 C82.4302331,21.3844437 81.2076498,20.9103117 80.0974139,20.232138 C80.3430835,18.8964107 79.9552257,17.5222858 79.0474139,16.512138 L72.6274139,9.33213798 C71.0259784,7.62666028 68.765358,6.69688898 66.4274139,6.78213798 L66.3174139,6.78213798 C64.5857827,6.79691692 62.8786663,7.19296793 61.3174139,7.94213798 C60.9392115,7.48740357 60.6935618,6.93728664 60.6074139,6.35213798 C60.6048843,6.0614258 60.7289939,5.78400427 60.9474139,5.59213798 C61.6717161,4.68843876 61.5755169,3.37886268 60.7269337,2.59070495 C59.8783506,1.80254722 58.5652461,1.80317247 57.7174139,2.59213798 C56.6841689,3.66028962 56.1377892,5.10765307 56.2074139,6.59213798 C56.3096915,7.94615716 56.787597,9.24481326 57.5874139,10.342138 C54.9835903,12.2443504 53.3894191,15.2302001 53.2574139,18.452138 C51.8771312,18.1402774 50.4606053,18.0191493 49.0474139,18.092138 C46.7374139,18.182138 45.0474139,18.262138 44.0474139,18.342138 C43.8874139,18.342138 43.6874139,18.342138 43.4774139,18.342138 C43.1407061,17.886832 42.7398864,17.482644 42.2874139,17.142138 C39.1574139,14.782138 36.7274139,16.322138 35.2874139,17.242138 C34.7752854,17.6368085 34.1803948,17.9103214 33.5474139,18.042138 C29.3574139,18.372138 26.5474139,19.672138 25.0474139,21.922138 C24.4728984,22.7843398 24.1286396,23.7792477 24.0474139,24.812138 C21.1174139,25.642138 19.1274139,26.882138 18.0474139,28.592138 C16.5074139,31.012138 17.1574139,33.592138 17.5874139,35.362138 C17.7192448,35.8304531 17.812885,36.3086868 17.8674139,36.792138 C17.2474139,38.872138 17.1974139,42.502138 19.0374139,44.212138 C19.7980882,44.9007424 20.3169947,45.815841 20.5174139,46.822138 C20.5874139,47.232138 20.6874139,47.682138 20.8074139,48.162138 C20.9225253,48.6107492 21.0833678,49.0463641 21.2874139,49.462138 L1.82741389,65.352138 C1.20934442,65.8505235 0.904110172,66.6407868 1.02668994,67.4252434 C1.14926971,68.2097 1.6810407,68.8691723 2.42168994,69.1552434 C3.16233918,69.4413145 3.99934442,69.3105235 4.61741389,68.812138 L20.1874139,56.142138 L20.1874139,104.542138 C20.1929243,109.228751 23.9908008,113.026628 28.6774139,113.032138 L107.237414,113.032138 C111.924027,113.026628 115.721903,109.228751 115.727414,104.542138 L115.727414,55.922138 L131.287414,68.812138 C131.887187,69.3763197 132.750882,69.5602708 133.528496,69.2894468 C134.306109,69.0186228 134.868674,68.3379399 134.988215,67.5232385 C135.107756,66.708537 134.764448,65.8949354 134.097414,65.412138 L134.097414,65.362138 Z" id="Shape" fill="#FFFFFF" fill-rule="nonzero"></path>
                        <path d="M77.2032181,49.4283008 C72.9532181,49.4283008 69.8832181,48.6083008 67.8132181,46.9283008 C62.1032181,42.3083008 61.3332181,35.2883008 60.6632181,29.0883008 C60.5698848,28.2749675 60.4798848,27.4849675 60.3932181,26.7183008 L60.0232181,27.8783008 C59.8524591,28.4296097 59.3501185,28.8113885 58.7732181,28.8283008 C58.2098162,28.8317256 57.7035321,28.484901 57.5032181,27.9583008 L53.5332181,17.8383008 C52.2372836,14.5707732 53.3644666,10.8411233 56.2532181,8.83830081 C56.8232181,8.43830081 57.3932181,8.05830081 57.8632181,7.73830081 L58.0832181,7.59830081 C59.5519707,6.57735151 61.2945457,6.02321265 63.0832181,6.00830081 C64.5757407,5.9240034 66.0325666,6.48488137 67.0832181,7.54830081 L73.5132181,14.7283008 C73.8481518,15.1089405 73.9435386,15.6442909 73.7606851,16.117188 C73.5778315,16.5900851 73.1471008,16.9220035 72.6432181,16.9783008 C74.5332595,18.9345552 76.9754108,20.267272 79.6432181,20.7983008 C83.1257775,21.6246916 86.4360872,23.0564513 89.4232181,25.0283008 C97.4232181,30.0283008 97.1432181,37.0283008 96.2332181,40.8483008 C95.2699992,44.9769547 91.7659497,48.0213245 87.5432181,48.3983008 C87.0632181,48.3983008 86.3732181,48.5483008 85.5432181,48.6683008 C82.7847807,49.1192646 79.9977331,49.3732402 77.2032181,49.4283008 Z" id="Shape" fill="#FFFFFF" fill-rule="nonzero"></path>
                        <path d="M63.4150594,6.71 L63.4850594,6.71 C64.574765,6.64353303 65.6420513,7.03922763 66.4250594,7.8 L72.8550594,14.97 L69.5850594,14.81 C78.1250594,24.05 78.4850594,18.92 89.1050594,25.52 C96.1050594,29.87 96.2850594,35.82 95.3050594,39.87 C94.473425,43.4258402 91.4611356,46.0515256 87.8250594,46.39 C84.4211522,46.9260871 80.9884698,47.2600057 77.5450594,47.39 C74.3150594,47.39 71.0950594,46.89 69.0050594,45.2 C61.4350594,39.07 63.2650594,28.2 61.1350594,20.71 L60.7050594,21.62 L59.0750594,26.8 L55.1450594,16.64 C54.10421,13.9711 55.0207959,10.9364577 57.3650594,9.29 C58.0250594,8.83 58.6650594,8.41 59.1750594,8.06 C60.4247358,7.20253359 61.8996669,6.73292108 63.4150594,6.71 Z M63.4150594,4 C61.3603924,4.01396179 59.3572474,4.644517 57.6650594,5.81 L57.4550594,5.95 L55.8150594,7.07 C52.4349083,9.42659045 51.1115945,13.793526 52.6150594,17.63 L56.5350594,27.79 C56.9427215,28.837642 57.9508977,29.5282824 59.0750594,29.53 L59.1550594,29.53 C59.3540104,29.5243784 59.5517949,29.4975602 59.7450594,29.45 C60.4350594,35.68 61.4250594,42.58 67.2950594,47.33 C69.6250594,49.18 72.9450594,50.18 77.5450594,50.18 C80.4200006,50.1249397 83.2873195,49.8642744 86.1250594,49.4 C86.9350594,49.28 87.6250594,49.18 88.0550594,49.15 C92.8624973,48.7138742 96.8508994,45.2492017 97.9550594,40.55 C99.6550594,33.44 97.0250594,27.3 90.5350594,23.26 C87.4290826,21.2176539 83.9910023,19.7321055 80.3750594,18.87 C78.4643024,18.5146157 76.6730738,17.6860435 75.1650594,16.46 C75.1650594,16.37 75.2650594,16.28 75.3050594,16.19 C75.7837164,15.195384 75.6138283,14.0101183 74.8750594,13.19 L68.4550594,6.02 C67.1628375,4.65161259 65.3345217,3.9202863 63.4550594,4.02 L63.4150594,4 Z" id="Shape" fill="#323E48" fill-rule="nonzero"></path>
                        <path d="M73.45,15.2768629 L70.61,15.0168629 C69.6113647,14.922249 68.6160732,15.2284531 67.8433167,15.8680403 C67.0705603,16.5076275 66.5837158,17.4281429 66.49,18.4268629 L66.22,21.2668629 L63.54,21.0168629 C61.3788936,20.8478459 59.4764291,22.4310157 59.25,24.5868629 L59,27.2668629" id="Shape" stroke="#323E48" stroke-width="2.72" stroke-linecap="round" stroke-linejoin="round"></path>
                        <path d="M57.1560246,6.31 C57.1560246,6.31 53.2760246,2.84 55.9260246,0" id="Shape" stroke="#323E48" stroke-width="2.72" stroke-linecap="round" stroke-linejoin="round"></path>
                        <path d="M81.58,29.5004989 L83.19,28.9304989 C86.82,27.8004989 83.29,25.1804989 77.55,26.6904989 C75.940621,26.0681907 74.2002858,25.8618269 72.49,26.0904989 C70.49,26.4604989 72.11,28.5504989 72.79,29.3204989 C67.69,30.5904989 64,34.1804989 64,38.4204989 C64,43.7204989 69.75,48.0104989 76.85,48.0104989 C83.95,48.0104989 89.7,43.7204989 89.7,38.4204989 C89.7,34.3704989 86.33,30.9104989 81.58,29.5004989 Z" id="Shape" stroke="#323E48" stroke-width="2.72" fill="#FFFFFF" fill-rule="nonzero" stroke-linecap="round" stroke-linejoin="round"></path>
                        <path d="M77.3172696,26.6909896 C75.7046102,26.0678408 73.9608357,25.8614769 72.2472696,26.0909896 C69.7572696,26.5409896 72.8172696,29.6009896 72.8172696,29.6009896 C72.8172696,29.6009896 69.2672696,32.3209896 70.1372696,33.1909896 C71.0072696,34.0609896 75.9572696,32.1909896 75.9572696,32.1909896 C75.9572696,32.1909896 79.5372696,36.7609896 80.4072696,35.8909896 C81.2772696,35.0209896 79.9572696,30.0009896 79.9572696,30.0009896 C79.9572696,30.0009896 82.3772696,29.1009896 82.9572696,28.9109896 C86.5872696,27.8009896 83.0572696,25.1809896 77.3172696,26.6909896 Z" id="Shape" stroke="#323E48" stroke-width="2.72" fill="#FFFFFF" fill-rule="nonzero" stroke-linecap="round" stroke-linejoin="round"></path>
                        <path d="M93.1364782,62.5800083 C92.2045217,62.5730087 91.3287482,62.1332743 90.7664782,61.3900083 C89.9721146,60.2128665 89.7828978,58.728813 90.2564782,57.3900083 L98.2564782,28.6000083 C99.2564782,24.8400083 102.256478,22.0000083 105.186478,22.0000083 C105.752003,21.9989061 106.312365,22.1075825 106.836478,22.3200083 L110.556478,23.8400083 C111.658875,24.3235488 112.497764,25.2609154 112.856478,26.4100083 C113.482084,28.5427168 113.192261,30.839557 112.056478,32.7500083 L96.6864782,60.0800083 C96.0502236,61.5005411 94.6883289,62.4596218 93.1364782,62.5800083 Z" id="Shape" fill="#FFFFFF" fill-rule="nonzero"></path>
                        <path d="M105.564394,23.72 C105.955095,23.7184 106.342345,23.7931326 106.704394,23.94 L110.424394,25.46 C112.424394,26.28 112.824394,29.64 111.244394,32.46 L95.8843942,59.77 C95.4595752,60.7450396 94.5502625,61.4222683 93.4943942,61.55 C92.2743942,61.55 91.3343942,60.23 91.9243942,58.11 L98.6743942,33.88 L99.9443942,29.32 C100.844394,26.07 103.324394,23.72 105.564394,23.72 Z M105.564394,21 C102.014394,21 98.5643942,24.2 97.3243942,28.59 L96.0543942,33.15 L89.3043942,57.38 C88.7157731,59.1197473 88.9905558,61.0357992 90.0443942,62.54 C90.8564777,63.6293545 92.1356549,64.270797 93.4943942,64.27 C95.5438195,64.1707126 97.3727063,62.9527355 98.2543942,61.1 L113.614394,33.77 C114.947231,31.523541 115.277312,28.8212291 114.524394,26.32 C114.035636,24.8028063 112.911604,23.5729409 111.444394,22.95 L107.754394,21.43 C107.065711,21.1475624 106.328741,21.0015269 105.584394,21 L105.564394,21 Z" id="Shape" fill="#323E48" fill-rule="nonzero"></path>
                        <path d="M112,23.08 L117.9,20" id="Shape" stroke="#323E48" stroke-width="2.72" fill="#FFFFFF" fill-rule="nonzero" stroke-linecap="round" stroke-linejoin="round"></path>
                        <path d="M110,22.22 L112.72,15" id="Shape" stroke="#323E48" stroke-width="2.72" fill="#FFFFFF" fill-rule="nonzero" stroke-linecap="round" stroke-linejoin="round"></path>
                        <path d="M107.97,21.58 L106,15" id="Shape" stroke="#323E48" stroke-width="2.72" fill="#FFFFFF" fill-rule="nonzero" stroke-linecap="round" stroke-linejoin="round"></path>
                        <path d="M99,29 L104.94,30.64" id="Shape" stroke="#323E48" stroke-width="2.72" fill="#FFFFFF" fill-rule="nonzero" stroke-linecap="round" stroke-linejoin="round"></path>
                        <path d="M101,37 L106.94,38.64" id="Shape" stroke="#323E48" stroke-width="2.72" fill="#FFFFFF" fill-rule="nonzero" stroke-linecap="round" stroke-linejoin="round"></path>
                        <path d="M39.9357942,54.02 C35.8504537,53.962148 31.8001405,53.2567185 27.9357942,51.93 C27.3049075,51.72656 26.9150612,51.0951784 27.0157942,50.44 C27.1216467,49.7833421 27.6808429,49.2956222 28.3457942,49.28 C28.3457942,49.28 31.4457942,49.21 32.9657942,47.46 C33.7092219,46.5216738 34.0018436,45.303636 33.7657942,44.13 C32.7657942,36.2 35.5257942,34.67 38.1857942,33.85 C38.6157942,33.72 39.1857942,33.55 39.1857942,33.42 C40.1257942,30.51 41.6157942,27.18 44.8957942,27.18 C45.3039559,27.1942739 45.7095008,27.2512513 46.1057942,27.35 L46.2457942,27.35 C46.4856495,27.3557919 46.7058953,27.2181383 46.8057942,27 C48.0257942,24.26 50.1757942,21 53.4957942,21 C54.24482,21.0057428 54.9842249,21.1692978 55.6657942,21.48 C58.7657942,22.87 60.1957942,26.05 59.6657942,30.48 C59.581326,31.1276751 59.7656099,31.7817021 60.1757942,32.29 C60.9680438,33.2483254 61.4121928,34.4468227 61.4357942,35.69 C61.5874947,37.5185812 60.9757677,39.3284246 59.7457942,40.69 C59.4497228,40.9783846 59.2867385,41.3767907 59.2957942,41.79 C59.3857095,42.852569 59.1028505,43.9132901 58.4957942,44.79 C57.1957942,46.87 51.7857942,54.02 39.9357942,54.02 Z" id="Shape" fill="#FFFFFF" fill-rule="nonzero"></path>
                        <path d="M52.8310079,22.79 C53.3871008,22.7947372 53.9358567,22.9174404 54.4410079,23.15 C57.8010079,24.65 57.9510079,28.41 57.6810079,30.72 C57.5567793,31.735701 57.8530089,32.758054 58.5010079,33.55 C59.1023035,34.272077 59.4345186,35.1803674 59.4410079,36.12 C59.5641179,37.5774595 59.087395,39.0220745 58.1210079,40.12 C57.545141,40.696757 57.2525022,41.4978557 57.3210079,42.31 C57.3685404,43.0659 57.15301,43.8149566 56.7110079,44.43 C55.0210079,47.12 49.8410079,53.13 39.2310079,53.13 C35.3094023,53.0767662 31.4210728,52.401709 27.7110079,51.13 C27.7110079,51.13 35.2910079,51.05 34.4610079,44.45 C33.0910079,33.6 38.9810079,36.91 39.8210079,34.32 C41.1910079,30.07 42.6710079,29.03 44.2410079,29.03 C44.5534875,29.0336014 44.8649059,29.0670873 45.1710079,29.13 C46.0948171,29.3171253 47.0238897,28.8338408 47.4010079,27.97 C48.3010079,25.97 50.1510079,22.77 52.8510079,22.77 L52.8310079,22.79 Z M52.8510079,20.05 C49.7810079,20.05 47.1310079,22.22 45.1710079,26.32 C44.869219,26.2810795 44.5652944,26.2610405 44.2610079,26.26 C40.2610079,26.26 38.4710079,29.9 37.4310079,32.9 L37.1510079,32.99 C33.7310079,33.99 30.7110079,36.2 31.7810079,44.74 C31.9799023,45.5301955 31.8027544,46.3679576 31.3010079,47.01 C30.3510079,48.1 28.1810079,48.36 27.7010079,48.37 C26.3681006,48.3745388 25.2363945,49.3476819 25.0322185,50.6648663 C24.8280424,51.9820507 25.6120257,53.2521438 26.8810079,53.66 C30.8608455,55.0119067 35.0282425,55.7306562 39.2310079,55.79 C51.7810079,55.79 57.5410079,48.15 59.0110079,45.79 C59.765776,44.677208 60.1185205,43.3403066 60.0110079,42 L60.1010079,41.89 C61.5426498,40.2693928 62.2644496,38.1328652 62.1010079,35.97 C62.0790299,34.4185105 61.5247696,32.9216545 60.5310079,31.73 C60.3643371,31.5064294 60.2924798,31.2261858 60.3310079,30.95 C60.9010079,26 59.1410079,22.22 55.5010079,20.6 C54.646766,20.2105201 53.7198302,20.006049 52.7810079,20 L52.8510079,20.05 Z" id="Shape" fill="#323E48" fill-rule="nonzero"></path>
                        <path d="M26.1573052,49.5947229 C26.1573052,49.5947229 20.5773052,46.7647229 19.6773052,43.1347229 C19.5573052,42.6847229 19.4773052,42.2847229 19.4173052,41.9447229 C19.1233678,40.4763761 18.3662988,39.1409906 17.2573052,38.1347229 C16.3573052,37.2847229 16.1573052,34.7447229 16.7173052,32.9147229 C17.5073052,30.3647229 11.8873052,24.2547229 23.1473052,22.0347229 C25.5073052,21.5747229 25.0073052,25.7947229 29.2073052,28.2047229 C35.3573052,31.7147229 35.4273052,33.4547229 35.4273052,33.4547229" id="Shape" stroke="#323E48" stroke-width="2.72" stroke-linecap="round" stroke-linejoin="round"></path>
                        <path d="M23.1822713,22.3860938 C23.1822713,22.3860938 21.1822713,16.8560938 30.4322713,16.1360938 C33.2622713,15.9160938 34.6222713,12.4860938 37.6922713,14.7960938 C39.9922713,16.5360938 39.3022713,20.0860938 39.3022713,21.5960938 C39.3022713,23.1060938 42.5222713,24.8260938 42.5222713,26.5960938" id="Shape" stroke="#323E48" stroke-width="2.72" stroke-linecap="round" stroke-linejoin="round"></path>
                        <path d="M40.0169574,16.3761074 C40.0169574,16.3761074 39.3869574,16.2761074 45.8069574,16.0161074 C53.2069574,15.7161074 53.2069574,19.7061074 53.2069574,19.7061074" id="Shape" stroke="#323E48" stroke-width="2.72" stroke-linecap="round" stroke-linejoin="round"></path>
                        <path d="M34,49.63 C34,49.63 46.69,46.48 53,30" id="Shape" stroke="#323E48" stroke-width="2.72" stroke-linecap="round" stroke-linejoin="round"></path>
                        <path d="M23,33 C23,33 25,39.28 29.84,42.19" id="Shape" stroke="#323E48" stroke-width="2.72" stroke-linecap="round" stroke-linejoin="round"></path>
                        <path d="M35.0697624,33 C35.0697624,33 31.8397624,28.75 33.4497624,24" id="Shape" stroke="#323E48" stroke-width="2.72" stroke-linecap="round" stroke-linejoin="round"></path>
                        <path d="M47,40.65 C45.9818118,38.5546244 45.3065564,36.3094002 45,34" id="Shape" stroke="#323E48" stroke-width="2.72" stroke-linecap="round" stroke-linejoin="round"></path>
                        <rect id="Rectangle-path" stroke="#323E48" stroke-width="2.72" fill="#FFFFFF" fill-rule="nonzero" stroke-linecap="round" stroke-linejoin="round" x="19" y="44" width="91.13" height="62.53" rx="6.28"></rect>
                        <path d="M21.53,45 L0,62.52" id="Shape" stroke="#323E48" stroke-width="2.72" stroke-linecap="round" stroke-linejoin="round"></path>
                        <path d="M109,46 L130.04,63.36" id="Shape" stroke="#323E48" stroke-width="2.72" stroke-linecap="round" stroke-linejoin="round"></path>
                        <path d="M85.6109637,69.5779629 C83.7795472,60.1273321 75.7213147,54.2180915 66.1770186,54 C57.7525028,54.1557796 50.0291579,58.476068 47.1826134,67.1374154 C44.2418818,76.0895514 46.9523782,84.6158898 53.4617556,89.569682 C60.1856521,94.8413461 69.4849517,95.4645437 76.8620256,91.1378636 C83.8946648,86.7448781 87.1912145,77.6992743 85.6109637,69.5779629 Z" id="Shape" fill="#01A92B" fill-rule="nonzero"></path>
                    </g>
                </g>
            </g>
        </g>
    </g>
</svg>