<?xml version="1.0" encoding="UTF-8"?>
<svg width="38px" height="39px" viewBox="0 0 38 39" version="1.1" xmlns="http://www.w3.org/2000/svg" xmlns:xlink="http://www.w3.org/1999/xlink">
    <!-- Generator: Sketch 52.5 (67469) - http://www.bohemiancoding.com/sketch -->
    <title>icon_Messenger</title>
    <desc>Created with Sketch.</desc>
    <g id="study-8" stroke="none" stroke-width="1" fill="none" fill-rule="evenodd">
        <g id="overlay" transform="translate(-33.000000, -376.000000)">
            <g id="icon_Messenger" transform="translate(33.000000, 376.000000)">
                <path d="M10.1550167,35.8199926 L4.73906364,38.2270828 C4.55392778,38.3093654 4.34816585,38.3334739 4.1490238,38.296216 C3.60615843,38.1946501 3.24841455,37.6722353 3.34998047,37.1293699 L4.4546528,31.2249454 C1.67472689,27.9208023 0,23.6559778 0,19 C0,8.50658975 8.50658975,0 19,0 C29.4934102,0 38,8.50658975 38,19 C38,29.4934102 29.4934102,38 19,38 C15.8063753,38 12.7967825,37.2120658 10.1550167,35.8199926 Z" id="Combined-Shape" fill="#2196F3"></path>
                <path d="M32.4472163,13.33439 C32.1997309,13.0026941 31.7460077,12.9034348 31.3826549,13.1014855 L22.7329083,17.817275 L17.3517777,13.202928 C17.0217972,12.920043 16.5296335,12.9388344 16.222343,13.2462029 L6.24183618,23.2267097 C5.91801552,23.5524797 5.91957497,24.0791074 6.24542292,24.402928 C6.50592975,24.6618754 6.90538394,24.7192633 7.22826893,24.5441366 L15.8780155,19.8283471 L21.2641364,24.4443315 C21.5941169,24.7272165 22.0862806,24.7084251 22.3935711,24.4010567 L32.3740779,14.4205498 C32.6649161,14.1269826 32.6961052,13.6643705 32.4472163,13.33439 Z" id="Path" fill="#FAFAFA"></path>
            </g>
        </g>
    </g>
</svg>