<?xml version="1.0" encoding="UTF-8"?>
<svg width="19px" height="19px" viewBox="0 0 19 19" version="1.1" xmlns="http://www.w3.org/2000/svg" xmlns:xlink="http://www.w3.org/1999/xlink">
    <!-- Generator: Sketch 52.6 (67491) - http://www.bohemiancoding.com/sketch -->
    <title>icon_5-a-day</title>
    <desc>Created with Sketch.</desc>
    <g id="icon_5-a-day" stroke="none" stroke-width="1" fill="none" fill-rule="evenodd">
        <g>
            <rect id="Rectangle" x="0" y="0" width="19" height="19"></rect>
            <path d="M3.46177348,12.8670693 L5.21827683,14.1263502 C5.25300319,14.1512464 5.29971125,14.1513279 5.33452429,14.1265531 C5.37952151,14.0945307 5.39003967,14.0320939 5.35801726,13.9870967 L3.9790626,12.0494188 L7.6965166,6.17344312 L10.8062857,8.39470678 C10.8410555,8.41954232 10.8877636,8.41954232 10.9225334,8.39470678 C10.9674746,8.36260588 10.9778838,8.30015087 10.9457829,8.25520962 L8.53198186,4.87588817 C9.1601504,4.09050991 10.2920193,3.88677327 11.1617277,4.43699694 C11.2865405,4.51596015 11.4022226,4.60850583 11.5066578,4.71294105 L14.335085,7.54136817 C15.1161335,8.32241675 15.1161335,9.58874671 14.335085,10.3697953 C14.2306497,10.4742305 14.1149676,10.5667762 13.9901548,10.6457394 L10.6731289,12.744266 L7.5401252,10.5064062 C7.50535545,10.4815706 7.45864731,10.4815706 7.42387756,10.5064062 C7.3789363,10.5385071 7.36852713,10.6009621 7.40062803,10.6459033 L9.45150451,13.5171304 L2.53464171,17.8931048 C2.06791756,18.1883793 1.45019563,18.0493919 1.15492116,17.5826677 C0.948359612,17.2561672 0.948359612,16.8398848 1.15492116,16.5133843 L3.46177348,12.8670693 Z M12.5742482,4.35302116 C12.4807929,4.24083407 12.4346894,4.10383516 12.4574329,3.96670891 C12.4637018,3.92891167 12.4751347,3.89219871 12.4915222,3.85724162 L13.9955966,0.648825927 C14.0568761,0.518107636 14.2407669,0.463135097 14.4063282,0.526041324 C14.5221479,0.570047866 14.6029116,0.662794927 14.6137819,0.764275988 L14.3603356,3.32405174 L16.7416581,1.7888858 C16.8863779,1.70845615 17.0989796,1.7796051 17.2165173,1.94780141 C17.2987417,2.06546445 17.3152905,2.20501312 17.2590253,2.30625298 L15.7238857,4.6875282 L18.283704,4.43408644 C18.4287686,4.44962518 18.5470598,4.60477881 18.5479149,4.78063179 C18.5485131,4.90365111 18.4905991,5.00940315 18.3991541,5.05227169 L15.1907384,6.55634611 C15.0284817,6.63241046 14.8460063,6.59614135 14.7008315,6.47851744 C14.6120928,6.40661938 12.6734453,4.47210095 12.5742482,4.35302116 Z" id="Shape" fill="#333D47"></path>
        </g>
    </g>
</svg>