<svg width="16" height="16" fill="none" xmlns="http://www.w3.org/2000/svg"><path d="M15.644 9.33a.505.505 0 00-.245-.303.546.546 0 00-.398-.05l-1.444.368a1.518 1.518 0 01-.963-.12l-1.78-.981a.277.277 0 01-.135-.097.257.257 0 010-.307.277.277 0 01.135-.097l1.78-.98c.297-.144.637-.187.963-.12L15 7.01a.546.546 0 00.398-.05.505.505 0 00.245-.303l.338-1.208a.478.478 0 00-.055-.382.509.509 0 00-.323-.232l-.786-.197a.522.522 0 01-.318-.234.48.48 0 01-.052-.38l.207-.75a.48.48 0 00-.052-.373.521.521 0 00-.31-.233l-1.258-.323a.546.546 0 00-.398.05.504.504 0 00-.245.303l-.388 1.38a1.387 1.387 0 01-.595.735l-1.78.981c-.25.138-.454.025-.454-.25V3.579a1.37 1.37 0 01.375-.84l1.049-1.002a.49.49 0 00.152-.353.49.49 0 00-.152-.353L9.67.146A.538.538 0 009.3 0a.538.538 0 00-.37.146l-.57.543a.538.538 0 01-.37.145.538.538 0 01-.37-.145L7.048.146A.538.538 0 006.678 0a.538.538 0 00-.37.146l-.928.885a.49.49 0 00-.152.353c0 .133.055.26.152.353l1.05 1.001c.22.237.35.537.369.854v1.964c0 .275-.205.388-.454.25l-1.754-.993a1.386 1.386 0 01-.59-.736l-.388-1.379a.504.504 0 00-.245-.303.546.546 0 00-.397-.05l-1.264.323a.522.522 0 00-.318.234.48.48 0 00-.052.38l.207.75a.48.48 0 01-.052.38.522.522 0 01-.318.233l-.786.198a.522.522 0 00-.318.234.48.48 0 00-.052.38l.338 1.208a.504.504 0 00.245.303c.12.066.263.084.398.05l1.445-.368c.325-.066.665-.024.962.12l1.78.973a.277.277 0 01.135.097.257.257 0 010 .307.277.277 0 01-.135.097l-1.78.981a1.518 1.518 0 01-.962.12L.999 8.977a.547.547 0 00-.398.05.504.504 0 00-.245.303L.018 10.54a.478.478 0 00.055.382.51.51 0 00.323.231l.786.198a.522.522 0 01.318.233.48.48 0 01.052.38l-.207.75a.48.48 0 00.052.373.52.52 0 00.31.233l1.266.323a.546.546 0 00.398-.05.505.505 0 00.245-.303l.388-1.379c.1-.302.308-.562.587-.735l1.78-.982c.25-.137.454-.024.454.25v1.965a1.369 1.369 0 01-.37.854l-1.048 1a.49.49 0 00-.153.354.49.49 0 00.153.353l.928.886a.538.538 0 00.37.145.538.538 0 00.37-.146l.571-.543a.538.538 0 01.74 0l.571.543a.538.538 0 00.37.146.538.538 0 00.37-.146l.925-.875a.489.489 0 00.153-.353.489.489 0 00-.153-.353l-1.049-1.001a1.37 1.37 0 01-.37-.854v-1.974c0-.276.205-.388.454-.25l1.752.98c.28.173.488.433.59.736l.388 1.38a.504.504 0 00.245.303c.12.066.263.084.397.05l1.264-.324a.522.522 0 00.318-.233.48.48 0 00.052-.38l-.207-.75a.48.48 0 01.052-.38.522.522 0 01.318-.234l.786-.197a.522.522 0 00.318-.234.48.48 0 00.052-.38l-.338-1.2z" fill="#615CFF"/></svg>