<?xml version="1.0" encoding="UTF-8" standalone="no"?>
<svg width="52px" height="52px" viewBox="0 0 52 52" version="1.1" xmlns="http://www.w3.org/2000/svg" xmlns:xlink="http://www.w3.org/1999/xlink">
    <!-- Generator: Sketch 39.1 (31720) - http://www.bohemiancoding.com/sketch -->
    <title>Zoom icon</title>
    <desc>Created with Sketch.</desc>
    <defs></defs>
    <g id="Page-1" stroke="none" stroke-width="1" fill="none" fill-rule="evenodd">
        <g id="Zoom-icon" fill="#645B57">
            <g id="Group-2" transform="translate(2.000000, 2.000000)">
                <g id="add-searching">
                    <g id="Group">
                        <path d="M41.3457942,32.486672 C48.7675627,25.0647524 48.7675627,12.9883215 41.3457942,5.56640193 C33.9240257,-1.85551768 21.8475949,-1.85551768 14.4258264,5.56640193 C8.12948875,11.8628907 7.17588746,21.2273762 11.5626045,28.5400322 C11.5626045,28.5400322 11.877701,29.0683666 11.4521318,29.4939357 C9.02430225,31.9216141 1.74036013,39.2057074 1.74036013,39.2057074 C-0.192684887,41.1386013 -0.652861736,43.8414791 1.0613537,45.5559968 L1.35650161,45.8508424 C3.07071704,47.5653601 5.77374598,47.1053344 7.70663987,45.1722894 C7.70663987,45.1722894 14.9751672,37.9036109 17.3980096,35.4809196 C17.8439807,35.0349486 18.3724662,35.350045 18.3724662,35.350045 C25.6848199,39.7366109 35.0493055,38.7831608 41.3457942,32.486672 L41.3457942,32.486672 Z M17.9402476,28.9722508 C12.456209,23.4882122 12.4563601,14.565164 17.9403987,9.0811254 C23.4244373,3.59723794 32.3476367,3.59708682 37.831373,9.0811254 C43.3154116,14.5650129 43.3154116,23.4882122 37.831373,28.9722508 C32.3471833,34.4561383 23.4242862,34.4561383 17.9402476,28.9722508 L17.9402476,28.9722508 Z" id="Shape"></path>
                        <path d="M31.1593376,16.2854244 C31.1593376,16.2854244 30.7519035,16.2533859 30.7519035,15.8376399 L30.7519035,11.6188232 C30.7519035,10.7876334 30.0718392,10.1075691 29.2406495,10.1075691 L26.735746,10.1075691 C25.9045563,10.1075691 25.224492,10.7876334 25.224492,11.6188232 L25.224492,15.8093794 C25.224492,16.2532347 24.7933312,16.2852733 24.7933312,16.2852733 L20.5580418,16.2852733 C19.7268521,16.2852733 19.0467878,16.9653376 19.0467878,17.7965273 L19.0467878,20.3014309 C19.0467878,21.1326206 19.7268521,21.8126849 20.5580418,21.8126849 L24.7618971,21.8126849 C24.7618971,21.8126849 25.224492,21.8258328 25.224492,22.2666656 L25.224492,26.4792862 C25.224492,27.3104759 25.9045563,27.9905402 26.735746,27.9905402 L29.2406495,27.9905402 C30.0718392,27.9905402 30.7519035,27.3104759 30.7519035,26.4792862 L30.7519035,22.2414277 C30.7519035,21.8352026 31.2160096,21.8126849 31.2160096,21.8126849 L35.4186559,21.8126849 C36.2498457,21.8126849 36.92991,21.1326206 36.92991,20.3014309 L36.92991,17.7965273 C36.9297588,16.9654887 36.2496945,16.2854244 35.4185048,16.2854244 L31.1593376,16.2854244 Z" id="Shape"></path>
                    </g>
                </g>
            </g>
        </g>
    </g>
</svg>