<?xml version="1.0" encoding="UTF-8"?>
<svg width="38px" height="39px" viewBox="0 0 38 39" version="1.1" xmlns="http://www.w3.org/2000/svg" xmlns:xlink="http://www.w3.org/1999/xlink">
    <!-- Generator: Sketch 52.5 (67469) - http://www.bohemiancoding.com/sketch -->
    <title>icon_Whatsapp</title>
    <desc>Created with Sketch.</desc>
    <g id="study-8" stroke="none" stroke-width="1" fill="none" fill-rule="evenodd">
        <g id="overlay" transform="translate(-33.000000, -293.000000)">
            <g id="icon_Whatsapp" transform="translate(33.000000, 293.000000)">
                <path d="M10.1550167,35.8199926 L4.73906364,38.2270828 C4.55392778,38.3093654 4.34816585,38.3334739 4.1490238,38.296216 C3.60615843,38.1946501 3.24841455,37.6722353 3.34998047,37.1293699 L4.4546528,31.2249454 C1.67472689,27.9208023 0,23.6559778 0,19 C0,8.50658975 8.50658975,0 19,0 C29.4934102,0 38,8.50658975 38,19 C38,29.4934102 29.4934102,38 19,38 C15.8063753,38 12.7967825,37.2120658 10.1550167,35.8199926 Z" id="Combined-Shape" fill="#55CD6C"></path>
                <path d="M12.6581593,9.07303215 L11.2979006,9 C10.8682983,9 10.4387771,9.14606429 10.1524025,9.43811017 C9.50803961,10.0222019 8.43415546,11.1173533 8.14778094,12.5776654 C7.64664582,14.7680509 8.43415546,17.3964638 10.2956304,20.0248767 C12.1571053,22.6532896 15.7368272,26.8879962 22.0370666,28.7133036 C24.0416882,29.2973954 25.6167886,28.9323174 26.9055144,28.1292119 C27.9078658,27.472088 28.5521476,26.4499687 28.7669893,25.3547347 L28.9817499,24.3325327 C29.0533638,24.0404869 28.910136,23.6754088 28.6237615,23.5294272 L24.1133021,21.4120739 C23.8269276,21.2660096 23.4689391,21.3390418 23.2541785,21.6310877 L21.4643175,23.9674547 C21.3210897,24.113519 21.1063291,24.1864684 20.8915685,24.113519 C19.6744565,23.6754088 15.5935994,21.9231335 13.3741361,17.5424454 C13.3025222,17.3234316 13.3025222,17.1043352 13.44575,16.9583536 L15.1639971,14.9870646 C15.3072249,14.7680509 15.3787577,14.476005 15.3072249,14.2569085 L13.2309894,9.51114232 C13.1592944,9.29204588 12.9445338,9.07303215 12.6581593,9.07303215" id="Path" fill="#FEFEFE"></path>
            </g>
        </g>
    </g>
</svg>