<?xml version="1.0" encoding="UTF-8"?>
<svg width="18px" height="18px" viewBox="0 0 18 18" version="1.1" xmlns="http://www.w3.org/2000/svg" xmlns:xlink="http://www.w3.org/1999/xlink">
    <!-- Generator: Sketch 56.2 (81672) - https://sketch.com -->
    <title>icon_cart_shortlist_empty</title>
    <desc>Created with Sketch.</desc>
    <g id="icon_cart_shortlist_empty" stroke="none" stroke-width="1" fill="none" fill-rule="evenodd">
        <g id="Group-12">
            <path d="M9.00000916,13.0206145 L12.4052879,9.57718211 C12.4628195,9.52003041 12.5258626,9.45442946 12.6065449,9.36250717 C12.7404596,9.20993644 12.8729048,9.03995797 12.9963069,8.85497344 C13.3525464,8.32095651 13.5625,7.77095396 13.5625,7.2421875 C13.5625,5.76493126 12.7573125,4.9375 11.3325893,4.9375 C10.6842881,4.9375 9.96122551,5.39929099 9.31488385,6.06935911 L9,6.39580199 L8.68511615,6.06935911 C8.03877449,5.39929099 7.31571193,4.9375 6.66741071,4.9375 C5.2426875,4.9375 4.4375,5.76493126 4.4375,7.2421875 C4.4375,8.1468442 5.03389728,9.05402037 5.58366908,9.55982959 L9.00000916,13.0206145 Z M9.06895894,13.0904613 L9.07127463,13.0928071 C9.07051666,13.0920112 9.0697446,13.0912293 9.06895902,13.0904614 Z" id="-copy-2" stroke="#828B95" stroke-width="0.875" fill-rule="nonzero"></path>
            <rect id="Rectangle-Copy" stroke="#C0C5C9" x="0.5" y="0.5" width="17" height="17" rx="2"></rect>
        </g>
    </g>
</svg>