<svg width="1439" height="1187" viewBox="0 0 1439 1187" fill="none" xmlns="http://www.w3.org/2000/svg">
<path fill-rule="evenodd" clip-rule="evenodd" d="M398.5 1148C510.338 1148 601 1057.34 601 945.5C601 833.662 510.338 743 398.5 743C286.662 743 196 833.662 196 945.5C196 1057.34 286.662 1148 398.5 1148ZM398.5 1050C456.214 1050 503 1003.21 503 945.5C503 887.786 456.214 841 398.5 841C340.786 841 294 887.786 294 945.5C294 1003.21 340.786 1050 398.5 1050Z" fill="black"/>
<path fill-rule="evenodd" clip-rule="evenodd" d="M1093.5 1148C1205.34 1148 1296 1057.34 1296 945.5C1296 833.662 1205.34 743 1093.5 743C981.662 743 891 833.662 891 945.5C891 1057.34 981.662 1148 1093.5 1148ZM1093.5 1050C1151.21 1050 1198 1003.21 1198 945.5C1198 887.786 1151.21 841 1093.5 841C1035.79 841 989 887.786 989 945.5C989 1003.21 1035.79 1050 1093.5 1050Z" fill="black"/>
<path fill-rule="evenodd" clip-rule="evenodd" d="M550 50C521.833 50 499 72.8335 499 101V895C499 923.167 521.833 946 550 946H964V810H1242V946H1340C1368.17 946 1391 923.167 1391 895V101C1391 72.8335 1368.17 50 1340 50H550Z" fill="black"/>
<rect x="50" y="836" width="212" height="105" rx="52.5" fill="black"/>
<rect x="97" y="546" width="420" height="295" fill="black"/>
<path d="M198 514V556.5H99.5V514C99.5 490.5 116.5 456.5 141.5 431.5L292.5 280.5C328 245 365.5 249 395 249H521V344.5H365.5L198 514Z" fill="black"/>
</svg>
