<?xml version="1.0" encoding="utf-8"?>
<!-- Generator: Adobe Illustrator 23.0.6, SVG Export Plug-In . SVG Version: 6.00 Build 0)  -->
<svg version="1.1" id="Layer_1" xmlns="http://www.w3.org/2000/svg" xmlns:xlink="http://www.w3.org/1999/xlink" x="0px" y="0px"
	 viewBox="0 0 442 446" style="enable-background:new 0 0 442 446;" xml:space="preserve">
<style type="text/css">
	.st0{fill:#FFFFFF;}
</style>
<title>Artboard</title>
<desc>Created with Sketch.</desc>
<g>
	<defs>
		<rect id="SVGID_1_" width="442" height="446"/>
	</defs>
	<use xlink:href="#SVGID_1_"  style="overflow:visible;fill:#FF0032;"/>
	<clipPath id="SVGID_2_">
		<use xlink:href="#SVGID_1_"  style="overflow:visible;"/>
	</clipPath>
</g>
<g>
	<path class="st0" d="M323,287.1h-23.3c-8.9,0-11.7,3.3-11.7,11.1c-1.7,35-28.9,63.9-66.1,63.9c-36.1,0-64.4-28.9-66.1-63.9
		c0-7.8-2.8-11.1-11.7-11.1h-23.3c-8.3,0-11.1,3.3-11.1,10.6c0,58.3,48.9,107.7,112.2,107.7c63.3,0,112.2-49.4,112.2-107.7
		C334.1,290.5,331.3,287.1,323,287.1z M221.9,231.6c-36.1,0-65.5-29.4-65.5-65.5c0-36.1,29.4-65.5,65.5-65.5
		c36.1,0,65.5,29.4,65.5,65.5C287.5,202.2,258,231.6,221.9,231.6z M339.1,45c-3.3-3.3-5.6-4.4-8.3-4.4c-3.3,0-5.6,1.1-9.4,5
		l-33.9,31.7c-18.3-12.8-41.1-20-65.5-20c-60.5,0-111.1,45-111.1,108.8c0,63.9,50.5,108.8,111.1,108.8c60.5,0,111.1-45,111.1-108.8
		c0-20-5-38.3-13.3-53.9l34.4-33.3c3.9-3.3,4.4-6.7,4.4-8.9c0-3.3-1.1-5-5-9.4L339.1,45z"/>
</g>
</svg>
