<?xml version="1.0" encoding="UTF-8"?>
<svg width="19px" height="19px" viewBox="0 0 19 19" version="1.1" xmlns="http://www.w3.org/2000/svg" xmlns:xlink="http://www.w3.org/1999/xlink">
    <!-- Generator: Sketch 52.6 (67491) - http://www.bohemiancoding.com/sketch -->
    <title>icon_Cuisine</title>
    <desc>Created with Sketch.</desc>
    <g id="icon_Cuisine" stroke="none" stroke-width="1" fill="none" fill-rule="evenodd">
        <rect id="Rectangle-Copy-26" x="0" y="0" width="19" height="19"></rect>
        <path d="M9.5,1.5 C13.9166667,1.5 17.5,5.08333333 17.5,9.5 C17.5,13.9166667 13.9166667,17.5 9.5,17.5 C5.08333333,17.5 1.5,13.9166667 1.5,9.5 C1.5,5.08333333 5.08333333,1.5 9.5,1.5 Z M12.6459797,6.9895416 C12.7188754,6.96880572 12.8125418,7.01038879 12.875,6.96875 C13.0104167,6.875 12.9166667,6.83333333 12.8020833,6.80208333 C12.65625,6.76041667 12.46875,6.85416667 12.3541667,6.92708333 C12.2857776,6.97837513 12.2384353,7.06474492 12.16608,7.10558795 C12.1865569,7.04577932 12.2249642,6.91879769 12.25,6.88541667 C12.3125,6.8125 12.3958333,6.77083333 12.4791667,6.72916667 C12.65625,6.65625 12.8333333,6.63541667 13.0208333,6.60416667 C13.1973342,6.56263705 13.4152281,6.56250045 13.5507444,6.71721329 C13.5284654,6.68082595 13.7713136,6.46858992 13.8020833,6.45833333 C13.8958333,6.40625 14.0520833,6.42708333 14.1145833,6.33333333 C14.1354167,6.30208333 14.1354167,6.10416667 14.1354167,6.10416667 C13.959922,6.1248131 13.896964,5.96130865 13.8857096,5.81642979 C13.8852744,5.82312979 13.8644413,5.85430867 13.8229167,5.89583333 C13.8333333,5.73958333 13.6354167,5.85416667 13.5625,5.83333333 C13.3229167,5.77083333 13.3541667,5.60416667 13.28125,5.42708333 C13.2395833,5.33333333 13.125,5.30208333 13.0833333,5.20833333 C13.0416667,5.14583333 13.0208333,5.01041667 12.9270833,5 C12.8645833,4.98958333 12.75,5.21875 12.7291667,5.20833333 C12.6354167,5.15625 12.59375,5.22916667 12.5208333,5.27083333 C12.4637862,5.30886477 12.4154174,5.29482616 12.3598845,5.31585064 C12.5103117,5.25492469 12.2676563,5.16090201 12.172459,5.17598834 C12.3121898,5.13475234 12.2394061,4.97901157 12.15625,4.90625 L12.2083333,4.90625 C12.1875,4.8125 11.8958333,4.72916667 11.8020833,4.66666667 C11.7083333,4.60416667 11.2083333,4.5 11.1041667,4.5625 C10.9791667,4.63541667 11.1354167,4.84375 11.1354167,4.94791667 C11.1458333,5.07291667 11.0104167,5.10416667 11.0104167,5.20833333 C11.0104167,5.38541667 11.34375,5.35416667 11.2604167,5.59375 C11.2083333,5.73958333 11.0104167,5.77083333 10.9270833,5.88541667 C10.84375,5.98958333 10.9375,6.17708333 11.0208333,6.25 C11.1041667,6.3125 10.875,6.41666667 10.84375,6.4375 C10.6666667,6.52083333 10.53125,6.26041667 10.4895833,6.10416667 C10.4583333,5.98958333 10.4479167,5.85416667 10.3229167,5.79166667 C10.2604167,5.77083333 10.0625,5.73958333 10.0208333,5.80208333 C9.95833333,5.64583333 9.73958333,5.58333333 9.59375,5.53125 C9.38541667,5.45833333 9.20833333,5.45833333 8.98958333,5.48958333 C9.0625,5.47916667 8.96875,5.15625 8.79166667,5.20833333 C8.84375,5.10416667 8.82291667,4.98958333 8.84375,4.88541667 C8.86458333,4.80208333 8.90625,4.71875 8.96875,4.64583333 C8.98958333,4.60416667 9.21875,4.36458333 9.14583333,4.35416667 C9.32291667,4.375 9.52083333,4.38541667 9.66666667,4.23958333 C9.76041667,4.14583333 9.80208333,3.98958333 9.89583333,3.88541667 C10.03125,3.72916667 10.1979167,3.92708333 10.34375,3.9375 C10.5520833,3.94791667 10.5416667,3.71875 10.4270833,3.61458333 C10.5625,3.625 10.4479167,3.375 10.375,3.34375 C10.2813304,3.31252681 9.92769094,3.4060892 10.1141019,3.47897892 C10.0710733,3.46216608 9.82237859,3.97820582 9.67708333,3.71875 C9.63541667,3.66666667 9.61458333,3.44791667 9.52083333,3.4375 C9.44141904,3.4375 9.39038458,3.52263951 9.3587149,3.58473782 C9.40568516,3.45817929 9.06244007,3.36457477 8.98958333,3.35416667 C9.14583333,3.25 9.02083333,3.13541667 8.90625,3.07291667 C8.82291667,3.02083333 8.5625,2.97916667 8.48958333,3.0625 C8.29166667,3.30208333 8.69791667,3.33333333 8.80208333,3.39583333 C8.83333333,3.41666667 8.95833333,3.48958333 8.88541667,3.54166667 C8.82291667,3.57291667 8.63541667,3.625 8.61458333,3.66666667 C8.55208333,3.76041667 8.6875,3.86458333 8.59375,3.95833333 C8.50205424,3.86663757 8.50004501,3.71515078 8.43177328,3.61108793 C8.50087299,3.71608798 8.05230758,3.65625 8.0625,3.65625 C7.90625,3.65625 7.65625,3.76041667 7.54166667,3.60416667 C7.52098103,3.56279539 7.52083438,3.32630375 7.58201347,3.37393608 C7.48899938,3.30140273 7.42679135,3.22897201 7.36458333,3.1875 C7.02083333,3.30208333 6.69791667,3.44791667 6.38541667,3.61458333 C6.42708333,3.625 6.45833333,3.625 6.51041667,3.60416667 C6.59375,3.57291667 6.66666667,3.52083333 6.75,3.47916667 C6.85416667,3.4375 7.07291667,3.3125 7.1875,3.40625 C7.19791667,3.38541667 7.22916667,3.36458333 7.23958333,3.35416667 C7.3125,3.4375 7.38541667,3.52083333 7.44791667,3.61458333 C7.36458333,3.57291667 7.22916667,3.59375 7.13541667,3.60416667 C7.0625,3.625 6.9375,3.64583333 6.90625,3.72916667 C6.9375,3.78125 6.97916667,3.86458333 6.95833333,3.91666667 C6.82291667,3.82291667 6.71875,3.66666667 6.53125,3.64583333 C6.44791667,3.64583333 6.36458333,3.64583333 6.30208333,3.65625 C5.30208333,4.20833333 4.45833333,5.01041667 3.85416667,5.96875 C3.89583333,6.01041667 3.9375,6.04166667 3.97916667,6.05208333 C4.08333333,6.08333333 3.97916667,6.38541667 4.17708333,6.22916667 C4.23958333,6.28125 4.25,6.35416667 4.20833333,6.42708333 C4.21875,6.41666667 4.63541667,6.6875 4.66666667,6.70833333 C4.73958333,6.77083333 4.85416667,6.84375 4.88541667,6.92708333 C4.90625,7 4.84375,7.08333333 4.78125,7.11458333 C4.77083333,7.09375 4.61458333,6.9375 4.59375,6.97916667 C4.56260487,7.03107522 4.59354096,7.31061493 4.70718258,7.30217837 C4.5419927,7.31539024 4.61449002,7.95861329 4.57291667,8.08333333 C4.57291667,8.09375 4.59375,8.09375 4.59375,8.09375 C4.56256645,8.21848419 4.66622427,8.70625283 4.87367238,8.65657492 C4.74206169,8.69066641 5.11475569,9.16677008 5.16666667,9.19791667 C5.30208333,9.29166667 5.45833333,9.35416667 5.55208333,9.48958333 C5.65625,9.63541667 5.65625,9.85416667 5.80208333,9.96875 C5.76041667,10.09375 6.02083333,10.2395833 6.01041667,10.4166667 C5.98958333,10.4270833 5.97916667,10.4270833 5.95833333,10.4375 C6.01041667,10.5833333 6.20833333,10.5833333 6.28125,10.71875 C6.32291667,10.8020833 6.28125,11 6.41666667,10.9583333 C6.4375,10.7291667 6.28125,10.5 6.16666667,10.3125 C6.10416667,10.2083333 6.04166667,10.1145833 5.98958333,10.0104167 C5.9375,9.91666667 5.92708333,9.80208333 5.88541667,9.69791667 C5.92708333,9.70833333 6.15625,9.79166667 6.13541667,9.82291667 C6.05208333,10.03125 6.46875,10.3958333 6.58333333,10.53125 C6.61458333,10.5625 6.85416667,10.875 6.72916667,10.875 C6.86458333,10.875 7.05208333,11.0833333 7.11458333,11.1875 C7.20833333,11.34375 7.1875,11.5416667 7.25,11.7083333 C7.3125,11.9166667 7.60416667,12.0104167 7.77083333,12.1041667 C7.91666667,12.1770833 8.04166667,12.28125 8.1875,12.3333333 C8.40625,12.4166667 8.45833333,12.34375 8.64583333,12.3125 C8.91666667,12.2708333 8.94791667,12.5729167 9.16666667,12.6875 C9.30179899,12.7602636 9.59252581,12.864146 9.73866275,12.8024748 C9.67998915,12.8273292 9.95844121,13.2501618 9.97916667,13.28125 C10.0729167,13.40625 10.25,13.46875 10.3541667,13.59375 C10.3838903,13.5739343 10.4136139,13.5446946 10.4254103,13.506031 C10.392059,13.6218863 10.5850883,13.8329823 10.6875,13.8125 C10.8020833,13.7916667 10.8333333,13.5625 10.8333333,13.4791667 C10.625,13.5833333 10.4375,13.5 10.3229167,13.2916667 C10.3020833,13.2395833 10.1354167,12.9479167 10.28125,12.9479167 C10.4791667,12.9479167 10.34375,12.7916667 10.3229167,12.6458333 C10.3020833,12.5 10.15625,12.40625 10.0833333,12.28125 C10.0208333,12.40625 9.8125,12.375 9.75,12.2708333 C9.75,12.3020833 9.71875,12.3541667 9.71875,12.3958333 C9.66666667,12.3958333 9.61458333,12.40625 9.5625,12.3854167 C9.58333333,12.2604167 9.59375,12.1041667 9.625,11.96875 C9.67708333,11.78125 10.0208333,11.4166667 9.57291667,11.4375 C9.41666667,11.4479167 9.35416667,11.5104167 9.30208333,11.6458333 C9.25,11.7708333 9.27083333,11.8854167 9.125,11.9479167 C9.03125,11.9895833 8.71875,11.96875 8.625,11.9166667 C8.42708333,11.8020833 8.29166667,11.4375 8.29166667,11.2291667 C8.28125,10.9479167 8.42708333,10.6979167 8.29166667,10.4375 C8.35416667,10.3854167 8.41666667,10.28125 8.48958333,10.2291667 C8.55208333,10.1875 8.625,10.2604167 8.65625,10.1354167 C8.6278657,10.1164938 8.59088761,10.0803833 8.57653861,10.0739196 C8.73446237,10.1426335 9.0220657,9.96969797 9.15625,10.0729167 C9.23958333,10.1354167 9.33333333,10.15625 9.38541667,10.0520833 C9.39583333,10.0208333 9.3125,9.89583333 9.35416667,9.8125 C9.38541667,9.98958333 9.5,10.0208333 9.65625,9.90625 C9.71875,9.96875 9.88541667,9.94791667 10,10.0104167 C10.1145833,10.0833333 10.1354167,10.1979167 10.2708333,10.0416667 C10.3541667,10.1666667 10.3645833,10.1666667 10.3958333,10.2916667 C10.4270833,10.40625 10.4895833,10.6979167 10.59375,10.75 C10.8125,10.8854167 10.7604167,10.5208333 10.7395833,10.3958333 C10.7291667,10.3854167 10.7291667,10.0416667 10.71875,10.0416667 C10.3854167,9.96875 10.5104167,9.70833333 10.6979167,9.53125 C10.7291667,9.51041667 10.96875,9.42708333 11.0729167,9.34375 C11.1666667,9.26041667 11.28125,9.11458333 11.2291667,8.97916667 C11.28125,8.97916667 11.3229167,8.9375 11.34375,8.88541667 C11.3133961,8.87529871 11.1945919,8.77673043 11.1687112,8.78063163 C11.239536,8.73930025 11.2290723,8.67694179 11.1875,8.61458333 C11.2916667,8.55208333 11.2395833,8.4375 11.34375,8.39583333 C11.4583333,8.55208333 11.6875,8.375 11.5729167,8.25 C11.6770833,8.10416667 11.9166667,8.17708333 11.9791667,8.04166667 C12.1354167,8.08333333 12.0208333,7.88541667 12.1041667,7.77083333 C12.1770833,7.67708333 12.3020833,7.67708333 12.3958333,7.625 C12.3958333,7.63541667 12.65625,7.47916667 12.5729167,7.46875 C12.75,7.48958333 13.1041667,7.30208333 12.8333333,7.14583333 C12.8736002,7.05523282 12.748482,7.013275 12.6554146,6.99175472 L12.6459797,6.9895416 Z M11.0013432,13.5185671 C11.0416728,13.7660729 11.0422324,14.0235489 11.09375,14.2708333 C11.125,14.4166667 11.09375,14.65625 10.96875,14.7708333 C10.84375,14.8854167 10.6875,15.0104167 10.6666667,15.1875 C10.6458333,15.3125 10.6770833,15.4270833 10.7916667,15.4583333 C10.8020833,15.6145833 10.625,15.7291667 10.6354167,15.8958333 C10.6354167,15.90625 10.6458333,16.0104167 10.65625,16.0625 C12.0833333,15.8125 13.3541667,15.1041667 14.3125,14.09375 C14.25,14.03125 14.1354167,14.0520833 14.0520833,14.0104167 C13.96875,13.9791667 13.90625,13.9479167 13.8020833,13.9270833 C13.8229167,13.71875 13.59375,13.6458333 13.4479167,13.5416667 C13.3125,13.4375 13.2291667,13.3229167 13.03125,13.3645833 C13.0104167,13.375 12.8020833,13.4479167 12.84375,13.4895833 C12.7083333,13.375 12.6458333,13.3125 12.46875,13.2604167 C12.3020833,13.2083333 12.1875,13 12.0208333,13.1875 C11.9719991,13.2363343 11.9660909,13.2994772 11.9611836,13.3601588 C11.9372216,13.27351 12.0270066,13.1865746 11.9583333,13.1041667 C11.8333333,12.9583333 11.6145833,13.1979167 11.5104167,13.2604167 C11.4479167,13.3125 11.375,13.3333333 11.3333333,13.3958333 C11.28125,13.46875 11.2604167,13.5625 11.21875,13.6354167 C11.1915734,13.5629457 11.0541041,13.5692553 11.0118767,13.5310247 L11.0013432,13.5185671 Z" id="Shape" fill="#333D47"></path>
    </g>
</svg>