<?xml version="1.0" encoding="UTF-8"?>
<svg width="40px" height="40px" viewBox="0 0 40 40" version="1.1" xmlns="http://www.w3.org/2000/svg" xmlns:xlink="http://www.w3.org/1999/xlink">
    <!-- Generator: Sketch 52.5 (67469) - http://www.bohemiancoding.com/sketch -->
    <title>icon_Text-message</title>
    <desc>Created with Sketch.</desc>
    <g id="study-8" stroke="none" stroke-width="1" fill="none" fill-rule="evenodd">
        <g id="overlay-v2" transform="translate(-32.000000, -211.000000)" fill-rule="nonzero">
            <g id="Group-2" transform="translate(32.000000, 211.000000)">
                <rect id="Bounding-box" x="0" y="0" width="40" height="40"></rect>
                <path d="M22,24 L20,27 L18,24 L15,24 C13.3431458,24 12,22.6568542 12,21 L12,16 C12,14.3431458 13.3431458,13 15,13 L25,13 C26.6568542,13 28,14.3431458 28,16 L28,21 C28,22.6568542 26.6568542,24 25,24 L22,24 Z M9,30 L31,30 L31,8 L9,8 L9,30 Z M9,32 L9,35 C9,36.6568542 10.3431458,38 12,38 L28,38 C29.6568542,38 31,36.6568542 31,35 L31,32 L9,32 Z M9,6 L31,6 L31,5 C31,3.34314575 29.6568542,2 28,2 L12,2 C10.3431458,2 9,3.34314575 9,5 L9,6 Z M12,2.66453526e-13 L28,2.66453526e-13 C30.7614237,2.66453526e-13 33,2.23857625 33,5 L33,35 C33,37.7614237 30.7614237,40 28,40 L12,40 C9.23857625,40 7,37.7614237 7,35 L7,5 C7,2.23857625 9.23857625,2.66453526e-13 12,2.66453526e-13 Z M15,15 C14.4477153,15 14,15.4477153 14,16 L14,21 C14,21.5522847 14.4477153,22 15,22 L25,22 C25.5522847,22 26,21.5522847 26,21 L26,16 C26,15.4477153 25.5522847,15 25,15 L15,15 Z M17,3 L23,3 C23.5522847,3 24,3.44771525 24,4 C24,4.55228475 23.5522847,5 23,5 L17,5 C16.4477153,5 16,4.55228475 16,4 C16,3.44771525 16.4477153,3 17,3 Z M20,37 C18.8954305,37 18,36.1045695 18,35 C18,33.8954305 18.8954305,33 20,33 C21.1045695,33 22,33.8954305 22,35 C22,36.1045695 21.1045695,37 20,37 Z" id="icon_Text-message" fill="#333D47"></path>
            </g>
        </g>
    </g>
</svg>
