<svg width="17" height="18" viewBox="0 0 17 18" fill="none" xmlns="http://www.w3.org/2000/svg">
<rect y="2.5" width="4" height="2" rx="1" fill="white"/>
<rect y="8" width="4" height="2" rx="1" fill="white"/>
<rect y="13.5" width="4" height="2" rx="1" fill="white"/>
<path fill-rule="evenodd" clip-rule="evenodd" d="M2 1C2 0.447716 2.44772 0 3 0H11V5.5L12.5 4.28571L14 5.5V0H16C16.5523 0 17 0.447715 17 1V17C17 17.5523 16.5523 18 16 18H3C2.44772 18 2 17.5523 2 17V16.5004H3.00003C4.1046 16.5004 5.00003 15.605 5.00003 14.5004C5.00003 13.3959 4.1046 12.5004 3.00003 12.5004H2V10.9996H3.00003C4.1046 10.9996 5.00003 10.1041 5.00003 8.99957C5.00003 7.895 4.1046 6.99957 3.00003 6.99957H2V5.5H3.00003C4.1046 5.5 5.00003 4.60457 5.00003 3.5C5.00003 2.39543 4.1046 1.5 3.00003 1.5H2V1ZM2 15.5004V13.5004H3.00003C3.55232 13.5004 4.00003 13.9481 4.00003 14.5004C4.00003 15.0527 3.55232 15.5004 3.00003 15.5004H2ZM3.00003 9.99957H2V7.99957H3.00003C3.55232 7.99957 4.00003 8.44729 4.00003 8.99957C4.00003 9.55186 3.55232 9.99957 3.00003 9.99957ZM2 4.5V2.5H3.00003C3.55232 2.5 4.00003 2.94772 4.00003 3.5C4.00003 4.05228 3.55232 4.5 3.00003 4.5H2Z" fill="white"/>
</svg>
