<?xml version="1.0" encoding="UTF-8"?>
<svg width="40px" height="40px" viewBox="0 0 40 40" version="1.1" xmlns="http://www.w3.org/2000/svg" xmlns:xlink="http://www.w3.org/1999/xlink">
    <!-- Generator: Sketch 52.5 (67469) - http://www.bohemiancoding.com/sketch -->
    <title>icon_Whatsapp</title>
    <desc>Created with Sketch.</desc>
    <g id="study-8" stroke="none" stroke-width="1" fill="none" fill-rule="evenodd">
        <g id="overlay-v2" transform="translate(-32.000000, -292.000000)">
            <g id="icon_Whatsapp" transform="translate(32.000000, 292.000000)">
                <rect id="Bounding-box" fill-rule="nonzero" x="0" y="0" width="40" height="40"></rect>
                <path d="M11.1550167,36.8199926 L5.73906364,39.2270828 C5.55392778,39.3093654 5.34816585,39.3334739 5.1490238,39.296216 C4.60615843,39.1946501 4.24841455,38.6722353 4.34998047,38.1293699 L5.4546528,32.2249454 C2.67472689,28.9208023 1,24.6559778 1,20 C1,9.50658975 9.50658975,1 20,1 C30.4934102,1 39,9.50658975 39,20 C39,30.4934102 30.4934102,39 20,39 C16.8063753,39 13.7967825,38.2120658 11.1550167,36.8199926 Z" id="Combined-Shape" fill="#55CD6C"></path>
                <path d="M13.6581593,10.0730321 L12.2979006,10 C11.8682983,10 11.4387771,10.1460643 11.1524025,10.4381102 C10.5080396,11.0222019 9.43415546,12.1173533 9.14778094,13.5776654 C8.64664582,15.7680509 9.43415546,18.3964638 11.2956304,21.0248767 C13.1571053,23.6532896 16.7368272,27.8879962 23.0370666,29.7133036 C25.0416882,30.2973954 26.6167886,29.9323174 27.9055144,29.1292119 C28.9078658,28.472088 29.5521476,27.4499687 29.7669893,26.3547347 L29.9817499,25.3325327 C30.0533638,25.0404869 29.910136,24.6754088 29.6237615,24.5294272 L25.1133021,22.4120739 C24.8269276,22.2660096 24.4689391,22.3390418 24.2541785,22.6310877 L22.4643175,24.9674547 C22.3210897,25.113519 22.1063291,25.1864684 21.8915685,25.113519 C20.6744565,24.6754088 16.5935994,22.9231335 14.3741361,18.5424454 C14.3025222,18.3234316 14.3025222,18.1043352 14.44575,17.9583536 L16.1639971,15.9870646 C16.3072249,15.7680509 16.3787577,15.476005 16.3072249,15.2569085 L14.2309894,10.5111423 C14.1592944,10.2920459 13.9445338,10.0730321 13.6581593,10.0730321" id="Path" fill="#FEFEFE"></path>
            </g>
        </g>
    </g>
</svg>
