<?xml version="1.0" encoding="UTF-8"?>
<svg width="40px" height="40px" viewBox="0 0 40 40" version="1.1" xmlns="http://www.w3.org/2000/svg" xmlns:xlink="http://www.w3.org/1999/xlink">
    <!-- Generator: Sketch 52.5 (67469) - http://www.bohemiancoding.com/sketch -->
    <title>messanger</title>
    <desc>Created with Sketch.</desc>
    <g id="study-8" stroke="none" stroke-width="1" fill="none" fill-rule="evenodd">
        <g id="overlay" transform="translate(-35.000000, -376.000000)">
            <g id="Group-4" transform="translate(35.000000, 376.000000)">
                <g id="messanger">
                    <path d="M19.962963,0.00389863548 C9.17504873,-0.208810916 0.248265107,8.34604288 0.00194931774,19.1331774 C0.0300974659,24.6242495 2.46152047,29.8276803 6.65559454,33.3720078 L6.65559454,39.094191 C6.65559454,39.5535283 7.0279922,39.9259259 7.48732943,39.9259259 C7.64319688,39.9259259 7.79594542,39.8821053 7.92810916,39.7995322 L12.5640546,36.9035478 C14.9260039,37.8069396 17.434152,38.2676023 19.962963,38.2625341 C30.7508772,38.4752437 39.6776608,29.9203899 39.9239766,19.1332554 C39.6776608,8.34604288 30.7508772,-0.208810916 19.962963,0.00389863548 Z" id="Path" fill="#2196F3"></path>
                    <path d="M33.1039376,13.6438986 C32.8564522,13.3122027 32.402729,13.2129435 32.0393762,13.4109942 L23.3896296,18.1267836 L18.008499,13.5124366 C17.6785185,13.2295517 17.1863548,13.2483431 16.8790643,13.5557115 L6.8985575,23.5362183 C6.57473684,23.8619883 6.5762963,24.388616 6.90214425,24.7124366 C7.16265107,24.971384 7.56210526,25.0287719 7.88499025,24.8536452 L16.5347368,20.1378558 L21.9208577,24.7538402 C22.2508382,25.0367251 22.7430019,25.0179337 23.0502924,24.7105653 L33.0307992,14.7300585 C33.3216374,14.4364912 33.3528265,13.9738791 33.1039376,13.6438986 Z" id="Path" fill="#FAFAFA"></path>
                </g>
            </g>
        </g>
    </g>
</svg>