<?xml version="1.0" encoding="UTF-8"?>
<svg width="231px" height="142px" viewBox="0 0 231 142" version="1.1" xmlns="http://www.w3.org/2000/svg" xmlns:xlink="http://www.w3.org/1999/xlink">
    <!-- Generator: Sketch 52.5 (67469) - http://www.bohemiancoding.com/sketch -->
    <title>refer-box</title>
    <desc>Created with Sketch.</desc>
    <g id="refer-box" stroke="none" stroke-width="1" fill="none" fill-rule="evenodd">
        <g id="raf-icon" fill-rule="nonzero">
            <g id="box-illustration" transform="translate(106.412527, 0.000000)" fill="#F6323E">
                <g id="Group-31" transform="translate(0.062574, 0.358347)">
                    <path d="M37.0218429,22.0699903 C41.8613159,18.3424255 48.5405548,17.5729096 54.0656314,20.6501206 C61.5074764,24.7936333 63.3004238,34.0910577 59.7239812,41.9873841 C59.7239812,41.9873841 59.0328762,44.0580738 56.3326932,46.9739538 C52.6559141,50.945322 47.7958892,53.5849041 42.5873127,54.7655505 L15.1629005,60.7576245 L6.32497783,34.5712541 C4.62337925,29.5437116 4.35976091,24.049002 5.85623402,18.8637854 C6.95527869,15.0565327 8.37417452,13.3919794 8.37417452,13.3919794 C13.2974109,6.2440428 22.2236633,2.91698567 29.6655097,7.06201795 C35.1921178,10.1392299 37.7029526,16.0257713 37.0218429,22.0699903" id="Fill-6" transform="translate(33.188051, 33.003992) rotate(-10.000000) translate(-33.188051, -33.003992) "></path>
                    <path d="M95.0816205,5.03901391 C96.3714355,2.20997525 99.2007565,0.280394633 102.434485,0.362439769 C106.789526,0.471833343 109.830241,4.24439136 110.112101,8.65811712 C110.112101,8.65811712 110.297455,9.75661064 109.779691,11.7120203 C109.073509,14.3769685 107.512557,16.7198137 105.444564,18.4868232 L94.5041143,27.6865168 L84.2269541,17.95353 C82.2508717,16.0862429 80.8124676,13.6674299 80.2426206,10.9705752 C79.8244264,8.9908558 80.0649263,7.90299779 80.0649263,7.90299779 C80.5719676,3.51054296 83.8026325,-0.105521519 88.157673,0.00235269062 C91.3898697,0.0843978267 93.9373309,2.14768169 95.0816205,5.03901391" id="Fill-8"></path>
                    <path d="M109.109503,47.4085672 C109.296388,44.8332607 110.946187,42.5208027 113.492116,41.6638866 C116.921921,40.5076575 120.388491,42.5861349 121.886637,45.9484671 C121.886637,45.9484671 122.349254,46.7537252 122.511631,48.4280542 C122.732216,50.7086058 122.194538,52.9815607 121.091608,54.9491251 L115.220039,65.2457928 L104.37916,60.5798541 C102.29738,59.6864735 100.474482,58.2081412 99.2490049,56.2664058 C98.348279,54.8412509 98.2211357,53.9235606 98.2211357,53.9235606 C97.3433875,50.3500381 98.8170241,46.6078671 102.246829,45.4516381 C104.79429,44.594722 107.380048,45.4789865 109.109503,47.4085672" id="Fill-10"></path>
                </g>
            </g>
            <g id="Group" transform="translate(0.333817, 47.942312)">
                <g id="package">
                    <path d="M4.06464437,7.16309801 L50.7294796,17.1093376 C52.5403628,17.4170362 53.573032,17.6952386 54.0151224,17.675798 C54.5031092,17.6530055 55.2398141,17.3851937 58.1609854,16.7992927 L104.826833,7.16242765 C106.942455,6.72601854 108.54208,7.72285471 108.54208,10.008472 L108.54208,70.6019663 C108.54208,72.8885892 106.870911,75.3491724 104.826833,76.0701524 L58.1609854,92.5273343 C57.68751,92.6935854 57.233608,92.7539185 56.8164907,92.7163779 C56.709849,92.7237519 56.6028699,92.7284445 56.4935284,92.7284445 L52.5707355,92.7284445 C52.4252843,92.7284445 52.2828705,92.7210705 52.1397817,92.709339 C51.7027534,92.758611 51.2269156,92.701965 50.7281297,92.5273343 L4.06329448,76.0701524 C2.01921696,75.3505131 0.346697865,72.8889244 0.346697865,70.6019663 L0.346697865,10.0091424 C0.346697865,7.72352507 1.94396035,6.71227601 4.06329448,7.16309801 L4.06464437,7.16309801 Z" id="Shape" fill="#FFE4A3"></path>
                    <path d="M53.7299572,17.6603795 C53.8440233,17.6737869 53.9398658,17.6798202 54.0164723,17.6761331 C54.5044591,17.6533406 55.2398141,17.3855289 58.1623353,16.7996279 L104.827171,7.16276283 C106.942792,6.72635372 108.543767,7.72318989 108.543767,10.0088072 L108.543767,70.6019663 C108.543767,72.8885892 106.872598,75.3491724 104.827171,76.0701524 L58.1623353,92.5273343 C57.6888599,92.6935854 57.2349579,92.7539185 56.8178405,92.7177186 C56.7111989,92.7237519 56.6042198,92.7284445 56.4948783,92.7284445 L53.7299572,92.7284445 L53.7299572,17.6613851 L53.7299572,17.6603795 L53.7299572,17.6603795 Z" id="Shape" fill="#D5A148"></path>
                    <path d="M106.287419,6.97237852 L60.9370432,0.484563827 C59.2452881,0.242561233 56.0686492,0.109493325 53.9894744,0.378645794 L35.2279678,2.79800137 L33.8294773,2.97866535 L4.50234762,6.76255356 C2.43160969,7.02868937 2.07152537,7.71380475 3.91750589,8.08485305 L50.2583664,17.4502194 C51.2380523,17.646637 52.6470045,17.9975743 53.9783378,18.0133279 C55.1567956,18.0277408 56.2711333,17.743505 57.2055977,17.5564726 L81.770975,12.6681543 L84.9655,12.083594 L105.701565,8.29467801 C107.701771,7.92932783 107.979511,7.21337556 106.286406,6.97103778 L106.286406,6.97204334 L106.287419,6.97204334 L106.287419,6.97237852 Z" id="Shape" fill="#C79643"></path>
                </g>
                <polygon id="Path-2" fill="#645B57" points="76.1505099 2.64974157 25.0456842 12.3428291 38.8959019 15.1412407 90.0494514 4.64452312"></polygon>
                <path d="M25.1140835,12.3534582 L25.1140835,23.9918028 C25.1140835,25.1043961 25.9947195,26.2277499 27.0759143,26.4995953 L36.2403301,28.8038086 C37.685897,29.1672682 38.8577606,28.26292 38.8577606,26.7822534 L38.8577606,15.035665 L25.1140835,12.3534582 Z" id="Path-3" fill="#9F8C83"></path>
            </g>
        </g>
    </g>
</svg>