<svg width="200" height="200" viewBox="0 0 200 200" fill="none" xmlns="http://www.w3.org/2000/svg">
<rect width="200" height="200" fill="#313B45"/>
<path d="M82.5625 61.392V90H89.7625V61.392H99.8905V54.528H72.4345V61.392H82.5625ZM120.352 90H127.84L114.496 54.528H108.688L95.1516 90H102.592L105.328 82.32H117.712L120.352 90ZM111.568 64.176L115.696 75.984H107.344L111.568 64.176ZM61.9547 138C67.1388 138 71.2187 136.416 74.1948 133.248C77.1707 130.08 78.6588 125.76 78.6588 120.336C78.6588 114.864 77.2187 110.544 74.2907 107.328C71.3628 104.112 67.4267 102.528 62.4347 102.528H49.3787V138H61.9547ZM53.7947 106.752H62.1467C65.8907 106.752 68.8187 108 70.8828 110.544C72.9947 113.04 74.0507 116.256 74.0507 120.192C74.0507 124.176 72.9947 127.44 70.8828 129.984C68.7707 132.528 65.8427 133.776 62.0987 133.776H53.7947V106.752ZM109.017 138L94.6652 102.528H92.5532L78.1052 138H83.0012L86.7452 128.544H100.377L104.121 138H109.017ZM98.8412 124.32H88.2812L93.5612 110.688L98.8412 124.32ZM116.308 138V121.92H134.596V138H139.012V102.528H134.596V117.648H116.308V102.528H111.844V138H116.308ZM150.334 129.552L150.574 102.528H145.774L145.966 129.552H150.334ZM145.246 135.6C145.246 137.328 146.542 138.576 148.222 138.576C149.902 138.576 151.15 137.328 151.15 135.6C151.15 134.016 149.902 132.72 148.222 132.72C146.542 132.72 145.246 134.016 145.246 135.6Z" fill="white"/>
</svg>
