<?xml version="1.0" encoding="UTF-8"?>
<svg width="10px" height="10px" viewBox="0 0 10 10" version="1.1" xmlns="http://www.w3.org/2000/svg" xmlns:xlink="http://www.w3.org/1999/xlink">
    <!-- Generator: Sketch 52.6 (67491) - http://www.bohemiancoding.com/sketch -->
    <title>icon_Scheduled-delivery-small</title>
    <desc>Created with Sketch.</desc>
    <g id="icon_Scheduled-delivery-small" stroke="none" stroke-width="1" fill="none" fill-rule="evenodd">
        <g id="Group" fill-rule="nonzero">
            <path d="M5.41666667,4.44876373 L5.41666667,9.02043269 C5.41666667,9.25055134 5.23011865,9.43709936 5,9.43709936 C4.76988135,9.43709936 4.58333333,9.25055134 4.58333333,9.02043269 L4.58333333,4.44876373 L0.678587218,2.88686529 C0.464927419,2.80140137 0.361004126,2.55891368 0.446468045,2.34525388 C0.531931965,2.13159409 0.77441965,2.02767079 0.988079448,2.11313471 L5,3.71790293 L9.01192055,2.11313471 C9.22558035,2.02767079 9.46806804,2.13159409 9.55353195,2.34525388 C9.63899587,2.55891368 9.53507258,2.80140137 9.32141278,2.88686529 L5.41666667,4.44876373 Z" id="Combined-Shape" fill="#CAD4FB"></path>
            <path d="M9.16666667,2.35379413 L5.00002003,0.838635462 L0.833333333,2.35378975 L0.833333333,6.88183776 L4.99972179,9.15471466 L9.16666667,6.88185762 L9.16666667,2.35379413 Z M10,2.30769231 L10,6.92307692 C10,7.20552885 9.84375,7.46394231 9.59735577,7.59615385 L5.36658654,9.90384615 C5.25240385,9.96995192 5.12620192,10 5,10 C4.87379808,10 4.74759615,9.96995192 4.63341346,9.90384615 L0.402644231,7.59615385 C0.15625,7.46394231 0,7.20552885 0,6.92307692 L0,2.30769231 C0,1.98317308 0.204326923,1.69471154 0.504807692,1.58653846 L4.73557692,0.0480769231 C4.81971154,0.0180288462 4.90985577,0 5,0 C5.09014423,0 5.18028846,0.0180288462 5.26442308,0.0480769231 L9.49519231,1.58653846 C9.79567308,1.69471154 10,1.98317308 10,2.30769231 Z" id="Path" fill="#615CFF"></path>
        </g>
    </g>
</svg>