<svg width="13" height="9" viewBox="0 0 13 9" fill="none" xmlns="http://www.w3.org/2000/svg">
<path d="M9.135 4.5C10.0044 4.5 10.7037 3.78 10.7037 2.89286C10.7037 2.00571 10.0044 1.28571 9.135 1.28571C8.2656 1.28571 7.56 2.00571 7.56 2.89286C7.56 3.78 8.2656 4.5 9.135 4.5ZM4.41 3.85714C5.4558 3.85714 6.2937 2.99571 6.2937 1.92857C6.2937 0.861429 5.4558 0 4.41 0C3.3642 0 2.52 0.861429 2.52 1.92857C2.52 2.99571 3.3642 3.85714 4.41 3.85714ZM9.135 5.78571C7.9821 5.78571 5.67 6.37714 5.67 7.55357V9H12.6V7.55357C12.6 6.37714 10.2879 5.78571 9.135 5.78571ZM4.41 5.14286C2.9421 5.14286 0 5.895 0 7.39286V9H4.41V7.55357C4.41 7.00714 4.6179 6.04929 5.9031 5.32286C5.355 5.20714 4.8258 5.14286 4.41 5.14286Z" fill="#333D47"/>
</svg>
