<?xml version="1.0" encoding="UTF-8"?>
<svg width="18px" height="16px" viewBox="0 0 18 16" version="1.1" xmlns="http://www.w3.org/2000/svg" xmlns:xlink="http://www.w3.org/1999/xlink">
    <!-- Generator: Sketch 56.2 (81672) - https://sketch.com -->
    <title>icon_shortlist_heart_deselected</title>
    <desc>Created with Sketch.</desc>
    <g id="icon_shortlist_heart_deselected" stroke="none" stroke-width="1" fill="none" fill-rule="evenodd">
        <path d="M8.99998927,15.5 C9.03149135,15.5 9.06018695,15.4880969 9.0886318,15.4587258 L15.3398546,9.21543221 C15.4409359,9.11644694 15.5597336,8.99435547 15.7098949,8.82538694 C15.9587392,8.54537571 16.2046842,8.23362974 16.4341216,7.89394032 C17.1032288,6.90330536 17.5,5.8767404 17.5,4.875 C17.5,2.09838021 15.9251463,0.5 13.1986607,0.5 C11.9295403,0.5 10.5713093,1.35673671 9.35769213,2.59935464 L8.99998443,2.96561017 L8.64228169,2.5993498 C7.42872309,1.35675823 6.07046298,0.5 4.80133929,0.5 C2.07485373,0.5 0.5,2.09838021 0.5,4.875 C0.5,6.58100854 1.61121892,8.25040919 2.64381587,9.18819721 L8.91795786,15.4654322 C8.9398127,15.4880965 8.96850815,15.5 8.99998927,15.5 Z" id="-copy-2" stroke="#615CFF" fill="#FFFFFF" fill-rule="nonzero"></path>
    </g>
</svg>