<?xml version="1.0" encoding="utf-8"?>
<!-- Generator: Adobe Illustrator 22.1.0, SVG Export Plug-In . SVG Version: 6.00 Build 0)  -->
<svg version="1.1" id="Layer_1" xmlns="http://www.w3.org/2000/svg" xmlns:xlink="http://www.w3.org/1999/xlink" x="0px" y="0px"
	 viewBox="0 0 219.9 219.6" style="enable-background:new 0 0 219.9 219.6;" xml:space="preserve">
<style type="text/css">
	.st0{fill:#DCE6F4;}
	.st1{fill:#FFFFFF;}
	.st2{fill:none;stroke:#333E48;stroke-width:4.8595;stroke-linecap:round;stroke-linejoin:round;}
	.st3{fill:#333E48;}
</style>
<title>2</title>
<g>
	<path class="st0" d="M27.7,109.7c-0.1-45.4,36.6-82.2,82-82.3c45.4-0.1,82.2,36.6,82.3,82s-36.6,82.2-82,82.3c-0.1,0-0.1,0-0.1,0
		C64.6,191.8,27.8,155.1,27.7,109.7"/>
	<path class="st1" d="M85.8,62.4c0.5,0.1,1,0.1,1.6,0v2c0,0.4-0.4,0.7-0.7,0.7c-0.4,0-0.7-0.4-0.7-0.7L85.8,62.4L85.8,62.4z
		 M136.1,62.5c0.2,0,0.5,0,0.7-0.1v2c0,0.4-0.4,0.7-0.7,0.7c-0.4,0-0.7-0.4-0.7-0.7v-2C135.5,62.4,135.8,62.5,136.1,62.5L136.1,62.5
		z"/>
	<path class="st1" d="M157.7,64.6h-14.3v-5.2c0-1.4-1.6-2.5-3.4-2.5c-1.9,0-3.4,1.1-3.4,2.5v5.2H96.6v-5.2c0-1.4-1.6-2.5-3.4-2.5
		c-1.9,0-3.4,1.2-3.4,2.5v5.2H75.2c-7,0-12.6,5.7-12.6,12.6v71.4c0,7,5.7,12.6,12.6,12.6h82.5c7,0,12.6-5.7,12.6-12.6V77.2
		C170.2,70.2,164.6,64.6,157.7,64.6z"/>
	<path class="st2" d="M150.6,62.3h-14.3v5.1c0.1,1.9-1.3,3.5-3.2,3.6s-3.5-1.3-3.6-3.2c0-0.1,0-0.2,0-0.3v-5.1H89.7v5.1
		c-0.1,1.9-1.7,3.4-3.6,3.2c-1.8-0.1-3.1-1.5-3.2-3.2v-5.1H68.2c-5.5,0-9.9,4.4-9.9,9.9v71.3c0,5.5,4.4,9.9,9.9,9.9h82.5
		c5.5,0,9.9-4.4,9.9-9.9V72.1C160.5,66.8,156.1,62.4,150.6,62.3z"/>
	<path class="st3" d="M86.3,65.1L86.3,65.1c-1.9,0-3.4-1.1-3.4-2.5v-8.2c0-1.4,1.6-2.5,3.4-2.5l0,0c1.9,0,3.4,1.1,3.4,2.5v8.2
		C89.7,64,88.1,65.1,86.3,65.1z"/>
	<path class="st3" d="M133,65.1L133,65.1c-1.9,0-3.4-1.1-3.4-2.5v-8.2c0-1.4,1.6-2.5,3.4-2.5l0,0c1.9,0,3.4,1.1,3.4,2.5v8.2
		C136.4,64,134.9,65.1,133,65.1z"/>
	<line class="st2" x1="58.4" y1="90.7" x2="159.7" y2="90.7"/>
	<path class="st2" d="M67.6,93.2v36l14.6,15.4h65.7c1.9,0,3.4-1.6,3.4-3.4l0,0V93.2"/>
	<polyline class="st2" points="82.2,144.7 82.2,128.4 67.6,129.2 	"/>
	<path class="st3" d="M107.4,102.4c-1.6-1.4-3.6-2.1-5.7-2.1c-3.2-0.1-6.3,1.7-7.8,4.6c-1.7,2.8-2.6,6.9-2.6,12
		c0,5.1,0.9,9.1,2.6,12c1.6,2.8,4.6,4.6,7.8,4.6c2.1,0.1,4.1-0.7,5.7-2.1c1.7-1.6,2.9-3.6,3.5-5.8c1.6-5.6,1.6-11.6,0-17.3
		C110.3,106,109.1,104,107.4,102.4z M101.7,127.5c-1.4,0-2.5-0.8-3.3-2.6c-1-2.5-1.4-5.2-1.3-8c-0.1-2.8,0.3-5.5,1.3-8
		c0.7-1.8,1.9-2.7,3.3-2.7s2.5,0.9,3.3,2.7c1,2.5,1.4,5.2,1.3,8c0.1,2.7-0.4,5.5-1.3,8C104.1,126.6,103.1,127.5,101.7,127.5
		L101.7,127.5z"/>
	<path class="st3" d="M123.4,101.2c-0.5-0.5-1.3-0.8-2.1-0.8c-0.4,0-0.7,0.1-1,0.2l-6.2,2.2c-0.6,0.2-1.1,0.6-1.4,1
		c-0.3,0.5-0.4,1-0.4,1.6c0,0.7,0.3,1.5,0.8,2c1,0.9,2.5,1,3.7,0.4l1.7-0.7v23.1c0,0.7,0.3,1.5,0.8,2c0.5,0.5,1.3,0.8,2,0.8
		c1.6,0,2.9-1.3,2.9-2.8l0,0v-27.1C124.2,102.6,124,101.8,123.4,101.2z"/>
</g>
</svg>
