<svg fill="none" height="24" viewBox="0 0 24 24" width="24" xmlns="http://www.w3.org/2000/svg"><g fill="#333d47"><path d="m12 15h2v-6h-2z"/><path d="m15 15h2v-6h-2z"/><path d="m7 9v6l4-3z"/><path d="m8 3 4-3v6z"/><path d="m16 21-4 3v-6z"/><path d="m11.75 2h.25c5.5135 0 10 4.48647 10 10 0 3.2696-1.5781 6.1759-4.0068 8l-1.6824-1.2644c2.2199-1.4267 3.6892-3.915 3.6892-6.7356 0-4.40897-3.591-8-8-8h-.25z"/><path d="m4 12c0 4.409 3.59103 8 8 8h.25v2h-.25c-5.51353 0-10-4.4865-10-10 0-3.26958 1.57813-6.17589 4.00683-8l1.68188 1.26474c-2.21965 1.42672-3.68871 3.91484-3.68871 6.73526z"/></g></svg>