<svg width="200" height="200" viewBox="0 0 200 200" fill="none" xmlns="http://www.w3.org/2000/svg">
<rect width="200" height="200" fill="#FF0032"/>
<path d="M43.0594 90H56.6434C67.5394 90 74.0194 83.184 74.0194 72.336C74.0194 61.392 67.6354 54.528 56.9314 54.528H43.0594V90ZM50.1634 83.184V61.344H56.9794C63.3634 61.344 66.6274 66.288 66.6274 72.192C66.6274 78.192 63.3634 83.184 56.9794 83.184H50.1634ZM77.5969 54.528V90H84.7489V54.528H77.5969ZM113.476 54.528V76.464L94.7558 54.528H90.2438V90H97.2518V68.256L115.636 90H120.484V54.528H113.476ZM142.417 90.528C148.657 90.528 154.273 87.984 158.593 83.472V68.88H142.321V75.072H152.113V79.92C149.953 82.08 146.401 83.712 142.609 83.712C135.889 83.712 131.233 78.624 131.233 72.24C131.233 65.664 136.081 60.768 142.705 60.768C146.449 60.768 149.905 62.304 152.353 64.752L157.009 59.664C153.937 56.4 148.657 53.904 142.705 53.904C132.241 53.904 123.937 61.488 123.937 72.288C123.937 82.8 131.665 90.528 142.417 90.528ZM43.8844 138C49.0684 138 53.1484 136.416 56.1244 133.248C59.1004 130.08 60.5884 125.76 60.5884 120.336C60.5884 114.864 59.1484 110.544 56.2204 107.328C53.2924 104.112 49.3564 102.528 44.3644 102.528H31.3084V138H43.8844ZM35.7244 106.752H44.0764C47.8204 106.752 50.7484 108 52.8124 110.544C54.9244 113.04 55.9804 116.256 55.9804 120.192C55.9804 124.176 54.9244 127.44 52.8124 129.984C50.7004 132.528 47.7724 133.776 44.0284 133.776H35.7244V106.752ZM62.8377 120.48C62.8377 125.568 64.5657 129.84 68.0217 133.344C71.5257 136.848 75.8457 138.576 80.9817 138.576C86.1177 138.576 90.4857 136.8 94.0857 133.248C97.6857 129.648 99.5097 125.328 99.5097 120.288C99.5097 115.248 97.7337 110.928 94.1337 107.328C90.5337 103.728 86.2137 101.904 81.1737 101.904C76.1337 101.904 71.8137 103.728 68.2137 107.328C64.6137 110.928 62.8377 115.344 62.8377 120.48ZM81.1737 134.256C77.2857 134.256 74.0217 132.912 71.3817 130.272C68.7417 127.584 67.4457 124.272 67.4457 120.336C67.4457 116.352 68.7897 113.04 71.4297 110.352C74.0697 107.616 77.3337 106.272 81.1737 106.272C85.0137 106.272 88.2777 107.616 90.9177 110.304C93.5577 112.992 94.9017 116.352 94.9017 120.336C94.9017 124.32 93.5577 127.632 90.9177 130.272C88.2777 132.912 85.0137 134.256 81.1737 134.256ZM127.707 128.352L105.675 102.528H103.899V138H108.315V112.32L130.011 138H132.123V102.528H127.707V128.352ZM154.65 138.528C161.034 138.528 166.362 136.032 170.73 130.992V117.552H154.314V121.68H166.506V129.072C163.482 132.288 159.21 134.256 154.842 134.256C150.954 134.256 147.69 132.96 145.05 130.32C142.41 127.68 141.114 124.32 141.114 120.336C141.114 116.256 142.458 112.848 145.098 110.208C147.738 107.568 151.05 106.224 154.986 106.224C159.69 106.224 163.53 107.952 166.554 111.36L169.77 108.528C168.186 106.56 166.026 104.928 163.386 103.728C160.746 102.528 157.914 101.904 154.938 101.904C149.85 101.904 145.53 103.632 141.93 107.136C138.33 110.592 136.554 114.96 136.554 120.288C136.554 125.52 138.282 129.888 141.69 133.344C145.098 136.8 149.418 138.528 154.65 138.528Z" fill="white"/>
</svg>
