<svg width="200" height="200" viewBox="0 0 200 200" fill="none" xmlns="http://www.w3.org/2000/svg">
<rect width="200" height="200" fill="#615CFF"/>
<path d="M45.2997 90.528C52.1157 90.528 57.8277 87.264 60.9477 82.992L56.0517 78.528C53.5557 81.648 49.9077 83.712 45.7317 83.712C39.3477 83.712 34.4517 78.96 34.4517 72.384C34.4517 65.616 39.4437 60.768 45.7797 60.768C49.9557 60.768 53.4597 62.88 55.9077 65.904L60.6597 61.248C57.5877 56.928 51.9717 53.904 45.3957 53.904C35.4117 53.904 27.0597 61.44 27.0597 72.384C27.0597 83.232 35.1717 90.528 45.2997 90.528ZM65.2988 90H90.4508V83.184H72.4508V54.528H65.2988V90ZM94.5844 54.528V90H101.736V54.528H94.5844ZM125.375 90.528C132.191 90.528 137.903 87.264 141.023 82.992L136.127 78.528C133.631 81.648 129.983 83.712 125.807 83.712C119.423 83.712 114.527 78.96 114.527 72.384C114.527 65.616 119.519 60.768 125.855 60.768C130.031 60.768 133.535 62.88 135.983 65.904L140.735 61.248C137.663 56.928 132.047 53.904 125.471 53.904C115.487 53.904 107.135 61.44 107.135 72.384C107.135 83.232 115.247 90.528 125.375 90.528ZM166.686 90H175.422L161.502 70.656L174.51 54.528H165.918L152.478 71.28V54.528H145.374V90H152.478V81.168L156.846 75.936L166.686 90ZM47.0419 138.528C53.5219 138.528 59.2819 135.456 62.5939 130.848L59.3299 128.112C56.2099 132.192 52.1779 134.256 47.1859 134.256C43.2499 134.256 39.9379 132.96 37.2979 130.368C34.6579 127.776 33.3619 124.464 33.3619 120.432C33.3619 116.352 34.7059 112.944 37.3939 110.256C40.0819 107.568 43.3459 106.224 47.2339 106.224C52.0819 106.224 56.3059 108.624 59.1379 112.464L62.4979 109.728C61.0099 107.376 58.8499 105.504 56.1139 104.064C53.3779 102.624 50.4019 101.904 47.1859 101.904C42.0979 101.904 37.7779 103.632 34.1779 107.136C30.5779 110.592 28.8019 115.008 28.8019 120.384C28.8019 125.712 30.5779 130.032 34.0819 133.44C37.6339 136.848 41.9539 138.528 47.0419 138.528ZM91.6013 138V133.68H72.4013V102.528H67.9853V138H91.6013ZM96.3334 138H100.749V102.528H96.3334V138ZM125.336 138.528C131.816 138.528 137.576 135.456 140.888 130.848L137.624 128.112C134.504 132.192 130.472 134.256 125.48 134.256C121.544 134.256 118.232 132.96 115.592 130.368C112.952 127.776 111.656 124.464 111.656 120.432C111.656 116.352 113 112.944 115.688 110.256C118.376 107.568 121.64 106.224 125.528 106.224C130.376 106.224 134.6 108.624 137.432 112.464L140.792 109.728C139.304 107.376 137.144 105.504 134.408 104.064C131.672 102.624 128.696 101.904 125.48 101.904C120.392 101.904 116.072 103.632 112.472 107.136C108.872 110.592 107.096 115.008 107.096 120.384C107.096 125.712 108.872 130.032 112.376 133.44C115.928 136.848 120.248 138.528 125.336 138.528ZM174.024 138L158.52 119.28L172.68 102.528H167.4L150.696 122.208V102.528H146.28V138H150.696V128.064L155.592 122.256L168.504 138H174.024Z" fill="white"/>
</svg>
