<?xml version="1.0" encoding="UTF-8"?>
<svg width="178px" height="53px" viewBox="0 0 178 53" version="1.1" xmlns="http://www.w3.org/2000/svg" xmlns:xlink="http://www.w3.org/1999/xlink">
    <!-- Generator: Sketch 41.2 (35397) - http://www.bohemiancoding.com/sketch -->
    <title>Playstore</title>
    <desc>Created with Sketch.</desc>
    <defs>
        <rect id="path-1" x="0" y="0" width="178" height="52.903164" rx="6"></rect>
        <mask id="mask-2" maskContentUnits="userSpaceOnUse" maskUnits="objectBoundingBox" x="0" y="0" width="178" height="52.903164" fill="white">
            <use xlink:href="#path-1"></use>
        </mask>
        <mask id="mask-3" maskContentUnits="userSpaceOnUse" maskUnits="objectBoundingBox" x="0" y="0" width="178" height="52.903164" fill="white">
            <use xlink:href="#path-1"></use>
        </mask>
        <linearGradient x1="50%" y1="0%" x2="50%" y2="38.9125982%" id="linearGradient-4">
            <stop stop-color="#FBDA09" offset="0%"></stop>
            <stop stop-color="#FFBC00" offset="100%"></stop>
        </linearGradient>
        <path d="M14.3333981,3.09309858 C15.3608256,1.27537049 17.029818,1.28099496 18.054096,3.09309858 L32.6823282,28.9726648 C33.7097855,30.7903929 32.8463099,32.2639527 30.7536536,32.2639527 L1.63431937,32.2639527 C-0.458315467,32.2639527 -1.31865759,30.7847684 -0.29440925,28.9726648 L14.3333981,3.09309858 Z" id="path-5"></path>
        <linearGradient x1="0%" y1="58.4755255%" x2="69.3064856%" y2="39.0830098%" id="linearGradient-7">
            <stop stop-color="#01E2FF" offset="0%"></stop>
            <stop stop-color="#01C4FF" offset="100%"></stop>
        </linearGradient>
        <linearGradient x1="20.2810876%" y1="20.1019903%" x2="83.820166%" y2="83.6214476%" id="linearGradient-8">
            <stop stop-color="#28D781" offset="0%"></stop>
            <stop stop-color="#02F076" offset="100%"></stop>
        </linearGradient>
        <linearGradient x1="74.4881466%" y1="17.4301299%" x2="10.1079427%" y2="91.1838038%" id="linearGradient-9">
            <stop stop-color="#F2414E" offset="0%"></stop>
            <stop stop-color="#E02554" offset="100%"></stop>
        </linearGradient>
    </defs>
    <g id="Symbols" stroke="none" stroke-width="1" fill="none" fill-rule="evenodd">
        <g id="footer" transform="translate(-539.000000, -206.000000)">
            <g id="Playstore">
                <g transform="translate(539.000000, 206.000000)">
                    <g id="background">
                        <use stroke="#A6A6A6" mask="url(#mask-2)" stroke-width="2.4" fill="#000000" fill-rule="evenodd" xlink:href="#path-1"></use>
                        <use stroke="#8F8F8F" mask="url(#mask-3)" stroke-width="1.2" xlink:href="#path-1"></use>
                    </g>
                    <g id="get-it-on" transform="translate(54.585071, 8.913636)" fill="#FFFFFF">
                        <path d="M39.7417619,8.67272727 C42.1217489,8.67272727 44.0511096,6.73127114 44.0511096,4.33636364 C44.0511096,1.94145613 42.1217489,0 39.7417619,0 C37.3617749,0 35.4324143,1.94145613 35.4324143,4.33636364 C35.4324143,6.73127114 37.3617749,8.67272727 39.7417619,8.67272727 Z M39.7417619,7.34772727 C41.3945307,7.34772727 42.7343645,5.99949385 42.7343645,4.33636364 C42.7343645,2.67323342 41.3945307,1.325 39.7417619,1.325 C38.0889932,1.325 36.7491594,2.67323342 36.7491594,4.33636364 C36.7491594,5.99949385 38.0889932,7.34772727 39.7417619,7.34772727 Z" id="o"></path>
                        <path d="M10.533961,4.81818182 L10.533961,7.46818182 L14.00538,7.46818182 L14.00538,8.43181818 L9.21721587,8.43181818 L9.21721587,7.95 L9.21721587,0.903409091 L9.21721587,0.361363636 L14.00538,0.361363636 L14.00538,1.325 L10.533961,1.325 L10.533961,3.85454545 L13.6462677,3.85454545 L13.6462677,4.81818182 L10.533961,4.81818182 Z" id="e"></path>
                        <path d="M18.6738399,1.325 L18.6738399,8.43181818 L17.3570948,8.43181818 L17.3570948,1.325 L15.3221251,1.325 L15.3221251,0.361363636 L20.7088097,0.361363636 L20.7088097,1.325 L18.6738399,1.325 Z" id="t"></path>
                        <path d="M30.404842,1.325 L30.404842,8.43181818 L29.0880968,8.43181818 L29.0880968,1.325 L27.0531271,1.325 L27.0531271,0.361363636 L32.4398117,0.361363636 L32.4398117,1.325 L30.404842,1.325 Z" id="t"></path>
                        <rect id="i" x="24.539341" y="0.361363636" width="1.31674512" height="8.07045455"></rect>
                        <path d="M45.9065232,0.361363636 L45.1284465,0.361363636 L45.1284465,8.43181818 L46.4451917,8.43181818 L46.4451917,2.13292683 L50.2757229,8.43181818 L50.9340955,8.43181818 L51.5924681,8.43181818 L51.5924681,0.361363636 L50.2757229,0.361363636 L50.2757229,6.26657428 L46.6845999,0.361363636 L45.9065232,0.361363636 Z" id="n"></path>
                        <g id="g" transform="translate(0.000000, 0.120455)">
                            <polygon id="Rectangle-1" points="4.28340323 3.87503613 7.88860095 3.87503613 7.85290592 5.02319499 4.28340323 5.02319499"></polygon>
                            <path d="M8.18966813,3.87503613 C8.18978761,3.88923317 8.18984745,3.90345907 8.18984745,3.91771367 C8.58597859,6.84151028 6.60497431,8.52506548 4.22986069,8.50355151 C1.89377539,8.50018451 0,6.59996667 0,4.25177576 C0,1.90358485 1.89377314,0 4.22986069,0 C5.45094495,0 6.47744487,0.428825553 7.17915574,1.17353187 L6.35418554,2.00277626 C5.83962687,1.47394787 5.10880011,1.18403882 4.26555572,1.18403882 C2.58002419,1.18403882 1.21363091,2.55751143 1.21363091,4.25177576 C1.21363091,5.94604008 2.58002419,7.31951269 4.26555572,7.31951269 C5.95108724,7.31951269 7.1477897,6.34003172 7.1452799,4.25177576 C7.14813065,4.1227229 7.14514089,3.99710112 7.13656668,3.87503613 L8.18966813,3.87503613 Z" id="Oval-1"></path>
                        </g>
                    </g>
                    <g id="googleplay" transform="translate(53.986550, 23.127273)" fill="#FFFFFF">
                        <g id="big-P" transform="translate(74.695360, 0.602273)">
                            <path d="M0.598520511,4.23354578e-07 L7.38489244,0 C7.38489244,0 11.2916197,0.668852095 11.2916194,5.18313484 C11.2916191,9.69741758 7.38489244,10.3662697 7.38489244,10.3662697 L0.598520511,10.3662701 L0.598520511,4.23354578e-07 Z M1.91526564,2.50749176 L6.52218647,2.50749176 C6.52218647,2.50749176 8.61869536,2.50749176 8.61869536,5.28897315 C8.61869536,8.07045455 6.52218647,8.07045455 6.52218647,8.07045455 L1.91526564,8.07045455 L1.91526564,2.50749176 Z" id="Combined-Shape"></path>
                            <rect id="Rectangle-6" x="0" y="0" width="2.39408204" height="16.8636364"></rect>
                        </g>
                        <rect id="y" x="87.3839946" y="0.602272727" width="2.39408204" height="16.8636364"></rect>
                        <path d="M98.6515046,16.2601751 L98.6515046,17.460498 L101.045587,17.460498 L101.045587,10.1406094 C101.045752,10.1359333 101.045835,10.1312267 101.045835,10.1264895 C101.045835,9.15326621 100.337054,6.26363637 96.1737232,6.26363636 C92.8253877,6.26363636 91.709485,8.57850453 91.709485,8.57850453 L93.7036571,9.76446422 C93.7036571,9.76446422 94.1850558,8.57850453 96.3649692,8.57850453 C97.9516864,8.57850453 98.4809524,9.7842549 98.6515046,10.4404705 L98.6515046,10.9359538 C97.9560186,10.5958096 96.4511193,10.0601002 94.3024699,10.3816173 C91.2680761,10.8356745 91.4562243,13.6921766 91.4562243,13.9283802 C91.4562243,14.1645838 91.4582118,17.6672943 95.2727862,17.4275613 C96.9378515,17.3229176 97.99209,16.8076514 98.6515046,16.2601751 Z M98.4804821,12.6480802 C98.4804821,12.6480802 93.8682503,11.3971292 93.7079239,14.0044289 C93.5475976,16.6117287 98.132709,15.3597779 98.5423798,13.5114946 C98.5423798,12.9237493 98.4804821,12.6480802 98.4804821,12.6480802 Z" id="a"></path>
                        <path d="M105.537919,16.8261052 L103.30464,22.1636364 L105.698722,22.1636364 L112.175836,6.68334517 L109.781754,6.68334517 L106.73496,13.9651793 L103.663753,6.625 L101.26967,6.625 L105.537919,16.8261052 Z" id="y"></path>
                        <path d="M69.3356501,10.566954 C69.3356501,10.566954 68.285969,6.26363636 64.2721699,6.26363636 C60.2583709,6.26363636 58.8944183,9.90083115 58.8944183,12.0488443 C58.8944183,14.2782898 60.6127993,17.7112005 64.5142753,17.7112005 C67.6891442,17.7112005 69.2393318,15.188357 69.2393318,15.188357 L67.3182749,13.8792042 C67.3182749,13.8792042 66.3119942,15.4782598 64.5294069,15.4691193 C62.2529032,15.4574462 61.7638911,13.7158157 61.7638911,13.7158157 L69.3356501,10.566954 Z M66.4547559,9.67492751 C66.4547559,9.67492751 65.5021235,8.21643437 64.0411223,8.48541274 C60.9506411,9.05438733 61.3395519,11.7758242 61.3395519,11.7758242 L66.4547559,9.67492751 Z" id="e"></path>
                        <rect id="i" x="55.3032952" y="0.602272727" width="2.53279495" height="16.8282086"></rect>
                        <path d="M51.2501018,6.62936802 L51.2501018,7.67954459 C51.2501018,7.67954459 50.2322847,6.20550645 48.1147351,6.26541419 C45.4710721,6.34020623 42.7343645,8.39632991 42.7343645,11.9910222 C42.7343645,15.5857146 45.6407205,17.6942838 48.0864361,17.6942803 C50.3422066,17.6942772 51.2503928,16.2639557 51.2503928,16.2639557 L51.2503928,17.4162637 C51.2503928,18.2387868 50.9439782,20.641697 48.3192297,20.6417002 C46.0143543,20.6417029 45.358531,18.5653446 45.358531,18.5653446 L43.2082451,19.4753388 C43.2082451,19.4753388 44.4286658,22.8444133 48.2074888,22.8444133 C51.9863118,22.8444133 53.591424,19.9806963 53.591424,17.267805 L53.591424,6.64972132 L51.2501018,6.62936802 Z M48.2863476,15.5365593 C49.9937358,15.5365593 51.3778474,13.9627391 51.3778474,12.0213335 C51.3778474,10.0799279 49.9937358,8.50610769 48.2863476,8.50610769 C46.5789595,8.50610769 45.1948479,10.0799279 45.1948479,12.0213335 C45.1948479,13.9627391 46.5789595,15.5365593 48.2863476,15.5365593 Z" id="g"></path>
                        <path d="M35.9839265,17.7068182 C39.1312806,17.7068182 41.6827151,15.1451747 41.6827151,11.9852273 C41.6827151,8.82527987 39.1312806,6.26363636 35.9839265,6.26363636 C32.8365724,6.26363636 30.2851379,8.82527987 30.2851379,11.9852273 C30.2851379,15.1451747 32.8365724,17.7068182 35.9839265,17.7068182 Z M35.9466795,15.463057 C37.7157805,15.463057 39.1499202,13.9059796 39.1499202,11.9852273 C39.1499202,10.0644749 37.7157805,8.5073975 35.9466795,8.5073975 C34.1775785,8.5073975 32.7434388,10.0644749 32.7434388,11.9852273 C32.7434388,13.9059796 34.1775785,15.463057 35.9466795,15.463057 Z" id="o"></path>
                        <path d="M23.654404,17.7068182 C26.801758,17.7068182 29.3531926,15.1451747 29.3531926,11.9852273 C29.3531926,8.82527987 26.801758,6.26363636 23.654404,6.26363636 C20.5070499,6.26363636 17.9556153,8.82527987 17.9556153,11.9852273 C17.9556153,15.1451747 20.5070499,17.7068182 23.654404,17.7068182 Z M23.617157,15.463057 C25.386258,15.463057 26.8203977,13.9059796 26.8203977,11.9852273 C26.8203977,10.0644749 25.386258,8.5073975 23.617157,8.5073975 C21.848056,8.5073975 20.4139163,10.0644749 20.4139163,11.9852273 C20.4139163,13.9059796 21.848056,15.463057 23.617157,15.463057 Z" id="o"></path>
                        <g id="big-g">
                            <polygon id="Rectangle-1" points="8.9392763 8.07754011 16.4631672 8.07754011 16.3886732 10.4708853 8.9392763 10.4708853"></polygon>
                            <path d="M17.0914813,8.07754011 C17.0917307,8.10713392 17.0918556,8.13678792 17.0918556,8.16650173 C17.918564,14.2611764 13.7842942,17.770559 8.82753535,17.725713 C3.95222689,17.7186945 0,13.757677 0,8.86285651 C0,3.96803602 3.9522222,0 8.82753535,0 C11.3758851,0 13.5181458,0.893889886 14.9825859,2.44623544 L13.260909,4.17480123 C12.1870474,3.07245472 10.6618437,2.46813725 8.90202932,2.46813725 C5.38439831,2.46813725 2.53279495,5.33115058 2.53279495,8.86285651 C2.53279495,12.3945624 5.38439831,15.2575758 8.90202932,15.2575758 C12.4196603,15.2575758 14.9171263,13.2158408 14.9118885,8.86285651 C14.9178379,8.59384492 14.9115984,8.33198543 14.8937044,8.07754011 L17.0914813,8.07754011 Z" id="Oval-1"></path>
                        </g>
                    </g>
                    <g id="logo_play" transform="translate(12.047747, 9.395455)">
                        <mask id="mask-6" fill="white">
                            <use xlink:href="#path-5"></use>
                        </mask>
                        <use id="yellow" fill="url(#linearGradient-4)" transform="translate(16.194669, 16.997932) rotate(-270.000000) translate(-16.194669, -16.997932) " xlink:href="#path-5"></use>
                        <polygon id="blue" fill="url(#linearGradient-7)" mask="url(#mask-6)" points="1 -0.0118781571 17.7330587 16.7235165 0.783867593 34.1203759"></polygon>
                        <polygon id="green" fill="url(#linearGradient-8)" mask="url(#mask-6)" points="-2.44093875 -3.45710035 17.7310728 16.7284116 23.728447 10.971148"></polygon>
                        <polygon id="red" fill="url(#linearGradient-9)" mask="url(#mask-6)" points="17.7338207 16.7245604 26.9151992 26.0369772 -0.513296305 35.3493939"></polygon>
                    </g>
                </g>
            </g>
        </g>
    </g>
</svg>