<?xml version="1.0" encoding="UTF-8"?>
<svg width="14px" height="14px" viewBox="0 0 14 14" version="1.1" xmlns="http://www.w3.org/2000/svg" xmlns:xlink="http://www.w3.org/1999/xlink">
    <!-- Generator: Sketch 52.6 (67491) - http://www.bohemiancoding.com/sketch -->
    <title>icon_Booked-delivery</title>
    <desc>Created with Sketch.</desc>
    <g id="icon_Booked-delivery" stroke="none" stroke-width="1" fill="none" fill-rule="evenodd">
        <g id="Group-35">
            <rect id="Rectangle" x="0" y="0" width="14" height="14"></rect>
            <path d="M7.46153846,11.8245192 L12.0769231,9.30769231 L12.0769231,4.72115385 L7.46153846,6.40144231 L7.46153846,11.8245192 Z M7,5.58653846 L12.0336538,3.75480769 L7,1.92307692 L1.96634615,3.75480769 L7,5.58653846 Z M13,3.76923077 L13,9.30769231 C13,9.64663462 12.8125,9.95673077 12.5168269,10.1153846 L7.43990385,12.8846154 C7.30288462,12.9639423 7.15144231,13 7,13 C6.84855769,13 6.69711538,12.9639423 6.56009615,12.8846154 L1.48317308,10.1153846 C1.1875,9.95673077 1,9.64663462 1,9.30769231 L1,3.76923077 C1,3.37980769 1.24519231,3.03365385 1.60576923,2.90384615 L6.68269231,1.05769231 C6.78365385,1.02163462 6.89182692,1 7,1 C7.10817308,1 7.21634615,1.02163462 7.31730769,1.05769231 L12.3942308,2.90384615 C12.7548077,3.03365385 13,3.37980769 13,3.76923077 Z" id="Booked-box" fill="#7290FF"></path>
        </g>
    </g>
</svg>