<?xml version="1.0" encoding="UTF-8"?>
<svg width="30px" height="30px" viewBox="0 0 30 30" version="1.1" xmlns="http://www.w3.org/2000/svg" xmlns:xlink="http://www.w3.org/1999/xlink">
    <!-- Generator: Sketch 52.5 (67469) - http://www.bohemiancoding.com/sketch -->
    <title>link</title>
    <desc>Created with Sketch.</desc>
    <g id="study-8" stroke="none" stroke-width="1" fill="none" fill-rule="evenodd">
        <g id="overlay" transform="translate(-36.000000, -544.000000)" fill="#333D47">
            <g id="Group-6" transform="translate(36.000000, 544.000000)">
                <g id="link">
                    <path d="M27.9125455,2.07327273 C25.1481818,-0.691090909 20.6498182,-0.69 17.8849091,2.07327273 L12.8710909,7.08709091 C12.4450909,7.51309091 12.4450909,8.20363636 12.8710909,8.62963636 C13.2970909,9.05563636 13.9876364,9.05563636 14.4136364,8.62963636 L19.4274545,3.61581818 C20.3498182,2.694 21.5825455,2.18563636 22.8981818,2.18563636 C24.2143636,2.18563636 25.4470909,2.694 26.3694545,3.61636364 C27.2918182,4.53872727 27.8001818,5.77145455 27.8001818,7.08763636 C27.8001818,8.40327273 27.2918182,9.636 26.3694545,10.5583636 L19.8136364,17.1158182 C17.8990909,19.0292727 14.7850909,19.0292727 12.8705455,17.1158182 C12.4445455,16.6898182 11.754,16.6898182 11.328,17.1158182 C10.902,17.5418182 10.902,18.2329091 11.328,18.6583636 C12.7101818,20.0405455 14.526,20.7316364 16.3418182,20.7316364 C18.1576364,20.7316364 19.9734545,20.0405455 21.3556364,18.6583636 L27.9125455,12.1014545 C29.2472727,10.7672727 29.9825455,8.98636364 29.9825455,7.08763636 C29.9825455,5.18836364 29.2472727,3.408 27.9125455,2.07327273 Z" id="Path"></path>
                    <path d="M14.7992727,22.1290909 L10.5567273,26.3716364 C9.63436364,27.294 8.40163636,27.8023636 7.08545455,27.8023636 C5.76981818,27.8023636 4.53654545,27.294 3.61418182,26.3716364 C1.70018182,24.4576364 1.70018182,21.3430909 3.61418182,19.4290909 L9.78545455,13.2578182 C10.7078182,12.336 11.9405455,11.8276364 13.2567273,11.8276364 C14.5723636,11.8276364 15.8050909,12.336 16.7274545,13.2578182 C17.1534545,13.6838182 17.844,13.6838182 18.27,13.2578182 C18.696,12.8318182 18.696,12.1412727 18.27,11.7152727 C15.5061818,8.95145455 11.0078182,8.95090909 8.24236364,11.7152727 L2.07109091,17.8870909 C0.736909091,19.2212727 0.00163636364,21.0021818 0.00163636364,22.9009091 C0.00163636364,24.7990909 0.736909091,26.58 2.07163636,27.9141818 C3.40581818,29.2489091 5.18672727,29.9841818 7.08490909,29.9841818 C8.98363636,29.9841818 10.7645455,29.2489091 12.0987273,27.9141818 L16.3412727,23.6716364 C16.7672727,23.2456364 16.7672727,22.5550909 16.3412727,22.1290909 C15.9152727,21.7030909 15.2252727,21.7030909 14.7992727,22.1290909 Z" id="Path"></path>
                </g>
            </g>
        </g>
    </g>
</svg>