<?xml version="1.0" encoding="UTF-8"?>
<svg width="78px" height="56px" viewBox="0 0 78 56" version="1.1" xmlns="http://www.w3.org/2000/svg" xmlns:xlink="http://www.w3.org/1999/xlink">
    <!-- Generator: Sketch 42 (36781) - http://www.bohemiancoding.com/sketch -->
    <title>icon-care</title>
    <desc>Created with Sketch.</desc>
    <defs></defs>
    <g id="Symbols" stroke="none" stroke-width="1" fill="none" fill-rule="evenodd">
        <g id="ownership-white" transform="translate(-1112.000000, -126.000000)" fill="#333D47">
            <g id="icon-care" transform="translate(1112.000000, 126.000000)">
                <path d="M71.9562021,32.8523608 L50.502245,47.4461672 C47.2564129,49.6572889 43.4633365,50.8049908 39.5333114,50.8049908 L25.8839641,50.8049908 C21.4645216,50.8049908 17.0353496,49.3034875 13.5914374,46.5390357 L8.94160533,42.9070282 L8.94160533,24.2603536 L17.6646529,26.9766181 C21.145097,28.0519474 24.8555635,28.6488843 28.4992078,28.6488843 L44.0333443,28.6488843 C45.4951712,28.6488843 46.4910787,29.7319088 46.4910787,31.1909047 L46.4910787,34.0403715 C43.6571942,34.8130182 37.024359,36.1815024 30.312769,35.1036081 C29.0258914,34.8973002 27.8614599,35.7709022 27.6543846,37.0562037 C27.4473093,38.3415053 28.3472057,39.5509529 29.6350012,39.7578104 C31.6884981,40.0876098 33.7287774,40.2197128 35.6627654,40.2197128 C43.2610342,40.2197128 49.3976597,38.1775217 49.795472,38.0421207 C49.7960227,38.0419375 49.7996942,38.041571 49.800245,38.041571 C49.8024479,38.0408381 49.808506,38.0391891 49.8103417,38.0388227 C49.8977246,38.0089575 49.9823538,37.9732293 50.0636785,37.9343862 C50.069553,37.9316379 50.0761618,37.9299889 50.0818527,37.9270574 L69.421916,28.5015739 C70.2223135,28.1114945 71.1146833,28.1578496 71.8701043,28.6289131 C72.6255253,29.0999765 73.0589516,29.8797689 73.0589516,30.7689447 C73.0589516,31.603154 72.6466367,32.381847 71.9562021,32.8523608 L71.9562021,32.8523608 Z M67.2529489,24.2658503 L51.2141582,32.0353744 L51.2141582,31.1910879 C51.2141582,27.1327232 48.0994003,23.9349516 44.0331608,23.9349516 L28.4990243,23.9349516 C25.3295603,23.9349516 22.0886848,23.4085551 19.0611262,22.4735738 L8.94160533,19.3258218 L8.94160533,15.2533489 C8.94160533,13.9515574 1.30431747,13 0,13 L0.000367154812,55.1906869 C1.30468462,55.1906869 8.94197248,54.0315283 8.94197248,52.7301032 L8.94197248,48.9568317 L10.6314353,50.2128177 C14.911359,53.6482281 20.3913281,55.5189235 25.8839641,55.5189235 L39.5333114,55.5189235 C44.4173883,55.5189235 49.1311053,54.0874109 53.1648517,51.3396323 L74.6188088,36.7355654 C76.5997926,35.3861362 77.7822146,33.1568756 77.7822146,30.7636313 C77.7822146,28.2509263 76.5074531,25.9615689 74.3722643,24.6306451 C72.2374427,23.2999045 69.5153569,23.1634042 67.2529489,24.2658503 Z" id="Fill-1"></path>
                <path d="M40.6916938,3.21407314 C41.4787295,1.32225529 43.2766653,0.000395529552 45.367887,0.000395529552 C48.1849131,0.000395529552 50.2137335,2.44437263 50.4687985,5.35705225 C50.4687985,5.35705225 50.6064713,6.08008027 50.3034352,7.38176803 C49.890807,9.15453148 48.9208577,10.7295302 47.6131617,11.9315445 L40.6916938,18.1943594 L33.8868383,11.9311489 C32.5791423,10.7295302 31.609193,9.15413595 31.1965648,7.3813725 C30.8935287,6.07968474 31.0312015,5.35665672 31.0312015,5.35665672 C31.2862665,2.4439771 33.3150869,0 36.132113,0 C38.2237247,0 39.9046582,1.32225529 40.6916938,3.21407314 Z" id="Shape"></path>
            </g>
        </g>
    </g>
</svg>
