<?xml version="1.0" encoding="UTF-8"?>
<svg width="26px" height="43px" viewBox="0 0 26 43" version="1.1" xmlns="http://www.w3.org/2000/svg" xmlns:xlink="http://www.w3.org/1999/xlink">
    <!-- Generator: Sketch 52.5 (67469) - http://www.bohemiancoding.com/sketch -->
    <title>icon_Text-message</title>
    <desc>Created with Sketch.</desc>
    <g id="study-8" stroke="none" stroke-width="1" fill="none" fill-rule="evenodd">
        <g id="overlay" transform="translate(-38.000000, -210.000000)" fill="#333D47" fill-rule="nonzero">
            <g id="Group-2" transform="translate(38.000000, 210.000000)">
                <path d="M15,25 L13,28 L11,25 L8,25 C6.34314575,25 5,23.6568542 5,22 L5,17 C5,15.3431458 6.34314575,14 8,14 L18,14 C19.6568542,14 21,15.3431458 21,17 L21,22 C21,23.6568542 19.6568542,25 18,25 L15,25 Z M2,33 L24,33 L24,8 L2,8 L2,33 Z M2,35 L2,38 C2,39.6568542 3.34314575,41 5,41 L21,41 C22.6568542,41 24,39.6568542 24,38 L24,35 L2,35 Z M2,6 L24,6 L24,5 C24,3.34314575 22.6568542,2 21,2 L5,2 C3.34314575,2 2,3.34314575 2,5 L2,6 Z M5,0 L21,0 C23.7614237,0 26,2.23857625 26,5 L26,38 C26,40.7614237 23.7614237,43 21,43 L5,43 C2.23857625,43 0,40.7614237 0,38 L0,5 C0,2.23857625 2.23857625,0 5,0 Z M8,16 C7.44771525,16 7,16.4477153 7,17 L7,22 C7,22.5522847 7.44771525,23 8,23 L18,23 C18.5522847,23 19,22.5522847 19,22 L19,17 C19,16.4477153 18.5522847,16 18,16 L8,16 Z M10,3 L16,3 C16.5522847,3 17,3.44771525 17,4 C17,4.55228475 16.5522847,5 16,5 L10,5 C9.44771525,5 9,4.55228475 9,4 C9,3.44771525 9.44771525,3 10,3 Z M13,40 C11.8954305,40 11,39.1045695 11,38 C11,36.8954305 11.8954305,36 13,36 C14.1045695,36 15,36.8954305 15,38 C15,39.1045695 14.1045695,40 13,40 Z" id="icon_Text-message"></path>
            </g>
        </g>
    </g>
</svg>