<svg id="Layer_1" data-name="Layer 1" xmlns="http://www.w3.org/2000/svg" viewBox="0 0 1241.87 22"><defs><style>.cls-1{fill:#ff0027;}</style></defs><path class="cls-1" d="M719.48,20.46c-7.25-4-14.73-8.17-24.92-10.25-11.76-2.4-22.76-.48-33.39,1.38-7.71,1.35-15.69,2.74-23.8,2.44a61.15,61.15,0,0,1-14.5-2.73C616.68,9.56,610.28,7.76,601,9.15c-8.49,1.19-14.61,4.1-21.09,7.19A117.93,117.93,0,0,1,566.58,22h17.75c5.66-2.69,10.79-5,17.68-5.91,7.82-1.18,13,.27,19,1.95a67.23,67.23,0,0,0,16.09,3c8.9.34,17.24-1.12,25.31-2.53,10.45-1.83,20.32-3.55,30.78-1.42A60,60,0,0,1,707.38,22h14.89Z"/><path class="cls-1" d="M821.8,18c-10.53-1.17-21.43-2.38-31.85-3.31-11.14-1-19.07,3.2-26,7.35h17.59a28.55,28.55,0,0,1,7.78-.38l4,.38h70C850.66,21.16,836.49,19.59,821.8,18Z"/><path class="cls-1" d="M1242.43,21.57l-2.38.43h2.38Z"/><path class="cls-1" d="M1099.47,12c-4.55-1.09-8.85-2.11-13.06-2.82-8.77-1.5-16.62.57-26.57,3.19a188.71,188.71,0,0,1-32.16,6.18c-14.88,1.51-28.37-.42-44-2.65-11.53-1.65-24.61-3.52-39.64-4-20-.69-29.63,2.85-38.13,6a69.78,69.78,0,0,1-15,4.19h24.34c6.69-2.06,14.93-3.62,28.57-3.16A309.84,309.84,0,0,1,976.93,22h73.15c4.27-1,8.08-2,11.55-2.88,9.48-2.49,16.33-4.3,23.61-3.06,4,.67,8,1.63,12.61,2.73,4.33,1,9.06,2.16,14.5,3.21h97.88c9.86-1.26,20.55-2.87,32.2-4.89V10C1155.18,25.26,1121.77,17.3,1099.47,12Z"/><path class="cls-1" d="M.57,21.85a3.51,3.51,0,0,0,2.35-.42c8.23-4.85,18.25-2.62,29.77.57h74.37c2.32-.69,4.53-1.38,6.59-2,7.9-2.47,14.13-4.41,19-4.14a42.85,42.85,0,0,1,14.87,3.66,72,72,0,0,0,7.06,2.5h34.5c5.78-.77,11.94-1.7,18.23-2.65,17.76-2.7,36.12-5.49,46.58-4.41,11,1.11,22.06,3.4,33.76,5.82l6,1.24h84.86c2.26-1,4.31-2.06,6.22-3,5.37-2.7,9.25-4.64,13.16-4.2h.1c5.48.45,10.45,2,15.7,3.64A126.36,126.36,0,0,0,426.9,22h29.77c1-.17,2-.34,3-.55,4.51-.9,9.63-.51,15.14.55h26.85c-2.43-.69-4.85-1.4-7.25-2.1-13.05-3.84-25.37-7.46-36.11-5.32-20.39,4.08-31.65.57-42.54-2.83-5.62-1.75-10.93-3.41-17.16-3.93-6-.65-11.09,1.93-17,4.91s-13.33,6.69-24.2,8.57c-25.48,1.49-47.26-3-68.32-7.39C277.2,11.44,266,9.12,254.61,8s-30.15,1.69-48.34,4.45c-16.25,2.47-33.06,5-42.15,4.2a44,44,0,0,1-14-3.64,49.71,49.71,0,0,0-17-4.13c-6.16-.37-12.93,1.76-21.51,4.44C99.15,17.18,83.69,22,63.29,21.2c-8.76-.34-17.3-2.74-25.56-5.06C24.42,12.39,11.81,8.85.57,14.73Z"/><path class="cls-1" d="M398.63,19.37c-4.34-.47-8.25.77-12.34,2.63h25.25A63.52,63.52,0,0,0,398.63,19.37Z"/><path class="cls-1" d="M254.61,20.18c-7.87-.81-19.35.24-31.72,1.82h45.18C263.57,21.27,259.1,20.64,254.61,20.18Z"/></svg>