<?xml version="1.0" encoding="UTF-8"?>
<svg width="10px" height="10px" viewBox="0 0 10 10" version="1.1" xmlns="http://www.w3.org/2000/svg" xmlns:xlink="http://www.w3.org/1999/xlink">
    <!-- Generator: Sketch 52.6 (67491) - http://www.bohemiancoding.com/sketch -->
    <title>icon_Scheduled-delivery-small</title>
    <desc>Created with Sketch.</desc>
    <g id="icon_Scheduled-delivery-small" stroke="none" stroke-width="1" fill="none" fill-rule="evenodd">
        <path d="M5.38461538,9.02043269 L9.23076923,6.92307692 L9.23076923,3.10096154 L5.38461538,4.50120192 L5.38461538,9.02043269 Z M5,3.82211538 L9.19471154,2.29567308 L5,0.769230769 L0.805288462,2.29567308 L5,3.82211538 Z M10,2.30769231 L10,6.92307692 C10,7.20552885 9.84375,7.46394231 9.59735577,7.59615385 L5.36658654,9.90384615 C5.25240385,9.96995192 5.12620192,10 5,10 C4.87379808,10 4.74759615,9.96995192 4.63341346,9.90384615 L0.402644231,7.59615385 C0.15625,7.46394231 0,7.20552885 0,6.92307692 L0,2.30769231 C0,1.98317308 0.204326923,1.69471154 0.504807692,1.58653846 L4.73557692,0.0480769231 C4.81971154,0.0180288462 4.90985577,0 5,0 C5.09014423,0 5.18028846,0.0180288462 5.26442308,0.0480769231 L9.49519231,1.58653846 C9.79567308,1.69471154 10,1.98317308 10,2.30769231 Z" id="-copy" fill="#BEC4CD"></path>
    </g>
</svg>