<?xml version="1.0" encoding="UTF-8"?>
<svg width="19px" height="19px" viewBox="0 0 19 19" version="1.1" xmlns="http://www.w3.org/2000/svg" xmlns:xlink="http://www.w3.org/1999/xlink">
    <!-- Generator: Sketch 52.6 (67491) - http://www.bohemiancoding.com/sketch -->
    <title>icon_5-a-day</title>
    <desc>Created with Sketch.</desc>
    <g id="Page-1" stroke="none" stroke-width="1" fill="none" fill-rule="evenodd">
        <g id="icon_5-a-day">
            <rect id="Rectangle" x="0" y="0" width="19" height="19"></rect>
            <path d="M2.96177348,13.3670693 L4.71827683,14.6263502 C4.75300319,14.6512464 4.79971125,14.6513279 4.83452429,14.6265531 C4.87952151,14.5945307 4.89003967,14.5320939 4.85801726,14.4870967 L3.4790626,12.5494188 L7.1965166,6.67344312 L10.3062857,8.89470678 C10.3410555,8.91954232 10.3877636,8.91954232 10.4225334,8.89470678 C10.4674746,8.86260588 10.4778838,8.80015087 10.4457829,8.75520962 L8.03198186,5.37588817 C8.6601504,4.59050991 9.79201932,4.38677327 10.6617277,4.93699694 C10.7865405,5.01596015 10.9022226,5.10850583 11.0066578,5.21294105 L13.835085,8.04136817 C14.6161335,8.82241675 14.6161335,10.0887467 13.835085,10.8697953 C13.7306497,10.9742305 13.6149676,11.0667762 13.4901548,11.1457394 L10.1731289,13.244266 L7.0401252,11.0064062 C7.00535545,10.9815706 6.95864731,10.9815706 6.92387756,11.0064062 C6.8789363,11.0385071 6.86852713,11.1009621 6.90062803,11.1459033 L8.95150451,14.0171304 L2.03464171,18.3931048 C1.56791756,18.6883793 0.950195628,18.5493919 0.654921164,18.0826677 C0.448359612,17.7561672 0.448359612,17.3398848 0.654921164,17.0133843 L2.96177348,13.3670693 Z M12.0742482,4.85302116 C11.9807929,4.74083407 11.9346894,4.60383516 11.9574329,4.46670891 C11.9637018,4.42891167 11.9751347,4.39219871 11.9915222,4.35724162 L13.4955966,1.14882593 C13.5568761,1.01810764 13.7407669,0.963135097 13.9063282,1.02604132 C14.0221479,1.07004787 14.1029116,1.16279493 14.1137819,1.26427599 L13.8603356,3.82405174 L16.2416581,2.2888858 C16.3863779,2.20845615 16.5989796,2.2796051 16.7165173,2.44780141 C16.7987417,2.56546445 16.8152905,2.70501312 16.7590253,2.80625298 L15.2238857,5.1875282 L17.783704,4.93408644 C17.9287686,4.94962518 18.0470598,5.10477881 18.0479149,5.28063179 C18.0485131,5.40365111 17.9905991,5.50940315 17.8991541,5.55227169 L14.6907384,7.05634611 C14.5284817,7.13241046 14.3460063,7.09614135 14.2008315,6.97851744 C14.1120928,6.90661938 12.1734453,4.97210095 12.0742482,4.85302116 Z" id="Shape" fill="#333D47"></path>
        </g>
    </g>
</svg>