<svg width="24" height="24" viewBox="0 0 24 24" fill="none" xmlns="http://www.w3.org/2000/svg">
<path fill-rule="evenodd" clip-rule="evenodd" d="M12 2L14.2258 3.69304L17 3.33975L18.0811 5.91888L20.6603 7L20.307 9.77416L22 12L20.307 14.2258L20.6603 17L18.0811 18.0811L17 20.6603L14.2258 20.307L12 22L9.77416 20.307L7 20.6603L5.91888 18.0811L3.33975 17L3.69304 14.2258L2 12L3.69304 9.77416L3.33975 7L5.91888 5.91888L7 3.33975L9.77416 3.69304L12 2ZM14.4785 5.67701L15.7436 5.5159L16.2366 6.69206L16.5531 7.44695L17.3079 7.76339L18.4841 8.2564L18.323 9.52149L18.2196 10.3335L18.7151 10.985L19.4872 12L18.7151 13.015L18.2196 13.6665L18.323 14.4785L18.4841 15.7436L17.3079 16.2366L16.5531 16.5531L16.2366 17.3079L15.7436 18.4841L14.4785 18.323L13.6665 18.2196L13.015 18.7151L12 19.4872L10.985 18.7151L10.3335 18.2196L9.52149 18.323L8.2564 18.4841L7.76339 17.3079L7.44695 16.5531L6.69206 16.2366L5.5159 15.7436L5.67701 14.4785L5.78042 13.6665L5.28488 13.015L4.51281 12L5.28488 10.985L5.78042 10.3335L5.67701 9.52149L5.5159 8.2564L6.69206 7.76339L7.44695 7.44695L7.76339 6.69206L8.2564 5.5159L9.52149 5.67701L10.3335 5.78042L10.985 5.28488L12 4.51281L13.015 5.28488L13.6665 5.78042L14.4785 5.67701ZM11.4883 14.1702C11.7907 13.733 11.9687 13.2137 11.9773 12.7035L11.9774 12.7001C11.9774 12.6331 11.9751 12.5687 11.9718 12.5065H14.0017V11.0001H11.6082C11.5209 10.728 11.4612 10.4862 11.4612 10.2427C11.4612 9.6722 11.8476 9.26184 12.3948 9.26184C12.7782 9.26184 13.183 9.51175 13.406 9.89623L13.5313 10.1122L14.7533 8.98309L14.6731 8.84458C14.2125 8.04916 13.3061 7.48883 12.2613 7.50017C10.8573 7.51175 9.67454 8.56877 9.67454 10.0193C9.67454 10.3592 9.74084 10.6879 9.82835 11.0001H9.30005V12.5065H10.2264C10.2296 12.5462 10.2312 12.5859 10.2312 12.6256C10.2312 13.2157 9.92285 13.9396 9.40534 14.4143L9.34053 14.4738V15.9H14.6697V14.1702H11.4883Z" fill="white"/>
</svg>
