<?xml version="1.0" encoding="UTF-8"?>
<svg width="19px" height="19px" viewBox="0 0 19 19" version="1.1" xmlns="http://www.w3.org/2000/svg" xmlns:xlink="http://www.w3.org/1999/xlink">
    <!-- Generator: Sketch 52.6 (67491) - http://www.bohemiancoding.com/sketch -->
    <title>icon_Plant</title>
    <desc>Created with Sketch.</desc>
    <g id="icon_Plant" stroke="none" stroke-width="1" fill="none" fill-rule="evenodd">
        <rect id="Rectangle-Copy-26" x="0" y="0" width="19" height="19"></rect>
        <path d="M12.9285851,8.14286327 C12.9285851,7.8303629 12.6696562,7.57143402 12.3571558,7.57143402 C9.19643775,7.57143402 7.16072103,8.89286417 5.09821858,11.1696526 C4.99107559,11.2857242 4.92857552,11.4107243 4.92857552,11.5714388 C4.92857552,11.8839392 5.1875044,12.142868 5.50000477,12.142868 C5.66071925,12.142868 5.78571939,12.080368 5.90179096,11.973225 C6.33929148,11.5803674 6.73214909,11.1517954 7.16072103,10.7500092 C8.77679439,9.29465036 10.1607246,8.71429253 12.3571558,8.71429253 C12.6696562,8.71429253 12.9285851,8.45536365 12.9285851,8.14286327 Z M17.5000191,6.37500402 C17.5000191,6.94643328 17.437519,7.52679111 17.3214474,8.09822036 C16.7500182,10.8750094 14.9643018,12.678583 12.4821559,13.9107273 C11.2767974,14.5178709 9.92858148,14.8750142 8.571437,14.8750142 C7.71429312,14.8750142 6.8303635,14.7321568 6.01786253,14.4553708 C5.58929059,14.3125135 4.73214671,13.7500128 4.37500343,13.7500128 C3.92857432,13.7500128 3.3928594,15.5714436 2.61607276,15.5714436 C2.05357209,15.5714436 1.88392903,15.2946575 1.64285731,14.8839427 C1.56250007,14.7321568 1.5,14.6785854 1.5,14.4910851 C1.5,13.5625126 3.26785925,12.8392974 3.26785925,12.3214397 C3.26785925,12.2410824 3.03571612,11.7678676 3.00000179,11.589296 C2.9464303,11.2857242 2.91964455,10.9732238 2.91964455,10.6607234 C2.91964455,7.82143432 5.17857581,5.79464619 7.71429312,4.95535947 C9.54465245,4.34821589 13.4375142,5.05357388 14.6785871,3.87500104 C15.1696592,3.41964336 15.4107309,3 16.1607318,3 C17.1696615,3 17.5000191,5.61607455 17.5000191,6.37500402 Z" id="Leaf" fill="#333D47"></path>
    </g>
</svg>