<?xml version="1.0" encoding="UTF-8"?>
<svg width="19px" height="19px" viewBox="0 0 19 19" version="1.1" xmlns="http://www.w3.org/2000/svg" xmlns:xlink="http://www.w3.org/1999/xlink">
    <!-- Generator: Sketch 52.6 (67491) - http://www.bohemiancoding.com/sketch -->
    <title>icon_Use-within</title>
    <desc>Created with Sketch.</desc>
    <g id="icon_Use-within" stroke="none" stroke-width="1" fill="none" fill-rule="evenodd">
        <rect id="Rectangle-Copy-26" x="0" y="0" width="19" height="19"></rect>
        <g id="icon_use-within" transform="translate(2.000000, 1.000000)" fill="#333D47">
            <path d="M1.15384615,14.85 L3.75,14.85 L3.75,12.2538462 L1.15384615,12.2538462 L1.15384615,14.85 Z M4.32692308,14.85 L7.21153846,14.85 L7.21153846,12.2538462 L4.32692308,12.2538462 L4.32692308,14.85 Z M1.15384615,11.6769231 L3.75,11.6769231 L3.75,8.79230769 L1.15384615,8.79230769 L1.15384615,11.6769231 Z M4.32692308,11.6769231 L7.21153846,11.6769231 L7.21153846,8.79230769 L4.32692308,8.79230769 L4.32692308,11.6769231 Z M1.15384615,8.21538462 L3.75,8.21538462 L3.75,5.61923077 L1.15384615,5.61923077 L1.15384615,8.21538462 Z M7.78846154,14.85 L10.6730769,14.85 L10.6730769,12.2538462 L7.78846154,12.2538462 L7.78846154,14.85 Z M4.32692308,8.21538462 L7.21153846,8.21538462 L7.21153846,5.61923077 L4.32692308,5.61923077 L4.32692308,8.21538462 Z M11.25,14.85 L13.8461538,14.85 L13.8461538,12.2538462 L11.25,12.2538462 L11.25,14.85 Z M7.78846154,11.6769231 L10.6730769,11.6769231 L10.6730769,8.79230769 L7.78846154,8.79230769 L7.78846154,11.6769231 Z M4.61538462,3.88846154 L4.61538462,1.44230769 C4.61538462,1.2890625 4.48016827,1.15384615 4.32692308,1.15384615 L3.75,1.15384615 C3.59675481,1.15384615 3.46153846,1.2890625 3.46153846,1.44230769 L3.46153846,3.88846154 C3.46153846,4.04170673 3.59675481,4.17692308 3.75,4.17692308 L4.32692308,4.17692308 C4.48016827,4.17692308 4.61538462,4.04170673 4.61538462,3.88846154 Z M11.25,11.6769231 L13.8461538,11.6769231 L13.8461538,8.79230769 L11.25,8.79230769 L11.25,11.6769231 Z M7.78846154,8.21538462 L10.6730769,8.21538462 L10.6730769,5.61923077 L7.78846154,5.61923077 L7.78846154,8.21538462 Z M11.25,8.21538462 L13.8461538,8.21538462 L13.8461538,5.61923077 L11.25,5.61923077 L11.25,8.21538462 Z M11.5384615,3.88846154 L11.5384615,1.44230769 C11.5384615,1.2890625 11.4032452,1.15384615 11.25,1.15384615 L10.6730769,1.15384615 C10.5198317,1.15384615 10.3846154,1.2890625 10.3846154,1.44230769 L10.3846154,3.88846154 C10.3846154,4.04170673 10.5198317,4.17692308 10.6730769,4.17692308 L11.25,4.17692308 C11.4032452,4.17692308 11.5384615,4.04170673 11.5384615,3.88846154 Z M15,3.15384615 L15,14.85 C15,15.4810096 14.4771635,16.0038462 13.8461538,16.0038462 L1.15384615,16.0038462 C0.522836538,16.0038462 5.04870979e-28,15.4810096 5.04870979e-28,14.85 L-8.52651283e-13,3.15384615 C-8.52651283e-13,2.52283654 0.522836538,2 1.15384615,2 L2.30769231,2 L2.30769231,1.44230769 C2.30769231,0.649038462 2.95673077,-4.61852778e-14 3.75,-4.61852778e-14 L4.32692308,-4.61852778e-14 C5.12019231,-4.61852778e-14 5.76923077,0.649038462 5.76923077,1.44230769 L5.76923077,2 L9.23076923,2 L9.23076923,1.44230769 C9.23076923,0.649038462 9.87980769,-4.61852778e-14 10.6730769,-4.61852778e-14 L11.25,-4.61852778e-14 C12.0432692,-4.61852778e-14 12.6923077,0.649038462 12.6923077,1.44230769 L12.6923077,2 L13.8461538,2 C14.4771635,2 15,2.52283654 15,3.15384615 Z" id="calendar"></path>
        </g>
    </g>
</svg>