<?xml version="1.0" encoding="utf-8"?>
<!-- Generator: Adobe Illustrator 19.1.0, SVG Export Plug-In . SVG Version: 6.00 Build 0)  -->
<svg version="1.1" id="Layer_1" xmlns="http://www.w3.org/2000/svg" xmlns:xlink="http://www.w3.org/1999/xlink" x="0px" y="0px"
	 viewBox="0 0 32 32" style="enable-background:new 0 0 32 32;" xml:space="preserve">
<style type="text/css">
	.st0{fill:white;}
</style>
<path class="st0" d="M32,4.5c-1.2,0.7-2.4,1-3.8,1.2c1.4-0.9,2.4-2.4,2.9-4.2c-1.3,0.8-2.7,1.5-4.2,1.9C25.7,1.9,24,1,22.1,1
	c-3.6,0-6.6,3.4-6.6,7.6c0,0.7,0.1,1.1,0.2,1.8C10.4,10,5.6,7,2.3,2.3C1.8,3.4,1.4,4.8,1.4,6.2c0,2.7,1.2,5,2.9,6.3
	c-1.1,0-2.1-0.4-3-0.9v0.1c0,3.8,2.3,6.7,5.3,7.4c-0.6,0.2-1.1,0.3-1.7,0.3c-0.4,0-0.8,0-1.2-0.1c0.8,3.1,3.3,5.2,6.1,5.3
	c-2.2,2.1-5.1,3.2-8.2,3.2c-0.5,0-1.1,0-1.6-0.1C3,29.8,6.5,31,10.2,31c12.1,0,18.6-11.5,18.6-21.6c0-0.3,0-0.7,0-1
	C30,7.4,31.1,6.1,32,4.5z"/>
</svg>
