<?xml version="1.0" encoding="UTF-8"?>
<svg width="19px" height="19px" viewBox="0 0 19 19" version="1.1" xmlns="http://www.w3.org/2000/svg" xmlns:xlink="http://www.w3.org/1999/xlink">
    <!-- Generator: Sketch 52.6 (67491) - http://www.bohemiancoding.com/sketch -->
    <title>icon_Plant</title>
    <desc>Created with Sketch.</desc>
    <g id="icon_Plant" stroke="none" stroke-width="1" fill="none" fill-rule="evenodd">
        <rect id="Rectangle-Copy-26" x="0" y="0" width="19" height="19"></rect>
        <path d="M12.4285851,8.14286327 C12.4285851,7.8303629 12.1696562,7.57143402 11.8571558,7.57143402 C8.69643775,7.57143402 6.66072103,8.89286417 4.59821858,11.1696526 C4.49107559,11.2857242 4.42857552,11.4107243 4.42857552,11.5714388 C4.42857552,11.8839392 4.6875044,12.142868 5.00000477,12.142868 C5.16071925,12.142868 5.28571939,12.080368 5.40179096,11.973225 C5.83929148,11.5803674 6.23214909,11.1517954 6.66072103,10.7500092 C8.27679439,9.29465036 9.66072461,8.71429253 11.8571558,8.71429253 C12.1696562,8.71429253 12.4285851,8.45536365 12.4285851,8.14286327 Z M17.0000191,6.37500402 C17.0000191,6.94643328 16.937519,7.52679111 16.8214474,8.09822036 C16.2500182,10.8750094 14.4643018,12.678583 11.9821559,13.9107273 C10.7767974,14.5178709 9.42858148,14.8750142 8.071437,14.8750142 C7.21429312,14.8750142 6.3303635,14.7321568 5.51786253,14.4553708 C5.08929059,14.3125135 4.23214671,13.7500128 3.87500343,13.7500128 C3.42857432,13.7500128 2.8928594,15.5714436 2.11607276,15.5714436 C1.55357209,15.5714436 1.38392903,15.2946575 1.14285731,14.8839427 C1.06250007,14.7321568 1,14.6785854 1,14.4910851 C1,13.5625126 2.76785925,12.8392974 2.76785925,12.3214397 C2.76785925,12.2410824 2.53571612,11.7678676 2.50000179,11.589296 C2.4464303,11.2857242 2.41964455,10.9732238 2.41964455,10.6607234 C2.41964455,7.82143432 4.67857581,5.79464619 7.21429312,4.95535947 C9.04465245,4.34821589 12.9375142,5.05357388 14.1785871,3.87500104 C14.6696592,3.41964336 14.9107309,3 15.6607318,3 C16.6696615,3 17.0000191,5.61607455 17.0000191,6.37500402 Z" id="Leaf" fill="#333D47"></path>
    </g>
</svg>