<?xml version="1.0" encoding="UTF-8"?>
<svg width="19px" height="19px" viewBox="0 0 19 19" version="1.1" xmlns="http://www.w3.org/2000/svg" xmlns:xlink="http://www.w3.org/1999/xlink">
    <!-- Generator: Sketch 52.6 (67491) - http://www.bohemiancoding.com/sketch -->
    <title>icon_Time_white</title>
    <desc>Created with Sketch.</desc>
    <g id="icon_Time_white" stroke="none" stroke-width="1" fill="none" fill-rule="evenodd">
        <g id="icon_Time">
            <rect id="Rectangle-Copy-26" x="0" y="0" width="19" height="19"></rect>
            <path d="M9.5,17.5 C5.1,17.5 1.5,13.9 1.5,9.5 C1.5,5.1 5.1,1.5 9.5,1.5 C13.9,1.5 17.5,5.1 17.5,9.5 C17.5,13.9 13.9,17.5 9.5,17.5 M9.5,3 C5.9,3 3,5.9 3,9.5 C3,13.1 5.9,16 9.5,16 C13.1,16 16,13.1 16,9.5 C16,5.9 13.1,3 9.5,3 M12.5,10.5 L11,10.5 L10,10.5 L9.25,10.5 C8.85,10.5 8.5,10.15 8.5,9.75 L8.5,5.25 C8.5,4.85 8.85,4.5 9.25,4.5 C9.65,4.5 10,4.85 10,5.25 L10,9 L11,9 L12.5,9 C12.9,9 13.25,9.35 13.25,9.75 C13.25,10.15 12.9,10.5 12.5,10.5" id="path-1-copy-4" fill="#FFFFFF"></path>
        </g>
    </g>
</svg>