<svg id="Layer_1" data-name="Layer 1" xmlns="http://www.w3.org/2000/svg" viewBox="0 0 405.67 17.61"><defs><style>.cls-1{fill:#ff0027;}</style></defs><path class="cls-1" d="M187.79,0H175.86a12.86,12.86,0,0,0,6.28,1.45A15.08,15.08,0,0,0,187.79,0Z"/><path class="cls-1" d="M405.67,0H357.14a55.86,55.86,0,0,1-18.51,0h-39c-3.86,1.48-7.31,2.69-11.38,2.74h-.11c-2.75,0-7.25-1.1-12.65-2.74H253.2l5,1.7c12.81,4.35,23.84,8.1,30.08,8,5.68-.06,10.33-1.86,14.81-3.59,7.08-2.73,13.77-5.31,25.37-1.89C335.15,7.1,346.67,9.64,364,5.85c12.51-2.74,19.5-2.13,30.07-1.21,3.31.29,7.06.62,11.39.88h.21Z"/><path class="cls-1" d="M105.86,13.38a38.21,38.21,0,0,0,4.89-.3c11.38-1.45,21-6.48,29.51-10.92,1.43-.74,2.82-1.47,4.18-2.16H129a63.9,63.9,0,0,1-19.16,6.13C100.49,7.33,90.24,3.94,80.11,0H60.62c3.8,1.29,7.74,2.86,11.79,4.48C83.39,8.87,94.69,13.38,105.86,13.38Z"/><path class="cls-1" d="M105.86,1.85a38.22,38.22,0,0,0,4.89-.31A56,56,0,0,0,118.38,0H92.55A54.05,54.05,0,0,0,105.86,1.85Z"/><path class="cls-1" d="M29.91.3l1-.3H0V5.5C12.51,5.57,22,2.71,29.91.3Z"/></svg>