<?xml version="1.0" encoding="utf-8"?>
<!-- Generator: Adobe Illustrator 21.1.0, SVG Export Plug-In . SVG Version: 6.00 Build 0)  -->
<svg version="1.1" id="Layer_1" xmlns="http://www.w3.org/2000/svg" xmlns:xlink="http://www.w3.org/1999/xlink" x="0px" y="0px"
     viewBox="0 0 300 300" enable-background="new 0 0 300 300" xml:space="preserve">
<g>
    <path fill="#DCE6F4" d="M40.2,149.2c0-60.6,49.2-109.8,109.9-109.8c60.7,0,109.9,49.2,109.9,109.8c0,60.6-49.2,109.8-109.9,109.8
        C89.4,259,40.2,209.8,40.2,149.2"/>
    <path fill="#FFFFFF" d="M254.8,153.9l-20.2-33c-1.9-3.2-5.4-5.1-9.2-5.1h-33.3c-5.9,0-10.7,4.8-10.7,10.7v66h-35.8
        c-0.4-2.3-1.3-4.4-2.6-6.2l2.4-0.5c0.6,0.9,1.7,1.5,2.9,1.5h24.9c1.9,0,3.5-1.6,3.5-3.5l0.2-85.8c0-0.9-0.4-1.8-1-2.5
        c-0.7-0.6-1.5-1-2.5-1l-104,0.2c-1.9,0-3.5,1.6-3.5,3.5v85.6c0,1.9,1.6,3.5,3.5,3.5h39.8c1.5,0,2.7-0.9,3.2-2.1l2.9,0.5
        c-1.5,1.9-2.5,4.2-3,6.7H69.4c-1.9,0-3.5,1.6-3.5,3.5s1.6,3.5,3.5,3.5h42.9c1.6,7.7,8.5,13.5,16.6,13.5c8.3,0,15.2-5.9,16.7-13.8
        h51.3c1.5,7.8,8.4,13.8,16.7,13.8s15.2-5.9,16.7-13.8h15.4c5.9,0,10.7-4.8,10.7-10.7v-28.8C256.4,157.5,255.9,155.6,254.8,153.9z"
        />
    <g>
        <g>
            <circle fill="none" stroke="#333D47" stroke-width="6.5" stroke-miterlimit="10" cx="124.1" cy="191.7" r="13.8"/>
            <circle fill="none" stroke="#333D47" stroke-width="6.5" stroke-miterlimit="10" cx="208.8" cy="191.7" r="13.8"/>
            <circle fill="#333D47" cx="208.8" cy="191.7" r="3.9"/>
            <circle fill="#333D47" cx="124.1" cy="191.7" r="3.9"/>
            <line fill="none" stroke="#333D47" stroke-width="6.5" stroke-miterlimit="10" x1="195" y1="191.7" x2="137.8" y2="191.7"/>
            <path fill="none" stroke="#333D47" stroke-width="6.5" stroke-miterlimit="10" d="M179.8,191.7v-65.4c0-6.3,5.1-11.3,11.3-11.3
                h27.3c3.9,0,7.6,2.1,9.7,5.4l18.5,30.2c1.1,1.8,1.7,3.8,1.7,5.9v23.8c0,6.3-5.1,11.3-11.3,11.3h-14.5"/>
            <path fill="none" stroke="#333D47" stroke-width="6.5" stroke-miterlimit="10" d="M193.4,127H217c1,0,1.9,0.5,2.4,1.4l13,22
                c1.1,1.8-0.2,4.2-2.4,4.2h-36.7c-1.5,0-2.8-1.2-2.8-2.8v-22C190.6,128.2,191.8,127,193.4,127z"/>
        </g>
        <g>
            
                <path fill="none" stroke="#333E48" stroke-width="6.5" stroke-linecap="round" stroke-linejoin="round" stroke-miterlimit="10" d="
                M104.4,179.8H70.2c-3.1,0-5.7-2.5-5.7-5.7V99.8c0-3.1,2.5-5.7,5.7-5.7l92.6-0.2c3.1,0,5.7,2.5,5.7,5.7l-0.2,74.3
                c0,3.2-2.6,5.7-5.7,5.7h-19.2"/>
        </g>
        <g>
            <path fill="#F7323F" d="M118.1,125.8c-3,0-5.5,2.4-5.7,5.4c-0.2,3.2,2.4,5.7,5.5,5.7c3,0,5.3-2,5.7-5
                C124.1,128.5,121.4,125.8,118.1,125.8z"/>
            <path fill="#F7323F" d="M141.2,130.5c-2.1-11.1-11.6-18.1-22.7-18.3c-9.8,0.2-18.9,5.3-22.2,15.5c-3.4,10.5-0.3,20.6,7.3,26.4
                c7.9,6,18.9,7,27.3,1.8C139.2,150.7,143,140.1,141.2,130.5z M127.1,147.1c-0.8,2-2.2,3.6-4,4.7c-3.3,1.9-7.4,1.5-10.4-0.7
                c-1.5-1.1-2.7-2.5-3.3-4.2c-0.6-1.6-1.4-4.8,1-5.1c1.7-0.1,2.1,2.2,2.3,3c0.9,3.5,4.6,5.6,7.9,4c1.9-1,2.9-2.8,3.1-5
                c0.1-1,0.5-2.1,1.7-2.4c0.6-0.1,1.1,0.1,1.5,0.3C128.3,142.8,127.6,145.7,127.1,147.1z M126.1,126.5c2.3,3.8,1.8,8.8-1.6,11.9
                c-5.6,5.2-15.2,1.7-16-5.9c-0.4-3.6,1.3-7.2,4.4-9.1c3.3-2,7.3-1.7,10.4,0.3c0.7-2.4,4.4-2,4.6,0.6v0c0,0,0,0,0,0.1
                C127.9,125.5,127.2,126.3,126.1,126.5z"/>
        </g>
        
            <line fill="none" stroke="#333E48" stroke-width="7" stroke-linecap="round" stroke-linejoin="round" stroke-miterlimit="10" x1="109.1" y1="191.7" x2="64.6" y2="191.7"/>
    </g>
</g>
</svg>
