<?xml version="1.0" encoding="UTF-8"?>
<svg width="40px" height="40px" viewBox="0 0 40 40" version="1.1" xmlns="http://www.w3.org/2000/svg" xmlns:xlink="http://www.w3.org/1999/xlink">
    <!-- Generator: Sketch 52.5 (67469) - http://www.bohemiancoding.com/sketch -->
    <title>icon_Email</title>
    <desc>Created with Sketch.</desc>
    <g id="study-8" stroke="none" stroke-width="1" fill="none" fill-rule="evenodd">
        <g id="overlay-v2" transform="translate(-32.000000, -129.000000)">
            <g id="Group" transform="translate(32.000000, 128.200000)">
                <g id="icon_Email">
                    <rect id="Bounding-box" opacity="0" x="0" y="0.8" width="40" height="40"></rect>
                    <path d="M4,13.2819659 L17.1157988,22.543955 C18.8447772,23.7649084 21.1552228,23.7649084 22.8842012,22.543955 L36,13.2819659 L36,10.8 L4,10.8 L4,13.2819659 Z M4,15.7303749 L4,30.8 L36,30.8 L36,15.7303749 L24.0378817,24.177669 C21.6173119,25.8870038 18.3826881,25.8870038 15.9621183,24.177669 L4,15.7303749 Z M3,8.8 L37,8.8 C37.5522847,8.8 38,9.24771525 38,9.8 L38,31.8 C38,32.3522847 37.5522847,32.8 37,32.8 L3,32.8 C2.44771525,32.8 2,32.3522847 2,31.8 L2,9.8 C2,9.24771525 2.44771525,8.8 3,8.8 Z" id="icon_Email-Copy" fill="#333D47" fill-rule="nonzero"></path>
                </g>
            </g>
        </g>
    </g>
</svg>
