<svg enable-background="new 0 0 276.88 323.12" viewBox="0 0 276.88 323.12" xmlns="http://www.w3.org/2000/svg"><g fill="#3d4596"><path d="m53.9 220.22c0-.53-.43-.96-.96-.96h-33.43c-.53 0-.96.43-.96.96s.43.96.96.96h33.42c.54.01.97-.42.97-.96z"/><path d="m254.75 219.26h-33.72c-.53 0-.96.43-.96.96s.43.96.96.96h33.72c.53 0 .96-.43.96-.96s-.43-.96-.96-.96z"/><path d="m130.92 13.27c17.76.63 33.24 7.8 44.47 23.04 7.64 10.37 10.42 22.24 9.64 35-1.57 25.42-21.18 44.74-45.14 49.24-23.12 4.35-48.75-7.84-59.31-28.78-11.91-23.61-5.3-51.65 15.92-67.39 9.92-7.37 21.15-10.86 34.42-11.11zm-1.22 96.64c22.21.15 42.42-17.89 42.64-42.12.23-24.81-19.84-42.58-41.34-43.03-23.86-.5-43 18.59-43.39 41.88-.39 23.58 18.46 42.88 42.09 43.27z"/><path d="m252.33 56.4v11.33c-13.88.12-41.76.08-41.76.08v39.36s13.89.08 20.83.11c6.87.03 13.75.01 20.87.01v11.16c-17.94 0-35.82 0-53.97 0 0-34.05 0-68.12 0-102.2 2.15-.65 50.31-.8 54.03-.14v10.72c-13.94 0-41.34 0-41.34 0l-.26 29.56c-.02.01 27.58.01 41.6.01z"/><path d="m74.42 187.03c-5.27-13.18-10.53-26.35-15.88-39.73-5.27 13.43-10.45 26.6-15.62 39.76-.2.03-.41.06-.61.09-7.42-19.9-14.83-39.79-22.35-59.95h9.47c4.62 12.34 9.26 24.73 14.07 37.6 4.99-13.31 9.84-26.26 14.69-39.21.22-.04.44-.07.66-.11 5.03 12.92 10.24 25.77 15.15 39.41 4.71-12.82 9.24-25.14 13.83-37.61h9.58c-7.51 20.07-14.93 39.9-22.35 59.72-.2.01-.42.02-.64.03z"/><path d="m18.71 111.51c2.7-2.92 5.16-5.57 7.66-8.27 1.78 1.46 3.23 2.9 4.92 3.96 1.87 1.16 3.87 2.28 5.96 2.87 6.32 1.8 11.28-1.21 12.28-7.68.69-4.48.87-9.07.89-13.61.07-23.3.02-46.6.01-69.9 0-.89.17-2.91.17-2.91h12.21s.14 1.91.14 2.88c.01 25.73.05 51.46-.03 77.2-.01 3.31-.43 6.69-1.13 9.93-1.61 7.47-6.11 12.46-13.62 14.36-11.6 2.92-21.58.33-29.46-8.83z"/><path d="m183.52 127.24v22.87c.21.1.42.2.63.3 3.36-3.81 6.74-7.6 10.09-11.43 3.4-3.89 10.2-11.77 10.2-11.77h11.7l-23 25.83s16.98 21.24 25.75 32.22c-4.36 0-8.22 0-12.31 0-7.34-9.4-14.79-18.96-22.25-28.52-.22.04-.44.08-.66.12-.04 2.32-.1 4.64-.12 6.96-.02 2.33 0 4.66 0 6.99v7.29 7.19c-3.2 0-6.17 0-9.36 0 0-19.31 0-38.59 0-58.05z"/><path d="m166.72 131.81c-.12 2.78-.26 5.7-.41 9.05-.88-.51-1.55-.84-2.14-1.26-5.98-4.21-12.56-6.02-19.83-4.87-9.09 1.44-15.42 7.49-17.24 16.49-1.07 5.29-.72 10.5 1.69 15.43 4.24 8.68 13.2 13.07 22.73 11.28 4.66-.88 8.91-2.65 12.72-5.48.46-.34.97-.6 1.76-1.08v9.98c-6.91 6.94-27.77 9.34-40.18-2.57-12-11.53-11.96-31.78-1.37-43.29 10.9-11.85 30.16-12.94 42.27-3.68z"/><path d="m217.45 173.87c2.6-1.22 4.96-2.33 7.41-3.48.68 1.28 1.16 2.51 1.91 3.55 3.14 4.37 10.46 5.74 15.1 3.02 4.76-2.79 5.11-10.83.7-13.44-1.82-1.08-3.7-2.07-5.56-3.1-3.71-2.06-7.54-3.93-11.11-6.21-6.04-3.86-7.83-9.67-6.33-16.4 1.45-6.51 5.97-10.26 12.33-11.56 5.69-1.16 11.32-.78 16.43 2.43 2.45 1.54 4.34 3.58 5.12 6.73-2.35 1.26-4.64 2.49-7.07 3.79-.66-.77-1.23-1.45-1.83-2.12-2.8-3.11-7.3-4.08-11.11-2.4-4.87 2.15-5.98 8.58-1.91 12.03 1.75 1.48 3.9 2.51 5.94 3.62 3.38 1.83 6.96 3.31 10.2 5.36 6.73 4.26 8.98 9.95 7.42 17.72-1.36 6.77-6.45 11.78-13.55 13.14-4.84.93-9.68.91-14.34-.99-5.18-2.12-8.27-5.97-9.75-11.69z"/><path d="m100.38 127.18h8.95v58.13h-8.95z"/></g><path d="m182.31 268.81c-1.89-1.58-4.28-2.4-6.62-3.07-2.18-.62-4.87-.97-6.72-2.38-2.29-1.75-1.04-5.26 1.95-5.44 4.59-.27 7.51.34 8.83-1.32.96-1.19 1.2-4.03-1.43-5.37-3.07-1.57-9.58-.89-11.52-.21-.58.2-1.16.41-1.7.68-3.51 1.7-6 4.87-6.01 9.5.36 6.58 4.82 8.93 10.58 10.42 2.17.56 4.86 1.02 6.49 2.7 3.05 3.12.6 8.24-3.62 8.61-2.48.22-9.45-.47-12.07 1.22-2.78 1.81-2.09 5.51.98 6.28 2.08.52 4.59.5 6.71.5 4.97 0 9.54-.54 13.46-4.05 4.95-4.42 6.14-13.51.69-18.07" fill="#e9454f" stroke="#e9454f" stroke-miterlimit="10" stroke-width=".25"/><path d="m87.06 250.06c-8.52.16-16.23 5.34-19.22 13.4-3 8.1-.36 17.46 6.35 22.87 6.68 5.39 16.33 6.04 23.64 1.51 7.17-4.44 10.95-12.98 9.36-21.26-1.86-9.63-10.47-16.33-20.13-16.52m0 32.48c-6.57 0-12-5.41-11.98-12.08.02-6.56 5.44-12.01 12.01-12.05 6.55-.03 11.99 5.58 11.98 12.08-.01 6.68-5.45 12.05-12.01 12.05" fill="#e9454f" stroke="#e9454f" stroke-miterlimit="10" stroke-width=".25"/><path d="m254.26 265.4c-2.44-9.07-10.42-14.92-20.11-14.92-.01 0-.02 0-.02 0-8.48.16-16.21 5.26-19.05 13.39-2.97 8.49.34 18.11 7.79 23.1 6.24 4.17 14.73 4.67 21.38 1.18 8.14-4.26 12.4-13.86 10.01-22.75m-20.06 17.19c-6.61 0-11.77-6.19-11.37-12.76.38-6.33 5.72-11.52 12.1-11.35 6.72.18 11.68 6.47 11.11 13.01-.54 6.17-5.63 11.1-11.84 11.1" fill="#e9454f" stroke="#e9454f" stroke-miterlimit="10" stroke-width=".25"/><path d="m207.38 282.59c-.05 0-4.23-.07-5.55-1.91-.82-1.15-.88-2.59-.91-3.95-.05-2.11 0-4.22 0-6.33v-12c3.18.03 7.56.07 7.57-4.23.02-4.31-4.42-4.16-7.56-4.13.06-2.36.39-5.19-1.76-6.71-2.42-1.71-5.96-.24-6.6 2.61-.27 1.22-.15 2.65-.15 3.88 0 2.75.06 5.49.06 8.24v17.72c0 5.93 1.87 11.57 7.78 14.13 2.39 1.04 7.03 1.91 9.38.18 3.29-2.41 1.56-7.12-2.26-7.5" fill="#e9454f" stroke="#e9454f" stroke-miterlimit="10" stroke-width=".25"/><path d="m61.11 255.23c-.45-5.6-8.16-6.6-9.77-1.38-6.69-4.45-15.39-5-22.37-.71-6.64 4.08-10.39 11.78-9.5 19.53 1.87 16.26 22.32 23.88 34.32 12.7 7.1-6.62 8.26-17.24 3.35-25.44 2.28-.48 3.78-2.14 3.97-4.57.01-.04.01-.08 0-.13zm-21.52 26.86c-6.78 0-12.23-5.26-11.82-12.17.38-6.39 5.79-11.58 12.21-11.58 6.95.01 12.77 5.79 11.78 13.05-.87 6.36-5.78 10.7-12.17 10.7" fill="#e9454f" stroke="#e9454f" stroke-miterlimit="10" stroke-width=".25"/><path d="m152.59 257.49c0-3.21.17-6.35-3.56-6.84-3.05-.26-4.82 1.72-4.84 4.69-.02 3.72.02 9.25-.12 15.44-.16 7.07-6.27 13.07-13.31 11.19-3.49-.93-6.11-3.48-7.19-6.93-1.76-5.59-.28-13.33-1.14-15.25-1.89-4.24-7.9-3.16-8.29 1.35-.26 3.13-.04 6.41 0 9.54.15 11.57 9.02 21.26 21.09 20.16 6.6-.6 12.29-4.51 15.34-10.37 1.52-2.92 2.02-6.1 2.02-9.35 0-3.51 0-10.49 0-13.63" fill="#e9454f" stroke="#e9454f" stroke-miterlimit="10" stroke-width=".25"/><path d="m58.42 292.48c-.81-.56-1.94-.93-3.2-.71-2.54.45-3.4 2.86-3.6 5.04-.41 4.54-2.39 8.6-6.54 10.63-7.05 3.46-14.99-1.09-16.87-8.51-.46-1.82-1.33-6.67-4.9-6.45-5.33.54-3.58 7.42-2.24 10.82 1.43 3.65 3.95 6.78 7.12 9.07 6.51 4.69 15.21 5.62 22.29 1.58 3.92-2.24 7.02-5.81 8.67-10.02 1.18-3.04 2.53-9.21-.73-11.45" fill="#e9454f" stroke="#e9454f" stroke-miterlimit="10" stroke-width=".25"/><g fill="#3d4596"><path d="m69.4 215.61c-.44-.46-.91-.81-1.39-1.05-.49-.24-1.06-.36-1.74-.36-.65 0-1.22.12-1.71.36s-.89.57-1.22.98-.57.89-.74 1.43-.25 1.1-.25 1.68.1 1.14.29 1.66.47.98.82 1.37.78.69 1.27.91 1.05.33 1.67.33c.67 0 1.25-.12 1.72-.36.48-.24.92-.59 1.32-1.05l1.7 1.7c-.62.69-1.34 1.18-2.16 1.48s-1.69.45-2.61.45c-.97 0-1.86-.16-2.66-.48s-1.5-.76-2.08-1.34c-.58-.57-1.03-1.26-1.35-2.07-.32-.8-.48-1.69-.48-2.66s.16-1.86.48-2.68c.32-.81.76-1.51 1.34-2.09.57-.58 1.26-1.04 2.07-1.36.8-.33 1.7-.49 2.69-.49.92 0 1.8.16 2.64.49s1.57.83 2.19 1.5z"/><path d="m72.82 218.56c0-.92.17-1.77.52-2.57.34-.8.82-1.49 1.42-2.09s1.31-1.07 2.12-1.42c.81-.34 1.69-.52 2.62-.52s1.81.17 2.62.52 1.52.82 2.12 1.42 1.07 1.3 1.42 2.09c.34.8.52 1.65.52 2.57s-.17 1.78-.52 2.59c-.34.8-.82 1.5-1.42 2.09s-1.31 1.06-2.12 1.4-1.69.52-2.62.52-1.81-.17-2.62-.52-1.52-.81-2.12-1.4-1.07-1.29-1.42-2.09c-.34-.81-.52-1.67-.52-2.59zm2.55 0c0 .64.1 1.23.29 1.76.19.54.47 1 .82 1.38s.79.68 1.3.9 1.09.33 1.72.33c.64 0 1.21-.11 1.72-.33s.94-.52 1.3-.9c.35-.38.63-.84.82-1.38s.29-1.12.29-1.76-.1-1.22-.29-1.76-.47-1-.82-1.38-.79-.68-1.3-.9-1.09-.33-1.72-.33c-.64 0-1.21.11-1.72.33s-.94.52-1.3.9c-.35.38-.63.84-.82 1.38s-.29 1.12-.29 1.76z"/><path d="m88.95 218.56c0-.92.17-1.77.52-2.57.34-.8.82-1.49 1.42-2.09s1.31-1.07 2.12-1.42c.81-.34 1.69-.52 2.62-.52s1.81.17 2.62.52 1.52.82 2.12 1.42 1.07 1.3 1.42 2.09c.34.8.52 1.65.52 2.57s-.17 1.78-.52 2.59c-.34.8-.82 1.5-1.42 2.09s-1.31 1.06-2.12 1.4-1.69.52-2.62.52-1.81-.17-2.62-.52-1.52-.81-2.12-1.4-1.07-1.29-1.42-2.09c-.35-.81-.52-1.67-.52-2.59zm2.54 0c0 .64.1 1.23.29 1.76.19.54.47 1 .82 1.38s.79.68 1.3.9 1.09.33 1.72.33c.64 0 1.21-.11 1.72-.33s.94-.52 1.3-.9c.35-.38.63-.84.82-1.38s.29-1.12.29-1.76-.1-1.22-.29-1.76-.47-1-.82-1.38-.79-.68-1.3-.9-1.09-.33-1.72-.33c-.64 0-1.21.11-1.72.33s-.94.52-1.3.9c-.35.38-.63.84-.82 1.38s-.29 1.12-.29 1.76z"/><path d="m105.74 204.8h2.39v12.94l5.41-5.43h3.31l-5.86 5.7 6.36 6.84h-3.39l-5.83-6.52v6.52h-2.39z"/><path d="m119.54 207.77c0-.48.17-.89.52-1.23.34-.34.76-.52 1.23-.52.48 0 .89.17 1.23.52s.52.76.52 1.23-.17.89-.52 1.23c-.34.34-.76.52-1.23.52-.48 0-.89-.17-1.23-.52-.34-.34-.52-.75-.52-1.23zm.56 4.51h2.39v12.56h-2.39z"/><path d="m126.67 212.28h2.39v1.93h.05c.3-.67.82-1.21 1.56-1.63.74-.41 1.6-.62 2.57-.62.6 0 1.18.09 1.74.28s1.04.47 1.46.86.75.89.99 1.5c.25.61.37 1.33.37 2.16v8.09h-2.39v-7.42c0-.58-.08-1.08-.24-1.5s-.37-.75-.64-1.01-.57-.44-.91-.56-.7-.17-1.07-.17c-.5 0-.95.08-1.38.24-.42.16-.8.41-1.11.76-.32.35-.56.78-.74 1.31s-.27 1.16-.27 1.88v6.47h-2.39v-12.57z"/><path d="m154.4 224.73c0 .95-.16 1.82-.49 2.61s-.79 1.47-1.39 2.04-1.32 1.02-2.17 1.34-1.78.48-2.81.48c-1.2 0-2.3-.17-3.3-.5s-1.95-.92-2.85-1.75l1.62-2.01c.62.67 1.29 1.18 2.01 1.52s1.55.52 2.47.52c.88 0 1.62-.13 2.2-.38.58-.26 1.05-.59 1.39-1 .34-.4.59-.87.73-1.39s.21-1.05.21-1.58v-1.86h-.08c-.46.76-1.08 1.32-1.87 1.68s-1.61.54-2.48.54c-.92 0-1.77-.16-2.56-.49s-1.46-.78-2.03-1.35-1.01-1.25-1.33-2.04-.48-1.64-.48-2.56.15-1.78.45-2.58.73-1.51 1.28-2.11c.56-.6 1.23-1.07 2.01-1.4.79-.34 1.67-.5 2.64-.5.85 0 1.67.19 2.48.56.8.37 1.44.89 1.9 1.56h.05v-1.8h2.39v12.45zm-6.52-10.55c-.64 0-1.21.11-1.72.33s-.94.52-1.3.9c-.35.38-.63.84-.82 1.38s-.29 1.13-.29 1.76c0 1.27.37 2.29 1.11 3.06s1.75 1.15 3.02 1.15 2.28-.38 3.02-1.15 1.11-1.79 1.11-3.06c0-.64-.1-1.22-.29-1.76s-.47-1-.82-1.38-.79-.68-1.3-.9-1.09-.33-1.72-.33z"/><path d="m164.39 212.28h2.68l2.82 9.38h.05l3.01-9.38h2.55l3.18 9.38h.05l2.68-9.38h2.54l-4.05 12.56h-2.41l-3.33-9.38h-.05l-3.03 9.38h-2.55z"/><path d="m186.1 207.77c0-.48.17-.89.52-1.23.34-.34.76-.52 1.23-.52.48 0 .89.17 1.23.52s.52.76.52 1.23-.17.89-.52 1.23c-.34.34-.76.52-1.23.52-.48 0-.89-.17-1.23-.52-.35-.34-.52-.75-.52-1.23zm.55 4.51h2.39v12.56h-2.39z"/><path d="m200.15 214.34h-3.42v5.7c0 .36.01.7.03 1.05s.08.65.2.93.29.5.53.66c.24.17.59.25 1.05.25.28 0 .57-.03.87-.08s.57-.15.82-.29v2.17c-.28.16-.65.27-1.1.33s-.8.09-1.05.09c-.92 0-1.63-.13-2.13-.38-.5-.26-.87-.59-1.11-1-.24-.4-.38-.86-.42-1.36s-.07-1.01-.07-1.52v-6.55h-2.76v-2.07h2.76v-3.53h2.39v3.53h3.42v2.07z"/><path d="m203.32 204.8h2.39v9.41h.05c.3-.67.82-1.21 1.56-1.63.74-.41 1.6-.62 2.57-.62.6 0 1.18.09 1.74.28s1.04.47 1.46.86.75.89.99 1.5c.25.61.37 1.33.37 2.16v8.09h-2.39v-7.42c0-.58-.08-1.08-.24-1.5s-.37-.75-.64-1.01-.57-.44-.91-.56-.7-.17-1.07-.17c-.5 0-.95.08-1.38.24-.42.16-.8.41-1.11.76-.32.35-.56.78-.74 1.31s-.27 1.16-.27 1.88v6.47h-2.39v-20.05z"/></g></svg>