<?xml version="1.0" encoding="UTF-8"?>
<svg width="300px" height="27px" viewBox="0 0 90 27" version="1.1" xmlns="http://www.w3.org/2000/svg" xmlns:xlink="http://www.w3.org/1999/xlink">
    <!-- Generator: Sketch 55.2 (78181) - https://sketchapp.com -->
    <title>nourished_logo</title>
    <desc>Created with Sketch.</desc>
    <g id="nourished_logo" stroke="none" stroke-width="1" fill="none" fill-rule="evenodd">
        <path d="M77.376 8.313c.643-.534.965-1.25.965-2.15 0-.976-.322-1.735-.965-2.278-.644-.542-1.494-.813-2.55-.813h-2.344v6.044h2.32c1.072 0 1.93-.268 2.574-.803m95.782 2.313c.245-.65.368-1.371.368-2.161 0-.806-.123-1.538-.368-2.197a4.736 4.736 0 0 0-1.067-1.697 4.745 4.745 0 0 0-1.698-1.093c-.666-.255-1.42-.384-2.26-.384h-2.915v10.67h2.914c.842 0 1.595-.127 2.261-.383a4.82 4.82 0 0 0 1.698-1.08 4.638 4.638 0 0 0 1.067-1.675m2.965-5.555c.405 1.007.607 2.123.607 3.347 0 1.225-.202 2.34-.607 3.348a7.315 7.315 0 0 1-1.716 2.58c-.74.713-1.629 1.267-2.667 1.662-1.037.395-2.189.593-3.455.593h-6.202V.259h6.202c1.266 0 2.418.193 3.455.58 1.038.388 1.927.939 2.667 1.651a7.32 7.32 0 0 1 1.716 2.58M143.367.26h11.009V16.6h-11.077v-2.813h7.941V9.766h-6.934V6.93h6.934V3.095h-7.873zm-11.105 0h3.135V16.6h-3.135V9.836H124v6.765h-3.136V.259H124v6.74h8.262zm-21.125 8.217c.435.38.774.841 1.019 1.383.244.543.366 1.21.366 2 0 .76-.138 1.445-.412 2.057a4.406 4.406 0 0 1-1.156 1.558c-.496.426-1.095.755-1.797.987-.702.233-1.48.35-2.334.35-1.343 0-2.521-.172-3.536-.512a9.03 9.03 0 0 1-2.735-1.465l1.58-2.557c.732.589 1.49 1.027 2.277 1.313.785.287 1.605.43 2.46.43.732 0 1.335-.158 1.808-.476.473-.318.71-.81.71-1.476 0-.651-.253-1.155-.756-1.511-.503-.356-1.358-.705-2.563-1.046a14.893 14.893 0 0 1-1.911-.651 5.99 5.99 0 0 1-1.534-.919 4.03 4.03 0 0 1-1.03-1.301c-.251-.504-.377-1.112-.377-1.825 0-.728.14-1.383.423-1.964a4.468 4.468 0 0 1 1.179-1.5c.504-.418 1.11-.74 1.82-.965.709-.224 1.499-.336 2.368-.336 1.19 0 2.224.155 3.101.464.877.31 1.637.713 2.277 1.21l-1.441 2.417a7.163 7.163 0 0 0-1.774-.953c-.633-.233-1.362-.349-2.186-.349-.732 0-1.343.144-1.83.43-.489.287-.733.732-.733 1.337 0 .294.065.546.195.755.129.21.331.395.606.558a5.46 5.46 0 0 0 1.03.453c.412.14.893.295 1.442.465.686.202 1.323.43 1.91.686a5.9 5.9 0 0 1 1.534.953M90.047.26h3.136v16.342h-3.135zm-32.35 0h3.136V9.58c0 1.178-.168 2.217-.504 3.116-.335.899-.812 1.654-1.43 2.266a5.968 5.968 0 0 1-2.232 1.383c-.87.31-1.839.465-2.906.465-1.068 0-2.037-.155-2.907-.465a5.97 5.97 0 0 1-2.231-1.383c-.618-.612-1.095-1.367-1.43-2.266-.336-.9-.504-1.938-.504-3.116V.26h3.135v9.593c0 .56.08 1.084.241 1.573.16.488.406.919.735 1.292.329.372.742.667 1.24.885.496.217 1.074.326 1.732.326.658 0 1.232-.109 1.722-.326.49-.218.899-.513 1.227-.885.33-.373.574-.804.735-1.292.16-.49.241-1.014.241-1.573zM35.52 10.615c.26-.659.39-1.375.39-2.15 0-.775-.13-1.496-.39-2.162a5.237 5.237 0 0 0-1.087-1.732 4.94 4.94 0 0 0-1.648-1.14 5.213 5.213 0 0 0-2.071-.406c-.763 0-1.469.14-2.117.418a5.01 5.01 0 0 0-1.67 1.151 5.407 5.407 0 0 0-1.1 1.72 5.671 5.671 0 0 0-.4 2.15c0 .76.133 1.469.4 2.127a5.398 5.398 0 0 0 1.1 1.72 4.868 4.868 0 0 0 1.67 1.14 5.432 5.432 0 0 0 2.117.407c.747 0 1.438-.136 2.071-.407a5.019 5.019 0 0 0 1.648-1.128c.465-.48.827-1.05 1.087-1.708m1.236-8.171a7.925 7.925 0 0 1 1.75 2.662c.42 1.03.63 2.15.63 3.359 0 1.193-.21 2.3-.63 3.324a7.95 7.95 0 0 1-1.75 2.65 8.007 8.007 0 0 1-2.667 1.743c-1.03.419-2.155.628-3.375.628-1.236 0-2.373-.213-3.41-.64a8.152 8.152 0 0 1-2.69-1.766 8.16 8.16 0 0 1-1.773-2.65c-.428-1.015-.641-2.111-.641-3.29 0-1.192.213-2.3.64-3.324a8.133 8.133 0 0 1 1.774-2.662A8.322 8.322 0 0 1 27.304.7c1.037-.433 2.174-.65 3.41-.65 1.22 0 2.346.213 3.375.639a8.164 8.164 0 0 1 2.667 1.755M1.828 0l9.794 10.98V.164h3.21V16.81h-1.831L3.163 5.806v10.817H0V0zM80.79 9.197c-.55.86-1.328 1.53-2.335 2.01l3.685 5.394h-3.73l-3.148-4.672h-2.78V16.6h-3.136V.259h5.745c.976 0 1.865.136 2.666.406.801.271 1.488.663 2.06 1.174a5.232 5.232 0 0 1 1.327 1.86c.313.729.47 1.55.47 2.464 0 1.162-.275 2.174-.824 3.034" id="Nourished-primary-logo-Copy-2" fill="#FFFFFF"></path>

    </g>
</svg>
