<svg width="84" height="16" fill="none" xmlns="http://www.w3.org/2000/svg"><path d="M74.444 1.711h-7V14.29h7V1.71z" fill="#FF5F00"/><path d="M67.889 8c0-2.556 1.2-4.822 3.044-6.289A7.95 7.95 0 0066 0c-4.422 0-8 3.578-8 8 0 4.422 3.578 8 8 8a7.95 7.95 0 004.933-1.711A7.988 7.988 0 0167.89 8z" fill="#EB001B"/><path d="M83.889 8c0 4.422-3.578 8-8 8a7.95 7.95 0 01-4.933-1.711A7.955 7.955 0 0074 8c0-2.556-1.2-4.822-3.044-6.289A7.95 7.95 0 0175.889 0c4.422 0 8 3.6 8 8z" fill="#F79E1B"/><path d="M21.423 15.77H17.42L19.923.28h4.005l-2.505 15.49zM35.94.66A9.87 9.87 0 0032.35 0c-3.955 0-6.74 2.109-6.757 5.124-.033 2.225 1.994 3.46 3.51 4.202 1.549.758 2.076 1.253 2.076 1.928-.016 1.038-1.252 1.516-2.405 1.516-1.6 0-2.456-.246-3.758-.824l-.527-.247-.56 3.477c.938.428 2.67.807 4.466.824 4.202 0 6.938-2.076 6.97-5.29.016-1.763-1.054-3.114-3.362-4.218-1.4-.708-2.258-1.186-2.258-1.911.016-.66.725-1.335 2.306-1.335a6.804 6.804 0 012.984.593l.362.165.545-3.345zM41.264 10.282c.33-.89 1.598-4.333 1.598-4.333-.016.033.33-.907.527-1.483l.28 1.334s.759 3.708.923 4.482h-3.328zM46.206.281h-3.098c-.955 0-1.68.28-2.093 1.285l-5.949 14.203h4.203l.84-2.323h5.142c.115.543.478 2.323.478 2.323h3.708L46.207.281zM14.074.28l-3.922 10.562L9.723 8.7c-.725-2.471-3-5.157-5.537-6.492l3.592 13.545h4.236L18.308.28h-4.234z" fill="#00579F"/><path d="M6.51.28H.065L0 .595C5.026 1.879 8.355 4.977 9.723 8.7L8.322 1.583C8.092.593 7.382.313 6.509.28z" fill="#FAA61A"/></svg>