<svg fill="none" height="24" viewBox="0 0 24 24" width="24" xmlns="http://www.w3.org/2000/svg"><path clip-rule="evenodd" d="m12 2 2.2258 1.69304 2.7742-.35329 1.0811 2.57913 2.5792 1.08112-.3533 2.77416 1.693 2.22584-1.693 2.2258.3533 2.7742-2.5792 1.0811-1.0811 2.5792-2.7742-.3533-2.2258 1.693-2.22584-1.693-2.77416.3533-1.08112-2.5792-2.57913-1.0811.35329-2.7742-1.69304-2.2258 1.69304-2.22584-.35329-2.77416 2.57913-1.08112 1.08112-2.57913 2.77416.35329zm2.4785 3.67701 1.2651-.16111.493 1.17616.3165.75489.7548.31644 1.1762.49301-.1611 1.26509-.1034.81201.4955.6515.7721 1.015-.7721 1.015-.4955.6515.1034.812.1611 1.2651-1.1762.493-.7548.3165-.3165.7548-.493 1.1762-1.2651-.1611-.812-.1034-.6515.4955-1.015.7721-1.015-.7721-.6515-.4955-.81201.1034-1.26509.1611-.49301-1.1762-.31644-.7548-.75489-.3165-1.17616-.493.16111-1.2651.10341-.812-.49554-.6515-.77207-1.015.77207-1.015.49554-.6515-.10341-.81201-.16111-1.26509 1.17616-.49301.75489-.31644.31644-.75489.49301-1.17616 1.26509.16111.81201.10341.6515-.49554 1.015-.77207 1.015.77207.6515.49554zm-4.9785 5.32299c.8284 0 1.5-.6716 1.5-1.5 0-.82843-.6716-1.5-1.5-1.5-.82843 0-1.5.67157-1.5 1.5 0 .8284.67157 1.5 1.5 1.5zm6.5 3.5c0 .8284-.6716 1.5-1.5 1.5s-1.5-.6716-1.5-1.5.6716-1.5 1.5-1.5 1.5.6716 1.5 1.5zm-6.79282 1.7071 7.00002-7.00004-1.4142-1.41421-7.00003 6.99995z" fill="#018f25" fill-rule="evenodd"/></svg>
