<svg width="14" height="14" viewBox="0 0 14 14" fill="none" xmlns="http://www.w3.org/2000/svg">
<path d="M6.53906 1.0967C6.71069 0.688341 7.28931 0.688341 7.46094 1.0967L9.01279 4.78893C9.08492 4.96055 9.24642 5.07788 9.43192 5.09345L13.423 5.42838C13.8644 5.46542 14.0432 6.01572 13.7079 6.30514L10.6759 8.922C10.535 9.04363 10.4733 9.23348 10.5158 9.41472L11.4306 13.314C11.5317 13.7452 11.0636 14.0853 10.6848 13.8558L7.25904 11.7809C7.09981 11.6845 6.90019 11.6845 6.74096 11.7809L3.31525 13.8558C2.93637 14.0853 2.46826 13.7452 2.56943 13.314L3.4842 9.41472C3.52672 9.23348 3.46503 9.04363 3.32411 8.922L0.292129 6.30514C-0.0432026 6.01572 0.1356 5.46542 0.577006 5.42838L4.56808 5.09345C4.75358 5.07788 4.91508 4.96055 4.98721 4.78893L6.53906 1.0967Z" fill="#333D47"/>
</svg>
