<svg width="16" height="16" viewBox="0 0 16 16" fill="none" xmlns="http://www.w3.org/2000/svg">
<path d="M13.4491 9.20532C13.5701 9.08754 13.5701 8.89315 13.4491 8.77537L12.6132 7.96173C12.4969 7.84846 12.3115 7.84835 12.195 7.96147L8.73269 11.3234V2.3C8.73269 2.13432 8.59838 2 8.43269 2H7.23731C7.07162 2 6.93731 2.13431 6.93731 2.3V11.3234L3.48398 7.95374C3.36755 7.84014 3.18179 7.84002 3.06522 7.95349L2.22085 8.77537C2.09986 8.89315 2.09986 9.08754 2.22085 9.20532L7.62575 14.4663C7.74222 14.5797 7.92778 14.5797 8.04425 14.4663L13.4491 9.20532Z" fill="#47AC6A" stroke="#47AC6A" stroke-width="0.5"/>
</svg>
