<svg width="16" height="16" viewBox="0 0 16 16" fill="none" xmlns="http://www.w3.org/2000/svg">
<path d="M2.55085 6.79468C2.42986 6.91246 2.42986 7.10685 2.55085 7.22463L3.38675 8.03827C3.50312 8.15154 3.68849 8.15165 3.80499 8.03853L7.26731 4.67663L7.26731 13.7C7.26731 13.8657 7.40162 14 7.56731 14H8.76269C8.92838 14 9.06269 13.8657 9.06269 13.7V4.67663L12.516 8.04626C12.6325 8.15986 12.8182 8.15998 12.9348 8.04651L13.7791 7.22463C13.9001 7.10685 13.9001 6.91246 13.7791 6.79468L8.37425 1.53368C8.25778 1.42031 8.07222 1.42031 7.95575 1.53368L2.55085 6.79468Z" fill="#47AC6A" stroke="#47AC6A" stroke-width="0.5"/>
</svg>
