<?xml version="1.0" encoding="UTF-8"?>
<svg width="148px" height="140px" viewBox="0 0 148 140" version="1.1" xmlns="http://www.w3.org/2000/svg" xmlns:xlink="http://www.w3.org/1999/xlink">
    <!-- Generator: Sketch 53.2 (72643) - https://sketchapp.com -->
    <title>Group 24 Copy 2</title>
    <desc>Created with Sketch.</desc>
    <defs>
        <polygon id="path-1" points="0 0.259158371 139.647845 0.259158371 139.647845 139.366516 0 139.366516"></polygon>
    </defs>
    <g id="Rocket-prototypes" stroke="none" stroke-width="1" fill="none" fill-rule="evenodd">
        <g id="11129---Easily-navigate-from-&quot;JFY&quot;-to-&quot;All-Recipes&quot;" transform="translate(-705.000000, -316.000000)">
            <g id="Group-11" transform="translate(552.000000, 235.000000)">
                <g id="Group-10" transform="translate(90.000000, 81.000000)">
                    <g id="Group-24-Copy-2" transform="translate(63.000000, 0.000000)">
                        <g id="Group-3" transform="translate(0.000000, 0.374389)">
                            <mask id="mask-2" fill="white">
                                <use xlink:href="#path-1"></use>
                            </mask>
                            <g id="Clip-2"></g>
                            <path d="M0,69.812552 C0,31.3987059 31.26103,0.259158371 69.8242403,0.259158371 C108.386815,0.259158371 139.647845,31.3987059 139.647845,69.812552 C139.647845,108.226398 108.386815,139.366579 69.8242403,139.366579 C31.26103,139.366579 0,108.226398 0,69.812552" id="Fill-1" fill="#DAE5F4" mask="url(#mask-2)"></path>
                        </g>
                        <path d="M142.084764,84.5854027 L103.674635,84.5854027 L95.7093133,84.5854027 L29.986515,84.5854027 C28.582103,84.5854027 27.2736052,85.3645882 26.4929528,86.6568959 C25.5401631,88.2406063 25.4950644,90.3247692 26.3716309,91.9654932 C29.0648498,97.0206968 35.8487124,105.49038 50.966309,105.49038 L82.694206,105.49038 C94.6612446,105.49038 101.406996,100.181783 105.033948,95.4623258 L142.084764,95.4623258 C145.089227,95.4623258 147.534721,93.0234118 147.534721,90.0206968 C147.534721,87.0243167 145.089227,84.5854027 142.084764,84.5854027" id="Fill-4" fill="#FFFFFF"></path>
                        <path d="M43.9350386,53.8106787 L106.094403,81.3672398 C107.47976,81.9880543 109.035348,81.8170136 110.261906,80.9174661 C111.474489,80.0242534 112.097614,78.5925792 111.919124,77.0975566 C111.221047,71.2378281 106.800103,60.0758371 85.3426438,50.0097738 C86.1245665,49.718371 86.7972361,49.1228959 87.1599313,48.2993665 C87.8897682,46.6713122 87.1535794,44.75819 85.5147811,44.0360181 C83.8823348,43.3075113 81.9634163,44.0423529 81.2392961,45.6767421 C80.8708841,46.5002715 80.8772361,47.3871493 81.1884807,48.1663348 C59.3130644,39.0251584 48.0447382,43.2251584 43.2102833,46.6333032 C41.9786438,47.5011765 41.3301116,48.920181 41.4831931,50.4215385 C41.6286524,51.9292308 42.5496824,53.1961991 43.9350386,53.8106787" id="Fill-6" fill="#FFFFFF"></path>
                        <path d="M35.3469099,73.4740271 C35.5120601,73.5120362 35.6708584,73.5310407 35.8233047,73.5310407 C36.725279,73.5310407 37.5446781,72.9228959 37.7733476,72.0043439 C38.0337768,70.9337557 37.3795279,69.8504977 36.3060515,69.5844344 C35.886824,69.4767421 26.0349785,66.9111312 27.6864807,57.5038914 C29.5158369,47.1084163 20.4071674,41.2740271 15.3383262,39.639638 C14.2839056,39.2975566 13.1469099,39.880362 12.8108927,40.9319457 C12.4672532,41.9835294 13.045279,43.1111312 14.1066867,43.4532127 C14.1314592,43.4595475 17.0152361,44.4097738 19.6893991,46.6142986 C23.0686266,49.401629 24.4285751,52.8351131 23.7292275,56.8133937 C21.8878026,67.3165611 30.525794,72.3020814 35.3469099,73.4740271" id="Fill-8" fill="#FFFFFF"></path>
                        <path d="M29.1090592,38.9683348 C33.5236515,41.5022715 34.7565614,45.2588326 34.7565614,48.6669774 C34.7565614,52.8289683 32.920218,56.4715023 32.7804755,56.7439005 C32.272321,57.7194661 32.6534369,58.9294208 33.6386215,59.4362081 C33.9371622,59.5945792 34.2484069,59.6642624 34.5660034,59.6642624 C35.2894884,59.6642624 35.9882009,59.2715023 36.3445442,58.5873394 C39.1387588,53.240733 41.635703,41.5339457 31.1099176,35.4968416 C27.0129219,33.1466154 25.0501751,29.1493303 25.2794798,23.6063439 C25.4636858,19.1782896 27.0129219,15.4153937 27.0262609,15.3773846 C27.4575571,14.3574751 26.9754455,13.1855294 25.9521494,12.7547602 C24.9231365,12.3303258 23.7486644,12.8117738 23.323085,13.8316833 C20.7689734,19.9131312 18.692527,32.9945792 29.1090592,38.9683348" id="Fill-10" fill="#FFFFFF"></path>
                        <path d="M32.4500481,74.1904344 C32.2931554,74.1904344 32.1337219,74.1720633 31.9736532,74.1327873 C27.1493614,72.9621086 18.5132755,67.9721538 20.3559708,57.4721538 C21.0546833,53.4945068 19.6934644,50.0616561 16.3116961,47.2698914 C13.6413442,45.0653665 10.7569322,44.1208416 10.7277133,44.1113394 C9.67265751,43.7711584 9.09272618,42.6422896 9.43382489,41.5894389 C9.77428841,40.5359548 10.9087433,39.9582172 11.9625288,40.2990317 C17.0326403,41.9321538 26.1381339,47.76781 24.313224,58.1632851 C22.6617219,67.5692579 32.5103914,70.1374027 32.9296189,70.2419276 C34.0037305,70.5092579 34.6611554,71.5937828 34.3962798,72.665638 C34.1701511,73.5784887 33.3520223,74.1904344 32.4500481,74.1904344" id="Fill-12" fill="#333D47"></path>
                        <path d="M31.1877288,62.2247421 C30.8758489,62.2247421 30.5582524,62.1512579 30.2622524,61.9979548 C29.2789734,61.4873665 28.8965871,60.2799457 29.406012,59.2999457 C29.6613597,58.8064615 35.5368961,47.1522534 25.7326901,41.529448 C15.3136172,35.5544253 17.3906987,22.4723439 19.9454455,16.389629 C20.3742009,15.369086 21.5499433,14.887638 22.5738747,15.3152398 C23.5971708,15.7428416 24.0799176,16.9166878 23.6511622,17.9365973 C23.6359176,17.9714389 22.0866815,21.7400362 21.9050163,26.167457 C21.676982,31.707276 23.6390936,35.707095 27.7348189,38.0560543 C38.2599691,44.0918914 35.7623897,55.7986787 32.9713511,61.1459186 C32.6131021,61.8313484 31.9131193,62.2247421 31.1877288,62.2247421" id="Fill-14" fill="#333D47"></path>
                        <path d="M138.706553,91.6854932 L101.161557,91.6854932 L101.161557,87.5678462 L138.706553,87.5678462 C139.435755,87.5678462 140.02966,86.9755385 140.02966,86.2476652 C140.02966,85.5204253 139.435755,84.9281176 138.706553,84.9281176 L92.3349133,84.9281176 L92.3349133,80.8104706 L138.706553,80.8104706 C141.712287,80.8104706 144.158415,83.2500181 144.158415,86.2476652 C144.158415,89.2459457 141.712287,91.6854932 138.706553,91.6854932" id="Fill-16" fill="#333D47"></path>
                        <path d="M26.7079021,84.9281176 C26.5414815,85.1206968 26.3636275,85.7440452 26.6373957,86.2578009 C29.3998506,91.4308326 35.2779279,97.5978009 47.5905116,97.5978009 L79.316503,97.5978009 C91.6278163,97.5978009 97.5065288,91.4308326 100.270254,86.2571674 C100.543387,85.7440452 100.364898,85.1206968 100.199112,84.9281176 L26.7079021,84.9281176 Z M79.316503,101.715448 L47.5905116,101.715448 C32.4716446,101.715448 25.6896876,93.2432308 22.9932927,88.1924615 C22.116091,86.5517376 22.1662712,84.4669412 23.1196961,82.8832308 C23.9009837,81.5858552 25.2050352,80.8104706 26.6075416,80.8104706 L100.299473,80.8104706 C101.701979,80.8104706 103.006031,81.5858552 103.787954,82.8832308 C104.741379,84.4669412 104.790924,86.5517376 103.913722,88.1924615 C101.216692,93.2432308 94.4334644,101.715448 79.316503,101.715448 L79.316503,101.715448 Z" id="Fill-18" fill="#333D47"></path>
                        <path d="M78.2193339,49.0530226 C56.838733,39.5729321 46.4888961,43.2078643 42.2223039,46.218181 L104.395643,73.8317557 C104.407076,73.8368235 104.412793,73.8380905 104.414064,73.8380905 C103.827145,68.6314842 99.5999348,58.5331131 78.2193339,49.0530226 M102.718098,77.5940181 L40.5600034,50.0336561 C39.1727416,49.418543 38.2555227,48.1522081 38.1062524,46.6457828 C37.9563468,45.1444253 38.6036086,43.7279548 39.8371536,42.8575475 C44.8196086,39.3410769 56.6494455,34.9827059 79.896879,45.2907602 C103.143677,55.598181 107.82378,67.277095 108.544724,73.3211674 C108.722579,74.8180905 108.101995,76.2465973 106.88433,77.1417104 C105.662853,78.039991 104.10536,78.2091312 102.718098,77.5940181" id="Fill-20" fill="#333D47"></path>
                        <path d="M83.7847056,44.523991 C83.0574094,46.1552127 81.1429373,46.8894208 79.507315,46.1640814 C77.8710575,45.4387421 77.1348687,43.5287873 77.8628,41.8975656 C78.5894609,40.2669774 80.5045682,39.5327692 82.1401906,40.2574751 C83.7751777,40.9828145 84.5120017,42.8927692 83.7847056,44.523991" id="Fill-22" fill="#333D47"></path>
                    </g>
                </g>
            </g>
        </g>
    </g>
</svg>
