<svg width="78" height="24" viewBox="0 0 78 24" fill="none" xmlns="http://www.w3.org/2000/svg">
<path fill-rule="evenodd" clip-rule="evenodd" d="M62.5118 13.2002C62.3782 12.8572 62.2448 12.7544 62.0441 12.7544C61.9108 12.7544 61.8107 12.7886 61.5767 12.8913C61.1426 13.0974 60.5749 13.2687 60.0407 13.2687C58.9723 13.2687 58.3042 12.926 58.3042 11.7258V5.4513H61.5099C62.0441 5.4513 62.2448 5.24579 62.2448 4.69702V3.60004C62.2448 3.05127 62.0441 2.84576 61.5099 2.84576H58.3042V0.754278C58.3042 0.205509 58.104 0 57.5695 0H56.2339C55.6997 0 55.4993 0.205509 55.4993 0.754278V11.6572C55.4993 14.7773 57.3358 15.9429 59.8402 15.9429C60.7753 15.9429 61.9108 15.6343 62.7119 15.223C62.9792 15.0859 63.0795 14.9487 63.0795 14.7773C63.0795 14.606 63.046 14.5371 62.9792 14.3316L62.5118 13.2002ZM13.7914 1.7485C13.5912 1.54272 13.4573 1.4744 13.2904 1.4744C13.0903 1.4744 12.9564 1.54272 12.7227 1.78266L10.6857 3.73723C9.58374 2.94852 8.21483 2.50278 6.7453 2.50278C3.10541 2.50278 0.0668094 5.27995 0.0668094 9.22269C0.0668094 13.1657 3.10541 15.9429 6.7453 15.9429C10.3852 15.9429 13.4241 13.1657 13.4241 9.22269C13.4241 7.98852 13.1236 6.8571 12.6226 5.89732L14.6932 3.83999C14.9266 3.6342 14.9601 3.42869 14.9601 3.29122C14.9601 3.08571 14.8933 2.98296 14.6596 2.70857L13.7914 1.7485ZM22.1396 2.50278C18.4999 2.50278 15.4611 5.27995 15.4611 9.22269C15.4611 13.1657 18.4999 15.9429 22.1396 15.9429C25.7794 15.9429 28.818 13.1657 28.818 9.22269C28.818 5.27995 25.7794 2.50278 22.1396 2.50278ZM49.5551 7.95436C47.8186 7.30284 47.0507 7.13149 47.0507 6.13698C47.0507 5.24579 47.7521 4.90281 48.7204 4.90281C49.4883 4.90281 50.1897 5.1086 51.0247 5.69153C51.1916 5.79428 51.3252 5.93147 51.5256 5.93147C51.6589 5.93147 51.7926 5.86288 51.9262 5.65709L52.5607 4.73146C52.7276 4.45708 52.7944 4.35432 52.7944 4.21713C52.7944 4.01134 52.6941 3.90859 52.4607 3.73723C51.3587 2.94852 50.3233 2.50278 48.5871 2.50278C46.4497 2.50278 44.3459 3.80555 44.3459 6.34277C44.3459 8.29706 45.3145 9.18853 47.7521 10.1486C49.2549 10.7315 50.4569 11.1428 50.4569 12.2059C50.4569 13.0974 49.7558 13.5431 48.6536 13.5431C47.6853 13.5431 46.7502 13.1657 45.6816 12.1715C45.5147 12.0343 45.3813 11.8971 45.1806 11.8971C44.9805 11.8971 44.8804 12.0001 44.7132 12.2059L43.9453 13.1316C43.845 13.2687 43.7449 13.4057 43.7449 13.5773C43.7449 13.7486 43.845 13.8858 44.0454 14.0916C45.2142 15.2916 46.817 15.9429 48.5871 15.9429C51.4921 15.9429 53.2618 14.3316 53.2618 11.9657C53.2618 9.70287 51.759 8.77724 49.5551 7.95436ZM70.7932 2.50278C67.1533 2.50278 64.0479 5.27995 64.0479 9.22269C64.0479 13.1657 67.1533 15.9429 70.7932 15.9429C74.4331 15.9429 77.5385 13.1657 77.5385 9.22269C77.5385 5.27995 74.4331 2.50278 70.7932 2.50278ZM41.2738 2.84576H39.9381C39.4039 2.84576 39.2032 3.05127 39.2032 3.60004V10.32C39.2032 12.4459 37.9679 13.2687 36.4651 13.2687C34.9293 13.2687 33.7268 12.4459 33.7268 10.32V3.60004C33.7268 3.05127 33.5266 2.84576 32.9924 2.84576H31.6568C31.1223 2.84576 30.9218 3.05127 30.9218 3.60004V10.32C30.9218 13.9542 33.3264 15.9429 36.4651 15.9429C39.6041 15.9429 42.0087 13.9542 42.0087 10.32V3.60004C42.0087 3.05127 41.808 2.84576 41.2738 2.84576ZM6.7453 13.2687C4.57467 13.2687 2.80518 11.4514 2.80518 9.22269C2.80518 6.99429 4.57467 5.1772 6.7453 5.1772C8.91592 5.1772 10.6857 6.99429 10.6857 9.22269C10.6857 11.4514 8.91592 13.2687 6.7453 13.2687ZM22.1396 13.2687C19.9689 13.2687 18.1992 11.4514 18.1992 9.22269C18.1992 6.99429 19.9689 5.1772 22.1396 5.1772C24.3102 5.1772 26.0799 6.99429 26.0799 9.22269C26.0799 11.4514 24.3102 13.2687 22.1396 13.2687ZM70.7932 13.2687C68.6225 13.2687 66.8528 11.4514 66.8528 9.22269C66.8528 6.99429 68.6225 5.1772 70.7932 5.1772C72.9638 5.1772 74.7336 6.99429 74.7336 9.22269C74.7336 11.4514 72.9638 13.2687 70.7932 13.2687ZM12.8228 16.6972H11.4206C10.8861 16.6972 10.719 16.9029 10.719 17.3828C10.6189 19.5429 8.98273 21.3259 6.7453 21.3259C4.57467 21.3259 2.87171 19.5429 2.77164 17.3828C2.77164 16.9029 2.60475 16.6972 2.07055 16.6972H0.667821C0.166887 16.6972 0 16.903 0 17.3487C0 20.9487 2.93852 24 6.7453 24C10.5521 24 13.4906 20.9487 13.4906 17.3487C13.4906 16.903 13.3237 16.6972 12.8228 16.6972Z" fill="#FF0032"/>
</svg>
