<svg viewBox="0 0 151 45" fill="none" xmlns="http://www.w3.org/2000/svg">
<path d="M145.407 0H5.59259C2.50389 0 0 2.50389 0 5.59259V39.1481C0 42.2369 2.50389 44.7407 5.59259 44.7407H145.407C148.496 44.7407 151 42.2369 151 39.1481V5.59259C151 2.50389 148.496 0 145.407 0Z" fill="black"/>
<path d="M76.2164 24.3276C75.2772 24.3321 74.3603 24.6146 73.5815 25.1396C72.8028 25.6647 72.1969 26.4086 71.8406 27.2776C71.4842 28.1466 71.3933 29.1017 71.5792 30.0224C71.7651 30.943 72.2196 31.788 72.8853 32.4505C73.551 33.1131 74.3981 33.5637 75.3196 33.7453C76.2411 33.9269 77.1958 33.8315 78.0631 33.471C78.9304 33.1106 79.6715 32.5013 80.1929 31.72C80.7143 30.9388 80.9925 30.0206 80.9925 29.0813C81.0016 28.4527 80.8842 27.8286 80.6471 27.2462C80.41 26.6639 80.0582 26.1352 79.6125 25.6917C79.1669 25.2481 78.6366 24.8988 78.0532 24.6644C77.4697 24.4301 76.8451 24.3156 76.2164 24.3276ZM76.2164 31.9671C75.6388 32.0075 75.0624 31.8732 74.5621 31.5817C74.0618 31.2901 73.6608 30.8548 73.4112 30.3323C73.1616 29.8099 73.075 29.2244 73.1625 28.652C73.2501 28.0796 73.5078 27.5468 73.9022 27.1229C74.2966 26.6989 74.8094 26.4034 75.3739 26.2747C75.9385 26.1461 76.5287 26.1902 77.0678 26.4015C77.607 26.6127 78.0701 26.9812 78.397 27.4592C78.7239 27.9371 78.8995 28.5023 78.9009 29.0813C78.9189 29.4482 78.8633 29.815 78.7373 30.1601C78.6113 30.5051 78.4175 30.8214 78.1673 31.0904C77.9171 31.3594 77.6156 31.5755 77.2805 31.7261C76.9455 31.8766 76.5837 31.9586 76.2164 31.9671ZM65.803 24.3276C64.8633 24.3298 63.9453 24.6105 63.1651 25.1342C62.3848 25.6579 61.7773 26.4011 61.4192 27.2699C61.0611 28.1387 60.9685 29.0942 61.1532 30.0156C61.3379 30.937 61.7915 31.783 62.4568 32.4467C63.1221 33.1103 63.9691 33.562 64.8909 33.7445C65.8127 33.927 66.768 33.8322 67.636 33.4721C68.5039 33.112 69.2457 32.5027 69.7676 31.7212C70.2894 30.9397 70.5679 30.0211 70.5679 29.0813C70.577 28.4527 70.4596 27.8286 70.2225 27.2462C69.9854 26.6639 69.6336 26.1352 69.188 25.6917C68.7423 25.2481 68.212 24.8988 67.6286 24.6644C67.0451 24.4301 66.4205 24.3156 65.7918 24.3276H65.803ZM65.803 31.9671C65.2251 32.0098 64.6478 31.8775 64.1461 31.5874C63.6444 31.2974 63.2417 30.863 62.9904 30.3409C62.739 29.8188 62.6507 29.2331 62.7368 28.66C62.823 28.087 63.0797 27.5532 63.4735 27.1281C63.8673 26.703 64.38 26.4063 64.9448 26.2766C65.5095 26.1469 66.1003 26.1903 66.6401 26.401C67.1799 26.6118 67.6437 26.9802 67.9712 27.4582C68.2987 27.9363 68.4747 28.5019 68.4763 29.0813C68.4943 29.4482 68.4387 29.815 68.3127 30.1601C68.1867 30.5051 67.9929 30.8214 67.7427 31.0904C67.4925 31.3594 67.191 31.5755 66.8559 31.7261C66.5209 31.8766 66.1591 31.9586 65.7918 31.9671H65.803ZM53.3987 25.7929V27.8062H58.2307C58.1549 28.7545 57.7607 29.6493 57.1121 30.3453C56.6287 30.8377 56.0476 31.2234 55.4061 31.4777C54.7646 31.732 54.077 31.8492 53.3875 31.8217C51.9636 31.8217 50.598 31.2561 49.5911 30.2492C48.5842 29.2423 48.0186 27.8767 48.0186 26.4528C48.0186 25.0289 48.5842 23.6633 49.5911 22.6564C50.598 21.6496 51.9636 21.0839 53.3875 21.0839C54.7496 21.0617 56.0649 21.5806 57.045 22.5268L58.4656 21.1063C57.8039 20.4363 57.0146 19.906 56.1442 19.5467C55.2738 19.1874 54.3402 19.0065 53.3987 19.0147C52.4043 18.976 51.4124 19.1384 50.4823 19.4922C49.5522 19.8461 48.7031 20.384 47.9859 21.0739C47.2687 21.7637 46.6981 22.5912 46.3084 23.5069C45.9186 24.4225 45.7177 25.4074 45.7177 26.4025C45.7177 27.3976 45.9186 28.3825 46.3084 29.2981C46.6981 30.2137 47.2687 31.0413 47.9859 31.7311C48.7031 32.4209 49.5522 32.9589 50.4823 33.3127C51.4124 33.6666 52.4043 33.829 53.3987 33.7903C54.3561 33.8336 55.3116 33.6713 56.201 33.3143C57.0905 32.9574 57.8931 32.4141 58.555 31.721C59.7269 30.4335 60.3525 28.741 60.2999 27.0009C60.3035 26.577 60.2661 26.1537 60.1881 25.737L53.3987 25.7929ZM104.079 27.3588C103.787 26.5006 103.242 25.7513 102.514 25.21C101.787 24.6687 100.913 24.361 100.007 24.3276C99.3955 24.3264 98.7899 24.4507 98.228 24.6929C97.6661 24.935 97.1599 25.2898 96.7406 25.7353C96.3212 26.1809 95.9977 26.7077 95.7901 27.2832C95.5824 27.8587 95.495 28.4707 95.5333 29.0813C95.5197 29.7065 95.6322 30.328 95.8642 30.9087C96.0961 31.4893 96.4428 32.0173 96.8834 32.461C97.3239 32.9047 97.8494 33.2551 98.4285 33.4912C99.0075 33.7273 99.6282 33.8442 100.253 33.835C101.036 33.8393 101.807 33.6494 102.498 33.2824C103.189 32.9154 103.778 32.3828 104.213 31.7322L102.591 30.6137C102.349 31.0173 102.006 31.351 101.597 31.5824C101.187 31.8138 100.724 31.9348 100.253 31.9336C99.7689 31.952 99.2901 31.8243 98.8791 31.567C98.4682 31.3096 98.1442 30.9346 97.9493 30.4907L104.314 27.8622L104.079 27.3588ZM97.5913 28.9471C97.5687 28.6012 97.6152 28.2541 97.7284 27.9264C97.8415 27.5987 98.0189 27.2968 98.2501 27.0385C98.4813 26.7801 98.7618 26.5706 99.0751 26.422C99.3883 26.2734 99.7281 26.1888 100.074 26.1732C100.435 26.1494 100.795 26.2321 101.109 26.4111C101.423 26.5901 101.678 26.8574 101.842 27.1799L97.5913 28.9471ZM92.4238 33.5554H94.5154V19.5739H92.4238V33.5554ZM89.0011 25.3902H88.9228C88.6076 25.0378 88.2214 24.7559 87.7896 24.5632C87.3578 24.3704 86.8902 24.2711 86.4173 24.2717C85.195 24.331 84.0423 24.8583 83.1982 25.7443C82.3541 26.6304 81.8832 27.8072 81.8832 29.031C81.8832 30.2548 82.3541 31.4316 83.1982 32.3177C84.0423 33.2037 85.195 33.731 86.4173 33.7903C86.8913 33.7983 87.3613 33.7023 87.7942 33.509C88.227 33.3158 88.6123 33.03 88.9228 32.6718H88.9899V33.3541C88.9899 35.1773 88.0168 36.1504 86.4509 36.1504C85.9293 36.1382 85.4232 35.971 84.997 35.6703C84.5707 35.3695 84.2436 34.9487 84.0573 34.4614L82.2341 35.222C82.5773 36.0568 83.162 36.7701 83.9133 37.2703C84.6647 37.7705 85.5483 38.0349 86.4509 38.0295C88.9004 38.0295 90.925 36.5866 90.925 33.0745V24.6073H89.0011V25.3902ZM86.6075 31.9671C85.886 31.9035 85.2145 31.572 84.7253 31.0378C84.2362 30.5037 83.9648 29.8056 83.9648 29.0813C83.9648 28.357 84.2362 27.659 84.7253 27.1249C85.2145 26.5907 85.886 26.2591 86.6075 26.1956C86.9652 26.2139 87.3156 26.3037 87.6381 26.4596C87.9606 26.6155 88.2487 26.8343 88.4853 27.1032C88.7219 27.3722 88.9023 27.6857 89.0159 28.0254C89.1294 28.3652 89.1738 28.7242 89.1465 29.0813C89.177 29.44 89.1345 29.8012 89.0214 30.143C88.9084 30.4848 88.7272 30.8001 88.4888 31.0698C88.2504 31.3396 87.9598 31.5582 87.6345 31.7124C87.3092 31.8666 86.956 31.9533 86.5963 31.9671H86.6075ZM113.877 19.5739H108.877V33.5554H110.969V28.2536H113.888C114.484 28.2965 115.083 28.216 115.646 28.0173C116.21 27.8186 116.727 27.5059 117.164 27.0988C117.602 26.6916 117.951 26.1986 118.189 25.6507C118.428 25.1027 118.551 24.5114 118.551 23.9138C118.551 23.3161 118.428 22.7249 118.189 22.1769C117.951 21.6289 117.602 21.136 117.164 20.7288C116.727 20.3216 116.21 20.0089 115.646 19.8102C115.083 19.6115 114.484 19.5311 113.888 19.5739H113.877ZM113.877 26.285H110.958V21.5202H113.922C114.558 21.5202 115.168 21.7729 115.618 22.2229C116.068 22.6728 116.321 23.2831 116.321 23.9194C116.321 24.5557 116.068 25.1659 115.618 25.6159C115.168 26.0658 114.558 26.3186 113.922 26.3186L113.877 26.285ZM126.773 24.2717C126.012 24.2262 125.254 24.4041 124.592 24.7837C123.93 25.1632 123.394 25.7278 123.049 26.4081L124.906 27.1799C125.089 26.8425 125.366 26.5656 125.703 26.3829C126.041 26.2002 126.424 26.1195 126.807 26.1508C127.073 26.1198 127.342 26.142 127.598 26.2161C127.855 26.2901 128.095 26.4146 128.303 26.5822C128.511 26.7499 128.684 26.9573 128.811 27.1924C128.939 27.4275 129.018 27.6856 129.044 27.9516V28.097C128.372 27.7414 127.623 27.5569 126.863 27.5602C124.861 27.5602 122.836 28.6787 122.836 30.7032C122.856 31.1349 122.962 31.5582 123.148 31.9482C123.335 32.3381 123.597 32.6868 123.92 32.9736C124.244 33.2603 124.621 33.4794 125.03 33.6177C125.44 33.7561 125.873 33.811 126.304 33.7791C126.83 33.8169 127.358 33.7123 127.83 33.4761C128.302 33.2399 128.702 32.881 128.988 32.4369H129.055V33.5554H131.069V28.1753C131.069 25.7258 129.212 24.3053 126.829 24.3053L126.773 24.2717ZM126.516 31.9336C125.834 31.9336 124.883 31.5868 124.883 30.7479C124.883 29.6294 126.069 29.2603 127.12 29.2603C127.785 29.2439 128.441 29.4061 129.022 29.7301C128.952 30.3356 128.665 30.8955 128.215 31.3066C127.765 31.7177 127.182 31.9523 126.572 31.9671L126.516 31.9336ZM138.406 24.6073L136.012 30.6696H135.945L133.462 24.6073H131.225L134.95 33.0856L132.825 37.7946H135.006L140.733 24.6073H138.406ZM119.604 33.5554H121.695V19.5739H119.604V33.5554Z" fill="white"/>
<path d="M52.9707 11.5235C52.9897 11.9338 52.9251 12.3436 52.7809 12.7282C52.6367 13.1127 52.4159 13.464 52.1318 13.7606C51.8146 14.0901 51.4315 14.349 51.0075 14.5205C50.5835 14.6921 50.1281 14.7723 49.6711 14.756C48.9776 14.7506 48.3011 14.5406 47.7264 14.1524C47.1517 13.7642 46.7044 13.215 46.4404 12.5737C46.1765 11.9324 46.1077 11.2274 46.2427 10.5472C46.3776 9.86689 46.7103 9.24159 47.1991 8.7496C47.5204 8.42163 47.9055 8.16307 48.3307 7.98992C48.7559 7.81677 49.2121 7.7327 49.6711 7.74293C50.1439 7.74136 50.6121 7.83652 51.0468 8.02256C51.4516 8.18581 51.8119 8.44263 52.0982 8.77197L51.5054 9.36478C51.2822 9.09924 51.0002 8.88926 50.6819 8.75143C50.3635 8.6136 50.0175 8.55171 49.6711 8.57064C49.3217 8.56892 48.9755 8.63778 48.6534 8.77307C48.3313 8.90837 48.0398 9.10733 47.7965 9.358C47.5531 9.60868 47.3628 9.90593 47.2371 10.2319C47.1114 10.5579 47.0528 10.9059 47.0649 11.2551C47.0576 11.7765 47.2048 12.2883 47.4881 12.7261C47.7713 13.1639 48.1779 13.508 48.6565 13.715C49.1351 13.922 49.6642 13.9826 50.1772 13.8892C50.6902 13.7958 51.1641 13.5525 51.539 13.1901C51.8832 12.8171 52.0817 12.3328 52.0982 11.8255H49.6711V11.0202H52.9259C52.9558 11.1863 52.9707 11.3547 52.9707 11.5235ZM58.0935 8.72723H55.0735V10.8524H57.825V11.6577H55.0735V13.7829H58.0935V14.6106H54.1787V7.89952H58.0935V8.72723ZM61.7622 14.6106H60.901V8.72723H59.0219V7.89952H63.6861V8.72723H61.7622V14.6106ZM66.9745 14.6106V7.89952H67.8358V14.6106H66.9745ZM71.6611 14.6106H70.7999V8.72723H68.9208V7.89952H73.5291V8.72723H71.6611V14.6106ZM82.2647 13.7382C81.6108 14.3884 80.7261 14.7534 79.8039 14.7534C78.8818 14.7534 77.9971 14.3884 77.3432 13.7382C76.7076 13.0654 76.3535 12.175 76.3535 11.2495C76.3535 10.324 76.7076 9.43355 77.3432 8.76078C77.6655 8.43613 78.0489 8.17845 78.4712 8.00262C78.8935 7.82678 79.3465 7.73626 79.8039 7.73626C80.2614 7.73626 80.7144 7.82678 81.1367 8.00262C81.559 8.17845 81.9424 8.43613 82.2647 8.76078C82.9028 9.43226 83.2586 10.3232 83.2586 11.2495C83.2586 12.1758 82.9028 13.0667 82.2647 13.7382ZM77.9808 13.1789C78.465 13.6611 79.1206 13.9319 79.8039 13.9319C80.4873 13.9319 81.1429 13.6611 81.6271 13.1789C82.105 12.6521 82.3697 11.9663 82.3697 11.2551C82.3697 10.5438 82.105 9.85803 81.6271 9.33123C81.1429 8.84901 80.4873 8.57827 79.8039 8.57827C79.1206 8.57827 78.465 8.84901 77.9808 9.33123C77.5029 9.85803 77.2382 10.5438 77.2382 11.2551C77.2382 11.9663 77.5029 12.6521 77.9808 13.1789ZM84.4682 14.6106V7.89952H85.5196L88.7856 13.123V7.89952H89.6469V14.6106H88.7521L85.3406 9.14108V14.6106H84.4682Z" fill="white"/>
<path fill-rule="evenodd" clip-rule="evenodd" d="M79.8039 7.84811C79.3612 7.84811 78.9229 7.93571 78.5142 8.10588C78.1059 8.27586 77.7353 8.52488 77.4236 8.8386C76.8082 9.49048 76.4654 10.353 76.4654 11.2495C76.4654 12.1458 76.8081 13.0083 77.4233 13.6601C78.0561 14.2887 78.9119 14.6416 79.8039 14.6416C80.696 14.6416 81.5519 14.2887 82.1847 13.66C82.8023 13.0094 83.1467 12.1466 83.1467 11.2495C83.1467 10.3523 82.8023 9.48933 82.1845 8.83875C81.8727 8.52496 81.502 8.27589 81.0937 8.10588C80.685 7.93571 80.2467 7.84811 79.8039 7.84811ZM78.4282 7.89936C78.8641 7.71785 79.3317 7.6244 79.8039 7.6244C80.2762 7.6244 80.7437 7.71785 81.1797 7.89936C81.6156 8.08087 82.0114 8.34685 82.3441 8.68198L82.3458 8.68372C83.0036 9.37598 83.3704 10.2945 83.3704 11.2495C83.3704 12.2045 83.0036 13.123 82.3458 13.8152L82.3436 13.8175C81.6687 14.4886 80.7557 14.8653 79.8039 14.8653C78.8522 14.8653 77.9392 14.4886 77.2643 13.8175L77.2618 13.815C76.6067 13.1215 76.2417 12.2036 76.2417 11.2495C76.2417 10.2954 76.6067 9.3775 77.2619 8.68397L77.2638 8.68196C77.5965 8.34683 77.9922 8.08087 78.4282 7.89936ZM49.6686 7.85476C49.2249 7.84487 48.7839 7.92613 48.3729 8.09351C47.9619 8.26089 47.5896 8.51083 47.279 8.82787L47.2785 8.82843C46.8052 9.30481 46.483 9.91026 46.3524 10.5689C46.2217 11.2276 46.2883 11.9102 46.5439 12.5311C46.7994 13.1521 47.2326 13.6839 47.789 14.0597C48.3454 14.4356 49.0004 14.6389 49.6719 14.6442L49.675 14.6442C50.1164 14.6599 50.5561 14.5825 50.9656 14.4169C51.3749 14.2512 51.7448 14.0012 52.0511 13.6831C52.3247 13.3975 52.5373 13.0592 52.6762 12.6889C52.8151 12.3185 52.8773 11.9238 52.8589 11.5287L52.9707 11.5235L52.8588 11.5235C52.8589 11.3925 52.8495 11.2616 52.8308 11.132H49.7829V11.7137H52.2138L52.21 11.8292C52.1926 12.3633 51.9836 12.8732 51.6212 13.266L51.6168 13.2707C51.226 13.6484 50.732 13.9019 50.1973 13.9992C49.6625 14.0966 49.1109 14.0334 48.6121 13.8177C48.1132 13.6019 47.6894 13.2432 47.3942 12.7869C47.0994 12.3313 46.9459 11.7988 46.953 11.2562C46.9408 10.8929 47.002 10.5309 47.1328 10.1917C47.2639 9.85163 47.4623 9.54158 47.7162 9.28009C47.9701 9.01861 48.2741 8.81108 48.6101 8.66995C48.9451 8.52925 49.305 8.45743 49.6683 8.45877C50.0309 8.43947 50.393 8.50451 50.7263 8.64878C51.0233 8.77736 51.2901 8.96574 51.5103 9.2017L51.9439 8.76809C51.6814 8.48905 51.3611 8.26993 51.005 8.12629L51.0028 8.12542C50.5821 7.94537 50.129 7.85326 49.6714 7.85478L49.6686 7.85476ZM53.0825 11.521C53.1019 11.9455 53.0349 12.3695 52.8857 12.7675C52.7361 13.1662 52.5071 13.5304 52.2126 13.8379C51.8845 14.1788 51.488 14.4468 51.0495 14.6242C50.6114 14.8015 50.1409 14.8845 49.6686 14.8679C48.9536 14.862 48.2563 14.6454 47.6638 14.2451C47.0708 13.8446 46.6093 13.278 46.337 12.6163C46.0647 11.9546 45.9937 11.2272 46.1329 10.5254C46.2722 9.82366 46.6153 9.17861 47.1195 8.67104C47.4514 8.33228 47.8493 8.0652 48.2885 7.88633C48.7274 7.70758 49.1983 7.62071 49.6721 7.63108C50.1594 7.62965 50.6418 7.72772 51.0898 7.91927C51.5104 8.08915 51.8849 8.3562 52.1826 8.69858L52.2511 8.7773L51.4983 9.5301L51.4198 9.43676C51.2077 9.18449 50.9399 8.98501 50.6374 8.85407C50.335 8.72314 50.0062 8.66434 49.6772 8.68232L49.6705 8.68268C49.3362 8.68104 49.005 8.74673 48.6967 8.8762C48.3885 9.00566 48.1096 9.19604 47.8767 9.43592C47.6438 9.67579 47.4618 9.96022 47.3415 10.2722C47.2212 10.5841 47.1652 10.9171 47.1767 11.2512L47.1769 11.2567C47.1699 11.7559 47.3107 12.2461 47.582 12.6654C47.8532 13.0846 48.2426 13.4141 48.7009 13.6123C49.1592 13.8105 49.6659 13.8686 50.1572 13.7791C50.6474 13.6899 51.1003 13.4577 51.4589 13.1119C51.7574 12.7874 51.9397 12.3744 51.9793 11.9374H49.5592V10.9083H53.0195L53.036 11.0004C53.0669 11.1722 53.0824 11.3464 53.0825 11.521ZM54.0668 7.78767H58.2053V8.83908H55.1853V10.7406H57.9369V11.7696H55.1853V13.6711H58.2053V14.7225H54.0668V7.78767ZM54.2905 8.01138V14.4988H57.9816V13.8948H54.9616V11.5459H57.7132V10.9643H54.9616V8.61538H57.9816V8.01138H54.2905ZM58.91 7.78767H63.7979V8.83908H61.8741V14.7225H60.7891V8.83908H58.91V7.78767ZM59.1337 8.01138V8.61538H61.0128V14.4988H61.6504V8.61538H63.5742V8.01138H59.1337ZM66.8627 7.78767H67.9476V14.7225H66.8627V7.78767ZM67.0864 8.01138V14.4988H67.7239V8.01138H67.0864ZM68.8089 7.78767H73.6409V8.83908H71.773V14.7225H70.688V8.83908H68.8089V7.78767ZM69.0326 8.01138V8.61538H70.9117V14.4988H71.5493V8.61538H73.4172V8.01138H69.0326ZM84.3563 7.78767H85.5815L88.6738 12.7331V7.78767H89.7588V14.7225H88.69L85.4525 9.53176V14.7225H84.3563V7.78767ZM84.58 8.01138V14.4988H85.2288V8.7504L88.8142 14.4988H89.535V8.01138H88.8975V13.5129L85.4576 8.01138H84.58ZM77.9018 9.25197C78.407 8.74888 79.091 8.46642 79.8039 8.46642C80.5169 8.46642 81.2008 8.74888 81.706 9.25197L81.7101 9.25598C82.2066 9.80336 82.4816 10.516 82.4816 11.2551C82.4816 11.9941 82.2065 12.7067 81.71 13.2541L81.7062 13.2583C81.201 13.7614 80.5169 14.0437 79.8039 14.0437C79.091 14.0437 78.407 13.7613 77.9018 13.2582L77.9808 13.1789L77.8979 13.2541C77.4014 12.7067 77.1263 11.9941 77.1263 11.2551C77.1263 10.516 77.4014 9.80346 77.8979 9.25608L77.9018 9.25197ZM78.0617 13.1017C78.5248 13.5618 79.1511 13.82 79.8039 13.82C80.4568 13.82 81.0831 13.5618 81.5462 13.1017C82.0042 12.5957 82.2579 11.9376 82.2579 11.2551C82.2579 10.5725 82.0042 9.91442 81.5462 9.40847C81.0831 8.94839 80.4568 8.69012 79.8039 8.69012C79.1511 8.69012 78.5248 8.94839 78.0617 9.40847C77.6037 9.91442 77.35 10.5725 77.35 11.2551C77.35 11.9376 77.6037 12.5957 78.0617 13.1017Z" fill="white"/>
<path d="M11.7395 36.5731L25.442 22.3609L11.7509 8.17421C11.3853 8.39508 11.159 8.90648 11.159 9.5759V35.185C11.1639 35.8544 11.382 36.3284 11.7395 36.5731Z" fill="white"/>
<path d="M25.9327 21.9689L30.0142 17.735L13.3928 8.28169C13.1129 8.11302 12.795 8.02393 12.4712 8.02344L25.931 21.9672L25.9327 21.9689Z" fill="white"/>
<path d="M25.9327 22.7557L12.4302 36.7606C12.7691 36.7665 13.1029 36.6747 13.3945 36.4956L30.0487 27.0168L25.9327 22.7557Z" fill="white"/>
<path d="M36.036 21.1648L30.5048 18.0132L26.3118 22.3626L30.536 26.7392L36.0343 23.5961C37.2035 22.9284 37.2035 21.8291 36.036 21.1648Z" fill="white"/>
</svg>
