<?xml version="1.0" encoding="UTF-8"?>
<svg width="40px" height="40px" viewBox="0 0 40 40" version="1.1" xmlns="http://www.w3.org/2000/svg" xmlns:xlink="http://www.w3.org/1999/xlink">
    <!-- Generator: Sketch 52.5 (67469) - http://www.bohemiancoding.com/sketch -->
    <title>link</title>
    <desc>Created with Sketch.</desc>
    <g id="study-8" stroke="none" stroke-width="1" fill="none" fill-rule="evenodd">
        <g id="overlay-v2" transform="translate(-32.000000, -539.000000)">
            <g id="Group-6" transform="translate(32.000000, 539.000000)">
                <g id="link">
                    <rect id="Bounding-box" fill-rule="nonzero" x="0" y="0" width="40" height="40"></rect>
                    <path d="M32.9125455,7.07327273 C30.1481818,4.30890909 25.6498182,4.31 22.8849091,7.07327273 L17.8710909,12.0870909 C17.4450909,12.5130909 17.4450909,13.2036364 17.8710909,13.6296364 C18.2970909,14.0556364 18.9876364,14.0556364 19.4136364,13.6296364 L24.4274545,8.61581818 C25.3498182,7.694 26.5825455,7.18563636 27.8981818,7.18563636 C29.2143636,7.18563636 30.4470909,7.694 31.3694545,8.61636364 C32.2918182,9.53872727 32.8001818,10.7714545 32.8001818,12.0876364 C32.8001818,13.4032727 32.2918182,14.636 31.3694545,15.5583636 L24.8136364,22.1158182 C22.8990909,24.0292727 19.7850909,24.0292727 17.8705455,22.1158182 C17.4445455,21.6898182 16.754,21.6898182 16.328,22.1158182 C15.902,22.5418182 15.902,23.2329091 16.328,23.6583636 C17.7101818,25.0405455 19.526,25.7316364 21.3418182,25.7316364 C23.1576364,25.7316364 24.9734545,25.0405455 26.3556364,23.6583636 L32.9125455,17.1014545 C34.2472727,15.7672727 34.9825455,13.9863636 34.9825455,12.0876364 C34.9825455,10.1883636 34.2472727,8.408 32.9125455,7.07327273 Z" id="Path" fill="#333D47"></path>
                    <path d="M19.7992727,27.1290909 L15.5567273,31.3716364 C14.6343636,32.294 13.4016364,32.8023636 12.0854545,32.8023636 C10.7698182,32.8023636 9.53654545,32.294 8.61418182,31.3716364 C6.70018182,29.4576364 6.70018182,26.3430909 8.61418182,24.4290909 L14.7854545,18.2578182 C15.7078182,17.336 16.9405455,16.8276364 18.2567273,16.8276364 C19.5723636,16.8276364 20.8050909,17.336 21.7274545,18.2578182 C22.1534545,18.6838182 22.844,18.6838182 23.27,18.2578182 C23.696,17.8318182 23.696,17.1412727 23.27,16.7152727 C20.5061818,13.9514545 16.0078182,13.9509091 13.2423636,16.7152727 L7.07109091,22.8870909 C5.73690909,24.2212727 5.00163636,26.0021818 5.00163636,27.9009091 C5.00163636,29.7990909 5.73690909,31.58 7.07163636,32.9141818 C8.40581818,34.2489091 10.1867273,34.9841818 12.0849091,34.9841818 C13.9836364,34.9841818 15.7645455,34.2489091 17.0987273,32.9141818 L21.3412727,28.6716364 C21.7672727,28.2456364 21.7672727,27.5550909 21.3412727,27.1290909 C20.9152727,26.7030909 20.2252727,26.7030909 19.7992727,27.1290909 Z" id="Path" fill="#333D47"></path>
                </g>
            </g>
        </g>
    </g>
</svg>