<svg viewBox="0 0 151 45" fill="none" xmlns="http://www.w3.org/2000/svg">
<path d="M145.407 0H5.59259C4.10934 0 2.68685 0.589218 1.63803 1.63803C0.589218 2.68685 0 4.10934 0 5.59259V39.1481C0 40.6314 0.589218 42.0539 1.63803 43.1027C2.68685 44.1515 4.10934 44.7407 5.59259 44.7407H145.407C146.891 44.7407 148.313 44.1515 149.362 43.1027C150.411 42.0539 151 40.6314 151 39.1481V5.59259C151 4.10934 150.411 2.68685 149.362 1.63803C148.313 0.589218 146.891 0 145.407 0Z" fill="black"/>
<path d="M35.9187 21.6023C35.8878 18.1675 38.7312 16.4964 38.8612 16.4186C37.2509 14.0708 34.7549 13.75 33.8778 13.7244C31.7815 13.5038 29.7481 14.9788 28.6803 14.9788C27.5911 14.9788 25.9467 13.7458 24.1744 13.782C21.8937 13.8172 19.7601 15.1376 18.5899 17.1881C16.175 21.3689 17.9761 27.5129 20.2898 30.8923C21.4472 32.5474 22.7996 34.3954 24.5697 34.3304C26.3016 34.259 26.9485 33.2263 29.0384 33.2263C31.1091 33.2263 31.7165 34.3304 33.5219 34.2888C35.3805 34.259 36.5507 32.6263 37.6676 30.9563C39.0051 29.0592 39.5422 27.191 39.5635 27.0951C39.5198 27.0802 35.9539 25.7192 35.9187 21.6023Z" fill="white"/>
<path d="M32.5085 11.5011C33.4399 10.3363 34.0772 8.75151 33.9003 7.14333C32.5521 7.20301 30.8662 8.07584 29.8953 9.21511C29.0363 10.219 28.269 11.8645 28.4672 13.412C29.9816 13.5249 31.5365 12.6478 32.5085 11.5011Z" fill="white"/>
<path d="M60.9813 34.0924H58.5611L57.2353 29.9265H52.6271L51.3642 34.0924H49.0078L53.5734 19.9097H56.3934L60.9813 34.0924ZM56.8356 28.1787L55.6367 24.4752C55.5099 24.0969 55.2722 23.206 54.9216 21.8035H54.879C54.7393 22.4067 54.5145 23.2976 54.2054 24.4752L53.0278 28.1787H56.8356Z" fill="white"/>
<path d="M72.7221 28.8534C72.7221 30.5927 72.2521 31.9675 71.3121 32.9768C70.4702 33.8752 69.4247 34.3238 68.1767 34.3238C66.8297 34.3238 65.862 33.84 65.2726 32.8723H65.23V38.2596H62.9579V27.2325C62.9579 26.139 62.9291 25.0168 62.8737 23.8658H64.8719L64.9987 25.4868H65.0414C65.7991 24.2655 66.949 23.6559 68.4922 23.6559C69.6986 23.6559 70.7057 24.1322 71.5114 25.0861C72.3192 26.041 72.7221 27.2964 72.7221 28.8534ZM70.4073 28.9366C70.4073 27.9412 70.1835 27.1206 69.7338 26.4747C69.2425 25.8012 68.5828 25.4644 67.7558 25.4644C67.1952 25.4644 66.6858 25.652 66.2307 26.0218C65.7746 26.3948 65.4762 26.8818 65.3366 27.485C65.2662 27.7664 65.2311 27.9966 65.2311 28.1778V29.8829C65.2311 30.6268 65.4591 31.2545 65.9153 31.7672C66.3714 32.2798 66.9639 32.5355 67.6929 32.5355C68.5487 32.5355 69.2148 32.2052 69.6911 31.5465C70.1686 30.8869 70.4073 30.0172 70.4073 28.9366Z" fill="white"/>
<path d="M84.4849 28.8534C84.4849 30.5927 84.0149 31.9675 83.0739 32.9768C82.233 33.8752 81.1875 34.3238 79.9395 34.3238C78.5925 34.3238 77.6248 33.84 77.0365 32.8723H76.9939V38.2596H74.7217V27.2325C74.7217 26.139 74.693 25.0168 74.6375 23.8658H76.6358L76.7626 25.4868H76.8052C77.5619 24.2655 78.7118 23.6559 80.2561 23.6559C81.4614 23.6559 82.4685 24.1322 83.2764 25.0861C84.081 26.041 84.4849 27.2964 84.4849 28.8534ZM82.1701 28.9366C82.1701 27.9412 81.9453 27.1206 81.4955 26.4747C81.0042 25.8012 80.3467 25.4644 79.5186 25.4644C78.9569 25.4644 78.4486 25.652 77.9925 26.0218C77.5363 26.3948 77.239 26.8818 77.0994 27.485C77.0301 27.7664 76.9939 27.9966 76.9939 28.1778V29.8829C76.9939 30.6268 77.2219 31.2545 77.6759 31.7672C78.1321 32.2787 78.7246 32.5355 79.4557 32.5355C80.3115 32.5355 80.9776 32.2052 81.454 31.5465C81.9314 30.8869 82.1701 30.0172 82.1701 28.9366Z" fill="white"/>
<path d="M97.6361 30.1152C97.6361 31.3216 97.2173 32.3031 96.3764 33.0609C95.4524 33.8889 94.1661 34.3024 92.5131 34.3024C90.987 34.3024 89.7635 34.0083 88.8374 33.4189L89.3639 31.5251C90.3614 32.1283 91.4559 32.431 92.6485 32.431C93.5043 32.431 94.1704 32.237 94.6489 31.8512C95.1252 31.4655 95.3629 30.9475 95.3629 30.3017C95.3629 29.7262 95.1668 29.2413 94.7736 28.848C94.3824 28.4548 93.7291 28.0892 92.8169 27.7514C90.3337 26.8253 89.0932 25.4686 89.0932 23.6845C89.0932 22.5186 89.528 21.5627 90.3987 20.8188C91.2662 20.0738 92.4236 19.7019 93.8709 19.7019C95.1615 19.7019 96.2336 19.9268 97.0894 20.3754L96.5214 22.2277C95.7221 21.7929 94.8183 21.5755 93.8069 21.5755C93.0076 21.5755 92.3831 21.7726 91.9355 22.1648C91.5572 22.5154 91.3675 22.9428 91.3675 23.449C91.3675 24.0096 91.5838 24.4732 92.0186 24.8377C92.397 25.1744 93.0844 25.5389 94.0819 25.9322C95.3022 26.4235 96.1984 26.9979 96.775 27.6565C97.3494 28.313 97.6361 29.1347 97.6361 30.1152Z" fill="white"/>
<path d="M105.148 25.5712H102.644V30.5364C102.644 31.7993 103.085 32.4302 103.97 32.4302C104.376 32.4302 104.713 32.395 104.979 32.3247L105.042 34.0501C104.594 34.2174 104.005 34.3016 103.275 34.3016C102.378 34.3016 101.676 34.0277 101.17 33.481C100.666 32.9332 100.412 32.0146 100.412 30.724V25.569H98.9204V23.8639H100.412V21.9914L102.644 21.3178V23.8639H105.148V25.5712Z" fill="white"/>
<path d="M116.448 28.8947C116.448 30.4666 115.999 31.7572 115.101 32.7665C114.16 33.8056 112.911 34.3235 111.354 34.3235C109.854 34.3235 108.659 33.8258 107.768 32.8304C106.877 31.835 106.432 30.5785 106.432 29.0641C106.432 27.4794 106.89 26.1813 107.81 25.1721C108.727 24.1617 109.966 23.6566 111.523 23.6566C113.023 23.6566 114.231 24.1543 115.142 25.1507C116.014 26.1174 116.448 27.3653 116.448 28.8947ZM114.091 28.9682C114.091 28.025 113.89 27.2161 113.481 26.5415C113.005 25.7252 112.324 25.3181 111.442 25.3181C110.528 25.3181 109.834 25.7262 109.358 26.5415C108.95 27.2172 108.748 28.0389 108.748 29.0108C108.748 29.954 108.95 30.7629 109.358 31.4364C109.849 32.2528 110.536 32.6599 111.421 32.6599C112.289 32.6599 112.97 32.2443 113.461 31.4151C113.88 30.7277 114.091 29.9103 114.091 28.9682Z" fill="white"/>
<path d="M123.834 25.8641C123.609 25.8225 123.369 25.8012 123.118 25.8012C122.318 25.8012 121.7 26.1028 121.265 26.7071C120.887 27.2399 120.697 27.9135 120.697 28.7266V34.0926H118.426L118.447 27.0865C118.447 25.9078 118.419 24.8346 118.362 23.8669H120.341L120.424 25.8236H120.487C120.727 25.1511 121.105 24.6097 121.623 24.2037C122.13 23.8381 122.676 23.6559 123.266 23.6559C123.476 23.6559 123.665 23.6708 123.834 23.6974V25.8641Z" fill="white"/>
<path d="M133.995 28.4954C133.995 28.9025 133.969 29.2457 133.912 29.526H127.096C127.122 30.5363 127.452 31.3089 128.085 31.8418C128.659 32.3182 129.402 32.5569 130.314 32.5569C131.324 32.5569 132.244 32.396 133.072 32.0731L133.428 33.6504C132.461 34.0724 131.318 34.2823 130 34.2823C128.414 34.2823 127.169 33.8155 126.263 32.883C125.36 31.9505 124.907 30.6983 124.907 29.1274C124.907 27.5853 125.328 26.3011 126.171 25.2769C127.053 24.1835 128.246 23.6367 129.746 23.6367C131.22 23.6367 132.336 24.1835 133.094 25.2769C133.694 26.1455 133.995 27.2197 133.995 28.4954ZM131.829 27.9061C131.844 27.2325 131.696 26.6506 131.388 26.1593C130.994 25.5274 130.39 25.2119 129.577 25.2119C128.834 25.2119 128.23 25.5199 127.768 26.138C127.39 26.6293 127.165 27.2187 127.096 27.905H131.829V27.9061Z" fill="white"/>
<path d="M56.0845 11.1842C56.0845 12.4386 55.7083 13.3828 54.9569 14.0169C54.261 14.602 53.272 14.8951 51.991 14.8951C51.3558 14.8951 50.8123 14.8674 50.3572 14.812V7.95826C50.9508 7.86235 51.5903 7.81332 52.2809 7.81332C53.5011 7.81332 54.4209 8.07869 55.0411 8.60943C55.736 9.20943 56.0845 10.0673 56.0845 11.1842ZM54.9068 11.2151C54.9068 10.402 54.6916 9.77853 54.261 9.34371C53.8304 8.90996 53.2017 8.69255 52.3736 8.69255C52.0219 8.69255 51.7224 8.716 51.4741 8.76502V13.9754C51.6116 13.9967 51.8631 14.0063 52.2287 14.0063C53.0834 14.0063 53.7431 13.7686 54.2077 13.2933C54.6724 12.818 54.9068 12.1253 54.9068 11.2151Z" fill="white"/>
<path d="M62.3286 12.2802C62.3286 13.0528 62.108 13.6859 61.6667 14.1825C61.2042 14.693 60.5914 14.9477 59.8262 14.9477C59.0887 14.9477 58.5015 14.7036 58.0635 14.2134C57.6266 13.7242 57.4081 13.1072 57.4081 12.3633C57.4081 11.5853 57.6329 10.9469 58.0848 10.4514C58.5367 9.9558 59.1442 9.70749 59.9094 9.70749C60.6468 9.70749 61.2394 9.95154 61.6881 10.4407C62.1143 10.916 62.3286 11.5299 62.3286 12.2802ZM61.1701 12.3164C61.1701 11.8528 61.0699 11.4553 60.8706 11.1238C60.6362 10.7231 60.3026 10.5228 59.8689 10.5228C59.4202 10.5228 59.0791 10.7231 58.8447 11.1238C58.6443 11.4553 58.5452 11.8592 58.5452 12.3366C58.5452 12.8002 58.6454 13.1978 58.8447 13.5292C59.0866 13.9299 59.4234 14.1303 59.8582 14.1303C60.2845 14.1303 60.6191 13.9267 60.86 13.5185C61.0667 13.1807 61.1701 12.78 61.1701 12.3164Z" fill="white"/>
<path d="M70.7012 9.80942L69.1292 14.8333H68.1061L67.4549 12.6517C67.2897 12.1071 67.1555 11.5657 67.051 11.0286H67.0308C66.9338 11.5807 66.7995 12.121 66.6269 12.6517L65.9352 14.8333H64.9004L63.4222 9.80942H64.57L65.138 12.1977C65.2755 12.7626 65.3885 13.3008 65.4791 13.8102H65.4993C65.5824 13.3903 65.7199 12.8553 65.9139 12.2084L66.6269 9.81048H67.537L68.2201 12.1572C68.3853 12.7295 68.5196 13.2805 68.623 13.8112H68.6539C68.7296 13.2944 68.8436 12.7434 68.9949 12.1572L69.6045 9.81048H70.7012V9.80942Z" fill="white"/>
<path d="M76.491 14.833H75.3741V11.9555C75.3741 11.0688 75.0373 10.6255 74.3617 10.6255C74.0302 10.6255 73.7627 10.747 73.5549 10.991C73.3492 11.2351 73.2448 11.5228 73.2448 11.8522V14.8319H72.1279V11.2447C72.1279 10.8035 72.114 10.325 72.0874 9.80702H73.0689L73.1212 10.5925H73.1521C73.2821 10.3484 73.4761 10.147 73.7308 9.98606C74.0334 9.79849 74.3723 9.70364 74.7432 9.70364C75.2121 9.70364 75.6022 9.85498 75.9123 10.1587C76.2981 10.5307 76.491 11.0859 76.491 11.8234V14.833Z" fill="white"/>
<path d="M79.571 14.8334H78.4552V7.50441H79.571V14.8334Z" fill="white"/>
<path d="M86.1466 12.2802C86.1466 13.0528 85.926 13.6859 85.4847 14.1825C85.0222 14.693 84.4084 14.9477 83.6442 14.9477C82.9057 14.9477 82.3184 14.7036 81.8815 14.2134C81.4445 13.7242 81.2261 13.1072 81.2261 12.3633C81.2261 11.5853 81.4509 10.9469 81.9028 10.4514C82.3547 9.9558 82.9621 9.70749 83.7263 9.70749C84.4648 9.70749 85.0563 9.95154 85.506 10.4407C85.9323 10.916 86.1466 11.5299 86.1466 12.2802ZM84.987 12.3164C84.987 11.8528 84.8869 11.4553 84.6876 11.1238C84.4542 10.7231 84.1195 10.5228 83.6868 10.5228C83.2371 10.5228 82.8961 10.7231 82.6627 11.1238C82.4623 11.4553 82.3632 11.8592 82.3632 12.3366C82.3632 12.8002 82.4634 13.1978 82.6627 13.5292C82.9046 13.9299 83.2414 14.1303 83.6762 14.1303C84.1025 14.1303 84.4361 13.9267 84.6769 13.5185C84.8847 13.1807 84.987 12.78 84.987 12.3164Z" fill="white"/>
<path d="M91.5518 14.8337H90.549L90.4659 14.255H90.435C90.0918 14.7164 89.6026 14.9477 88.9674 14.9477C88.4932 14.9477 88.1095 14.7953 87.8207 14.4926C87.5585 14.2177 87.4274 13.8756 87.4274 13.4695C87.4274 12.8557 87.6832 12.3878 88.198 12.0638C88.7117 11.7398 89.4342 11.581 90.3646 11.5885V11.4947C90.3646 10.8329 90.0172 10.5025 89.3213 10.5025C88.8257 10.5025 88.3887 10.6272 88.0115 10.8745L87.7845 10.1412C88.2513 9.85243 88.8278 9.70749 89.5078 9.70749C90.8208 9.70749 91.4794 10.4002 91.4794 11.7857V13.6358C91.4794 14.1377 91.5039 14.5374 91.5518 14.8337ZM90.3923 13.1072V12.3324C89.1603 12.3111 88.5443 12.6489 88.5443 13.3448C88.5443 13.607 88.6147 13.8031 88.7586 13.9342C88.9024 14.0653 89.0857 14.1303 89.3042 14.1303C89.5493 14.1303 89.7785 14.0525 89.9873 13.8979C90.1973 13.7423 90.3262 13.5452 90.3742 13.3033C90.3859 13.2489 90.3923 13.1828 90.3923 13.1072Z" fill="white"/>
<path d="M97.898 14.8334H96.9068L96.8546 14.0267H96.8237C96.5072 14.6405 95.9679 14.9475 95.2102 14.9475C94.6048 14.9475 94.1008 14.7098 93.7011 14.2345C93.3015 13.7592 93.1022 13.1421 93.1022 12.3844C93.1022 11.5712 93.3185 10.9126 93.7533 10.4096C94.1743 9.94067 94.6901 9.70621 95.304 9.70621C95.9786 9.70621 96.4507 9.93321 96.7193 10.3883H96.7406V7.50441H97.8585V13.48C97.8585 13.9691 97.8713 14.4199 97.898 14.8334ZM96.7406 12.7148V11.8771C96.7406 11.7322 96.7299 11.6149 96.7097 11.5254C96.6468 11.2569 96.5114 11.0309 96.3058 10.8487C96.0979 10.6664 95.8475 10.5748 95.5587 10.5748C95.142 10.5748 94.8159 10.74 94.5761 11.0714C94.3384 11.4029 94.218 11.826 94.218 12.3428C94.218 12.8395 94.332 13.2423 94.5612 13.5524C94.8031 13.8828 95.1292 14.048 95.5374 14.048C95.904 14.048 96.1971 13.9105 96.4198 13.6345C96.6351 13.3798 96.7406 13.0729 96.7406 12.7148Z" fill="white"/>
<path d="M107.45 12.2802C107.45 13.0528 107.23 13.6859 106.789 14.1825C106.326 14.693 105.714 14.9477 104.948 14.9477C104.212 14.9477 103.624 14.7036 103.185 14.2134C102.748 13.7242 102.53 13.1072 102.53 12.3633C102.53 11.5853 102.755 10.9469 103.207 10.4514C103.659 9.9558 104.266 9.70749 105.032 9.70749C105.769 9.70749 106.362 9.95154 106.81 10.4407C107.236 10.916 107.45 11.5299 107.45 12.2802ZM106.293 12.3164C106.293 11.8528 106.193 11.4553 105.994 11.1238C105.758 10.7231 105.426 10.5228 104.991 10.5228C104.543 10.5228 104.202 10.7231 103.967 11.1238C103.766 11.4553 103.667 11.8592 103.667 12.3366C103.667 12.8002 103.767 13.1978 103.967 13.5292C104.209 13.9299 104.545 14.1303 104.98 14.1303C105.406 14.1303 105.742 13.9267 105.983 13.5185C106.189 13.1807 106.293 12.78 106.293 12.3164Z" fill="white"/>
<path d="M113.456 14.833H112.34V11.9555C112.34 11.0688 112.003 10.6255 111.327 10.6255C110.995 10.6255 110.728 10.747 110.521 10.991C110.314 11.2351 110.211 11.5228 110.211 11.8522V14.8319H109.093V11.2447C109.093 10.8035 109.08 10.325 109.053 9.80702H110.034L110.086 10.5925H110.117C110.248 10.3484 110.442 10.147 110.696 9.98606C110.999 9.79849 111.337 9.70364 111.709 9.70364C112.177 9.70364 112.567 9.85498 112.877 10.1587C113.264 10.5307 113.456 11.0859 113.456 11.8234V14.833Z" fill="white"/>
<path d="M120.972 10.6461H119.742V13.0867C119.742 13.7069 119.961 14.0171 120.393 14.0171C120.594 14.0171 120.76 14 120.891 13.9648L120.92 14.8121C120.699 14.8952 120.409 14.9368 120.052 14.9368C119.611 14.9368 119.268 14.8025 119.02 14.5339C118.77 14.2654 118.647 13.8135 118.647 13.1794V10.6461H117.912V9.80955H118.647V8.88876L119.741 8.55838V9.80848H120.971V10.6461H120.972Z" fill="white"/>
<path d="M126.885 14.8334H125.767V11.9773C125.767 11.0767 125.43 10.6259 124.756 10.6259C124.238 10.6259 123.884 10.887 123.69 11.4093C123.657 11.519 123.638 11.6533 123.638 11.811V14.8324H122.522V7.50441H123.638V10.5322H123.659C124.011 9.98117 124.515 9.70621 125.168 9.70621C125.631 9.70621 126.013 9.85755 126.317 10.1613C126.695 10.5396 126.885 11.1023 126.885 11.8462V14.8334Z" fill="white"/>
<path d="M132.985 12.0837C132.985 12.2841 132.97 12.4525 132.943 12.59H129.593C129.608 13.0866 129.768 13.4649 130.078 13.7271C130.362 13.9616 130.727 14.0788 131.175 14.0788C131.671 14.0788 132.122 13.9999 132.53 13.8411L132.704 14.617C132.228 14.8237 131.667 14.9271 131.018 14.9271C130.24 14.9271 129.628 14.698 129.184 14.2397C128.739 13.7815 128.518 13.1665 128.518 12.3949C128.518 11.6372 128.724 11.0063 129.138 10.5033C129.571 9.96613 130.156 9.69757 130.895 9.69757C131.617 9.69757 132.166 9.96613 132.537 10.5033C132.837 10.9296 132.985 11.4571 132.985 12.0837ZM131.919 11.7949C131.927 11.4635 131.854 11.1779 131.703 10.937C131.509 10.6269 131.213 10.4713 130.814 10.4713C130.449 10.4713 130.152 10.6226 129.925 10.9264C129.739 11.1683 129.63 11.4571 129.593 11.7949H131.919Z" fill="white"/>
</svg>
