<?xml version="1.0" encoding="UTF-8"?>
<svg width="14px" height="14px" viewBox="0 0 14 14" version="1.1" xmlns="http://www.w3.org/2000/svg" xmlns:xlink="http://www.w3.org/1999/xlink">
    <!-- Generator: Sketch 52.6 (67491) - http://www.bohemiancoding.com/sketch -->
    <title>icon_Scheduled-delivery</title>
    <desc>Created with Sketch.</desc>
    <g id="icon_Scheduled-delivery" stroke="none" stroke-width="1" fill="none" fill-rule="evenodd">
        <rect id="Rectangle-Copy-27" x="0" y="0" width="14" height="14"></rect>
        <path d="M7.5,6.33851648 L7.5,11.8245192 C7.5,12.1006616 7.27614237,12.3245192 7,12.3245192 C6.72385763,12.3245192 6.5,12.1006616 6.5,11.8245192 L6.5,6.33851648 L1.81430466,4.46423835 C1.5579129,4.36168164 1.43320495,4.07069642 1.53576165,3.81430466 C1.63831836,3.5579129 1.92930358,3.43320495 2.18569534,3.53576165 L7,5.46148352 L11.8143047,3.53576165 C12.0706964,3.43320495 12.3616816,3.5579129 12.4642383,3.81430466 C12.566795,4.07069642 12.4420871,4.36168164 12.1856953,4.46423835 L7.5,6.33851648 Z" id="Combined-Shape" fill="#CAD4FB" fill-rule="nonzero"></path>
        <path d="M12,3.82455296 L7.00002403,2.00636255 L2,3.8245477 L2,9.25820531 L6.99966615,11.9856576 L12,9.25822914 L12,3.82455296 Z M13,3.76923077 L13,9.30769231 C13,9.64663462 12.8125,9.95673077 12.5168269,10.1153846 L7.43990385,12.8846154 C7.30288462,12.9639423 7.15144231,13 7,13 C6.84855769,13 6.69711538,12.9639423 6.56009615,12.8846154 L1.48317308,10.1153846 C1.1875,9.95673077 1,9.64663462 1,9.30769231 L1,3.76923077 C1,3.37980769 1.24519231,3.03365385 1.60576923,2.90384615 L6.68269231,1.05769231 C6.78365385,1.02163462 6.89182692,1 7,1 C7.10817308,1 7.21634615,1.02163462 7.31730769,1.05769231 L12.3942308,2.90384615 C12.7548077,3.03365385 13,3.37980769 13,3.76923077 Z" id="Path" fill="#615CFF" fill-rule="nonzero"></path>
    </g>
</svg>