<?xml version="1.0" encoding="UTF-8"?>
<svg width="18px" height="18px" viewBox="0 0 18 18" version="1.1" xmlns="http://www.w3.org/2000/svg" xmlns:xlink="http://www.w3.org/1999/xlink">
    <title>icon_menubar_help_link</title>
    <g id="icon_menubar_help_link" stroke="none" stroke-width="1" fill="none" fill-rule="evenodd">
        <g id="Help-icon">
            <circle id="Oval" stroke="#FFFFFF" stroke-width="2" cx="9" cy="9" r="8"></circle>
            <path d="M7.808,9.886 C7.808,9.6259987 7.84266632,9.40500091 7.912,9.223 C7.98133368,9.04099909 8.09833251,8.87200078 8.263,8.716 C8.50566788,8.48199883 8.72883232,8.2783342 8.9325,8.105 C9.13616769,7.9316658 9.31166593,7.76916742 9.459,7.6175 C9.60633407,7.46583257 9.72116626,7.322834 9.8035,7.1885 C9.88583375,7.05416599 9.927,6.91333407 9.927,6.766 C9.927,6.47999857 9.83816756,6.25683413 9.6605,6.0965 C9.48283245,5.93616586 9.25966801,5.856 8.991,5.856 C8.58366463,5.856 8.2738344,5.96866554 8.0615,6.194 C7.84916561,6.41933446 7.73000013,6.69233173 7.704,7.013 L5.702,6.883 C5.79733381,5.96432874 6.13533043,5.2645024 6.716,4.7835 C7.29666957,4.30249759 8.04199545,4.062 8.952,4.062 C9.35066866,4.062 9.72549825,4.11616612 10.0765,4.2245 C10.4275018,4.33283387 10.737332,4.49533225 11.006,4.712 C11.274668,4.92866775 11.4869992,5.19733173 11.643,5.518 C11.7990008,5.83866827 11.877,6.20699792 11.877,6.623 C11.877,6.87433459 11.8510003,7.10183231 11.799,7.3055 C11.7469997,7.50916768 11.6581673,7.71066567 11.5325,7.91 C11.4068327,8.10933433 11.2421677,8.31083231 11.0385,8.5145 C10.8348323,8.71816768 10.5770016,8.94133212 10.265,9.184 C10.0656657,9.34000078 9.93133368,9.49166593 9.862,9.639 C9.79266632,9.78633407 9.758,9.93366593 9.758,10.081 L9.758,10.458 L7.808,10.458 L7.808,9.886 Z M7.587,12.382 C7.587,12.2173325 7.61733303,12.0613341 7.678,11.914 C7.73866697,11.7666659 7.82316613,11.6388339 7.9315,11.5305 C8.03983388,11.4221661 8.16766593,11.337667 8.315,11.277 C8.46233407,11.216333 8.61833251,11.186 8.783,11.186 C8.94766749,11.186 9.10366593,11.216333 9.251,11.277 C9.39833407,11.337667 9.52616613,11.4221661 9.6345,11.5305 C9.74283388,11.6388339 9.82733303,11.7666659 9.888,11.914 C9.94866697,12.0613341 9.979,12.2173325 9.979,12.382 C9.979,12.5466675 9.94866697,12.7026659 9.888,12.85 C9.82733303,12.9973341 9.74283388,13.1251661 9.6345,13.2335 C9.52616613,13.3418339 9.39833407,13.426333 9.251,13.487 C9.10366593,13.547667 8.94766749,13.578 8.783,13.578 C8.61833251,13.578 8.46233407,13.547667 8.315,13.487 C8.16766593,13.426333 8.03983388,13.3418339 7.9315,13.2335 C7.82316613,13.1251661 7.73866697,12.9973341 7.678,12.85 C7.61733303,12.7026659 7.587,12.5466675 7.587,12.382 Z" id="?" fill="#FFFFFF" fill-rule="nonzero"></path>
        </g>
    </g>
</svg>
