<?xml version="1.0" encoding="UTF-8"?>
<svg width="115px" height="79px" viewBox="0 0 115 79" version="1.1" xmlns="http://www.w3.org/2000/svg" xmlns:xlink="http://www.w3.org/1999/xlink">
    <!-- Generator: Sketch 42 (36781) - http://www.bohemiancoding.com/sketch -->
    <title>meals copy</title>
    <desc>Created with Sketch.</desc>
    <defs></defs>
    <g id="Page-1" stroke="none" stroke-width="1" fill="none" fill-rule="evenodd">
        <g id="meals-copy" stroke="#615CFF" stroke-width="4.5">
            <g id="Group-14" transform="translate(3.000000, 5.000000)">
                <g id="Group-27" transform="translate(19.000000, 0.000000)" fill="#FFFFFF">
                    <ellipse id="Oval-2" cx="34.6836546" cy="34.1858733" rx="34.6836546" ry="34.1858733"></ellipse>
                    <path d="M17.9306465,19 C14.4197225,23.0540511 12.3000488,28.314042 12.3000488,34.062004 C12.3000488,46.8816424 22.8437426,57.2740126 35.8500481,57.2740126" id="Oval-2" stroke-linecap="round"></path>
                </g>
                <g id="Group-35" transform="translate(0.000000, 5.000000)">
                    <path d="M6.70178765,55.2981103 L6.70178765,18.8120038" id="Line" stroke-linecap="round"></path>
                    <path d="M0,0.194048527 L0,12.516417 C0,15.4697058 2.39077435,17.8649107 5.34000264,17.8649107 L6.9084507,17.8649107" id="Stroke-105" stroke-linecap="round" stroke-linejoin="round"></path>
                    <path d="M13.8169014,0.194048527 L13.8169014,12.516417 C13.8169014,15.4697058 11.4261271,17.8649107 8.47689876,17.8649107 L6.9084507,17.8649107" id="Stroke-106" stroke-linecap="round" stroke-linejoin="round"></path>
                    <path d="M6.9084507,0.194048527 L6.9084507,11.5931868" id="Stroke-110" stroke-linecap="round" stroke-linejoin="round"></path>
                    <path d="M0,11.5931868 L13.5076845,11.5931868" id="Path-2"></path>
                </g>
                <g id="Group-36" transform="translate(92.000000, 5.000000)" stroke-linecap="round">
                    <g id="Group-17" transform="translate(0.300049, 0.000000)">
                        <path d="M8.33636226,55.3043198 L8.33636226,21.8911759" id="Line-Copy-4"></path>
                        <path d="M8.05985915,21.431423 C3.27471262,21.431423 -0.815377098,17.2759608 0.139475905,11.6487441 C1.159618,5.63658604 3.27471262,0.14431421 8.05985915,0.14431421" id="Stroke-100" stroke-linejoin="round" fill="#FFFFFF"></path>
                        <path d="M8.05985915,21.431423 C12.8457912,21.431423 16.935192,17.2759608 15.9801822,11.6487441 C14.9612331,5.63658604 12.8457912,0.14431421 8.05985915,0.14431421" id="Stroke-101" stroke-linejoin="round" fill="#FFFFFF"></path>
                    </g>
                </g>
            </g>
        </g>
    </g>
</svg>
