<?xml version="1.0" encoding="UTF-8"?>
<svg width="80" height="80" viewBox="0 0 80 80" fill="none" xmlns="http://www.w3.org/2000/svg">
  <path fill-rule="evenodd" clip-rule="evenodd" d="M0 40C0 17.9085 17.9078 0 39.9985 0C62.089 0 79.9967 17.9085 79.9967 40C79.9967 62.0915 62.089 80 39.9985 80C17.9078 80 0 62.0915 0 40Z" fill="#D9DDFF"/>
  <path fill-rule="evenodd" clip-rule="evenodd" d="M52.7488 17.0243C52.8787 17.0243 53.0054 17.013 53.1283 16.9944V17.9809C53.1283 18.1874 52.9541 18.3618 52.7488 18.3618C52.5436 18.3618 52.3697 18.1874 52.3697 17.9809V16.9944C52.4927 17.013 52.6193 17.0243 52.7488 17.0243ZM28.2609 16.9943C28.3839 17.013 28.5105 17.0243 28.64 17.0243C28.7703 17.0243 28.8962 17.013 29.0192 16.9943V17.9808C29.0192 18.1874 28.846 18.3617 28.64 18.3617C28.4348 18.3617 28.2609 18.1874 28.2609 17.9808V16.9943Z" fill="white"/>
  <path fill-rule="evenodd" clip-rule="evenodd" d="M63.2256 18.0462H56.2695V15.5066C56.2695 14.8231 55.5232 14.2639 54.611 14.2639C53.6992 14.2639 52.9532 14.8231 52.9532 15.5066V18.0462H33.5303V15.5066C33.5303 14.8231 32.784 14.2639 31.8718 14.2639C30.96 14.2639 30.2137 14.8231 30.2137 15.5066V18.0462H23.0822C19.6917 18.0462 16.9332 20.8172 16.9332 24.223V59.1249C16.9332 62.5308 19.6917 65.3017 23.0822 65.3017H63.2256C66.6161 65.3017 69.3742 62.5308 69.3742 59.1249V24.223C69.3742 20.8172 66.6161 18.0462 63.2256 18.0462Z" fill="white"/>
  <path fill-rule="evenodd" clip-rule="evenodd" d="M52.8878 15.7527H59.8438C63.1395 15.7527 65.8284 18.4538 65.8284 21.7589V56.6608C65.8284 59.9657 63.1394 62.6667 59.8438 62.6667H19.7008C16.4055 62.6667 13.7163 59.9656 13.7163 56.6608V21.7589C13.7163 18.4539 16.4055 15.7527 19.7008 15.7527H26.8323C27.4854 15.7527 28.0149 16.2821 28.0149 16.9353V19.4335C28.0149 19.6976 28.2329 19.9166 28.4904 19.9166C28.7483 19.9166 28.9664 19.6976 28.9664 19.4335V16.9353C28.9664 16.2821 29.4958 15.7527 30.1489 15.7527H49.5719C50.225 15.7527 50.7544 16.2821 50.7544 16.9353V19.4335C50.7544 19.6979 50.972 19.9166 51.2296 19.9166C51.4872 19.9166 51.7052 19.6976 51.7052 19.4335V16.9353C51.7052 16.2821 52.2347 15.7527 52.8878 15.7527ZM25.6497 19.4335V18.1178H19.7009C17.7141 18.1178 16.0815 19.7577 16.0815 21.7589V56.6608C16.0815 58.6617 17.7141 60.3015 19.7009 60.3015H59.8439C61.8308 60.3015 63.4632 58.6618 63.4632 56.6608V21.7589C63.4632 19.7576 61.8309 18.1178 59.8439 18.1178H54.0704V19.4335C54.0704 21.0014 52.7958 22.2817 51.2296 22.2817C49.6632 22.2817 48.3893 21.0015 48.3893 19.4335V18.1178H31.3315V19.4335C31.3315 21.0015 30.0569 22.2817 28.4905 22.2817C26.9243 22.2817 25.6497 21.0014 25.6497 19.4335Z" fill="#333D47"/>
  <path fill-rule="evenodd" clip-rule="evenodd" d="M28.4904 18.3232C27.5786 18.3232 26.8323 17.764 26.8323 17.0808V13.0422C26.8323 12.3587 27.5786 11.7995 28.4904 11.7995C29.4026 11.7995 30.1486 12.3587 30.1486 13.0422V17.0808C30.1486 17.764 29.4026 18.3232 28.4904 18.3232Z" fill="#333D47"/>
  <path fill-rule="evenodd" clip-rule="evenodd" d="M51.2297 18.3232C50.3175 18.3232 49.5715 17.764 49.5715 17.0808V13.0422C49.5715 12.3587 50.3175 11.7995 51.2297 11.7995C52.1415 11.7995 52.8878 12.3587 52.8878 13.0422V17.0808C52.8878 17.764 52.1415 18.3232 51.2297 18.3232Z" fill="#333D47"/>
  <path d="M14.899 31.9981H64.2093C64.8624 31.9981 65.3919 31.4686 65.3919 30.8155C65.3919 30.1624 64.8624 29.6329 64.2093 29.6329H14.899C14.2459 29.6329 13.7164 30.1624 13.7164 30.8155C13.7164 31.4686 14.2459 31.9981 14.899 31.9981Z" fill="#333D47"/>
  <path fill-rule="evenodd" clip-rule="evenodd" d="M38.4444 42.9815L35.3687 39.8918C34.9069 39.4279 34.9069 38.6757 35.3687 38.2118C35.8305 37.7479 36.5793 37.7479 37.0411 38.2118L40.1169 41.3015L43.1926 38.2118C43.6544 37.7479 44.4032 37.7479 44.865 38.2118C45.3268 38.6757 45.3268 39.4279 44.865 39.8918L41.7893 42.9815L44.865 46.0711C45.3268 46.535 45.3268 47.2872 44.865 47.7511C44.4032 48.215 43.6544 48.215 43.1926 47.7511L40.1169 44.6614L37.0411 47.7511C36.5793 48.215 35.8305 48.215 35.3687 47.7511C34.9069 47.2872 34.9069 46.535 35.3687 46.0711L38.4444 42.9815Z" fill="#333D47"/>
  <path d="M20.5738 49.176V32.0646C20.5738 31.4115 20.0443 30.882 19.3912 30.882C18.7381 30.882 18.2086 31.4115 18.2086 32.0646V49.6447C18.2086 49.9458 18.3235 50.2356 18.5298 50.4549L25.6245 57.9981C25.848 58.2357 26.1597 58.3704 26.4859 58.3704H58.4677C60.0529 58.3704 61.3357 57.0816 61.3357 55.4944V32.0646C61.3357 31.4115 60.8062 30.882 60.1531 30.882C59.5 30.882 58.9706 31.4115 58.9706 32.0646V55.4944C58.9706 55.7778 58.7442 56.0053 58.4677 56.0053H26.9971L20.5738 49.176Z" fill="#333D47"/>
  <path d="M25.3033 57.1879C25.3033 57.841 25.8328 58.3704 26.4859 58.3704C27.139 58.3704 27.6685 57.841 27.6685 57.1879V49.2759C27.6685 48.5987 27.1008 48.0598 26.4245 48.095L19.3298 48.4638C18.6776 48.4977 18.1763 49.0539 18.2102 49.7061C18.2441 50.3584 18.8004 50.8596 19.4526 50.8257L25.3033 50.5216V57.1879Z" fill="#333D47"/>
</svg>
