<svg width="24" height="24" viewBox="0 0 24 24" fill="none" xmlns="http://www.w3.org/2000/svg">
<path fill-rule="evenodd" clip-rule="evenodd" d="M12 2L14.2258 3.69304L17 3.33975L18.0811 5.91888L20.6603 7L20.307 9.77416L22 12L20.307 14.2258L20.6603 17L18.0811 18.0811L17 20.6603L14.2258 20.307L12 22L9.77416 20.307L7 20.6603L5.91888 18.0811L3.33975 17L3.69304 14.2258L2 12L3.69304 9.77416L3.33975 7L5.91888 5.91888L7 3.33975L9.77416 3.69304L12 2ZM14.4785 5.67701L15.7436 5.5159L16.2366 6.69206L16.5531 7.44695L17.3079 7.76339L18.4841 8.2564L18.323 9.52149L18.2196 10.3335L18.7151 10.985L19.4872 12L18.7151 13.015L18.2196 13.6665L18.323 14.4785L18.4841 15.7436L17.3079 16.2366L16.5531 16.5531L16.2366 17.3079L15.7436 18.4841L14.4785 18.323L13.6665 18.2196L13.015 18.7151L12 19.4872L10.985 18.7151L10.3335 18.2196L9.52149 18.323L8.2564 18.4841L7.76339 17.3079L7.44695 16.5531L6.69206 16.2366L5.5159 15.7436L5.67701 14.4785L5.78042 13.6665L5.28488 13.015L4.51281 12L5.28488 10.985L5.78042 10.3335L5.67701 9.52149L5.5159 8.2564L6.69206 7.76339L7.44695 7.44695L7.76339 6.69206L8.2564 5.5159L9.52149 5.67701L10.3335 5.78042L10.985 5.28488L12 4.51281L13.015 5.28488L13.6665 5.78042L14.4785 5.67701ZM9.5 11C10.3284 11 11 10.3284 11 9.5C11 8.67157 10.3284 8 9.5 8C8.67157 8 8 8.67157 8 9.5C8 10.3284 8.67157 11 9.5 11ZM16 14.5C16 15.3284 15.3284 16 14.5 16C13.6716 16 13 15.3284 13 14.5C13 13.6716 13.6716 13 14.5 13C15.3284 13 16 13.6716 16 14.5ZM9.20718 16.2071L16.2072 9.20706L14.793 7.79285L7.79297 14.7928L9.20718 16.2071Z" fill="white"/>
</svg>
