<svg width="99" height="24" fill="none" xmlns="http://www.w3.org/2000/svg"><path d="M36.75 5.367h-5.438a.755.755 0 00-.747.638l-2.2 13.947a.454.454 0 00.449.523h2.596a.755.755 0 00.747-.638l.594-3.762a.755.755 0 01.745-.639h1.722c3.583 0 5.65-1.733 6.19-5.169.244-1.503.011-2.684-.693-3.511-.773-.908-2.144-1.389-3.964-1.389zm.628 5.094c-.297 1.952-1.788 1.952-3.23 1.952h-.82l.575-3.645a.454.454 0 01.448-.383h.376c.982 0 1.908 0 2.387.56.286.334.373.83.264 1.516zm15.63-.063h-2.604a.453.453 0 00-.448.383l-.115.728-.182-.264c-.564-.818-1.821-1.092-3.076-1.092-2.878 0-5.337 2.18-5.815 5.238-.25 1.525.105 2.984.97 4.001.794.935 1.93 1.325 3.28 1.325 2.32 0 3.605-1.491 3.605-1.491l-.116.724a.452.452 0 00.447.524H51.3a.756.756 0 00.747-.638l1.408-8.914a.45.45 0 00-.446-.524zm-3.63 5.07c-.251 1.487-1.432 2.486-2.938 2.486-.757 0-1.361-.242-1.75-.702-.384-.456-.53-1.106-.408-1.83.235-1.475 1.436-2.507 2.919-2.507.74 0 1.34.246 1.737.71.396.468.554 1.122.44 1.842zm17.502-5.07h-2.617a.758.758 0 00-.626.332l-3.61 5.317-1.53-5.11a.758.758 0 00-.725-.539H55.2a.453.453 0 00-.43.6l2.882 8.46-2.71 3.826a.453.453 0 00.37.716h2.614a.755.755 0 00.621-.325l8.705-12.565a.454.454 0 00-.372-.712z" fill="#253B80"/><path d="M75.545 5.367h-5.44a.756.756 0 00-.745.638l-2.2 13.947a.45.45 0 00.447.523h2.791a.53.53 0 00.522-.447l.624-3.953a.756.756 0 01.746-.639h1.721c3.584 0 5.65-1.733 6.192-5.169.244-1.503.009-2.684-.695-3.511-.772-.908-2.142-1.389-3.963-1.389zm.628 5.094c-.297 1.952-1.788 1.952-3.23 1.952h-.82l.576-3.645a.452.452 0 01.447-.383h.376c.981 0 1.909 0 2.387.56.286.334.373.83.264 1.516zm15.63-.063H89.2a.45.45 0 00-.448.383l-.115.728-.183-.264c-.564-.818-1.82-1.092-3.075-1.092-2.878 0-5.336 2.18-5.814 5.238-.248 1.525.104 2.984.97 4.001.794.935 1.928 1.325 3.28 1.325 2.319 0 3.605-1.491 3.605-1.491l-.117.724a.454.454 0 00.45.524h2.344a.755.755 0 00.746-.638l1.409-8.914a.454.454 0 00-.45-.524zm-3.631 5.07c-.25 1.487-1.432 2.486-2.939 2.486-.754 0-1.36-.242-1.748-.702-.385-.456-.53-1.106-.41-1.83.237-1.475 1.436-2.507 2.92-2.507.74 0 1.34.246 1.736.71.399.468.556 1.122.441 1.842zm6.701-9.718l-2.232 14.202a.45.45 0 00.447.523h2.244c.373 0 .69-.27.747-.638L98.28 5.89a.454.454 0 00-.447-.524H95.32a.454.454 0 00-.447.383z" fill="#179BD7"/><path d="M5.778 23.186l.416-2.642-.926-.022H.844L3.918 1.028a.251.251 0 01.25-.214h7.46c2.476 0 4.185.516 5.078 1.533.418.477.684.976.813 1.524.135.576.138 1.264.006 2.103l-.01.061v.538l.418.237c.32.162.607.38.848.646.357.408.589.926.687 1.541.1.632.067 1.385-.098 2.236-.191.98-.5 1.833-.916 2.532a5.207 5.207 0 01-1.452 1.59 5.89 5.89 0 01-1.954.882c-.721.188-1.543.283-2.444.283h-.58c-.415 0-.818.15-1.135.417-.316.271-.526.645-.592 1.056l-.043.238-.735 4.656-.034.171c-.008.054-.024.082-.046.1a.124.124 0 01-.076.028H5.778z" fill="#253B80"/><path d="M18.33 6.097c-.023.143-.048.288-.077.438-.984 5.05-4.35 6.796-8.648 6.796H7.417c-.526 0-.969.381-1.05.9l-1.121 7.106-.318 2.015a.56.56 0 00.553.647h3.882c.46 0 .85-.334.922-.787l.038-.197.731-4.639.047-.254a.934.934 0 01.923-.789h.58c3.761 0 6.705-1.527 7.566-5.945.36-1.846.173-3.387-.778-4.471a3.71 3.71 0 00-1.063-.82z" fill="#179BD7"/><path d="M17.3 5.687a7.757 7.757 0 00-.956-.212 12.154 12.154 0 00-1.93-.141H8.569a.932.932 0 00-.922.789L6.402 14l-.036.23a1.063 1.063 0 011.05-.9h2.19c4.298 0 7.664-1.746 8.647-6.796.03-.15.054-.295.077-.438-.26-.136-.53-.25-.81-.34a7.135 7.135 0 00-.22-.07z" fill="#222D65"/><path d="M7.646 6.123a.93.93 0 01.921-.788h5.847c.693 0 1.34.045 1.93.14.4.063.793.157 1.178.281.29.096.56.21.808.341.293-1.866-.002-3.137-1.011-4.288C16.206.542 14.199 0 11.629 0h-7.46c-.525 0-.973.382-1.054.901L.008 20.596a.64.64 0 00.632.741h4.606l1.156-7.336 1.244-7.878z" fill="#253B80"/></svg>