<svg fill="none" height="24" viewBox="0 0 164 24" width="164" xmlns="http://www.w3.org/2000/svg"><path d="m0 0h38v24h-38z" fill="#1a1f71"/><path d="m17.6641 8.05759-1.7497 8.17811h-2.1154l1.7497-8.17811zm8.9007 5.28051 1.1138-3.071.641 3.071zm2.3604 2.8976h1.9568l-1.7075-8.17811h-1.8064c-.4057 0-.7483.23617-.9005.60005l-3.1739 7.57806h2.2213l.4412-1.2213h2.7142zm-5.5212-2.6701c.0089-2.1586-2.9853-2.2774-2.9644-3.2417.0062-.2935.2858-.60533.8971-.68521.3036-.03958 1.1384-.07002 2.0863.36611l.3711-1.73415c-.5089-.18494-1.1642-.36269-1.9789-.36269-2.0909 0-3.5629 1.1118-3.5752 2.70364-.0133 1.1773 1.0505 1.834 1.8523 2.2255.824.4009 1.101.6577 1.0975 1.0161-.0055.5491-.6576.7909-1.2658.8005-1.0639.0168-1.6811-.2872-2.1733-.5164l-.3834 1.7918c.4944.2272 1.4066.4244 2.3531.4345 2.2222 0 3.6763-1.0981 3.6836-2.798zm-8.763-5.50801-3.4275 8.17811h-2.2367l-1.68659-6.52679c-.10241-.40204-.19153-.54906-.50308-.71837-.5079-.27585-1.34787-.5348-2.08693-.69535l.05061-.2376h3.59963c.4587 0 .87149.30534.97561.83371l.89095 4.7328 2.2015-5.56651z" fill="#fff"/><path d="m42 0h38v24h-38z" fill="#333d47"/><path d="m64.156 6.44196h-6.4914v10.60244h6.4914z" fill="#ff5f00"/><path d="m58.3333 11.7437c-.0008-1.021.2307-2.02869.6768-2.94696.4462-.91827 1.0954-1.72302 1.8985-2.35335-.9947-.78171-2.1892-1.2678-3.4471-1.40273-1.2578-.13493-2.5283.08675-3.6661.6397-1.1379.55295-2.0972 1.41486-2.7683 2.48723-.6712 1.07237-1.0271 2.31191-1.0271 3.57701s.3559 2.5046 1.0271 3.577c.6711 1.0724 1.6304 1.9343 2.7683 2.4872 1.1378.553 2.4083.7747 3.6661.6397 1.2579-.1349 2.4524-.621 3.4471-1.4027-.8034-.6305-1.4527-1.4356-1.8989-2.3542-.4461-.9186-.6774-1.9267-.6764-2.9479z" fill="#eb001b"/><path d="m71.1742 15.9225v-.2172h.0936v-.045h-.2229v.045h.088v.2172zm.4326 0v-.2622h-.0674l-.0787.1873-.0787-.1873h-.0674v.2622h.0487v-.1985l.0731.1705h.0505l.0731-.1705v.1985z" fill="#f79e1b"/><path d="m71.8183 11.7441c-.0001 1.2652-.3561 2.5048-1.0273 3.5772-.6713 1.0724-1.6308 1.9343-2.7688 2.4872-1.1379.5529-2.4085.7744-3.6664.6393-1.258-.1351-2.4525-.6215-3.4471-1.4034.8028-.6309 1.4518-1.4359 1.898-2.3542.4463-.9183.6782-1.926.6782-2.947s-.2319-2.02872-.6782-2.94704c-.4462-.91832-1.0952-1.7233-1.898-2.35419.9946-.78195 2.1891-1.26828 3.4471-1.4034 1.2579-.13513 2.5285.08641 3.6664.63928 1.138.55287 2.0975 1.41477 2.7688 2.48717.6712 1.07241 1.0272 2.31208 1.0273 3.57718z" fill="#f79e1b"/><path d="m84 0h38v24h-38z" fill="#313156"/><path d="m105.86 6.44205h-5.9005v10.60335h5.9005z" fill="#7673c0"/><path d="m100.334 11.7446c-.001-1.0213.23-2.02949.677-2.94818.446-.9187 1.095-1.72382 1.899-2.3544-.995-.78177-2.19-1.26791-3.4478-1.40285-1.258-.13494-2.5286.08675-3.6665.63975s-2.0973 1.41499-2.7685 2.48745-1.0272 2.31213-1.0272 3.57733.356 2.5048 1.0272 3.5773c.6712 1.0724 1.6306 1.9344 2.7685 2.4874s2.4085.7747 3.6665.6398c1.2578-.135 2.4528-.6211 3.4478-1.4029-.804-.6303-1.453-1.4352-1.899-2.3535-.446-.9184-.678-1.9262-.677-2.9472z" fill="#eb001b"/><path d="m113.176 15.9216v-.2098h.088v-.0449h-.223v.0449h.088v.2173zm.433 0v-.2622h-.068l-.079.1873-.078-.1873h-.07v.2622h.049v-.1967l.073.1705h.051l.073-.1705v.1986z" fill="#00a1df"/><path d="m113.818 11.7447c0 1.2649-.356 2.5043-1.027 3.5765-.672 1.0721-1.631 1.9339-2.769 2.4867-1.137.5529-2.408.7746-3.665.6397-1.258-.1348-2.453-.6207-3.447-1.4022.803-.6309 1.452-1.436 1.898-2.3544s.678-1.9261.678-2.9472-.232-2.02892-.678-2.94732-1.095-1.72344-1.898-2.35439c.994-.78201 2.189-1.26838 3.447-1.40352 1.258-.13513 2.529.08642 3.667.63934s2.097 1.41489 2.769 2.48738c.671 1.0725 1.027 2.31221 1.027 3.57751z" fill="#00a1df"/><rect fill="#006fcf" height="24" rx="3" width="38" x="126"/><path d="m132.864 8-3.389 7.9984h.135l1.344.0016h2.36l.504-1.2611h1.353l.507 1.2611 16.784-.0016v-7.9984h-9.833l-.626 1.80295-.645-1.80295h-4.107v2.4945l-1.084-2.4945z" fill="#fff"/><g fill="#016fd0"><path d="m133.54 8.98621-2.576 5.99019h1.677l.476-1.1996h2.763l.473 1.1996h1.714l-2.574-5.99019zm.953 1.39409.843 2.0961h-1.687z"/><path d="m138.245 14.9754v-5.99017l2.383.00885 1.387 3.86212 1.353-3.87097h2.364v5.99017h-1.497v-4.4138l-1.588 4.4138h-1.313l-1.592-4.4138v4.4138z"/><path d="m146.757 14.9754v-5.99017h4.887v1.33987h-3.373v1.0247h3.294v1.261h-3.294v1.0641h3.373v1.3005z"/></g><path d="m145.741 16v-8h8.471l.909 1.18473.938-1.18473h4.469l-3.36 4.0328 3.36 3.9672h-4.54l-.908-1.2101-.921 1.2101z" fill="#fff"/><path d="m146.765 14.9754v-5.99017h4.887v1.33987h-3.374v1.0247h3.295v1.261h-3.295v1.0641h3.374v1.3005z" fill="#016fd0"/><path d="m151.842 14.9754 2.379-2.9582-2.436-3.03197h1.887l1.451 1.87437 1.455-1.87437h1.813l-2.404 2.99507 2.384 2.9951h-1.887l-1.408-1.8449-1.375 1.8449z" fill="#016fd0"/></svg>
