<?xml version="1.0" encoding="utf-8"?>
<!-- Generator: Adobe Illustrator 21.1.0, SVG Export Plug-In . SVG Version: 6.00 Build 0)  -->
<svg version="1.1" id="Layer_1" xmlns="http://www.w3.org/2000/svg" xmlns:xlink="http://www.w3.org/1999/xlink" x="0px" y="0px"
	 viewBox="0 0 219.9 219.6" enable-background="new 0 0 219.9 219.6" xml:space="preserve">
<title>3</title>
<path fill="#DCE6F4" d="M0,109.8C-0.1,49.1,49.1-0.2,109.8-0.3c60.7-0.1,110,49.1,110.1,109.8s-49.1,110-109.8,110.1
	c0,0-0.1,0-0.1,0C49.3,219.6,0,170.5,0,109.8C0,109.8,0,109.8,0,109.8"/>
<path fill="#FFFFFF" d="M214.7,117.9l-31-25.6l-0.1-0.1l7.6-13.6c2.3-3.9,2.9-8.6,1.5-13c-0.4-1-0.9-2-1.5-2.9l4.9-2.5
	c1.6-0.9,2.1-2.9,1.2-4.4c-0.8-1.5-2.7-2-4.2-1.3l-4.4,2.3l2.2-5.9c0.6-1.7-0.2-3.6-1.9-4.2s-3.6,0.2-4.2,1.9l-2,5.3l-1.6-5.2
	c-0.5-1.7-2.3-2.7-4-2.2s-2.7,2.3-2.2,4l0,0l1.8,5.7c-5.5,0.2-10.7,4.5-13.3,10.6c-2.1-2.5-4.6-4.7-7.4-6.4
	c-4.8-3.1-10.1-5.4-15.7-6.8c-1.9-0.4-3.7-1.1-5.3-2.1c0.4-2-0.2-4-1.6-5.5l-9.5-10.6c-2.4-2.5-5.7-3.9-9.1-3.8h-0.2
	c-2.5,0-5.1,0.6-7.4,1.7c-0.5-0.7-0.9-1.5-1-2.3c0-0.4,0.2-0.8,0.5-1.1c1.2-1.3,1.2-3.4-0.2-4.6s-3.4-1.2-4.6,0.2
	c-1.5,1.6-2.4,3.7-2.3,5.9c0.1,2,0.8,3.9,2,5.5c-3.8,2.8-6.2,7.2-6.4,11.9c-2-0.4-4.1-0.6-6.1-0.5c-3.4,0.1-5.9,0.3-7.3,0.4
	c-0.2,0-0.5,0-0.8,0.1c-0.5-0.7-1.1-1.3-1.8-1.8c-4.6-3.5-8.2-1.2-10.3,0.1c-0.7,0.6-1.6,1-2.5,1.2c-6.2,0.5-10.4,2.4-12.5,5.7
	c-0.8,1.3-1.3,2.7-1.4,4.2c-4.3,1.2-7.2,3-8.8,5.6c-2.3,3.6-1.3,7.4-0.7,10c0.2,0.7,0.3,1.4,0.4,2.1c-0.9,3.1-1,8.4,1.7,10.9
	c1.1,1,1.9,2.3,2.2,3.8c0.1,0.6,0.2,1.3,0.4,2c0.2,0.7,0.4,1.3,0.7,1.9l-28.7,23.2c-1.3,1.3-1.3,3.3,0,4.6c1.1,1.1,2.8,1.3,4.1,0.4
	L47,104.2v71.3c0,6.9,5.6,12.5,12.5,12.5h115.7c6.9,0,12.5-5.6,12.5-12.5V104l22.9,18.9c1.3,1.2,3.4,1.1,4.6-0.2
	c1.2-1.3,1.1-3.4-0.2-4.6C214.9,118,214.8,117.9,214.7,117.9L214.7,117.9z"/>
<path fill="#FFFFFF" d="M127.2,95.6c-6.6,0-11.3-1.3-14.6-4c-8.7-7.1-9.9-17.5-11-26.8c-0.5,0.3-1,0.4-1.5,0.4h-0.1
	c-1.3,0-2.5-0.8-3-2.1l-5.8-15c-2.1-5.3-0.2-11.4,4.4-14.7c0.9-0.6,1.7-1.2,2.4-1.7l0.3-0.2c2.4-1.6,5.2-2.5,8.1-2.5h0.1
	c2.5-0.1,5,0.9,6.7,2.7l9.5,10.6c1.1,1.3,1.1,3.2-0.1,4.4c2.4,2.1,5.4,3.6,8.5,4.2c5.3,1.2,10.2,3.4,14.8,6.4
	c12.5,7.8,12,18.8,10.6,24.6c-1.5,6.6-7.2,11.5-13.9,12.1c-0.6,0.1-1.7,0.2-2.9,0.4C135.5,95.1,131.3,95.5,127.2,95.6z"/>
<path fill="#333E48" d="M106.3,32.4h0.1c1.6-0.1,3.2,0.5,4.3,1.6l9.5,10.6l-4.8-0.2c12.6,13.6,13.1,6.1,28.7,15.8
	c10.3,6.4,10.6,15.2,9.1,21.1c-1.2,5.2-5.7,9.1-11,9.6c-2.6,0.2-8.9,1.5-15.1,1.5c-4.8,0-9.5-0.7-12.6-3.2c-11.1-9-8.4-25-11.6-36.1
	l-0.6,1.3L100,62l-5.8-15c-1.5-3.9-0.2-8.4,3.3-10.8c1-0.7,1.9-1.3,2.7-1.8C101.9,33.1,104.1,32.4,106.3,32.4 M106.4,25.9
	L106.4,25.9c-3.5,0-7,1.1-9.9,3.1l-0.3,0.2c-0.7,0.5-1.6,1.1-2.5,1.7c-5.9,4.1-8.2,11.8-5.6,18.5l5.8,15c0.8,2.1,2.6,3.6,4.8,4
	c1.1,8.8,3.1,18.8,11.8,25.8c3.9,3.1,9.3,4.7,16.7,4.7c4.4-0.1,8.7-0.5,13-1.2c1.1-0.2,2.1-0.3,2.7-0.4c8.1-0.7,14.9-6.6,16.8-14.6
	c2.8-11.4-1.6-21.7-12-28.2c-4.8-3.1-10.1-5.4-15.7-6.8c-1.9-0.4-3.7-1.1-5.3-2.1c0.3-2-0.2-4-1.6-5.4l-9.5-10.6
	c-2.4-2.5-5.7-3.9-9.1-3.8L106.4,25.9z"/>
<path fill="#FFFFFF" stroke="#333E48" stroke-width="6.5" stroke-linecap="round" stroke-linejoin="round" d="M122.8,22.6"/>
<path fill="#FFFFFF" stroke="#333E48" stroke-width="6.5" stroke-linecap="round" stroke-linejoin="round" d="M128.9,38.2"/>
<path fill="none" stroke="#333E48" stroke-width="6.5" stroke-linecap="round" stroke-linejoin="round" d="M121,44.7l-4.2-0.4
	c-3-0.2-5.7,2-6,5l-0.4,4.2l-4-0.4c-3.2-0.3-6,2.1-6.3,5.2l-0.4,4"/>
<path fill="none" stroke="#333E48" stroke-width="6.5" stroke-linecap="round" stroke-linejoin="round" d="M97.8,31.3
	c0,0-5.7-5.1-1.8-9.3"/>
<path fill="#FFFFFF" stroke="#333E48" stroke-width="6.5" stroke-linecap="round" stroke-linejoin="round" d="M133.5,66.3
	c1-0.4,2-0.7,2.4-0.8c5.3-1.7,0.1-5.5-8.3-3.3c-2.4-0.9-4.9-1.2-7.4-0.9c-3,0.5-0.6,3.6,0.4,4.8c-7.5,1.9-13,7.2-13,13.4
	c0,7.8,8.5,14.1,18.9,14.1s18.9-6.3,18.9-14.1C145.4,73.4,140.4,68.3,133.5,66.3z"/>
<path fill="#FFFFFF" stroke="#333E48" stroke-width="6.5" stroke-linecap="round" stroke-linejoin="round" d="M127.2,62.1
	c-2.4-0.9-4.9-1.2-7.4-0.9c-3.7,0.7,0.8,5.2,0.8,5.2s-5.2,4-3.9,5.3s8.6-1.4,8.6-1.4s5.3,6.7,6.6,5.4c1.3-1.3-0.7-8.7-0.7-8.7
	s3.6-1.3,4.4-1.6C140.9,63.7,135.7,59.9,127.2,62.1z"/>
<path fill="#FFFFFF" d="M150.9,115.9c-1.8,0-3.4-0.8-4.5-2.2c-1.4-2-1.8-4.6-1-6.9l11.8-42.4c1.7-6.2,6.5-10.6,11.4-10.6
	c1,0,2,0.2,2.9,0.6l5.5,2.2c2,0.8,3.5,2.5,4.1,4.5c1.1,3.5,0.6,7.2-1.2,10.3l-22.6,40.2C155.8,114.3,153.4,115.9,150.9,115.9z"/>
<path fill="#333E48" d="M168.7,56.9c0.6,0,1.1,0.1,1.7,0.3l5.4,2.2c3,1.2,3.5,6.1,1.2,10.3L154.4,110c-1,1.8-2.4,2.6-3.5,2.6
	c-1.8,0-3.2-1.9-2.3-5.1l9.9-35.7l1.9-6.7C161.7,60.4,165.4,56.9,168.7,56.9 M168.7,50.4L168.7,50.4c-6.3,0-12.4,5.5-14.6,13
	l-1.9,6.7l-9.9,35.7c-1.1,3.3-0.5,6.9,1.5,9.8c1.7,2.2,4.3,3.5,7.1,3.5c3.7,0,7.1-2.2,9.2-5.9l22.6-40.2c2.3-3.9,2.9-8.6,1.5-13
	c-0.9-2.9-3.1-5.3-5.9-6.5l-5.5-2.3C171.5,50.7,170.1,50.4,168.7,50.4L168.7,50.4z"/>
<line fill="none" stroke="#333E48" stroke-width="6.5" stroke-linecap="round" stroke-linejoin="round" x1="177.4" y1="56.2" x2="186.1" y2="51.6"/>
<line fill="none" stroke="#333E48" stroke-width="6.5" stroke-linecap="round" stroke-linejoin="round" x1="175.4" y1="54.6" x2="179.4" y2="44"/>
<line fill="none" stroke="#333E48" stroke-width="6.5" stroke-linecap="round" stroke-linejoin="round" x1="172.6" y1="53.5" x2="169.7" y2="43.8"/>
<line fill="none" stroke="#333E48" stroke-width="6.5" stroke-linecap="round" stroke-linejoin="round" x1="159" y1="65.5" x2="167.8" y2="67.9"/>
<line fill="none" stroke="#333E48" stroke-width="6.5" stroke-linecap="round" stroke-linejoin="round" x1="162.5" y1="76.9" x2="171.3" y2="79.3"/>
<path fill="#FFFFFF" d="M71.5,103.1c-6.1-0.1-12.2-1.2-18-3.1c-1.7-0.6-2.6-2.4-2.1-4.1c0.4-1.3,1.7-2.2,3.1-2.2
	c1.1,0,4.3-0.5,5.9-2.3c0.9-1.1,1.2-2.5,0.9-3.9c-1.5-12,2.7-15,7.4-16.5l0.8-0.3c1.5-4.6,4-9.6,9.5-9.6c0.6,0,1.2,0.1,1.8,0.2
	c2.8-6.1,6.5-9.3,10.9-9.3c1.3,0,2.5,0.3,3.7,0.8c5,2.2,7.5,7.5,6.7,14.5c-0.1,0.6,0.1,1.2,0.5,1.7c1.4,1.6,2.1,3.7,2.1,5.8
	c0.2,3-0.8,6-2.8,8.2c-0.2,0.2-0.3,0.4-0.3,0.6c0.2,1.9-0.3,3.7-1.4,5.3C97.9,92.1,89.6,103.1,71.5,103.1z"/>
<path fill="#333E48" d="M91.6,55.2c0.8,0,1.6,0.2,2.4,0.5c4.9,2.2,5.2,7.7,4.8,11.1c-0.2,1.5,0.2,3,1.2,4.2c0.9,1.1,1.4,2.4,1.4,3.8
	c0.2,2.1-0.5,4.3-1.9,5.9c-0.9,0.8-1.3,2-1.2,3.2c0.1,1.1-0.2,2.2-0.9,3.1c-2.5,4-10.1,12.8-25.7,12.8c-5.8-0.1-11.5-1.1-17-3
	c0,0,11.2-0.1,9.9-9.8c-2-16,6.7-11.1,7.9-14.9c2-6.3,4.2-7.8,6.5-7.8c0.5,0,0.9,0.1,1.4,0.1c0.2,0,0.4,0.1,0.6,0.1
	c1.1,0,2.2-0.7,2.7-1.7C84.9,59.8,87.5,55.2,91.6,55.2 M91.5,48.7L91.5,48.7c-6.4,0-10.5,5-12.8,9.1c-7.1,0.1-10.4,6.4-11.9,10.3
	c-2.9,0.8-5.4,2.7-7,5.2c-2.1,3.4-2.7,8-1.9,14.5c0.1,0.5,0.1,1-0.1,1.4c-0.6,0.7-2.7,1.1-3.4,1.1c-3.6,0-6.5,3-6.4,6.6
	c0,2.8,1.8,5.3,4.5,6.1c6.1,2.1,12.5,3.2,19,3.3c19.8,0,28.9-12.1,31.2-15.9c1.2-1.8,1.8-3.9,1.9-6c2.2-2.8,3.3-6.3,3.1-9.8
	c-0.1-2.7-1-5.3-2.6-7.4c0.8-8.3-2.3-14.6-8.6-17.5C94.9,49.1,93.2,48.7,91.5,48.7L91.5,48.7z"/>
<path fill="none" stroke="#333E48" stroke-width="6.5" stroke-linecap="round" stroke-linejoin="round" d="M52.1,95.6
	c0,0-8.2-4.2-9.6-9.5c-0.2-0.7-0.3-1.2-0.4-1.8c-0.4-2.2-1.5-4.2-3.2-5.6c-1.3-1.2-1.6-5-0.8-7.7c1.2-3.8-7.1-12.8,9.5-16
	c3.5-0.7,2.7,5.5,8.9,9.1c9.1,5.2,9.2,7.7,9.2,7.7"/>
<path fill="none" stroke="#333E48" stroke-width="6.5" stroke-linecap="round" stroke-linejoin="round" d="M47.7,55
	c0,0-3-8.2,10.7-9.2c4.2-0.3,6.2-5.4,10.7-2c3.4,2.6,2.4,7.8,2.4,10s4.8,4.8,4.8,7.4"/>
<path fill="none" stroke="#333E48" stroke-width="6.5" stroke-linecap="round" stroke-linejoin="round" d="M72.5,46.4
	c0,0-0.9-0.2,8.5-0.5c10.9-0.4,10.9,5.4,10.9,5.4"/>
<path fill="none" stroke="#333E48" stroke-width="6.5" stroke-linecap="round" stroke-linejoin="round" d="M63.9,95.6
	c0,0,18.7-4.6,28-28.9"/>
<path fill="none" stroke="#333E48" stroke-width="6.5" stroke-linecap="round" stroke-linejoin="round" d="M47.6,71
	c0,0,2.9,9.2,10.1,13.5"/>
<path fill="none" stroke="#333E48" stroke-width="6.5" stroke-linecap="round" stroke-linejoin="round" d="M65.4,70.1
	c0,0-4.8-6.3-2.4-13.2"/>
<path fill="none" stroke="#333E48" stroke-width="6.5" stroke-linecap="round" stroke-linejoin="round" d="M82.8,81.5
	c-1.5-3.1-2.5-6.4-2.9-9.8"/>
<path fill="#FFFFFF" stroke="#333E48" stroke-width="6.5" stroke-linecap="round" stroke-linejoin="round" d="M50.9,87h115.7
	c5.1,0,9.2,4.1,9.2,9.2v73.6c0,5.1-4.1,9.2-9.2,9.2H50.9c-5.1,0-9.2-4.1-9.2-9.2V96.2C41.7,91.1,45.8,87,50.9,87z"/>
<line fill="none" stroke="#333E48" stroke-width="6.5" stroke-linecap="round" stroke-linejoin="round" x1="45.2" y1="88.9" x2="13.5" y2="114.7"/>
<path fill="#F7323F" d="M107.9,122.1c-3.6,0.1-6.6,2.9-6.9,6.5c-0.2,3.6,2.5,6.6,6,6.8c0.2,0,0.4,0,0.6,0c3.5,0.1,6.5-2.5,6.8-6
	c0.5-3.6-2.1-6.8-5.6-7.3C108.6,122.1,108.2,122.1,107.9,122.1z"/>
<path fill="#F7323F" d="M135.6,127.7c-2.6-13.4-13.9-21.8-27.4-22c-11.9,0.2-22.7,6.4-26.7,18.6c-4.1,12.7-0.3,24.8,8.8,31.8
	c9.5,7.3,22.7,8.4,32.9,2.1C133.2,152.1,137.9,139.2,135.6,127.7z M118.6,147.7c-0.9,2.4-2.6,4.3-4.8,5.6c-4,2.2-8.9,1.8-12.5-0.9
	c-1.8-1.3-3.2-3.1-4-5.1c-0.8-1.9-1.7-5.8,1.3-6.1c2-0.1,2.5,2.6,2.8,3.6c1.1,4.2,5.5,6.7,9.5,4.8c2.2-1.2,3.6-3.5,3.7-6
	c0.1-1.2,0.6-2.6,2-2.8c0.6-0.1,1.3,0,1.8,0.4C120.1,142.5,119.3,146,118.6,147.7L118.6,147.7z M117.5,123c2.8,4.6,2,10.6-1.9,14.3
	c-6.7,6.3-18.2,2-19.3-7.1c-0.5-4.4,1.6-8.7,5.3-11c3.9-2.3,8.8-2.2,12.6,0.4c0.9-2.9,5.2-2.4,5.5,0.8l0,0c0,0,0,0,0,0.1
	C119.7,121.7,118.8,122.7,117.5,123L117.5,123z"/>
<line fill="none" stroke="#333E48" stroke-width="6.5" stroke-linecap="round" stroke-linejoin="round" x1="173.1" y1="89.1" x2="204.1" y2="114.7"/>
</svg>
