<svg width="400" height="252" viewBox="0 0 400 252" fill="none" xmlns="http://www.w3.org/2000/svg">
<rect width="400" height="250" fill="#333D47"/>
<path d="M245.994 137.589C245.994 139.832 245.845 142.673 245.399 146.262H183.792C186.321 157.477 194.655 164.953 208.494 164.953C218.315 164.953 227.244 162.112 235.131 156.579L242.869 170.486C232.899 177.963 221.143 181.701 207.75 181.701C177.393 181.701 164 160.766 164 139.234C164 126.972 167.869 116.804 175.607 108.879C183.494 100.804 193.613 96.7664 205.964 96.7664C217.72 96.7664 227.244 100.505 234.685 107.832C242.274 115.159 245.994 125.028 245.994 137.589ZM205.964 113.065C194.655 113.065 186.321 120.093 183.792 131.458H226.946C225.31 120.093 217.125 113.065 205.964 113.065ZM286.768 182C273.673 182 261.768 176.467 254.179 165.85L265.19 153.888C270.548 161.065 279.03 165.402 286.917 165.402C293.911 165.402 298.821 161.664 298.821 156.879C298.821 153.738 296.738 151.047 292.72 149.103C291.381 148.355 288.107 147.009 282.899 145.065C277.839 143.121 274.417 141.626 272.631 140.729C263.554 136.243 259.089 129.364 259.089 120.093C259.089 113.065 261.768 107.234 267.125 102.748C272.482 98.2617 279.625 96.0187 288.405 96.0187C299.863 96.0187 309.089 100.056 316.083 107.981L305.964 120.393C300.756 114.86 294.655 112.019 287.81 112.019C281.708 112.019 277.988 115.308 277.988 119.645C277.988 123.234 280.369 125.925 284.982 127.57C296.589 132.206 303.137 134.897 304.476 135.645C313.554 140.579 318.167 147.458 318.167 156.28C318.167 163.607 315.339 169.738 309.536 174.673C303.732 179.607 296.143 182 286.768 182ZM382.899 159.869L389 175.121C382.601 179.607 374.714 181.85 365.637 181.85C347.333 181.85 337.958 170.935 337.958 150.15V115.159H324.565V98.7103H338.256V70H357.452V98.7103H384.536V115.159H357.452V149.402C357.452 159.122 361.321 164.056 369.208 164.056C373.673 164.056 378.286 162.71 382.899 159.869Z" fill="#FFE300"/>
<path fill-rule="evenodd" clip-rule="evenodd" d="M16.4481 129.207C13.9433 145.348 13.9711 163.201 16.5262 179.287C31.8966 182.844 102.643 179.923 169.481 233.21C141.956 165.906 53.7301 127.984 16.4481 129.207V129.207Z" fill="#FFE300" stroke="#333D47" stroke-width="2" stroke-linejoin="round"/>
<path fill-rule="evenodd" clip-rule="evenodd" d="M39.5679 35.3546C35.9163 51.443 34.6734 69.4313 36.0815 85.8134C51.1868 90.4575 154.493 103.432 184.489 149.839C168.965 81.0323 76.9076 36.697 39.5679 35.3546Z" fill="#FFE300" stroke="#333D47" stroke-width="2" stroke-linejoin="round"/>
<path fill-rule="evenodd" clip-rule="evenodd" d="M180.45 143.787C168.005 128.202 150.744 117.312 128.666 111.118C103.218 108.264 83.7471 107.948 70.2529 110.171C56.7587 112.393 39.0055 118.517 16.9932 128.542C37.5809 132.094 53.7213 135.869 65.4144 139.868C79.2988 137.639 104.227 132.43 123.658 132.926C143.089 133.422 164.375 136.997 180.45 143.787V143.787Z" fill="#FFFFBD" stroke="#333D47" stroke-width="2" stroke-linejoin="round"/>
<path fill-rule="evenodd" clip-rule="evenodd" d="M162.067 229.616C159.331 225.404 152.158 220.764 144.782 217.02C139.865 214.525 133.644 211.813 126.118 208.885C131.79 218.936 133.906 225.346 132.467 228.113C130.307 232.264 100.084 240.719 102.557 241.543C105.031 242.366 152.092 239.789 162.067 229.616Z" fill="#FFFFBD" stroke="#333D47" stroke-width="2" stroke-linejoin="round"/>
<path fill-rule="evenodd" clip-rule="evenodd" d="M39.6528 34.6962C42.9555 30.7007 51.5839 24.0697 59.5951 20.7874C67.6063 17.5051 76.3109 16.0541 81.6268 16.6022C75.4106 21.2322 68.1649 26.0518 69.7414 30.337C70.7924 33.1938 79.71 40.6124 96.4943 52.5929C70.1418 41.5271 51.1946 35.5615 39.6528 34.6962V34.6962Z" fill="#FFFFBD" stroke="#333D47" stroke-width="2" stroke-linejoin="round"/>
</svg>
