<?xml version="1.0" encoding="utf-8"?>
<!-- Generator: Adobe Illustrator 19.1.0, SVG Export Plug-In . SVG Version: 6.00 Build 0)  -->
<svg version="1.1" id="Layer_1" xmlns="http://www.w3.org/2000/svg" xmlns:xlink="http://www.w3.org/1999/xlink" x="0px" y="0px"
	 viewBox="0 0 32 32" style="enable-background:new 0 0 32 32;" xml:space="preserve">
<g>
	<path d="M31.2,13h-4.8V7.6c0-0.4-0.3-0.7-0.7-0.7h-1.4c-0.4,0-0.7,0.3-0.7,0.7V13h-4.7c-0.4,0-0.7,0.3-0.7,0.7v1.5
		c0,0.4,0.3,0.7,0.7,0.7h4.8v5.4c0,0.4,0.3,0.7,0.7,0.7h1.4c0.4,0,0.7-0.3,0.7-0.7V16h4.8c0.4,0,0.7-0.3,0.7-0.7v-1.5
		C31.9,13.3,31.6,13,31.2,13z"/>
	<path d="M15.1,17.7c-1-0.8-1.9-2-2-2.4c0-0.6,0.1-0.9,1.4-2.2c1.7-1.4,2.7-3.4,2.7-5.5c0-1.9-0.5-3.5-1.4-4.7h0.7
		c0.1,0,0.3,0,0.4-0.1l1.9-1.5c0.2-0.1,0.3-0.4,0.2-0.7C18.8,0.2,18.6,0,18.3,0H9.9C9,0,8,0.2,7.1,0.5C4,1.8,1.8,4.6,1.8,7.6
		c0,4.2,3,7.5,6.9,7.6c-0.1,0.3-0.1,0.7-0.1,1c0,0.6,0.1,1.2,0.5,1.9H9c-3.8,0-7.2,2.1-8.5,5.2C0.2,24.1,0,24.9,0,25.7
		s0.2,1.5,0.5,2.3c0.8,1.7,2.6,2.9,4.9,3.5C6.6,31.8,7.9,32,9.3,32c1.2,0,2.4-0.2,3.5-0.5c3.4-1.1,5.5-3.8,5.5-7
		C18.3,21.4,17.4,19.6,15.1,17.7z M4.4,24.7c0-2.3,2.5-4.1,5.4-4.1h0.1c0.6,0,1.2,0.1,1.8,0.3c0.2,0.1,0.4,0.3,0.6,0.4
		c1.3,1,2.2,1.7,2.5,2.8c0.1,0.3,0.1,0.5,0.1,0.8c0,2.8-1.9,4.1-5.5,4.1C6.6,29,4.4,27.1,4.4,24.7z M7,3.7c0.5-0.6,1-0.8,1.7-0.8
		h0.1c1.9,0.1,3.7,2.4,4,5.2C13,9.6,12.7,11,12,12c-0.5,0.6-1,0.9-1.7,0.9l0,0l0,0c-1.8-0.1-3.7-2.5-4-5.3C6,6,6.3,4.5,7,3.7z"/>
</g>
</svg>
