<svg viewBox="0 0 109 174" fill="none" xmlns="http://www.w3.org/2000/svg"><path d="M104.154 97.872c.7 1.3 1.55 1.43 2.81.66a7.594 7.594 0 002.4-3 7.168 7.168 0 00.79-5.82 3.424 3.424 0 00-3-2.76 3.553 3.553 0 00-3.27 2.23 8.567 8.567 0 00-.88 4.21 7.9 7.9 0 001.15 4.48zM90.465 66.862a6.25 6.25 0 003.59.82 9.15 9.15 0 007.36-3c.57-.58.3-1.26.58-1.88a3.077 3.077 0 00-1.347-4.046 3.082 3.082 0 00-1.513-.354c-4.75-.08-7.9 3.09-9.28 7.06a1.09 1.09 0 00.61 1.4zM100.945 34.58c.35.12.68.33 1 .45 2.84 1 5.64 1.55 8.21-.71a2.555 2.555 0 001.002-2.252 2.552 2.552 0 00-1.372-2.048 5.684 5.684 0 00-3-.83 13.996 13.996 0 00-6.19 2 2.137 2.137 0 00-1.1 2c.03.72.72 1.14 1.45 1.39zM61.684 162.9a12.819 12.819 0 004.88 2.38c1.89.6 4.37-.36 5-1.91a4 4 0 00-1.85-5 9.262 9.262 0 00-4.21-.95c-1.14-.2-2.37.47-3.57 1a2.581 2.581 0 00-1.58 2.75c.04.95.69 1.17 1.33 1.73zM40.014 2c.303-.05.594-.155.86-.31a1.58 1.58 0 00.59-2.5 20.53 20.53 0 00-3.77-4.07 4.56 4.56 0 00-5.15-.67 3 3 0 00-1.39 1.05 2.11 2.11 0 00-.12 2.22 7.37 7.37 0 001.57 2.47c2.1 2.07 4.75 2.03 7.41 1.81zM40.155 64.3c2.15 1.64 4.42 2.83 7.32 2.4a5.26 5.26 0 004.58-3.67 2 2 0 00-.31-2.19 3.82 3.82 0 00-2.7-1.78c-3.15-.55-5.81.95-8.56 1.92a1.93 1.93 0 00-.33 3.32zM63.682 30.989c.057-.764.439-1.528-.467-2.108a2.35 2.35 0 00-1.774-.36 13.683 13.683 0 00-3.055.848 7.06 7.06 0 00-4.922 5.544 2.81 2.81 0 00.955 3.133 3.3 3.3 0 003.514.233 11 11 0 005.75-7.29zM74.284 53.434a2.41 2.41 0 00-1-1.52 14.723 14.723 0 00-2.76-1.56 7.08 7.08 0 00-7.4.44 2.84 2.84 0 00-1.55 2.89 3.31 3.31 0 002.33 2.66 11 11 0 009.16-1.1c.64-.49 1.45-.77 1.22-1.81zM18.274 52.02c-1.59 1.09-1.92 2.91-.65 4.22a8.4 8.4 0 007.83 2.61 2.821 2.821 0 002.5-2 2.78 2.78 0 00-1.06-2.72c-.78-.74-1.67-1.31-2.46-2-1.58-1.47-4.79-1.17-6.16-.11zM20.483 27.808a18.405 18.405 0 00-3.67-3.09c-.72-.492-1.498-.814-2.271-.32a2.47 2.47 0 00-1.116 2.496c.507 1.95.616 4.024 2 5.669.444 1.233 1.539 1.816 2.559 2.52 1.924 1.302 3.917.497 4.337-1.847a6.33 6.33 0 00-1.838-5.428zM98.515 156.004a2.32 2.32 0 00-.08.91 1.583 1.583 0 00.6 1.297 1.587 1.587 0 001.4.283 20.284 20.284 0 005.27-1.75 4.529 4.529 0 002.75-4.4 2.997 2.997 0 00-.41-1.68 2.112 2.112 0 00-2-1 7.48 7.48 0 00-2.9.4c-2.69.94-3.75 3.38-4.63 5.94zM94.005 174.842c-.06.742.022 1.489.24 2.2.66 2 2 3.13 3.53 2.73a3.883 3.883 0 002.7-3.12c.63-2.94-.74-5.41-2.5-7.61-.74-.94-1.62-.78-2.28.26a9 9 0 00-1.69 5.54zM10.595 169.505a5.892 5.892 0 00-1.685-1.435c-1.853-1.001-3.603-.903-4.44.438a3.892 3.892 0 00.178 4.122c1.56 2.57 4.252 3.426 7.042 3.817 1.183.176 1.713-.544 1.48-1.754a8.996 8.996 0 00-2.575-5.188zM85.406 139.182c1.39.34 2.81.51 4.18.74a6.996 6.996 0 004.42-1.74 2.727 2.727 0 00.69-3.82 3.23 3.23 0 00-3.57-1.74c-2.88.38-4.6 2.39-6.33 4.35a1.3 1.3 0 00.61 2.21zM52.987 93.372c-1.39-.34-2.81-.51-4.18-.74a7 7 0 00-4.42 1.74 2.729 2.729 0 00-.69 3.82 3.23 3.23 0 003.57 1.74c2.88-.38 4.6-2.39 6.33-4.35a1.3 1.3 0 00-.61-2.21zM76.545 82.703c.34-1.39.51-2.81.74-4.18a7 7 0 00-1.74-4.42 2.73 2.73 0 00-3.82-.69 3.23 3.23 0 00-1.74 3.57c.38 2.88 2.39 4.6 4.35 6.33a1.3 1.3 0 002.21-.61zM41.79 179.004c.77-.07 1.59.15 2-.83a2.41 2.41 0 00.07-1.79 14.19 14.19 0 00-1.39-2.85 7.072 7.072 0 00-6.34-3.83 2.825 2.825 0 00-2.92 1.5 3.349 3.349 0 00.41 3.51 11.003 11.003 0 008.17 4.29zM12.744 128.792c.296.84.714 1.632 1.24 2.35 1.06 1.42 3.18 1.35 3.73-.26.6-1.79 1.59-3.51 1.47-5.65a4.32 4.32 0 00-.51-2.45c-.53-1.29-1.27-2.47-2.84-2.67a3.764 3.764 0 00-3.81 1.73 4.658 4.658 0 00-.34 3.57c.24 1.16.595 2.292 1.06 3.38zM30.338 142.001c.17 1.78.9 2.7 2.66 3a4.326 4.326 0 004.1-2.52 6.813 6.813 0 00.88-3.93 28.744 28.744 0 00-.15-2.89c-.33-2.6-1.7-2.42-3.24-1.53-3.04 1.74-4.61 4.27-4.25 7.87zM60.915 138.002a3.906 3.906 0 003.61-2c1.6-2.54 1.17-5.34.28-8-.37-1.14-1.25-1.29-2.23-.54a9.058 9.058 0 00-3.5 4.62c-.307.675-.49 1.4-.54 2.14-.07 2.14.82 3.67 2.38 3.78zM20.655 96.542c2.57-.94 3.75-3 4.45-5.38.7-2.38-.31-3.29-2.72-2.89-1.76.29-3.41.77-4.39 2.14l-1 1c-1 1.07-1.36 3.16-.64 4.16a3.56 3.56 0 004.3.97zM72.225 107.743c2.31 1.77 4.94 1.56 7.56 1.4a1.296 1.296 0 001.159-.664 1.301 1.301 0 00-.04-1.336c-.74-1.21-1.62-2.34-2.43-3.48a7.064 7.064 0 00-4.36-1.89 2.738 2.738 0 00-3.19 2.21 3.24 3.24 0 001.3 3.76zM72.155-1.638a1.1 1.1 0 00-1.38.61 6.38 6.38 0 00-.82 3.58 9.191 9.191 0 003 7.37c.59.57 1.27.3 1.88.58a3.08 3.08 0 004.4-2.86c.05-4.76-3.08-7.9-7.08-9.28zM92.346-3.918a11.2 11.2 0 00-3.31.61 9.18 9.18 0 00-5.27 4.3c-.64 1-.44 1.52.58 2a6.08 6.08 0 003.2.68c2.77.14 4.84-1.13 6.66-3a2.7 2.7 0 00.67-3 2.62 2.62 0 00-2.53-1.59z" fill="#333D47"/></svg>