<svg viewBox="0 0 959 56" fill="none" xmlns="http://www.w3.org/2000/svg"><path d="M34.926 49.527a12.926 12.926 0 00-2.38 4.906c-.6 1.9.36 4.393 1.91 5.027a3.98 3.98 0 002.853.03 4.006 4.006 0 002.147-1.89 9.35 9.35 0 00.95-4.233c.2-1.145-.47-2.382-1-3.588a2.59 2.59 0 00-1.104-1.27 2.568 2.568 0 00-1.646-.319c-.95.04-1.17.694-1.73 1.337zM193.826 33.743c.05.305.156.597.31.864a1.583 1.583 0 001.841.938c.244-.06.47-.178.659-.344a20.575 20.575 0 004.07-3.79 4.6 4.6 0 00.67-5.177 3.014 3.014 0 00-1.05-1.398 2.102 2.102 0 00-2.22-.12c-.92.354-1.76.891-2.47 1.578-2.07 2.111-2.03 4.775-1.81 7.449zM131.526 33.884c-1.64 2.161-2.83 4.443-2.4 7.358a5.298 5.298 0 001.137 2.865 5.254 5.254 0 002.533 1.74 1.99 1.99 0 002.19-.312 3.837 3.837 0 001.78-2.714c.55-3.167-.95-5.841-1.92-8.606a1.925 1.925 0 00-3.32-.332zM166.839 51.505c.764.056 1.528.44 2.108-.47a2.38 2.38 0 00.36-1.784 13.796 13.796 0 00-.848-3.07 7.101 7.101 0 00-2.074-3.265 7.048 7.048 0 00-3.47-1.683 2.797 2.797 0 00-3.132.96 3.325 3.325 0 00-.234 3.532 11.055 11.055 0 003.009 3.701 10.977 10.977 0 004.281 2.079zM143.81 11.889c-1.09-1.599-2.91-1.93-4.22-.654a8.448 8.448 0 00-2.333 3.591 8.497 8.497 0 00-.277 4.28c.041.574.254 1.121.611 1.57a2.82 2.82 0 001.389.944 2.769 2.769 0 002.72-1.066c.74-.784 1.31-1.679 2-2.473 1.47-1.588 1.17-4.815.11-6.192zM168.018 14.109a18.495 18.495 0 003.091-3.69c.491-.724.813-1.506.319-2.283a2.476 2.476 0 00-1.08-.94 2.457 2.457 0 00-1.416-.182c-1.951.51-4.024.62-5.669 2.011-1.233.446-1.816 1.547-2.52 2.572-1.301 1.935-.496 3.938 1.848 4.36.985.143 1.99.05 2.933-.271a6.324 6.324 0 002.494-1.577zM102.456 46.783c.34-1.397.51-2.825.74-4.202a7.054 7.054 0 00-1.74-4.443 2.733 2.733 0 00-1.766-1.148 2.715 2.715 0 00-2.054.454 3.239 3.239 0 00-1.483 1.494 3.262 3.262 0 00-.257 2.095c.38 2.895 2.39 4.624 4.35 6.364a1.298 1.298 0 002.21-.614zM7.915 3.142a9.397 9.397 0 001.67 6.826 5.495 5.495 0 001.81 1.864 5.46 5.46 0 002.46.82c2.67.06 4-2.503 3.86-4.815a5.72 5.72 0 00-2-3.78 20.997 20.997 0 00-4.89-3.348c-.53-.281-1.23-.643-1.71 0a4.956 4.956 0 00-1.2 2.433zM16.826 35.529c.07.774-.15 1.598.83 2.01a2.398 2.398 0 001.79.07 14.16 14.16 0 002.85-1.397 7.086 7.086 0 002.812-2.642 7.137 7.137 0 001.018-3.731 2.858 2.858 0 00-.283-1.709 2.838 2.838 0 00-1.217-1.226 3.336 3.336 0 00-3.51.412 11.044 11.044 0 00-3.043 3.632 11.103 11.103 0 00-1.247 4.58zM67.036 6.329a9.083 9.083 0 00-2.35 1.246c-1.42 1.066-1.35 3.197.26 3.75 1.79.603 3.51 1.599 5.65 1.478a4.302 4.302 0 002.45-.513c1.29-.533 2.47-1.276 2.67-2.855a3.798 3.798 0 00-.286-2.18 3.773 3.773 0 00-1.444-1.65 4.642 4.642 0 00-3.57-.342c-1.159.24-2.291.598-3.38 1.066zM53.83 24.016c-1.78.17-2.7.905-3 2.674a4.36 4.36 0 00.636 2.446 4.327 4.327 0 001.884 1.676 6.78 6.78 0 003.93.884c.965-.001 1.93-.052 2.89-.15 2.6-.332 2.42-1.71 1.53-3.258-1.74-3.056-4.27-4.634-7.87-4.272zM65.826 53.753c-.036.733.132 1.46.485 2.102a3.92 3.92 0 001.515 1.528c2.54 1.608 5.34 1.176 8 .281 1.14-.372 1.29-1.257.54-2.242a9.065 9.065 0 00-4.62-3.518 6.163 6.163 0 00-2.14-.543c-2.14-.07-3.67.824-3.78 2.392zM99.286 14.281c.94 2.584 3 3.77 5.38 4.474 2.38.703 3.29-.312 2.89-2.735-.29-1.77-.77-3.428-2.14-4.413l-1-1.005c-1.07-1.006-3.16-1.367-4.16-.644a3.597 3.597 0 00-.97 4.323zM246.916 48.612a3.643 3.643 0 002.08-1.8 4.033 4.033 0 00-.57-4.443 13.034 13.034 0 00-8.94-4.404 1.416 1.416 0 00-1.469.91 1.44 1.44 0 00-.091.609 13.551 13.551 0 003.45 7.62c1.52 1.518 3.29 2.362 5.54 1.508zM222.356 49.275c-.74-4.715-4.42-7.279-8.57-7.942a1.092 1.092 0 00-1.24.834 6.378 6.378 0 00-.19 3.7 9.237 9.237 0 001.338 3.865 9.182 9.182 0 002.872 2.9c.68.463 1.3.08 1.95.252a3.073 3.073 0 002.921-.729 3.117 3.117 0 00.919-2.88zM223.516 13.95a3.828 3.828 0 002.74-1.74c1.8-2.654 1.55-5.7 1.81-8.625a1.943 1.943 0 00-.96-1.683 1.921 1.921 0 00-1.93-.006c-2.38 1.287-4.41 2.865-5.22 5.7a5.31 5.31 0 001.43 5.72 2.07 2.07 0 002.13.633zM402.526 36.905c-1.64 2.161-2.83 4.443-2.4 7.358a5.298 5.298 0 001.137 2.865 5.254 5.254 0 002.533 1.74 1.988 1.988 0 002.19-.312 3.836 3.836 0 001.78-2.714c.55-3.167-.95-5.841-1.92-8.606a1.924 1.924 0 00-3.32-.332zM655.489 3.803c-1.64 2.162-2.83 4.444-2.4 7.359a5.305 5.305 0 001.136 2.864 5.262 5.262 0 002.534 1.74 1.99 1.99 0 002.19-.312 3.859 3.859 0 001.78-2.714c.55-3.166-.95-5.84-1.92-8.605a1.925 1.925 0 00-3.32-.332zM435.839 54.526c.764.056 1.528.44 2.108-.47a2.38 2.38 0 00.36-1.784 13.796 13.796 0 00-.848-3.07 7.101 7.101 0 00-2.074-3.265 7.048 7.048 0 00-3.47-1.683 2.797 2.797 0 00-3.132.96 3.325 3.325 0 00-.234 3.532 11.055 11.055 0 003.009 3.701 10.977 10.977 0 004.281 2.079zM414.81 14.91c-1.09-1.599-2.91-1.93-4.22-.654a8.448 8.448 0 00-2.333 3.591 8.497 8.497 0 00-.277 4.28c.041.574.254 1.121.611 1.57a2.82 2.82 0 001.389.944 2.77 2.77 0 002.72-1.066c.74-.784 1.31-1.679 2-2.473 1.47-1.588 1.17-4.815.11-6.193zM445.018 11.098a18.494 18.494 0 003.091-3.69c.491-.724.813-1.506.319-2.283a2.476 2.476 0 00-1.08-.94 2.457 2.457 0 00-1.416-.182c-1.951.51-4.024.62-5.669 2.012-1.233.445-1.816 1.546-2.52 2.571-1.301 1.935-.496 3.938 1.848 4.36.985.143 1.99.05 2.933-.27a6.324 6.324 0 002.494-1.578zM297.321 7.19a5.9 5.9 0 001.435-1.694c1.002-1.863.903-3.622-.438-4.465a3.87 3.87 0 00-4.122.18c-2.57 1.568-3.426 4.274-3.817 7.079-.176 1.19.545 1.723 1.754 1.487a8.979 8.979 0 005.188-2.588zM373.456 49.804c.34-1.397.51-2.825.74-4.202a7.054 7.054 0 00-1.74-4.443 2.733 2.733 0 00-1.766-1.148 2.714 2.714 0 00-2.054.454 3.238 3.238 0 00-1.483 1.494 3.264 3.264 0 00-.257 2.095c.38 2.895 2.39 4.624 4.35 6.363a1.298 1.298 0 002.21-.613zM452.414 37.59c1.034.995 2.178 1.856 3.25 2.745a6.968 6.968 0 004.698.707 2.722 2.722 0 001.872-.963 2.75 2.75 0 00.635-2.016 3.258 3.258 0 00-.545-2.038 3.228 3.228 0 00-1.676-1.27c-2.685-1.118-5.179-.232-7.657.604a1.3 1.3 0 00-.954.942 1.318 1.318 0 00.377 1.29zM254.916 6.163a9.404 9.404 0 001.67 6.826 5.503 5.503 0 001.811 1.864 5.46 5.46 0 002.459.82c2.67.06 4-2.503 3.86-4.815a5.712 5.712 0 00-2-3.78 20.98 20.98 0 00-4.89-3.348c-.53-.281-1.23-.643-1.71 0a4.97 4.97 0 00-1.2 2.433zM287.826 38.55c.07.774-.15 1.598.83 2.01a2.399 2.399 0 001.79.07 14.154 14.154 0 002.85-1.396 7.087 7.087 0 002.812-2.642 7.131 7.131 0 001.018-3.732 2.853 2.853 0 00-1.5-2.935 3.333 3.333 0 00-3.51.412 11.048 11.048 0 00-3.043 3.632 11.103 11.103 0 00-1.247 4.581zM774 13.945c.07.774-.15 1.598.83 2.01a2.398 2.398 0 001.79.07 14.149 14.149 0 002.85-1.396 7.086 7.086 0 002.812-2.643 7.14 7.14 0 001.018-3.73 2.86 2.86 0 00-.283-1.71A2.837 2.837 0 00781.8 5.32a3.333 3.333 0 00-3.51.412 11.048 11.048 0 00-3.043 3.632A11.103 11.103 0 00774 13.945zM338.036 9.35a9.105 9.105 0 00-2.35 1.247c-1.42 1.065-1.35 3.196.26 3.75 1.79.602 3.51 1.598 5.65 1.477a4.3 4.3 0 002.45-.513c1.29-.533 2.47-1.276 2.67-2.855a3.794 3.794 0 00-1.73-3.83 4.64 4.64 0 00-3.57-.342c-1.159.24-2.291.598-3.38 1.066zM324.83 27.037c-1.78.17-2.7.905-3 2.674-.034.86.187 1.712.636 2.446a4.326 4.326 0 001.884 1.676 6.78 6.78 0 003.93.884 28.628 28.628 0 002.89-.15c2.6-.332 2.42-1.71 1.53-3.258-1.74-3.056-4.27-4.634-7.87-4.272zM370.286 17.302c.94 2.584 3 3.77 5.38 4.474 2.38.703 3.29-.312 2.89-2.735-.29-1.769-.77-3.428-2.14-4.413l-1-1.005c-1.07-1.005-3.16-1.367-4.16-.643a3.581 3.581 0 00-1.23 1.992 3.6 3.6 0 00.26 2.33zM517.916 51.633a3.642 3.642 0 002.08-1.8 4.034 4.034 0 00-.57-4.443 13.034 13.034 0 00-8.94-4.404 1.416 1.416 0 00-1.469.91 1.44 1.44 0 00-.091.609 13.552 13.552 0 003.45 7.62c1.52 1.518 3.29 2.362 5.54 1.508zM493.356 52.295c-.74-4.714-4.42-7.278-8.57-7.941a1.092 1.092 0 00-1.24.834 6.377 6.377 0 00-.19 3.7 9.238 9.238 0 001.338 3.865 9.183 9.183 0 002.872 2.9c.68.463 1.3.08 1.95.252a3.072 3.072 0 002.921-.729 3.116 3.116 0 00.919-2.88zM487.516 12.928a3.828 3.828 0 002.74-1.74c1.8-2.653 1.55-5.7 1.81-8.625a1.944 1.944 0 00-.96-1.683 1.921 1.921 0 00-1.93-.005c-2.38 1.286-4.41 2.865-5.22 5.7a5.31 5.31 0 001.43 5.72 2.061 2.061 0 002.13.633zM722.566 7.068c.36-.92.37-1.94.029-2.868a4.013 4.013 0 00-1.879-2.158 9.223 9.223 0 00-4.21-1.006c-1.14-.2-2.37.473-3.57 1.006a2.58 2.58 0 00-1.58 2.754c.06 1.005.71 1.217 1.35 1.78a12.49 12.49 0 004.86 2.412c1.91.603 4.39-.352 5-1.92zM707.437 28.01c1.3-.704 1.43-1.559.66-2.826a7.602 7.602 0 00-3-2.412 7.129 7.129 0 00-5.82-.794 3.412 3.412 0 00-1.876 1.049 3.446 3.446 0 00-.884 1.966 3.575 3.575 0 002.23 3.288 8.529 8.529 0 004.21.885 7.87 7.87 0 004.48-1.157zM676.426 41.771a6.31 6.31 0 00.82-3.609 9.21 9.21 0 00-3-7.399c-.58-.573-1.26-.301-1.88-.583a3.066 3.066 0 00-3 .201 3.104 3.104 0 00-1.4 2.674c-.08 4.776 3.09 7.942 7.06 9.33a1.086 1.086 0 001.4-.614zM632.146 29.236c.12-.352.33-.684.45-1.006 1-2.855 1.55-5.67-.71-8.253a2.55 2.55 0 00-2.253-1.008 2.54 2.54 0 00-2.047 1.38 5.73 5.73 0 00-.83 3.016 14.113 14.113 0 002 6.222 2.141 2.141 0 002 1.106c.72-.03 1.14-.724 1.39-1.457zM765.566 33.679c.295.087.605.114.91.08a1.57 1.57 0 001.297-.602 1.589 1.589 0 00.283-1.408 20.471 20.471 0 00-1.75-5.298 4.544 4.544 0 00-1.767-2.078 4.513 4.513 0 00-2.633-.687 2.99 2.99 0 00-1.68.413 2.133 2.133 0 00-1 2.01c-.058.989.078 1.98.4 2.915.94 2.705 3.38 3.77 5.94 4.655zM784.406 38.213a5.871 5.871 0 002.2-.242c2-.663 3.13-2.01 2.73-3.548a3.913 3.913 0 00-1.172-1.807 3.884 3.884 0 00-1.948-.907c-2.94-.634-5.41.743-7.61 2.513-.94.744-.78 1.628.26 2.292a8.968 8.968 0 005.54 1.699zM748.746 46.858c.34-1.398.51-2.825.74-4.202a7.054 7.054 0 00-1.74-4.444 2.733 2.733 0 00-1.766-1.148 2.716 2.716 0 00-2.054.455 3.238 3.238 0 00-1.483 1.493 3.264 3.264 0 00-.257 2.095c.38 2.896 2.39 4.625 4.35 6.364a1.303 1.303 0 001.288.359 1.296 1.296 0 00.922-.972zM787.786 52.256c.51 0 1-.13 1.53-.12a6.83 6.83 0 004.18-1.006c1.47-1.005 2.85-1.94 2.85-3.72a2.246 2.246 0 00-.32-1.497c-1.24-1.669-2.39-2.01-4.41-1.498-2.87.694-4.11 3.157-5.76 5.167-.62.764 0 1.679.42 2.403.29.573.97.322 1.51.271zM556.906 19.042c-.09 4.775 3.09 7.941 7.06 9.329a1.094 1.094 0 001.37-.613 6.303 6.303 0 00.82-3.61 9.202 9.202 0 00-3-7.398c-.58-.573-1.26-.302-1.88-.583a3.065 3.065 0 00-2.977.22 3.095 3.095 0 00-1.393 2.655zM548.696 35.288a7.102 7.102 0 00-2.812 2.648 7.155 7.155 0 00-1.018 3.735 2.861 2.861 0 001.51 2.925 3.313 3.313 0 003.5-.412 11.036 11.036 0 003.048-3.63 11.097 11.097 0 001.252-4.583c-.07-.774.15-1.598-.83-2.01a2.399 2.399 0 00-1.79-.07 14.224 14.224 0 00-2.86 1.397zM540.416 10.185c-1-2.754-3.44-3.82-6-4.705a2.308 2.308 0 00-.91-.08 1.56 1.56 0 00-1.295.603 1.588 1.588 0 00-.275 1.408 20.389 20.389 0 001.74 5.288 4.584 4.584 0 001.769 2.078 4.54 4.54 0 002.631.696 3.047 3.047 0 001.68-.422 2.11 2.11 0 001-2.01 7.386 7.386 0 00-.34-2.856zM575.076 38.132c-.5-1.266-1-1.407-2.25-1.005-2.12.694-4.19 3.97-4.2 6.675v.825a2.883 2.883 0 00.523 1.761c.361.514.88.895 1.477 1.084a3.054 3.054 0 003.35-.453 7.732 7.732 0 001.7-2.644c.89-2.211.2-4.232-.6-6.243zM588.626 4.274a5.861 5.861 0 00-.3 3.157 14.18 14.18 0 003 5.78 2.15 2.15 0 002.14.734c.74-.16 1-.925 1.15-1.689.06-.372.2-.723.26-1.106.5-3.015.55-5.84-2.12-8.042a2.547 2.547 0 00-3.47.089 2.57 2.57 0 00-.66 1.077zM605.646 39.88c.035 1.135.241 2.256.61 3.328a9.22 9.22 0 004.3 5.298c1 .644 1.52.443 2-.583.515-.99.75-2.102.68-3.217.14-2.784-1.13-4.865-3-6.695a2.688 2.688 0 00-3-.673c-.491.21-.907.566-1.191 1.021a2.65 2.65 0 00-.399 1.522z" fill="#333D47"/><mask id="a" maskUnits="userSpaceOnUse" x="801" y="-1" width="168" height="80"><path transform="rotate(-90 801 79)" fill="#F4F7FA" d="M801 79h80v168h-80z"/></mask><g mask="url(#a)" fill="#333D47"><path d="M833.925 31.684a13.011 13.011 0 00-2.298 4.88c-.58 1.89.347 4.37 1.844 5 .883.36 1.864.37 2.754.03a3.905 3.905 0 002.073-1.88 9.54 9.54 0 00.918-4.21c.193-1.14-.454-2.37-.966-3.57a2.556 2.556 0 00-1.065-1.263 2.42 2.42 0 00-1.59-.317c-.917.04-1.13.69-1.67 1.33zM929.124 10.155c-1.583 2.15-2.732 4.42-2.317 7.32a5.373 5.373 0 001.098 2.85 5.074 5.074 0 002.446 1.73c.342.17.726.23 1.102.175a1.903 1.903 0 001.012-.485 3.75 3.75 0 001.149-1.152c.297-.467.491-.995.57-1.548.531-3.15-.918-5.81-1.854-8.56a1.915 1.915 0 00-.611-.769 1.805 1.805 0 00-1.849-.19 1.876 1.876 0 00-.746.629zM961.287 33.682c.737.057 1.474.438 2.034-.467a2.412 2.412 0 00.348-1.775 13.983 13.983 0 00-.819-3.054 7.095 7.095 0 00-2.002-3.247 6.726 6.726 0 00-3.35-1.675 2.626 2.626 0 00-1.661-.026 2.718 2.718 0 00-1.364.981 3.394 3.394 0 00-.225 3.514 10.933 10.933 0 002.905 3.682 10.473 10.473 0 004.134 2.067zM939.616 44.284a2.323 2.323 0 001.468-1 14.805 14.805 0 001.506-2.76 7.284 7.284 0 00.798-3.762 7.238 7.238 0 00-1.223-3.638 2.793 2.793 0 00-1.157-1.234 2.662 2.662 0 00-1.633-.316 3.152 3.152 0 00-1.61.78c-.454.413-.787.95-.958 1.55a11.361 11.361 0 00-.441 4.701 11.251 11.251 0 001.503 4.46c.473.64.743 1.45 1.747 1.22zM901.055 22.986c.328-1.39.492-2.81.715-4.18a7.145 7.145 0 00-1.68-4.42 2.692 2.692 0 00-.743-.748 2.578 2.578 0 00-.963-.394 2.544 2.544 0 00-1.035.02c-.34.078-.663.225-.948.432a3.174 3.174 0 00-1.432 1.486 3.336 3.336 0 00-.248 2.084c.367 2.88 2.308 4.6 4.2 6.33.157.17.355.294.574.357.219.063.451.063.67 0 .219-.063.417-.186.574-.356.157-.17.266-.382.316-.611zM911.356 46.545c1.342.34 2.713.51 4.036.74a6.632 6.632 0 004.268-1.74 2.69 2.69 0 00.722-.768 2.795 2.795 0 00.361-2.07 2.787 2.787 0 00-.417-.982 3.172 3.172 0 00-1.435-1.483 3.021 3.021 0 00-2.012-.257c-2.781.38-4.441 2.39-6.112 4.35a1.336 1.336 0 00-.001 1.883c.165.162.369.275.59.327zM818.376 11.79c.068.77-.145 1.59.801 2a2.255 2.255 0 001.729.07 13.513 13.513 0 002.751-1.39 6.926 6.926 0 002.715-2.628 7.26 7.26 0 00.983-3.711 2.92 2.92 0 00-.273-1.7c-.26-.523-.67-.95-1.175-1.22a3.136 3.136 0 00-3.389.41 10.917 10.917 0 00-2.938 3.613 11.308 11.308 0 00-1.204 4.557zM854.103.338c-1.719.17-2.607.9-2.897 2.66a4.44 4.44 0 00.615 2.434 4.221 4.221 0 001.818 1.666 6.393 6.393 0 003.795.88 26.812 26.812 0 002.79-.15c2.511-.33 2.337-1.7 1.478-3.24-1.68-3.04-4.123-4.61-7.599-4.25zM819.129 50.035c-.493 0-.966.13-1.477.12a6.443 6.443 0 00-4.036 1c-1.42 1-2.752 1.93-2.752 3.7-.069.518.04 1.046.309 1.49 1.197 1.66 2.308 2 4.258 1.49 2.771-.69 3.968-3.14 5.561-5.14.599-.76 0-1.67-.405-2.39-.28-.57-.937-.32-1.458-.27zM857.964 30.914a4.019 4.019 0 00.468 2.09 3.844 3.844 0 001.463 1.52c2.452 1.6 5.156 1.17 7.724.28 1.101-.37 1.245-1.25.521-2.23a8.787 8.787 0 00-4.46-3.5 5.814 5.814 0 00-2.067-.54c-2.066-.07-3.543.82-3.649 2.38zM887.179 42.225c-1.708 2.31-1.506 4.94-1.351 7.56a1.33 1.33 0 00.166.671c.113.204.277.373.475.488a1.222 1.222 0 001.29-.04c1.168-.74 2.259-1.62 3.36-2.43a7.19 7.19 0 001.825-4.36 2.837 2.837 0 00-.428-2.053 2.684 2.684 0 00-.744-.744 2.596 2.596 0 00-.962-.392 3.028 3.028 0 00-2.031.005 3.153 3.153 0 00-1.6 1.295z"/></g></svg>